<svg version="1.1" viewBox="0.0 0.0 600.0 371.0" fill="none" stroke="none" stroke-linecap="square" stroke-miterlimit="10" width="600" height="371" xmlns:xlink="http://www.w3.org/1999/xlink" xmlns="http://www.w3.org/2000/svg"><path fill="#ffffff" d="M0 0L600.0 0L600.0 371.0L0 371.0L0 0Z" fill-rule="nonzero"/><path fill="#ffffff" d="M0 0L600.0 0L600.0 371.0L0 371.0L0 0Z" fill-rule="nonzero"/><path fill="#ffffff" d="M18.55 54.916668L419.61444 54.916668L419.61444 352.44998L18.55 352.44998L18.55 54.916668Z" fill-rule="nonzero"/><path stroke="#cccccc" stroke-width="1.0" stroke-linecap="butt" d="M219.0 204.0C219.0 204.0 219.0 204.0 219.0 204.0C219.0 204.0 219.0 204.0 219.0 204.0C219.0 204.0 219.0 204.0 219.0 204.0C219.0 204.0 219.0 204.0 219.0 204.0" fill-rule="nonzero"/><path fill="#000000" d="M216.0625 197.35938Q216.0625 199.26562 215.40625 200.20312Q214.76562 201.125 213.375 201.125Q212.01562 201.125 211.35938 200.21875Q210.70312 199.3125 210.67188 197.5L210.67188 196.0625Q210.67188 194.17188 211.3125 193.26562Q211.96875 192.34375 213.35938 192.34375Q214.73438 192.34375 215.39062 193.23438Q216.04688 194.10938 216.0625 195.95312L216.0625 197.35938ZM214.96875 195.875Q214.96875 194.5 214.57812 193.875Q214.20312 193.23438 213.35938 193.23438Q212.53125 193.23438 212.14062 193.875Q211.76562 194.5 211.76562 195.79688L211.76562 197.53125Q211.76562 198.90625 212.15625 199.57812Q212.5625 200.23438 213.375 200.23438Q214.17188 200.23438 214.5625 199.60938Q214.95312 198.98438 214.96875 197.65625L214.96875 195.875Z" fill-rule="nonzero"/><path stroke="#cccccc" stroke-width="1.0" stroke-linecap="butt" d="M257.9222 204.0C257.9222 182.50385 240.49615 165.07777 219.0 165.07777C197.50385 165.07777 180.07777 182.50385 180.07777 204.0C180.07777 225.49615 197.50385 242.92223 219.0 242.92223C240.49615 242.92223 257.9222 225.49615 257.9222 204.0" fill-rule="nonzero"/><path fill="#000000" d="M211.20312 157.79652L211.64062 153.54652L216.01562 153.54652L216.01562 154.54652L212.5625 154.54652L212.29688 156.87465Q212.9375 156.49965 213.73438 156.49965Q214.89062 156.49965 215.57812 157.2809Q216.26562 158.04652 216.26562 159.35902Q216.26562 160.67152 215.54688 161.43715Q214.84375 162.20277 213.5625 162.20277Q212.4375 162.20277 211.71875 161.57777Q211.0 160.93715 210.90625 159.82777L211.92188 159.82777Q212.03125 160.56215 212.45312 160.93715Q212.875 161.31215 213.5625 161.31215Q214.3125 161.31215 214.75 160.79652Q215.1875 160.2809 215.1875 159.37465Q215.1875 158.51527 214.71875 157.99965Q214.25 157.48402 213.46875 157.48402Q212.76562 157.48402 212.35938 157.7809L212.07812 158.01527L211.20312 157.79652Z" fill-rule="nonzero"/><path stroke="#cccccc" stroke-width="1.0" stroke-linecap="butt" d="M296.84445 204.0C296.84445 161.0077 261.9923 126.155556 219.0 126.155556C176.0077 126.155556 141.15555 161.0077 141.15555 204.0C141.15555 246.9923 176.0077 281.84445 219.0 281.84445C261.9923 281.84445 296.84445 246.9923 296.84445 204.0" fill-rule="nonzero"/><path fill="#000000" d="M207.26562 123.155556L206.1875 123.155556L206.1875 115.936806L204.0 116.73368L204.0 115.749306L207.10938 114.57743L207.26562 114.57743L207.26562 123.155556ZM216.0625 119.51493Q216.0625 121.42118 215.40625 122.35868Q214.76562 123.280556 213.375 123.280556Q212.01562 123.280556 211.35938 122.374306Q210.70312 121.468056 210.67188 119.655556L210.67188 118.218056Q210.67188 116.32743 211.3125 115.42118Q211.96875 114.499306 213.35938 114.499306Q214.73438 114.499306 215.39062 115.38993Q216.04688 116.26493 216.0625 118.10868L216.0625 119.51493ZM214.96875 118.030556Q214.96875 116.655556 214.57812 116.030556Q214.20312 115.38993 213.35938 115.38993Q212.53125 115.38993 212.14062 116.030556Q211.76562 116.655556 211.76562 117.95243L211.76562 119.686806Q211.76562 121.061806 212.15625 121.73368Q212.5625 122.38993 213.375 122.38993Q214.17188 122.38993 214.5625 121.76493Q214.95312 121.13993 214.96875 119.811806L214.96875 118.030556Z" fill-rule="nonzero"/><path stroke="#cccccc" stroke-width="1.0" stroke-linecap="butt" d="M335.76666 204.0C335.76666 139.51155 283.48846 87.23333 219.0 87.23333C154.51155 87.23333 102.23333 139.51155 102.23333 204.0C102.23333 268.48846 154.51155 320.76666 219.0 320.76666C283.48846 320.76666 335.76666 268.48846 335.76666 204.0" fill-rule="nonzero"/><path fill="#000000" d="M207.26562 84.23333L206.1875 84.23333L206.1875 77.01458L204.0 77.811455L204.0 76.82708L207.10938 75.655205L207.26562 75.655205L207.26562 84.23333ZM211.20312 79.95208L211.64062 75.70208L216.01562 75.70208L216.01562 76.70208L212.5625 76.70208L212.29688 79.030205Q212.9375 78.655205 213.73438 78.655205Q214.89062 78.655205 215.57812 79.436455Q216.26562 80.20208 216.26562 81.51458Q216.26562 82.82708 215.54688 83.592705Q214.84375 84.35833 213.5625 84.35833Q212.4375 84.35833 211.71875 83.73333Q211.0 83.092705 210.90625 81.98333L211.92188 81.98333Q212.03125 82.717705 212.45312 83.092705Q212.875 83.467705 213.5625 83.467705Q214.3125 83.467705 214.75 82.95208Q215.1875 82.436455 215.1875 81.530205Q215.1875 80.67083 214.71875 80.155205Q214.25 79.63958 213.46875 79.63958Q212.76562 79.63958 212.35938 79.936455L212.07812 80.17083L211.20312 79.95208Z" fill-rule="nonzero"/><path stroke="#cccccc" stroke-width="1.0" stroke-linecap="butt" d="M219.0 204.0L219.0 87.0" fill-rule="nonzero"/><path fill="#000000" d="M212.70312 65.734375L209.10938 65.734375L209.10938 69.5L207.98438 69.5L207.98438 60.96875L213.28125 60.96875L213.28125 61.890625L209.10938 61.890625L209.10938 64.8125L212.70312 64.8125L212.70312 65.734375ZM221.29688 68.375Q220.85938 69.0 220.07812 69.3125Q219.29688 69.625 218.26562 69.625Q217.23438 69.625 216.42188 69.140625Q215.60938 68.640625 215.17188 67.734375Q214.73438 66.828125 214.71875 65.640625L214.71875 64.90625Q214.71875 62.96875 215.60938 61.90625Q216.51562 60.84375 218.14062 60.84375Q219.48438 60.84375 220.29688 61.53125Q221.10938 62.21875 221.29688 63.46875L220.17188 63.46875Q219.84375 61.78125 218.15625 61.78125Q217.01562 61.78125 216.4375 62.578125Q215.85938 63.359375 215.84375 64.875L215.84375 65.5625Q215.84375 67.0 216.5 67.859375Q217.15625 68.703125 218.28125 68.703125Q218.90625 68.703125 219.375 68.5625Q219.85938 68.421875 220.17188 68.078125L220.17188 66.171875L218.20312 66.171875L218.20312 65.25L221.29688 65.25L221.29688 68.375ZM222.60938 62.609375Q222.60938 61.84375 223.09375 61.34375Q223.59375 60.84375 224.35938 60.84375Q225.14062 60.84375 225.625 61.34375Q226.10938 61.84375 226.10938 62.640625L226.10938 63.0625Q226.10938 63.828125 225.60938 64.328125Q225.125 64.8125 224.375 64.8125Q223.60938 64.8125 223.10938 64.328125Q222.60938 63.828125 222.60938 63.015625L222.60938 62.609375ZM223.42188 63.0625Q223.42188 63.515625 223.67188 63.8125Q223.9375 64.109375 224.375 64.109375Q224.79688 64.109375 225.04688 63.828125Q225.29688 63.53125 225.29688 63.03125L225.29688 62.609375Q225.29688 62.15625 225.04688 61.859375Q224.79688 61.546875 224.35938 61.546875Q223.92188 61.546875 223.67188 61.859375Q223.42188 62.15625 223.42188 62.625L223.42188 63.0625ZM226.76562 67.40625Q226.76562 66.640625 227.25 66.15625Q227.75 65.65625 228.51562 65.65625Q229.28125 65.65625 229.76562 66.15625Q230.26562 66.640625 230.26562 67.453125L230.26562 67.859375Q230.26562 68.625 229.78125 69.125Q229.29688 69.625 228.53125 69.625Q227.76562 69.625 227.26562 69.140625Q226.76562 68.640625 226.76562 67.828125L226.76562 67.40625ZM227.57812 67.859375Q227.57812 68.328125 227.82812 68.625Q228.09375 68.921875 228.53125 68.921875Q228.95312 68.921875 229.20312 68.640625Q229.45312 68.34375 229.45312 67.84375L229.45312 67.40625Q229.45312 66.9375 229.1875 66.65625Q228.9375 66.359375 228.51562 66.359375Q228.09375 66.359375 227.82812 66.65625Q227.57812 66.9375 227.57812 67.4375L227.57812 67.859375ZM224.625 68.859375L224.0 68.46875L228.17188 61.796875L228.78125 62.1875L224.625 68.859375Z" fill-rule="nonzero"/><path stroke="#cccccc" stroke-width="1.0" stroke-linecap="butt" d="M219.0 204.0L294.0 115.0" fill-rule="nonzero"/><path fill="#000000" d="M303.20312 97.734375L299.60938 97.734375L299.60938 101.5L298.48438 101.5L298.48438 92.96875L303.78125 92.96875L303.78125 93.890625L299.60938 93.890625L299.60938 96.8125L303.20312 96.8125L303.20312 97.734375ZM311.39062 93.890625L308.64062 93.890625L308.64062 101.5L307.53125 101.5L307.53125 93.890625L304.78125 93.890625L304.78125 92.96875L311.39062 92.96875L311.39062 93.890625ZM312.10938 94.609375Q312.10938 93.84375 312.59375 93.34375Q313.09375 92.84375 313.85938 92.84375Q314.64062 92.84375 315.125 93.34375Q315.60938 93.84375 315.60938 94.640625L315.60938 95.0625Q315.60938 95.828125 315.10938 96.328125Q314.625 96.8125 313.875 96.8125Q313.10938 96.8125 312.60938 96.328125Q312.10938 95.828125 312.10938 95.015625L312.10938 94.609375ZM312.92188 95.0625Q312.92188 95.515625 313.17188 95.8125Q313.4375 96.109375 313.875 96.109375Q314.29688 96.109375 314.54688 95.828125Q314.79688 95.53125 314.79688 95.03125L314.79688 94.609375Q314.79688 94.15625 314.54688 93.859375Q314.29688 93.546875 313.85938 93.546875Q313.42188 93.546875 313.17188 93.859375Q312.92188 94.15625 312.92188 94.625L312.92188 95.0625ZM316.26562 99.40625Q316.26562 98.640625 316.75 98.15625Q317.25 97.65625 318.01562 97.65625Q318.78125 97.65625 319.26562 98.15625Q319.76562 98.640625 319.76562 99.453125L319.76562 99.859375Q319.76562 100.625 319.28125 101.125Q318.79688 101.625 318.03125 101.625Q317.26562 101.625 316.76562 101.140625Q316.26562 100.640625 316.26562 99.828125L316.26562 99.40625ZM317.07812 99.859375Q317.07812 100.328125 317.32812 100.625Q317.59375 100.921875 318.03125 100.921875Q318.45312 100.921875 318.70312 100.640625Q318.95312 100.34375 318.95312 99.84375L318.95312 99.40625Q318.95312 98.9375 318.6875 98.65625Q318.4375 98.359375 318.01562 98.359375Q317.59375 98.359375 317.32812 98.65625Q317.07812 98.9375 317.07812 99.4375L317.07812 99.859375ZM314.125 100.859375L313.5 100.46875L317.67188 93.796875L318.28125 94.1875L314.125 100.859375Z" fill-rule="nonzero"/><path stroke="#cccccc" stroke-width="1.0" stroke-linecap="butt" d="M219.0 204.0L334.0 184.0" fill-rule="nonzero"/><path fill="#000000" d="M342.28125 179.70312L343.09375 179.70312Q343.875 179.6875 344.3125 179.29688Q344.75 178.90625 344.75 178.23438Q344.75 176.73438 343.25 176.73438Q342.54688 176.73438 342.125 177.14062Q341.71875 177.54688 341.71875 178.20312L340.625 178.20312Q340.625 177.1875 341.35938 176.51562Q342.10938 175.84375 343.25 175.84375Q344.45312 175.84375 345.14062 176.48438Q345.82812 177.125 345.82812 178.26562Q345.82812 178.82812 345.46875 179.34375Q345.10938 179.85938 344.48438 180.125Q345.1875 180.34375 345.5625 180.85938Q345.95312 181.375 345.95312 182.125Q345.95312 183.26562 345.20312 183.95312Q344.45312 184.625 343.25 184.625Q342.0625 184.625 341.29688 183.96875Q340.54688 183.3125 340.54688 182.25L341.64062 182.25Q341.64062 182.92188 342.07812 183.32812Q342.51562 183.73438 343.26562 183.73438Q344.04688 183.73438 344.45312 183.32812Q344.875 182.90625 344.875 182.14062Q344.875 181.40625 344.42188 181.01562Q343.96875 180.60938 343.09375 180.59375L342.28125 180.59375L342.28125 179.70312ZM349.10938 181.15625L349.10938 184.5L347.98438 184.5L347.98438 175.96875L351.14062 175.96875Q352.53125 175.96875 353.32812 176.6875Q354.125 177.39062 354.125 178.57812Q354.125 179.8125 353.34375 180.48438Q352.57812 181.15625 351.125 181.15625L349.10938 181.15625ZM349.10938 180.23438L351.14062 180.23438Q352.04688 180.23438 352.51562 179.8125Q353.0 179.39062 353.0 178.59375Q353.0 177.82812 352.51562 177.375Q352.04688 176.90625 351.20312 176.89062L349.10938 176.89062L349.10938 180.23438ZM361.89062 176.89062L359.14062 176.89062L359.14062 184.5L358.03125 184.5L358.03125 176.89062L355.28125 176.89062L355.28125 175.96875L361.89062 175.96875L361.89062 176.89062ZM364.4375 175.96875L367.23438 182.92188L370.01562 175.96875L371.48438 175.96875L371.48438 184.5L370.35938 184.5L370.35938 181.17188L370.46875 177.59375L367.65625 184.5L366.79688 184.5L364.0 177.60938L364.10938 181.17188L364.10938 184.5L362.98438 184.5L362.98438 175.96875L364.4375 175.96875Z" fill-rule="nonzero"/><path stroke="#cccccc" stroke-width="1.0" stroke-linecap="butt" d="M219.0 204.0L320.0 262.0" fill-rule="nonzero"/><path fill="#000000" d="M331.10938 275.15625L331.10938 278.5L329.98438 278.5L329.98438 269.96875L333.14062 269.96875Q334.53125 269.96875 335.32812 270.6875Q336.125 271.39062 336.125 272.57812Q336.125 273.8125 335.34375 274.48438Q334.57812 275.15625 333.125 275.15625L331.10938 275.15625ZM331.10938 274.23438L333.14062 274.23438Q334.04688 274.23438 334.51562 273.8125Q335.0 273.39062 335.0 272.59375Q335.0 271.82812 334.51562 271.375Q334.04688 270.90625 333.20312 270.89062L331.10938 270.89062L331.10938 274.23438ZM343.89062 270.89062L341.14062 270.89062L341.14062 278.5L340.03125 278.5L340.03125 270.89062L337.28125 270.89062L337.28125 269.96875L343.89062 269.96875L343.89062 270.89062ZM347.5 274.70312Q346.0625 274.28125 345.39062 273.67188Q344.73438 273.0625 344.73438 272.17188Q344.73438 271.17188 345.53125 270.51562Q346.34375 269.84375 347.64062 269.84375Q348.51562 269.84375 349.20312 270.1875Q349.89062 270.53125 350.26562 271.125Q350.65625 271.71875 350.65625 272.4375L349.51562 272.4375Q349.51562 271.65625 349.01562 271.21875Q348.53125 270.78125 347.64062 270.78125Q346.8125 270.78125 346.34375 271.15625Q345.875 271.51562 345.875 272.15625Q345.875 272.6875 346.3125 273.04688Q346.76562 273.40625 347.82812 273.70312Q348.89062 274.0 349.48438 274.35938Q350.09375 274.71875 350.375 275.20312Q350.67188 275.6875 350.67188 276.32812Q350.67188 277.375 349.85938 278.0Q349.04688 278.625 347.70312 278.625Q346.8125 278.625 346.04688 278.28125Q345.29688 277.9375 344.875 277.35938Q344.46875 276.76562 344.46875 276.03125L345.59375 276.03125Q345.59375 276.79688 346.17188 277.25Q346.75 277.70312 347.70312 277.70312Q348.59375 277.70312 349.0625 277.34375Q349.53125 276.96875 349.53125 276.34375Q349.53125 275.71875 349.09375 275.375Q348.65625 275.03125 347.5 274.70312Z" fill-rule="nonzero"/><path stroke="#cccccc" stroke-width="1.0" stroke-linecap="butt" d="M219.0 204.0L259.0 314.0" fill-rule="nonzero"/><path fill="#000000" d="M260.625 336.04688L258.60938 336.04688L258.60938 339.5L257.48438 339.5L257.48438 330.96875L260.3125 330.96875Q261.75 330.96875 262.51562 331.625Q263.29688 332.28125 263.29688 333.53125Q263.29688 334.32812 262.85938 334.92188Q262.4375 335.51562 261.67188 335.8125L263.67188 339.42188L263.67188 339.5L262.46875 339.5L260.625 336.04688ZM258.60938 335.125L260.34375 335.125Q261.1875 335.125 261.67188 334.70312Q262.17188 334.26562 262.17188 333.53125Q262.17188 332.75 261.70312 332.32812Q261.23438 331.90625 260.34375 331.89062L258.60938 331.89062L258.60938 335.125ZM269.3125 335.5625L265.60938 335.5625L265.60938 338.57812L269.90625 338.57812L269.90625 339.5L264.48438 339.5L264.48438 330.96875L269.85938 330.96875L269.85938 331.89062L265.60938 331.89062L265.60938 334.64062L269.3125 334.64062L269.3125 335.5625ZM271.48438 339.5L271.48438 330.96875L274.28125 330.96875Q275.67188 330.96875 276.35938 331.54688Q277.0625 332.10938 277.0625 333.23438Q277.0625 333.84375 276.71875 334.3125Q276.39062 334.76562 275.79688 335.01562Q276.5 335.20312 276.89062 335.75Q277.29688 336.28125 277.29688 337.03125Q277.29688 338.1875 276.54688 338.84375Q275.8125 339.5 274.45312 339.5L271.48438 339.5ZM272.60938 335.51562L272.60938 338.57812L274.46875 338.57812Q275.26562 338.57812 275.71875 338.17188Q276.17188 337.76562 276.17188 337.04688Q276.17188 335.51562 274.48438 335.51562L272.60938 335.51562ZM272.60938 334.60938L274.3125 334.60938Q275.04688 334.60938 275.48438 334.25Q275.9375 333.875 275.9375 333.23438Q275.9375 332.53125 275.53125 332.21875Q275.125 331.89062 274.28125 331.89062L272.60938 331.89062L272.60938 334.60938Z" fill-rule="nonzero"/><path stroke="#cccccc" stroke-width="1.0" stroke-linecap="butt" d="M219.0 204.0L179.0 314.0" fill-rule="nonzero"/><path fill="#000000" d="M165.70312 337.26562L162.125 337.26562L161.32812 339.5L160.17188 339.5L163.42188 330.96875L164.40625 330.96875L167.67188 339.5L166.51562 339.5L165.70312 337.26562ZM162.46875 336.34375L165.375 336.34375L163.92188 332.35938L162.46875 336.34375ZM171.5 335.70312Q170.0625 335.28125 169.39062 334.67188Q168.73438 334.0625 168.73438 333.17188Q168.73438 332.17188 169.53125 331.51562Q170.34375 330.84375 171.64062 330.84375Q172.51562 330.84375 173.20312 331.1875Q173.89062 331.53125 174.26562 332.125Q174.65625 332.71875 174.65625 333.4375L173.51562 333.4375Q173.51562 332.65625 173.01562 332.21875Q172.53125 331.78125 171.64062 331.78125Q170.8125 331.78125 170.34375 332.15625Q169.875 332.51562 169.875 333.15625Q169.875 333.6875 170.3125 334.04688Q170.76562 334.40625 171.82812 334.70312Q172.89062 335.0 173.48438 335.35938Q174.09375 335.71875 174.375 336.20312Q174.67188 336.6875 174.67188 337.32812Q174.67188 338.375 173.85938 339.0Q173.04688 339.625 171.70312 339.625Q170.8125 339.625 170.04688 339.28125Q169.29688 338.9375 168.875 338.35938Q168.46875 337.76562 168.46875 337.03125L169.59375 337.03125Q169.59375 337.79688 170.17188 338.25Q170.75 338.70312 171.70312 338.70312Q172.59375 338.70312 173.0625 338.34375Q173.53125 337.96875 173.53125 337.34375Q173.53125 336.71875 173.09375 336.375Q172.65625 336.03125 171.5 335.70312ZM181.89062 331.89062L179.14062 331.89062L179.14062 339.5L178.03125 339.5L178.03125 331.89062L175.28125 331.89062L175.28125 330.96875L181.89062 330.96875L181.89062 331.89062Z" fill-rule="nonzero"/><path stroke="#cccccc" stroke-width="1.0" stroke-linecap="butt" d="M219.0 204.0L118.0 262.0" fill-rule="nonzero"/><path fill="#000000" d="M94.5 274.70312Q93.0625 274.28125 92.390625 273.67188Q91.734375 273.0625 91.734375 272.17188Q91.734375 271.17188 92.53125 270.51562Q93.34375 269.84375 94.640625 269.84375Q95.515625 269.84375 96.203125 270.1875Q96.890625 270.53125 97.265625 271.125Q97.65625 271.71875 97.65625 272.4375L96.515625 272.4375Q96.515625 271.65625 96.015625 271.21875Q95.53125 270.78125 94.640625 270.78125Q93.8125 270.78125 93.34375 271.15625Q92.875 271.51562 92.875 272.15625Q92.875 272.6875 93.3125 273.04688Q93.765625 273.40625 94.828125 273.70312Q95.890625 274.0 96.484375 274.35938Q97.09375 274.71875 97.375 275.20312Q97.671875 275.6875 97.671875 276.32812Q97.671875 277.375 96.859375 278.0Q96.046875 278.625 94.703125 278.625Q93.8125 278.625 93.046875 278.28125Q92.296875 277.9375 91.875 277.35938Q91.46875 276.76562 91.46875 276.03125L92.59375 276.03125Q92.59375 276.79688 93.171875 277.25Q93.75 277.70312 94.703125 277.70312Q95.59375 277.70312 96.0625 277.34375Q96.53125 276.96875 96.53125 276.34375Q96.53125 275.71875 96.09375 275.375Q95.65625 275.03125 94.5 274.70312ZM104.890625 270.89062L102.140625 270.89062L102.140625 278.5L101.03125 278.5L101.03125 270.89062L98.28125 270.89062L98.28125 269.96875L104.890625 269.96875L104.890625 270.89062Z" fill-rule="nonzero"/><path stroke="#cccccc" stroke-width="1.0" stroke-linecap="butt" d="M219.0 204.0L104.0 184.0" fill-rule="nonzero"/><path fill="#000000" d="M72.484375 184.5L72.484375 175.96875L75.28125 175.96875Q76.671875 175.96875 77.359375 176.54688Q78.0625 177.10938 78.0625 178.23438Q78.0625 178.84375 77.71875 179.3125Q77.390625 179.76562 76.796875 180.01562Q77.5 180.20312 77.890625 180.75Q78.296875 181.28125 78.296875 182.03125Q78.296875 183.1875 77.546875 183.84375Q76.8125 184.5 75.453125 184.5L72.484375 184.5ZM73.609375 180.51562L73.609375 183.57812L75.46875 183.57812Q76.265625 183.57812 76.71875 183.17188Q77.171875 182.76562 77.171875 182.04688Q77.171875 180.51562 75.484375 180.51562L73.609375 180.51562ZM73.609375 179.60938L75.3125 179.60938Q76.046875 179.60938 76.484375 179.25Q76.9375 178.875 76.9375 178.23438Q76.9375 177.53125 76.53125 177.21875Q76.125 176.89062 75.28125 176.89062L73.609375 176.89062L73.609375 179.60938ZM80.625 183.57812L84.671875 183.57812L84.671875 184.5L79.484375 184.5L79.484375 175.96875L80.625 175.96875L80.625 183.57812ZM87.65625 180.53125L86.609375 181.60938L86.609375 184.5L85.484375 184.5L85.484375 175.96875L86.609375 175.96875L86.609375 180.1875L90.40625 175.96875L91.765625 175.96875L88.40625 179.73438L92.03125 184.5L90.6875 184.5L87.65625 180.53125Z" fill-rule="nonzero"/><path stroke="#cccccc" stroke-width="1.0" stroke-linecap="butt" d="M219.0 204.0L144.0 115.0" fill-rule="nonzero"/><path fill="#000000" d="M128.39062 93.890625L125.640625 93.890625L125.640625 101.5L124.53125 101.5L124.53125 93.890625L121.78125 93.890625L121.78125 92.96875L128.39062 92.96875L128.39062 93.890625ZM136.04688 97.515625Q136.04688 98.765625 135.625 99.703125Q135.20312 100.625 134.42188 101.125Q133.65625 101.625 132.625 101.625Q131.625 101.625 130.84375 101.125Q130.0625 100.625 129.625 99.71875Q129.20312 98.796875 129.1875 97.578125L129.1875 96.96875Q129.1875 95.734375 129.60938 94.796875Q130.04688 93.859375 130.82812 93.359375Q131.60938 92.84375 132.625 92.84375Q133.64062 92.84375 134.42188 93.34375Q135.20312 93.84375 135.625 94.78125Q136.04688 95.71875 136.04688 96.96875L136.04688 97.515625ZM134.9375 96.953125Q134.9375 95.4375 134.32812 94.625Q133.71875 93.8125 132.625 93.8125Q131.54688 93.8125 130.9375 94.625Q130.32812 95.4375 130.3125 96.875L130.3125 97.515625Q130.3125 98.984375 130.92188 99.828125Q131.54688 100.65625 132.625 100.65625Q133.71875 100.65625 134.3125 99.875Q134.92188 99.078125 134.9375 97.59375L134.9375 96.953125Z" fill-rule="nonzero"/><path stroke="#cccccc" stroke-width="1.0" stroke-linecap="butt" d="M219.0 204.0L219.0 87.0" fill-rule="nonzero"/><path stroke="#3366cc" stroke-width="1.0" stroke-linecap="butt" d="M219.0 150.0C235.0 138.0 255.0 132.0 279.0 132.0C298.0 145.0 314.0 163.0 326.0 185.0C325.0 210.0 318.0 234.0 307.0 255.0C291.0 272.0 272.0 284.0 251.0 292.0C230.0 302.0 207.0 307.0 182.0 306.0C161.0 293.0 144.0 275.0 131.0 255.0C130.0 231.0 134.0 209.0 142.0 190.0C169.0 182.0 194.0 185.0 214.0 198.0C209.0 183.0 210.0 166.0 219.0 150.0Z" fill-rule="nonzero"/><path stroke="#dc3912" stroke-width="1.0" stroke-linecap="butt" d="M219.0 142.0C234.0 141.0 249.0 144.0 264.0 150.0C273.0 164.0 279.0 178.0 280.0 193.0C297.0 209.0 308.0 231.0 313.0 258.0C296.0 277.0 276.0 291.0 254.0 299.0C231.0 305.0 207.0 305.0 184.0 299.0C165.0 286.0 149.0 270.0 138.0 251.0C127.0 232.0 121.0 210.0 119.0 186.0C152.0 175.0 184.0 178.0 209.0 192.0C205.0 176.0 208.0 159.0 219.0 142.0Z" fill-rule="nonzero"/><path stroke="#ff9900" stroke-width="1.0" stroke-linecap="butt" d="M219.0 118.0C241.0 113.0 264.0 114.0 289.0 121.0C304.0 140.0 314.0 163.0 319.0 186.0C315.0 210.0 306.0 230.0 293.0 247.0C270.0 252.0 249.0 250.0 232.0 241.0C225.0 258.0 211.0 274.0 190.0 284.0C173.0 273.0 160.0 259.0 152.0 243.0C147.0 226.0 146.0 208.0 150.0 192.0C157.0 177.0 167.0 165.0 179.0 156.0C188.0 141.0 201.0 128.0 219.0 118.0Z" fill-rule="nonzero"/><path stroke="#109618" stroke-width="1.0" stroke-linecap="butt" d="M219.0 103.0C235.0 136.0 236.0 169.0 224.0 198.0C248.0 182.0 279.0 178.0 311.0 188.0C304.0 209.0 294.0 226.0 280.0 239.0C279.0 261.0 272.0 284.0 256.0 306.0C230.0 299.0 209.0 286.0 195.0 270.0C173.0 273.0 149.0 270.0 125.0 258.0C130.0 231.0 141.0 209.0 158.0 193.0C164.0 180.0 173.0 170.0 184.0 162.0C188.0 141.0 199.0 121.0 219.0 103.0Z" fill-rule="nonzero"/><path stroke="#3366cc" stroke-width="4.0" stroke-linecap="butt" d="M439.45 62.416668L451.45 62.416668" fill-rule="nonzero"/><path fill="#757575" d="M466.34064 59.30729L463.59064 59.30729L463.59064 66.916664L462.48126 66.916664L462.48126 59.30729L459.73126 59.30729L459.73126 58.385414L466.34064 58.385414L466.34064 59.30729ZM468.35626 61.33854Q469.075 60.46354 470.23126 60.46354Q472.2469 60.46354 472.2625 62.729164L472.2625 66.916664L471.16876 66.916664L471.16876 62.71354Q471.16876 62.041664 470.85626 61.71354Q470.5594 61.385414 469.90314 61.385414Q469.3719 61.385414 468.96564 61.666664Q468.575 61.947914 468.35626 62.40104L468.35626 66.916664L467.27814 66.916664L467.27814 57.916664L468.35626 57.916664L468.35626 61.33854ZM476.90314 67.041664Q475.60626 67.041664 474.79376 66.197914Q473.9969 65.33854 473.9969 63.916664L473.9969 63.729164Q473.9969 62.77604 474.35626 62.041664Q474.71564 61.291664 475.35626 60.885414Q476.0125 60.46354 476.7625 60.46354Q477.9969 60.46354 478.6844 61.27604Q479.3719 62.08854 479.3719 63.604164L479.3719 64.05729L475.075 64.05729Q475.10626 64.99479 475.6219 65.572914Q476.15314 66.15104 476.96564 66.15104Q477.52814 66.15104 477.91876 65.916664Q478.325 65.68229 478.6375 65.291664L479.29376 65.80729Q478.4969 67.041664 476.90314 67.041664ZM476.7625 61.354164Q476.10626 61.354164 475.65314 61.83854Q475.21564 62.30729 475.1219 63.166664L478.29376 63.166664L478.29376 63.08854Q478.2469 62.260414 477.84064 61.80729Q477.45 61.354164 476.7625 61.354164ZM486.04376 62.666664L488.2625 58.385414L489.54376 58.385414L486.60626 63.729164L486.60626 66.916664L485.48126 66.916664L485.48126 63.729164L482.54376 58.385414L483.825 58.385414L486.04376 62.666664ZM489.98126 63.68229Q489.98126 62.760414 490.34064 62.010414Q490.71564 61.260414 491.3719 60.86979Q492.02814 60.46354 492.85626 60.46354Q494.15314 60.46354 494.95 61.354164Q495.7625 62.24479 495.7625 63.74479L495.7625 63.822914Q495.7625 64.74479 495.40314 65.479164Q495.04376 66.21354 494.3875 66.635414Q493.73126 67.041664 492.8719 67.041664Q491.59064 67.041664 490.77814 66.15104Q489.98126 65.24479 489.98126 63.760414L489.98126 63.68229ZM491.075 63.822914Q491.075 64.86979 491.5594 65.510414Q492.0594 66.15104 492.8719 66.15104Q493.7 66.15104 494.1844 65.510414Q494.66876 64.854164 494.66876 63.68229Q494.66876 62.65104 494.16876 62.010414Q493.6844 61.354164 492.85626 61.354164Q492.0594 61.354164 491.5594 61.99479Q491.075 62.61979 491.075 63.822914ZM501.1844 66.291664Q500.5594 67.041664 499.325 67.041664Q498.3094 67.041664 497.77814 66.447914Q497.2469 65.854164 497.2469 64.697914L497.2469 60.572914L498.325 60.572914L498.325 64.666664Q498.325 66.11979 499.4969 66.11979Q500.7469 66.11979 501.15314 65.18229L501.15314 60.572914L502.2469 60.572914L502.2469 66.916664L501.21564 66.916664L501.1844 66.291664ZM505.29376 60.572914L505.325 61.36979Q506.0594 60.46354 507.23126 60.46354Q509.2469 60.46354 509.2625 62.729164L509.2625 66.916664L508.16876 66.916664L508.16876 62.71354Q508.16876 62.041664 507.85626 61.71354Q507.5594 61.385414 506.90314 61.385414Q506.3719 61.385414 505.96564 61.666664Q505.575 61.947914 505.35626 62.40104L505.35626 66.916664L504.27814 66.916664L504.27814 60.572914L505.29376 60.572914ZM511.0125 63.697914Q511.0125 62.21354 511.7 61.33854Q512.3875 60.46354 513.5125 60.46354Q514.66876 60.46354 515.325 61.27604L515.3719 60.572914L516.3719 60.572914L516.3719 66.760414Q516.3719 67.99479 515.6375 68.697914Q514.90314 69.416664 513.6844 69.416664Q512.9969 69.416664 512.34064 69.11979Q511.6844 68.822914 511.34064 68.322914L511.90314 67.666664Q512.59064 68.52604 513.60626 68.52604Q514.3875 68.52604 514.825 68.072914Q515.27814 67.635414 515.27814 66.822914L515.27814 66.27604Q514.6219 67.041664 513.4969 67.041664Q512.3875 67.041664 511.7 66.15104Q511.0125 65.24479 511.0125 63.697914ZM512.10626 63.822914Q512.10626 64.885414 512.54376 65.510414Q512.98126 66.11979 513.77814 66.11979Q514.79376 66.11979 515.27814 65.18229L515.27814 62.291664Q514.77814 61.385414 513.77814 61.385414Q512.9969 61.385414 512.54376 61.99479Q512.10626 62.604164 512.10626 63.822914ZM521.96564 65.229164Q521.96564 64.791664 521.6219 64.55729Q521.29376 64.30729 520.46564 64.135414Q519.65314 63.96354 519.16876 63.71354Q518.6844 63.46354 518.45 63.135414Q518.23126 62.791664 518.23126 62.322914Q518.23126 61.541664 518.8875 61.010414Q519.54376 60.46354 520.575 60.46354Q521.65314 60.46354 522.3094 61.02604Q522.98126 61.572914 522.98126 62.43229L521.90314 62.43229Q521.90314 61.99479 521.5125 61.68229Q521.1375 61.354164 520.575 61.354164Q519.98126 61.354164 519.6375 61.61979Q519.3094 61.86979 519.3094 62.27604Q519.3094 62.666664 519.6219 62.86979Q519.9344 63.072914 520.7469 63.260414Q521.5594 63.43229 522.0594 63.68229Q522.5594 63.93229 522.79376 64.291664Q523.04376 64.65104 523.04376 65.15104Q523.04376 66.010414 522.35626 66.52604Q521.6844 67.041664 520.60626 67.041664Q519.84064 67.041664 519.2469 66.77604Q518.66876 66.49479 518.34064 66.010414Q518.0125 65.52604 518.0125 64.96354L519.09064 64.96354Q519.1219 65.510414 519.52814 65.83854Q519.9344 66.15104 520.60626 66.15104Q521.21564 66.15104 521.59064 65.90104Q521.96564 65.65104 521.96564 65.229164ZM525.7469 59.041664L525.7469 60.572914L526.91876 60.572914L526.91876 61.416664L525.7469 61.416664L525.7469 65.33854Q525.7469 65.729164 525.90314 65.916664Q526.0594 66.104164 526.4344 66.104164Q526.6219 66.104164 526.95 66.041664L526.95 66.916664Q526.52814 67.041664 526.1219 67.041664Q525.40314 67.041664 525.02814 66.604164Q524.65314 66.15104 524.65314 65.33854L524.65314 61.416664L523.4969 61.416664L523.4969 60.572914L524.65314 60.572914L524.65314 59.041664L525.7469 59.041664ZM527.98126 63.68229Q527.98126 62.760414 528.34064 62.010414Q528.71564 61.260414 529.3719 60.86979Q530.02814 60.46354 530.85626 60.46354Q532.15314 60.46354 532.95 61.354164Q533.7625 62.24479 533.7625 63.74479L533.7625 63.822914Q533.7625 64.74479 533.40314 65.479164Q533.04376 66.21354 532.3875 66.635414Q531.73126 67.041664 530.8719 67.041664Q529.59064 67.041664 528.77814 66.15104Q527.98126 65.24479 527.98126 63.760414L527.98126 63.68229ZM529.075 63.822914Q529.075 64.86979 529.5594 65.510414Q530.0594 66.15104 530.8719 66.15104Q531.7 66.15104 532.1844 65.510414Q532.66876 64.854164 532.66876 63.68229Q532.66876 62.65104 532.16876 62.010414Q531.6844 61.354164 530.85626 61.354164Q530.0594 61.354164 529.5594 61.99479Q529.075 62.61979 529.075 63.822914ZM540.8875 65.416664L542.10626 60.572914L543.1844 60.572914L541.34064 66.916664L540.46564 66.916664L538.91876 62.104164L537.41876 66.916664L536.54376 66.916664L534.7 60.572914L535.77814 60.572914L537.02814 65.322914L538.5125 60.572914L539.3719 60.572914L540.8875 65.416664ZM545.29376 60.572914L545.325 61.36979Q546.0594 60.46354 547.23126 60.46354Q549.2469 60.46354 549.2625 62.729164L549.2625 66.916664L548.16876 66.916664L548.16876 62.71354Q548.16876 62.041664 547.85626 61.71354Q547.5594 61.385414 546.90314 61.385414Q546.3719 61.385414 545.96564 61.666664Q545.575 61.947914 545.35626 62.40104L545.35626 66.916664L544.27814 66.916664L544.27814 60.572914L545.29376 60.572914ZM555.5594 63.572914L555.5594 66.916664L554.4344 66.916664L554.4344 58.385414L557.59064 58.385414Q558.98126 58.385414 559.77814 59.104164Q560.575 59.80729 560.575 60.99479Q560.575 62.229164 559.79376 62.90104Q559.02814 63.572914 557.575 63.572914L555.5594 63.572914ZM555.5594 62.65104L557.59064 62.65104Q558.4969 62.65104 558.96564 62.229164Q559.45 61.80729 559.45 61.010414Q559.45 60.24479 558.96564 59.791664Q558.4969 59.322914 557.65314 59.30729L555.5594 59.30729L555.5594 62.65104ZM565.34064 61.541664Q565.09064 61.510414 564.8094 61.510414Q563.73126 61.510414 563.35626 62.416664L563.35626 66.916664L562.27814 66.916664L562.27814 60.572914L563.325 60.572914L563.34064 61.30729Q563.8719 60.46354 564.85626 60.46354Q565.16876 60.46354 565.34064 60.541664L565.34064 61.541664ZM567.45 66.916664L566.3719 66.916664L566.3719 60.572914L567.45 60.572914L567.45 66.916664ZM566.27814 58.90104Q566.27814 58.635414 566.4344 58.447914Q566.60626 58.260414 566.91876 58.260414Q567.23126 58.260414 567.3875 58.447914Q567.5594 58.635414 567.5594 58.90104Q567.5594 59.15104 567.3875 59.33854Q567.23126 59.510414 566.91876 59.510414Q566.60626 59.510414 566.4344 59.33854Q566.27814 59.15104 566.27814 58.90104ZM569.0125 63.697914Q569.0125 62.229164 569.7 61.354164Q570.3875 60.46354 571.5125 60.46354Q572.6219 60.46354 573.27814 61.21354L573.27814 57.916664L574.35626 57.916664L574.35626 66.916664L573.35626 66.916664L573.3094 66.229164Q572.65314 67.041664 571.4969 67.041664Q570.40314 67.041664 569.7 66.135414Q569.0125 65.229164 569.0125 63.77604L569.0125 63.697914ZM570.09064 63.822914Q570.09064 64.90104 570.52814 65.510414Q570.98126 66.11979 571.7625 66.11979Q572.79376 66.11979 573.27814 65.18229L573.27814 62.27604Q572.79376 61.385414 571.77814 61.385414Q570.98126 61.385414 570.52814 61.99479Q570.09064 62.604164 570.09064 63.822914ZM578.90314 67.041664Q577.60626 67.041664 576.79376 66.197914Q575.9969 65.33854 575.9969 63.916664L575.9969 63.729164Q575.9969 62.77604 576.35626 62.041664Q576.71564 61.291664 577.35626 60.885414Q578.0125 60.46354 578.7625 60.46354Q579.9969 60.46354 580.6844 61.27604Q581.3719 62.08854 581.3719 63.604164L581.3719 64.05729L577.075 64.05729Q577.10626 64.99479 577.6219 65.572914Q578.15314 66.15104 578.96564 66.15104Q579.52814 66.15104 579.91876 65.916664Q580.325 65.68229 580.6375 65.291664L581.29376 65.80729Q580.4969 67.041664 578.90314 67.041664ZM578.7625 61.354164Q578.10626 61.354164 577.65314 61.83854Q577.21564 62.30729 577.1219 63.166664L580.29376 63.166664L580.29376 63.08854Q580.2469 62.260414 579.84064 61.80729Q579.45 61.354164 578.7625 61.354164Z" fill-rule="nonzero"/><path stroke="#dc3912" stroke-width="4.0" stroke-linecap="butt" d="M439.45 87.416664L451.45 87.416664" fill-rule="nonzero"/><path fill="#757575" d="M462.95 88.11979Q461.5125 87.697914 460.84064 87.08854Q460.1844 86.479164 460.1844 85.58854Q460.1844 84.58854 460.98126 83.93229Q461.79376 83.260414 463.09064 83.260414Q463.96564 83.260414 464.65314 83.604164Q465.34064 83.947914 465.71564 84.541664Q466.10626 85.135414 466.10626 85.854164L464.96564 85.854164Q464.96564 85.072914 464.46564 84.635414Q463.98126 84.197914 463.09064 84.197914Q462.2625 84.197914 461.79376 84.572914Q461.325 84.93229 461.325 85.572914Q461.325 86.104164 461.7625 86.46354Q462.21564 86.822914 463.27814 87.11979Q464.34064 87.416664 464.9344 87.77604Q465.54376 88.135414 465.825 88.61979Q466.1219 89.104164 466.1219 89.74479Q466.1219 90.791664 465.3094 91.416664Q464.4969 92.041664 463.15314 92.041664Q462.2625 92.041664 461.4969 91.697914Q460.7469 91.354164 460.325 90.77604Q459.91876 90.18229 459.91876 89.447914L461.04376 89.447914Q461.04376 90.21354 461.6219 90.666664Q462.2 91.11979 463.15314 91.11979Q464.04376 91.11979 464.5125 90.760414Q464.98126 90.385414 464.98126 89.760414Q464.98126 89.135414 464.54376 88.791664Q464.10626 88.447914 462.95 88.11979ZM469.8094 91.15104Q470.3875 91.15104 470.825 90.80729Q471.2625 90.447914 471.3094 89.916664L472.34064 89.916664Q472.3094 90.46354 471.95 90.96354Q471.60626 91.447914 471.02814 91.74479Q470.46564 92.041664 469.8094 92.041664Q468.5125 92.041664 467.7469 91.18229Q466.9969 90.30729 466.9969 88.80729L466.9969 88.61979Q466.9969 87.697914 467.325 86.979164Q467.66876 86.260414 468.29376 85.86979Q468.9344 85.46354 469.8094 85.46354Q470.8719 85.46354 471.575 86.104164Q472.29376 86.729164 472.34064 87.760414L471.3094 87.760414Q471.2625 87.135414 470.84064 86.74479Q470.41876 86.354164 469.8094 86.354164Q468.98126 86.354164 468.52814 86.947914Q468.075 87.541664 468.075 88.666664L468.075 88.86979Q468.075 89.96354 468.52814 90.55729Q468.98126 91.15104 469.8094 91.15104ZM472.98126 88.68229Q472.98126 87.760414 473.34064 87.010414Q473.71564 86.260414 474.3719 85.86979Q475.02814 85.46354 475.85626 85.46354Q477.15314 85.46354 477.95 86.354164Q478.7625 87.24479 478.7625 88.74479L478.7625 88.822914Q478.7625 89.74479 478.40314 90.479164Q478.04376 91.21354 477.3875 91.635414Q476.73126 92.041664 475.8719 92.041664Q474.59064 92.041664 473.77814 91.15104Q472.98126 90.24479 472.98126 88.760414L472.98126 88.68229ZM474.075 88.822914Q474.075 89.86979 474.5594 90.510414Q475.0594 91.15104 475.8719 91.15104Q476.7 91.15104 477.1844 90.510414Q477.66876 89.854164 477.66876 88.68229Q477.66876 87.65104 477.16876 87.010414Q476.6844 86.354164 475.85626 86.354164Q475.0594 86.354164 474.5594 86.99479Q474.075 87.61979 474.075 88.822914ZM483.34064 86.541664Q483.09064 86.510414 482.8094 86.510414Q481.73126 86.510414 481.35626 87.416664L481.35626 91.916664L480.27814 91.916664L480.27814 85.572914L481.325 85.572914L481.34064 86.30729Q481.8719 85.46354 482.85626 85.46354Q483.16876 85.46354 483.34064 85.541664L483.34064 86.541664ZM489.6219 88.822914Q489.6219 90.260414 488.96564 91.15104Q488.3094 92.041664 487.16876 92.041664Q486.0125 92.041664 485.35626 91.30729L485.35626 94.354164L484.27814 94.354164L484.27814 85.572914L485.2625 85.572914L485.3094 86.27604Q485.98126 85.46354 487.15314 85.46354Q488.29376 85.46354 488.95 86.322914Q489.6219 87.18229 489.6219 88.71354L489.6219 88.822914ZM488.54376 88.697914Q488.54376 87.61979 488.075 87.010414Q487.6219 86.385414 486.825 86.385414Q485.84064 86.385414 485.35626 87.24479L485.35626 90.27604Q485.84064 91.15104 486.84064 91.15104Q487.6219 91.15104 488.075 90.541664Q488.54376 89.916664 488.54376 88.697914ZM492.45 91.916664L491.3719 91.916664L491.3719 85.572914L492.45 85.572914L492.45 91.916664ZM491.27814 83.90104Q491.27814 83.635414 491.4344 83.447914Q491.60626 83.260414 491.91876 83.260414Q492.23126 83.260414 492.3875 83.447914Q492.5594 83.635414 492.5594 83.90104Q492.5594 84.15104 492.3875 84.33854Q492.23126 84.510414 491.91876 84.510414Q491.60626 84.510414 491.4344 84.33854Q491.27814 84.15104 491.27814 83.90104ZM493.98126 88.68229Q493.98126 87.760414 494.34064 87.010414Q494.71564 86.260414 495.3719 85.86979Q496.02814 85.46354 496.85626 85.46354Q498.15314 85.46354 498.95 86.354164Q499.7625 87.24479 499.7625 88.74479L499.7625 88.822914Q499.7625 89.74479 499.40314 90.479164Q499.04376 91.21354 498.3875 91.635414Q497.73126 92.041664 496.8719 92.041664Q495.59064 92.041664 494.77814 91.15104Q493.98126 90.24479 493.98126 88.760414L493.98126 88.68229ZM495.075 88.822914Q495.075 89.86979 495.5594 90.510414Q496.0594 91.15104 496.8719 91.15104Q497.7 91.15104 498.1844 90.510414Q498.66876 89.854164 498.66876 88.68229Q498.66876 87.65104 498.16876 87.010414Q497.6844 86.354164 496.85626 86.354164Q496.0594 86.354164 495.5594 86.99479Q495.075 87.61979 495.075 88.822914ZM502.29376 85.572914L502.325 86.36979Q503.0594 85.46354 504.23126 85.46354Q506.2469 85.46354 506.2625 87.729164L506.2625 91.916664L505.16876 91.916664L505.16876 87.71354Q505.16876 87.041664 504.85626 86.71354Q504.5594 86.385414 503.90314 86.385414Q503.3719 86.385414 502.96564 86.666664Q502.575 86.947914 502.35626 87.40104L502.35626 91.916664L501.27814 91.916664L501.27814 85.572914L502.29376 85.572914ZM511.4344 91.916664L511.4344 83.385414L514.23126 83.385414Q515.6219 83.385414 516.3094 83.96354Q517.0125 84.52604 517.0125 85.65104Q517.0125 86.260414 516.66876 86.729164Q516.34064 87.18229 515.7469 87.43229Q516.45 87.61979 516.84064 88.166664Q517.2469 88.697914 517.2469 89.447914Q517.2469 90.604164 516.4969 91.260414Q515.7625 91.916664 514.40314 91.916664L511.4344 91.916664ZM512.5594 87.93229L512.5594 90.99479L514.41876 90.99479Q515.21564 90.99479 515.66876 90.58854Q516.1219 90.18229 516.1219 89.46354Q516.1219 87.93229 514.4344 87.93229L512.5594 87.93229ZM512.5594 87.02604L514.2625 87.02604Q514.9969 87.02604 515.4344 86.666664Q515.8875 86.291664 515.8875 85.65104Q515.8875 84.947914 515.48126 84.635414Q515.075 84.30729 514.23126 84.30729L512.5594 84.30729L512.5594 87.02604ZM522.1844 91.916664Q522.09064 91.729164 522.02814 91.24479Q521.27814 92.041664 520.23126 92.041664Q519.29376 92.041664 518.6844 91.510414Q518.09064 90.979164 518.09064 90.15104Q518.09064 89.166664 518.84064 88.61979Q519.59064 88.072914 520.96564 88.072914L522.0125 88.072914L522.0125 87.572914Q522.0125 87.010414 521.66876 86.68229Q521.34064 86.33854 520.66876 86.33854Q520.09064 86.33854 519.7 86.635414Q519.3094 86.916664 519.3094 87.33854L518.21564 87.33854Q518.21564 86.854164 518.54376 86.416664Q518.8875 85.979164 519.46564 85.729164Q520.04376 85.46354 520.73126 85.46354Q521.84064 85.46354 522.45 86.010414Q523.075 86.55729 523.10626 87.510414L523.10626 90.43229Q523.10626 91.30729 523.325 91.822914L523.325 91.916664L522.1844 91.916664ZM520.3875 91.08854Q520.90314 91.08854 521.35626 90.822914Q521.8094 90.55729 522.0125 90.135414L522.0125 88.83854L521.16876 88.83854Q519.16876 88.83854 519.16876 90.010414Q519.16876 90.510414 519.5125 90.80729Q519.85626 91.08854 520.3875 91.08854ZM526.45 91.916664L525.3719 91.916664L525.3719 82.916664L526.45 82.916664L526.45 91.916664ZM529.45 91.916664L528.3719 91.916664L528.3719 82.916664L529.45 82.916664L529.45 91.916664ZM534.96564 90.229164Q534.96564 89.791664 534.6219 89.55729Q534.29376 89.30729 533.46564 89.135414Q532.65314 88.96354 532.16876 88.71354Q531.6844 88.46354 531.45 88.135414Q531.23126 87.791664 531.23126 87.322914Q531.23126 86.541664 531.8875 86.010414Q532.54376 85.46354 533.575 85.46354Q534.65314 85.46354 535.3094 86.02604Q535.98126 86.572914 535.98126 87.43229L534.90314 87.43229Q534.90314 86.99479 534.5125 86.68229Q534.1375 86.354164 533.575 86.354164Q532.98126 86.354164 532.6375 86.61979Q532.3094 86.86979 532.3094 87.27604Q532.3094 87.666664 532.6219 87.86979Q532.9344 88.072914 533.7469 88.260414Q534.5594 88.43229 535.0594 88.68229Q535.5594 88.93229 535.79376 89.291664Q536.04376 89.65104 536.04376 90.15104Q536.04376 91.010414 535.35626 91.52604Q534.6844 92.041664 533.60626 92.041664Q532.84064 92.041664 532.2469 91.77604Q531.66876 91.49479 531.34064 91.010414Q531.0125 90.52604 531.0125 89.96354L532.09064 89.96354Q532.1219 90.510414 532.52814 90.83854Q532.9344 91.15104 533.60626 91.15104Q534.21564 91.15104 534.59064 90.90104Q534.96564 90.65104 534.96564 90.229164Z" fill-rule="nonzero"/><path stroke="#ff9900" stroke-width="4.0" stroke-linecap="butt" d="M439.45 112.416664L451.45 112.416664" fill-rule="nonzero"/><path fill="#757575" d="M462.95 113.11979Q461.5125 112.697914 460.84064 112.08854Q460.1844 111.479164 460.1844 110.58854Q460.1844 109.58854 460.98126 108.93229Q461.79376 108.260414 463.09064 108.260414Q463.96564 108.260414 464.65314 108.604164Q465.34064 108.947914 465.71564 109.541664Q466.10626 110.135414 466.10626 110.854164L464.96564 110.854164Q464.96564 110.072914 464.46564 109.635414Q463.98126 109.197914 463.09064 109.197914Q462.2625 109.197914 461.79376 109.572914Q461.325 109.93229 461.325 110.572914Q461.325 111.104164 461.7625 111.46354Q462.21564 111.822914 463.27814 112.11979Q464.34064 112.416664 464.9344 112.77604Q465.54376 113.135414 465.825 113.61979Q466.1219 114.104164 466.1219 114.74479Q466.1219 115.791664 465.3094 116.416664Q464.4969 117.041664 463.15314 117.041664Q462.2625 117.041664 461.4969 116.697914Q460.7469 116.354164 460.325 115.77604Q459.91876 115.18229 459.91876 114.447914L461.04376 114.447914Q461.04376 115.21354 461.6219 115.666664Q462.2 116.11979 463.15314 116.11979Q464.04376 116.11979 464.5125 115.760414Q464.98126 115.385414 464.98126 114.760414Q464.98126 114.135414 464.54376 113.791664Q464.10626 113.447914 462.95 113.11979ZM472.6219 113.822914Q472.6219 115.260414 471.96564 116.15104Q471.3094 117.041664 470.16876 117.041664Q469.0125 117.041664 468.35626 116.30729L468.35626 119.354164L467.27814 119.354164L467.27814 110.572914L468.2625 110.572914L468.3094 111.27604Q468.98126 110.46354 470.15314 110.46354Q471.29376 110.46354 471.95 111.322914Q472.6219 112.18229 472.6219 113.71354L472.6219 113.822914ZM471.54376 113.697914Q471.54376 112.61979 471.075 112.010414Q470.6219 111.385414 469.825 111.385414Q468.84064 111.385414 468.35626 112.24479L468.35626 115.27604Q468.84064 116.15104 469.84064 116.15104Q470.6219 116.15104 471.075 115.541664Q471.54376 114.916664 471.54376 113.697914ZM475.45 116.916664L474.3719 116.916664L474.3719 107.916664L475.45 107.916664L475.45 116.916664ZM478.45 116.916664L477.3719 116.916664L477.3719 110.572914L478.45 110.572914L478.45 116.916664ZM477.27814 108.90104Q477.27814 108.635414 477.4344 108.447914Q477.60626 108.260414 477.91876 108.260414Q478.23126 108.260414 478.3875 108.447914Q478.5594 108.635414 478.5594 108.90104Q478.5594 109.15104 478.3875 109.33854Q478.23126 109.510414 477.91876 109.510414Q477.60626 109.510414 477.4344 109.33854Q477.27814 109.15104 477.27814 108.90104ZM480.8094 116.916664L480.8094 111.416664L479.8094 111.416664L479.8094 110.572914L480.8094 110.572914L480.8094 109.93229Q480.8094 108.90104 481.34064 108.354164Q481.8875 107.791664 482.8875 107.791664Q483.2625 107.791664 483.6375 107.885414L483.575 108.77604Q483.29376 108.71354 482.9969 108.71354Q482.46564 108.71354 482.16876 109.02604Q481.8875 109.33854 481.8875 109.90104L481.8875 110.572914L483.2469 110.572914L483.2469 111.416664L481.8875 111.416664L481.8875 116.916664L480.8094 116.916664ZM484.8094 116.916664L484.8094 111.416664L483.8094 111.416664L483.8094 110.572914L484.8094 110.572914L484.8094 109.93229Q484.8094 108.90104 485.34064 108.354164Q485.8875 107.791664 486.8875 107.791664Q487.2625 107.791664 487.6375 107.885414L487.575 108.77604Q487.29376 108.71354 486.9969 108.71354Q486.46564 108.71354 486.16876 109.02604Q485.8875 109.33854 485.8875 109.90104L485.8875 110.572914L487.2469 110.572914L487.2469 111.416664L485.8875 111.416664L485.8875 116.916664L484.8094 116.916664ZM496.15314 113.15104L492.5594 113.15104L492.5594 116.916664L491.4344 116.916664L491.4344 108.385414L496.73126 108.385414L496.73126 109.30729L492.5594 109.30729L492.5594 112.229164L496.15314 112.229164L496.15314 113.15104ZM499.45 116.916664L498.3719 116.916664L498.3719 110.572914L499.45 110.572914L499.45 116.916664ZM498.27814 108.90104Q498.27814 108.635414 498.4344 108.447914Q498.60626 108.260414 498.91876 108.260414Q499.23126 108.260414 499.3875 108.447914Q499.5594 108.635414 499.5594 108.90104Q499.5594 109.15104 499.3875 109.33854Q499.23126 109.510414 498.91876 109.510414Q498.60626 109.510414 498.4344 109.33854Q498.27814 109.15104 498.27814 108.90104ZM501.0125 113.697914Q501.0125 112.229164 501.7 111.354164Q502.3875 110.46354 503.5125 110.46354Q504.6219 110.46354 505.27814 111.21354L505.27814 107.916664L506.35626 107.916664L506.35626 116.916664L505.35626 116.916664L505.3094 116.229164Q504.65314 117.041664 503.4969 117.041664Q502.40314 117.041664 501.7 116.135414Q501.0125 115.229164 501.0125 113.77604L501.0125 113.697914ZM502.09064 113.822914Q502.09064 114.90104 502.52814 115.510414Q502.98126 116.11979 503.7625 116.11979Q504.79376 116.11979 505.27814 115.18229L505.27814 112.27604Q504.79376 111.385414 503.77814 111.385414Q502.98126 111.385414 502.52814 111.99479Q502.09064 112.604164 502.09064 113.822914ZM508.0125 113.697914Q508.0125 112.229164 508.7 111.354164Q509.3875 110.46354 510.5125 110.46354Q511.6219 110.46354 512.27814 111.21354L512.27814 107.916664L513.35626 107.916664L513.35626 116.916664L512.35626 116.916664L512.3094 116.229164Q511.65314 117.041664 510.4969 117.041664Q509.40314 117.041664 508.7 116.135414Q508.0125 115.229164 508.0125 113.77604L508.0125 113.697914ZM509.09064 113.822914Q509.09064 114.90104 509.52814 115.510414Q509.98126 116.11979 510.7625 116.11979Q511.79376 116.11979 512.27814 115.18229L512.27814 112.27604Q511.79376 111.385414 510.77814 111.385414Q509.98126 111.385414 509.52814 111.99479Q509.09064 112.604164 509.09064 113.822914ZM516.45 116.916664L515.3719 116.916664L515.3719 107.916664L516.45 107.916664L516.45 116.916664ZM520.90314 117.041664Q519.60626 117.041664 518.79376 116.197914Q517.9969 115.33854 517.9969 113.916664L517.9969 113.729164Q517.9969 112.77604 518.35626 112.041664Q518.71564 111.291664 519.35626 110.885414Q520.0125 110.46354 520.7625 110.46354Q521.9969 110.46354 522.6844 111.27604Q523.3719 112.08854 523.3719 113.604164L523.3719 114.05729L519.075 114.05729Q519.10626 114.99479 519.6219 115.572914Q520.15314 116.15104 520.96564 116.15104Q521.52814 116.15104 521.91876 115.916664Q522.325 115.68229 522.6375 115.291664L523.29376 115.80729Q522.4969 117.041664 520.90314 117.041664ZM520.7625 111.354164Q520.10626 111.354164 519.65314 111.83854Q519.21564 112.30729 519.1219 113.166664L522.29376 113.166664L522.29376 113.08854Q522.2469 112.260414 521.84064 111.80729Q521.45 111.354164 520.7625 111.354164ZM527.96564 115.229164Q527.96564 114.791664 527.6219 114.55729Q527.29376 114.30729 526.46564 114.135414Q525.65314 113.96354 525.16876 113.71354Q524.6844 113.46354 524.45 113.135414Q524.23126 112.791664 524.23126 112.322914Q524.23126 111.541664 524.8875 111.010414Q525.54376 110.46354 526.575 110.46354Q527.65314 110.46354 528.3094 111.02604Q528.98126 111.572914 528.98126 112.43229L527.90314 112.43229Q527.90314 111.99479 527.5125 111.68229Q527.1375 111.354164 526.575 111.354164Q525.98126 111.354164 525.6375 111.61979Q525.3094 111.86979 525.3094 112.27604Q525.3094 112.666664 525.6219 112.86979Q525.9344 113.072914 526.7469 113.260414Q527.5594 113.43229 528.0594 113.68229Q528.5594 113.93229 528.79376 114.291664Q529.04376 114.65104 529.04376 115.15104Q529.04376 116.010414 528.35626 116.52604Q527.6844 117.041664 526.60626 117.041664Q525.84064 117.041664 525.2469 116.77604Q524.66876 116.49479 524.34064 116.010414Q524.0125 115.52604 524.0125 114.96354L525.09064 114.96354Q525.1219 115.510414 525.52814 115.83854Q525.9344 116.15104 526.60626 116.15104Q527.21564 116.15104 527.59064 115.90104Q527.96564 115.65104 527.96564 115.229164Z" fill-rule="nonzero"/><path stroke="#109618" stroke-width="4.0" stroke-linecap="butt" d="M439.45 137.41667L451.45 137.41667" fill-rule="nonzero"/><path fill="#757575" d="M462.95 138.1198Q461.5125 137.69792 460.84064 137.08855Q460.1844 136.47917 460.1844 135.58855Q460.1844 134.58855 460.98126 133.9323Q461.79376 133.26042 463.09064 133.26042Q463.96564 133.26042 464.65314 133.60417Q465.34064 133.94792 465.71564 134.54167Q466.10626 135.13542 466.10626 135.85417L464.96564 135.85417Q464.96564 135.07292 464.46564 134.63542Q463.98126 134.19792 463.09064 134.19792Q462.2625 134.19792 461.79376 134.57292Q461.325 134.9323 461.325 135.57292Q461.325 136.10417 461.7625 136.46355Q462.21564 136.82292 463.27814 137.1198Q464.34064 137.41667 464.9344 137.77605Q465.54376 138.13542 465.825 138.6198Q466.1219 139.10417 466.1219 139.7448Q466.1219 140.79167 465.3094 141.41667Q464.4969 142.04167 463.15314 142.04167Q462.2625 142.04167 461.4969 141.69792Q460.7469 141.35417 460.325 140.77605Q459.91876 140.1823 459.91876 139.44792L461.04376 139.44792Q461.04376 140.21355 461.6219 140.66667Q462.2 141.1198 463.15314 141.1198Q464.04376 141.1198 464.5125 140.76042Q464.98126 140.38542 464.98126 139.76042Q464.98126 139.13542 464.54376 138.79167Q464.10626 138.44792 462.95 138.1198ZM466.98126 138.6823Q466.98126 137.76042 467.34064 137.01042Q467.71564 136.26042 468.3719 135.8698Q469.02814 135.46355 469.85626 135.46355Q471.15314 135.46355 471.95 136.35417Q472.7625 137.2448 472.7625 138.7448L472.7625 138.82292Q472.7625 139.7448 472.40314 140.47917Q472.04376 141.21355 471.3875 141.63542Q470.73126 142.04167 469.8719 142.04167Q468.59064 142.04167 467.77814 141.15105Q466.98126 140.2448 466.98126 138.76042L466.98126 138.6823ZM468.075 138.82292Q468.075 139.8698 468.5594 140.51042Q469.0594 141.15105 469.8719 141.15105Q470.7 141.15105 471.1844 140.51042Q471.66876 139.85417 471.66876 138.6823Q471.66876 137.65105 471.16876 137.01042Q470.6844 136.35417 469.85626 136.35417Q469.0594 136.35417 468.5594 136.9948Q468.075 137.6198 468.075 138.82292ZM477.34064 136.54167Q477.09064 136.51042 476.8094 136.51042Q475.73126 136.51042 475.35626 137.41667L475.35626 141.91667L474.27814 141.91667L474.27814 135.57292L475.325 135.57292L475.34064 136.3073Q475.8719 135.46355 476.85626 135.46355Q477.16876 135.46355 477.34064 135.54167L477.34064 136.54167ZM481.34064 136.54167Q481.09064 136.51042 480.8094 136.51042Q479.73126 136.51042 479.35626 137.41667L479.35626 141.91667L478.27814 141.91667L478.27814 135.57292L479.325 135.57292L479.34064 136.3073Q479.8719 135.46355 480.85626 135.46355Q481.16876 135.46355 481.34064 135.54167L481.34064 136.54167ZM484.34064 140.32292L485.825 135.57292L486.98126 135.57292L484.4344 142.90105Q483.84064 144.47917 482.5594 144.47917L482.34064 144.46355L481.95 144.38542L481.95 143.51042L482.23126 143.52605Q482.79376 143.52605 483.09064 143.3073Q483.40314 143.08855 483.60626 142.4948L483.84064 141.83855L481.575 135.57292L482.7625 135.57292L484.34064 140.32292ZM496.15314 138.15105L492.5594 138.15105L492.5594 141.91667L491.4344 141.91667L491.4344 133.38542L496.73126 133.38542L496.73126 134.3073L492.5594 134.3073L492.5594 137.22917L496.15314 137.22917L496.15314 138.15105ZM497.98126 138.6823Q497.98126 137.76042 498.34064 137.01042Q498.71564 136.26042 499.3719 135.8698Q500.02814 135.46355 500.85626 135.46355Q502.15314 135.46355 502.95 136.35417Q503.7625 137.2448 503.7625 138.7448L503.7625 138.82292Q503.7625 139.7448 503.40314 140.47917Q503.04376 141.21355 502.3875 141.63542Q501.73126 142.04167 500.8719 142.04167Q499.59064 142.04167 498.77814 141.15105Q497.98126 140.2448 497.98126 138.76042L497.98126 138.6823ZM499.075 138.82292Q499.075 139.8698 499.5594 140.51042Q500.0594 141.15105 500.8719 141.15105Q501.7 141.15105 502.1844 140.51042Q502.66876 139.85417 502.66876 138.6823Q502.66876 137.65105 502.16876 137.01042Q501.6844 136.35417 500.85626 136.35417Q500.0594 136.35417 499.5594 136.9948Q499.075 137.6198 499.075 138.82292ZM508.34064 136.54167Q508.09064 136.51042 507.8094 136.51042Q506.73126 136.51042 506.35626 137.41667L506.35626 141.91667L505.27814 141.91667L505.27814 135.57292L506.325 135.57292L506.34064 136.3073Q506.8719 135.46355 507.85626 135.46355Q508.16876 135.46355 508.34064 135.54167L508.34064 136.54167ZM513.5594 138.57292L513.5594 141.91667L512.4344 141.91667L512.4344 133.38542L515.59064 133.38542Q516.98126 133.38542 517.77814 134.10417Q518.575 134.8073 518.575 135.9948Q518.575 137.22917 517.79376 137.90105Q517.02814 138.57292 515.575 138.57292L513.5594 138.57292ZM513.5594 137.65105L515.59064 137.65105Q516.4969 137.65105 516.96564 137.22917Q517.45 136.8073 517.45 136.01042Q517.45 135.2448 516.96564 134.79167Q516.4969 134.32292 515.65314 134.3073L513.5594 134.3073L513.5594 137.65105ZM524.1844 141.91667Q524.09064 141.72917 524.02814 141.2448Q523.27814 142.04167 522.23126 142.04167Q521.29376 142.04167 520.6844 141.51042Q520.09064 140.97917 520.09064 140.15105Q520.09064 139.16667 520.84064 138.6198Q521.59064 138.07292 522.96564 138.07292L524.0125 138.07292L524.0125 137.57292Q524.0125 137.01042 523.66876 136.6823Q523.34064 136.33855 522.66876 136.33855Q522.09064 136.33855 521.7 136.63542Q521.3094 136.91667 521.3094 137.33855L520.21564 137.33855Q520.21564 136.85417 520.54376 136.41667Q520.8875 135.97917 521.46564 135.72917Q522.04376 135.46355 522.73126 135.46355Q523.84064 135.46355 524.45 136.01042Q525.075 136.5573 525.10626 137.51042L525.10626 140.4323Q525.10626 141.3073 525.325 141.82292L525.325 141.91667L524.1844 141.91667ZM522.3875 141.08855Q522.90314 141.08855 523.35626 140.82292Q523.8094 140.5573 524.0125 140.13542L524.0125 138.83855L523.16876 138.83855Q521.16876 138.83855 521.16876 140.01042Q521.16876 140.51042 521.5125 140.8073Q521.85626 141.08855 522.3875 141.08855ZM530.34064 136.54167Q530.09064 136.51042 529.8094 136.51042Q528.73126 136.51042 528.35626 137.41667L528.35626 141.91667L527.27814 141.91667L527.27814 135.57292L528.325 135.57292L528.34064 136.3073Q528.8719 135.46355 529.85626 135.46355Q530.16876 135.46355 530.34064 135.54167L530.34064 136.54167ZM532.7469 134.04167L532.7469 135.57292L533.91876 135.57292L533.91876 136.41667L532.7469 136.41667L532.7469 140.33855Q532.7469 140.72917 532.90314 140.91667Q533.0594 141.10417 533.4344 141.10417Q533.6219 141.10417 533.95 141.04167L533.95 141.91667Q533.52814 142.04167 533.1219 142.04167Q532.40314 142.04167 532.02814 141.60417Q531.65314 141.15105 531.65314 140.33855L531.65314 136.41667L530.4969 136.41667L530.4969 135.57292L531.65314 135.57292L531.65314 134.04167L532.7469 134.04167ZM537.34064 140.32292L538.825 135.57292L539.98126 135.57292L537.4344 142.90105Q536.84064 144.47917 535.5594 144.47917L535.34064 144.46355L534.95 144.38542L534.95 143.51042L535.23126 143.52605Q535.79376 143.52605 536.09064 143.3073Q536.40314 143.08855 536.60626 142.4948L536.84064 141.83855L534.575 135.57292L535.7625 135.57292L537.34064 140.32292ZM542.45 141.91667L541.3719 141.91667L541.3719 135.57292L542.45 135.57292L542.45 141.91667ZM541.27814 133.90105Q541.27814 133.63542 541.4344 133.44792Q541.60626 133.26042 541.91876 133.26042Q542.23126 133.26042 542.3875 133.44792Q542.5594 133.63542 542.5594 133.90105Q542.5594 134.15105 542.3875 134.33855Q542.23126 134.51042 541.91876 134.51042Q541.60626 134.51042 541.4344 134.33855Q541.27814 134.15105 541.27814 133.90105ZM545.29376 135.57292L545.325 136.3698Q546.0594 135.46355 547.23126 135.46355Q549.2469 135.46355 549.2625 137.72917L549.2625 141.91667L548.16876 141.91667L548.16876 137.71355Q548.16876 137.04167 547.85626 136.71355Q547.5594 136.38542 546.90314 136.38542Q546.3719 136.38542 545.96564 136.66667Q545.575 136.94792 545.35626 137.40105L545.35626 141.91667L544.27814 141.91667L544.27814 135.57292L545.29376 135.57292ZM551.0125 138.69792Q551.0125 137.21355 551.7 136.33855Q552.3875 135.46355 553.5125 135.46355Q554.66876 135.46355 555.325 136.27605L555.3719 135.57292L556.3719 135.57292L556.3719 141.76042Q556.3719 142.9948 555.6375 143.69792Q554.90314 144.41667 553.6844 144.41667Q552.9969 144.41667 552.34064 144.1198Q551.6844 143.82292 551.34064 143.32292L551.90314 142.66667Q552.59064 143.52605 553.60626 143.52605Q554.3875 143.52605 554.825 143.07292Q555.27814 142.63542 555.27814 141.82292L555.27814 141.27605Q554.6219 142.04167 553.4969 142.04167Q552.3875 142.04167 551.7 141.15105Q551.0125 140.2448 551.0125 138.69792ZM552.10626 138.82292Q552.10626 139.88542 552.54376 140.51042Q552.98126 141.1198 553.77814 141.1198Q554.79376 141.1198 555.27814 140.1823L555.27814 137.29167Q554.77814 136.38542 553.77814 136.38542Q552.9969 136.38542 552.54376 136.9948Q552.10626 137.60417 552.10626 138.82292Z" fill-rule="nonzero"/><path fill="#757575" d="M29.05 37.55L19.7375 37.55L19.7375 36.253124L24.659374 30.784374Q25.753124 29.534374 26.159374 28.76875Q26.58125 27.9875 26.58125 27.159374Q26.58125 26.05 25.909374 25.33125Q25.2375 24.6125 24.1125 24.6125Q22.753124 24.6125 22.003124 25.39375Q21.26875 26.159374 21.26875 27.51875L19.45625 27.51875Q19.45625 25.55 20.721874 24.346874Q21.9875 23.128124 24.1125 23.128124Q26.096874 23.128124 27.2375 24.175Q28.39375 25.221874 28.39375 26.940624Q28.39375 29.05 25.721874 31.940624L21.909374 36.08125L29.05 36.08125L29.05 37.55ZM39.64375 31.4875Q39.64375 34.659374 38.565624 36.20625Q37.4875 37.753124 35.175 37.753124Q32.89375 37.753124 31.8 36.2375Q30.70625 34.721874 30.675 31.721874L30.675 29.315624Q30.675 26.175 31.753124 24.659374Q32.846874 23.128124 35.159374 23.128124Q37.45625 23.128124 38.534374 24.6125Q39.6125 26.08125 39.64375 29.14375L39.64375 31.4875ZM37.846874 29.01875Q37.846874 26.721874 37.190624 25.675Q36.55 24.6125 35.159374 24.6125Q33.76875 24.6125 33.128124 25.659374Q32.503124 26.70625 32.4875 28.878124L32.4875 31.76875Q32.4875 34.065624 33.14375 35.175Q33.815624 36.26875 35.175 36.26875Q36.51875 36.26875 37.159374 35.2375Q37.815624 34.20625 37.846874 31.971874L37.846874 29.01875ZM47.675 37.55L45.846874 37.55L45.846874 25.503124L42.20625 26.846874L42.20625 25.20625L47.39375 23.26875L47.675 23.26875L47.675 37.55ZM53.565624 30.425L54.284374 23.33125L61.565624 23.33125L61.565624 25.003124L55.815624 25.003124L55.39375 28.878124Q56.440624 28.26875 57.76875 28.26875Q59.70625 28.26875 60.846874 29.55Q61.9875 30.83125 61.9875 33.01875Q61.9875 35.221874 60.8 36.4875Q59.6125 37.753124 57.4875 37.753124Q55.596874 37.753124 54.409374 36.70625Q53.221874 35.659374 53.05 33.815624L54.76875 33.815624Q54.925 35.034374 55.628124 35.659374Q56.33125 36.26875 57.4875 36.26875Q58.753124 36.26875 59.471874 35.409374Q60.190624 34.55 60.190624 33.034374Q60.190624 31.6125 59.409374 30.753124Q58.628124 29.878124 57.346874 29.878124Q56.159374 29.878124 55.4875 30.39375L55.003124 30.784374L53.565624 30.425ZM79.01875 24.878124L74.45625 24.878124L74.45625 37.55L72.59688 37.55L72.59688 24.878124L68.03438 24.878124L68.03438 23.33125L79.01875 23.33125L79.01875 24.878124ZM80.44063 32.175Q80.44063 30.6125 81.05 29.378124Q81.65938 28.128124 82.7375 27.45625Q83.83125 26.784374 85.2375 26.784374Q87.39375 26.784374 88.72188 28.284374Q90.06563 29.76875 90.06563 32.253124L90.06563 32.378124Q90.06563 33.925 89.47188 35.159374Q88.87813 36.378124 87.76875 37.065624Q86.675 37.753124 85.25313 37.753124Q83.1125 37.753124 81.76875 36.253124Q80.44063 34.753124 80.44063 32.3L80.44063 32.175ZM82.25313 32.378124Q82.25313 34.14375 83.06563 35.20625Q83.89375 36.26875 85.25313 36.26875Q86.62813 36.26875 87.44063 35.190624Q88.25313 34.1125 88.25313 32.175Q88.25313 30.425 87.425 29.346874Q86.59688 28.26875 85.2375 28.26875Q83.89375 28.26875 83.06563 29.33125Q82.25313 30.39375 82.25313 32.378124ZM100.84688 32.378124Q100.84688 34.8 99.7375 36.284374Q98.64375 37.753124 96.75313 37.753124Q94.83125 37.753124 93.72188 36.51875L93.72188 41.6125L91.925 41.6125L91.925 26.9875L93.56563 26.9875L93.65938 28.159374Q94.75313 26.784374 96.72188 26.784374Q98.62813 26.784374 99.7375 28.221874Q100.84688 29.659374 100.84688 32.221874L100.84688 32.378124ZM99.03438 32.175Q99.03438 30.39375 98.26875 29.3625Q97.51875 28.315624 96.19063 28.315624Q94.55 28.315624 93.72188 29.76875L93.72188 34.83125Q94.53438 36.26875 96.20625 36.26875Q97.50313 36.26875 98.26875 35.2375Q99.03438 34.20625 99.03438 32.175ZM115.3625 32.76875L117.33125 32.76875L117.33125 34.253124L115.3625 34.253124L115.3625 37.55L113.55 37.55L113.55 34.253124L107.06563 34.253124L107.06563 33.190624L113.44063 23.33125L115.3625 23.33125L115.3625 32.76875ZM109.1125 32.76875L113.55 32.76875L113.55 25.8L113.33125 26.190624L109.1125 32.76875ZM127.675 32.253124L122.90938 32.253124L122.90938 30.76875L127.675 30.76875L127.675 32.253124ZM137.20625 37.55L135.33125 37.55L135.33125 23.33125L137.20625 23.33125L137.20625 37.55ZM141.62813 26.9875L141.69063 28.315624Q142.89375 26.784374 144.84688 26.784374Q148.20625 26.784374 148.22188 30.565624L148.22188 37.55L146.425 37.55L146.425 30.55Q146.40938 29.409374 145.89375 28.8625Q145.39375 28.315624 144.3 28.315624Q143.425 28.315624 142.75313 28.784374Q142.09688 29.253124 141.72188 30.01875L141.72188 37.55L139.925 37.55L139.925 26.9875L141.62813 26.9875ZM158.3625 24.425L158.3625 26.9875L160.34688 26.9875L160.34688 28.378124L158.3625 28.378124L158.3625 34.925Q158.3625 35.565624 158.62813 35.89375Q158.89375 36.20625 159.53438 36.20625Q159.84688 36.20625 160.39375 36.08125L160.39375 37.55Q159.675 37.753124 159.00313 37.753124Q157.8 37.753124 157.175 37.01875Q156.56563 36.284374 156.56563 34.925L156.56563 28.378124L154.64375 28.378124L154.64375 26.9875L156.56563 26.9875L156.56563 24.425L158.3625 24.425ZM164.72188 28.26875Q165.925 26.784374 167.84688 26.784374Q171.20625 26.784374 171.22188 30.565624L171.22188 37.55L169.425 37.55L169.425 30.55Q169.40938 29.409374 168.89375 28.8625Q168.39375 28.315624 167.3 28.315624Q166.425 28.315624 165.75313 28.784374Q165.09688 29.253124 164.72188 30.01875L164.72188 37.55L162.925 37.55L162.925 22.55L164.72188 22.55L164.72188 28.26875ZM178.3 37.753124Q176.15938 37.753124 174.8 36.346874Q173.45625 34.925 173.45625 32.565624L173.45625 32.221874Q173.45625 30.659374 174.05 29.425Q174.65938 28.190624 175.7375 27.4875Q176.81563 26.784374 178.08125 26.784374Q180.14375 26.784374 181.28438 28.14375Q182.425 29.503124 182.425 32.034374L182.425 32.784374L175.26875 32.784374Q175.3 34.346874 176.175 35.315624Q177.05 36.26875 178.39375 36.26875Q179.3625 36.26875 180.01875 35.878124Q180.69063 35.4875 181.19063 34.846874L182.28438 35.70625Q180.95625 37.753124 178.3 37.753124ZM178.08125 28.26875Q176.9875 28.26875 176.2375 29.065624Q175.50313 29.8625 175.33125 31.3L180.6125 31.3L180.6125 31.159374Q180.53438 29.784374 179.8625 29.034374Q179.20625 28.26875 178.08125 28.26875ZM192.62813 23.33125L197.26875 34.925L201.925 23.33125L204.34688 23.33125L204.34688 37.55L202.47188 37.55L202.47188 32.01875L202.65938 26.034374L197.9875 37.55L196.55 37.55L191.89375 26.065624L192.08125 32.01875L192.08125 37.55L190.20625 37.55L190.20625 23.33125L192.62813 23.33125ZM206.44063 32.175Q206.44063 30.6125 207.05 29.378124Q207.65938 28.128124 208.7375 27.45625Q209.83125 26.784374 211.2375 26.784374Q213.39375 26.784374 214.72188 28.284374Q216.06563 29.76875 216.06563 32.253124L216.06563 32.378124Q216.06563 33.925 215.47188 35.159374Q214.87813 36.378124 213.76875 37.065624Q212.675 37.753124 211.25313 37.753124Q209.1125 37.753124 207.76875 36.253124Q206.44063 34.753124 206.44063 32.3L206.44063 32.175ZM208.25313 32.378124Q208.25313 34.14375 209.06563 35.20625Q209.89375 36.26875 211.25313 36.26875Q212.62813 36.26875 213.44063 35.190624Q214.25313 34.1125 214.25313 32.175Q214.25313 30.425 213.425 29.346874Q212.59688 28.26875 211.2375 28.26875Q209.89375 28.26875 209.06563 29.33125Q208.25313 30.39375 208.25313 32.378124ZM219.62813 26.9875L219.69063 28.315624Q220.89375 26.784374 222.84688 26.784374Q226.20625 26.784374 226.22188 30.565624L226.22188 37.55L224.425 37.55L224.425 30.55Q224.40938 29.409374 223.89375 28.8625Q223.39375 28.315624 222.3 28.315624Q221.425 28.315624 220.75313 28.784374Q220.09688 29.253124 219.72188 30.01875L219.72188 37.55L217.925 37.55L217.925 26.9875L219.62813 26.9875ZM233.3 37.753124Q231.15938 37.753124 229.8 36.346874Q228.45625 34.925 228.45625 32.565624L228.45625 32.221874Q228.45625 30.659374 229.05 29.425Q229.65938 28.190624 230.7375 27.4875Q231.81563 26.784374 233.08125 26.784374Q235.14375 26.784374 236.28438 28.14375Q237.425 29.503124 237.425 32.034374L237.425 32.784374L230.26875 32.784374Q230.3 34.346874 231.175 35.315624Q232.05 36.26875 233.39375 36.26875Q234.3625 36.26875 235.01875 35.878124Q235.69063 35.4875 236.19063 34.846874L237.28438 35.70625Q235.95625 37.753124 233.3 37.753124ZM233.08125 28.26875Q231.9875 28.26875 231.2375 29.065624Q230.50313 29.8625 230.33125 31.3L235.6125 31.3L235.6125 31.159374Q235.53438 29.784374 234.8625 29.034374Q234.20625 28.26875 233.08125 28.26875ZM243.37813 34.909374L245.83125 26.9875L247.76875 26.9875L243.51875 39.175Q242.53438 41.815624 240.39375 41.815624L240.05 41.784374L239.37813 41.659374L239.37813 40.190624L239.8625 40.2375Q240.78438 40.2375 241.28438 39.8625Q241.8 39.4875 242.12813 38.503124L242.53438 37.425L238.76875 26.9875L240.7375 26.9875L243.37813 34.909374Z" fill-rule="nonzero"/></svg>