<svg version="1.1" viewBox="0.0 0.0 600.0 371.0" fill="none" stroke="none" stroke-linecap="square" stroke-miterlimit="10" width="600" height="371" xmlns:xlink="http://www.w3.org/1999/xlink" xmlns="http://www.w3.org/2000/svg"><path fill="#ffffff" d="M0 0L600.0 0L600.0 371.0L0 371.0L0 0Z" fill-rule="nonzero"/><path fill="#ffffff" d="M0 0L600.0 0L600.0 371.0L0 371.0L0 0Z" fill-rule="nonzero"/><path fill="#ffffff" d="M18.55 54.916668L442.61444 54.916668L442.61444 352.44998L18.55 352.44998L18.55 54.916668Z" fill-rule="nonzero"/><path stroke="#cccccc" stroke-width="1.0" stroke-linecap="butt" d="M231.0 204.0C231.0 204.0 231.0 204.0 231.0 204.0C231.0 204.0 231.0 204.0 231.0 204.0C231.0 204.0 231.0 204.0 231.0 204.0C231.0 204.0 231.0 204.0 231.0 204.0" fill-rule="nonzero"/><path fill="#000000" d="M228.0625 197.35938Q228.0625 199.26562 227.40625 200.20312Q226.76562 201.125 225.375 201.125Q224.01562 201.125 223.35938 200.21875Q222.70312 199.3125 222.67188 197.5L222.67188 196.0625Q222.67188 194.17188 223.3125 193.26562Q223.96875 192.34375 225.35938 192.34375Q226.73438 192.34375 227.39062 193.23438Q228.04688 194.10938 228.0625 195.95312L228.0625 197.35938ZM226.96875 195.875Q226.96875 194.5 226.57812 193.875Q226.20312 193.23438 225.35938 193.23438Q224.53125 193.23438 224.14062 193.875Q223.76562 194.5 223.76562 195.79688L223.76562 197.53125Q223.76562 198.90625 224.15625 199.57812Q224.5625 200.23438 225.375 200.23438Q226.17188 200.23438 226.5625 199.60938Q226.95312 198.98438 226.96875 197.65625L226.96875 195.875Z" fill-rule="nonzero"/><path stroke="#cccccc" stroke-width="1.0" stroke-linecap="butt" d="M269.9222 204.0C269.9222 182.50385 252.49615 165.07777 231.0 165.07777C209.50385 165.07777 192.07777 182.50385 192.07777 204.0C192.07777 225.49615 209.50385 242.92223 231.0 242.92223C252.49615 242.92223 269.9222 225.49615 269.9222 204.0" fill-rule="nonzero"/><path fill="#000000" d="M223.20312 157.79652L223.64062 153.54652L228.01562 153.54652L228.01562 154.54652L224.5625 154.54652L224.29688 156.87465Q224.9375 156.49965 225.73438 156.49965Q226.89062 156.49965 227.57812 157.2809Q228.26562 158.04652 228.26562 159.35902Q228.26562 160.67152 227.54688 161.43715Q226.84375 162.20277 225.5625 162.20277Q224.4375 162.20277 223.71875 161.57777Q223.0 160.93715 222.90625 159.82777L223.92188 159.82777Q224.03125 160.56215 224.45312 160.93715Q224.875 161.31215 225.5625 161.31215Q226.3125 161.31215 226.75 160.79652Q227.1875 160.2809 227.1875 159.37465Q227.1875 158.51527 226.71875 157.99965Q226.25 157.48402 225.46875 157.48402Q224.76562 157.48402 224.35938 157.7809L224.07812 158.01527L223.20312 157.79652Z" fill-rule="nonzero"/><path stroke="#cccccc" stroke-width="1.0" stroke-linecap="butt" d="M308.84445 204.0C308.84445 161.0077 273.9923 126.155556 231.0 126.155556C188.0077 126.155556 153.15555 161.0077 153.15555 204.0C153.15555 246.9923 188.0077 281.84445 231.0 281.84445C273.9923 281.84445 308.84445 246.9923 308.84445 204.0" fill-rule="nonzero"/><path fill="#000000" d="M219.26562 123.155556L218.1875 123.155556L218.1875 115.936806L216.0 116.73368L216.0 115.749306L219.10938 114.57743L219.26562 114.57743L219.26562 123.155556ZM228.0625 119.51493Q228.0625 121.42118 227.40625 122.35868Q226.76562 123.280556 225.375 123.280556Q224.01562 123.280556 223.35938 122.374306Q222.70312 121.468056 222.67188 119.655556L222.67188 118.218056Q222.67188 116.32743 223.3125 115.42118Q223.96875 114.499306 225.35938 114.499306Q226.73438 114.499306 227.39062 115.38993Q228.04688 116.26493 228.0625 118.10868L228.0625 119.51493ZM226.96875 118.030556Q226.96875 116.655556 226.57812 116.030556Q226.20312 115.38993 225.35938 115.38993Q224.53125 115.38993 224.14062 116.030556Q223.76562 116.655556 223.76562 117.95243L223.76562 119.686806Q223.76562 121.061806 224.15625 121.73368Q224.5625 122.38993 225.375 122.38993Q226.17188 122.38993 226.5625 121.76493Q226.95312 121.13993 226.96875 119.811806L226.96875 118.030556Z" fill-rule="nonzero"/><path stroke="#cccccc" stroke-width="1.0" stroke-linecap="butt" d="M347.76666 204.0C347.76666 139.51155 295.48846 87.23333 231.0 87.23333C166.51155 87.23333 114.23333 139.51155 114.23333 204.0C114.23333 268.48846 166.51155 320.76666 231.0 320.76666C295.48846 320.76666 347.76666 268.48846 347.76666 204.0" fill-rule="nonzero"/><path fill="#000000" d="M219.26562 84.23333L218.1875 84.23333L218.1875 77.01458L216.0 77.811455L216.0 76.82708L219.10938 75.655205L219.26562 75.655205L219.26562 84.23333ZM223.20312 79.95208L223.64062 75.70208L228.01562 75.70208L228.01562 76.70208L224.5625 76.70208L224.29688 79.030205Q224.9375 78.655205 225.73438 78.655205Q226.89062 78.655205 227.57812 79.436455Q228.26562 80.20208 228.26562 81.51458Q228.26562 82.82708 227.54688 83.592705Q226.84375 84.35833 225.5625 84.35833Q224.4375 84.35833 223.71875 83.73333Q223.0 83.092705 222.90625 81.98333L223.92188 81.98333Q224.03125 82.717705 224.45312 83.092705Q224.875 83.467705 225.5625 83.467705Q226.3125 83.467705 226.75 82.95208Q227.1875 82.436455 227.1875 81.530205Q227.1875 80.67083 226.71875 80.155205Q226.25 79.63958 225.46875 79.63958Q224.76562 79.63958 224.35938 79.936455L224.07812 80.17083L223.20312 79.95208Z" fill-rule="nonzero"/><path stroke="#cccccc" stroke-width="1.0" stroke-linecap="butt" d="M231.0 204.0L231.0 87.0" fill-rule="nonzero"/><path fill="#000000" d="M224.70312 65.734375L221.10938 65.734375L221.10938 69.5L219.98438 69.5L219.98438 60.96875L225.28125 60.96875L225.28125 61.890625L221.10938 61.890625L221.10938 64.8125L224.70312 64.8125L224.70312 65.734375ZM233.29688 68.375Q232.85938 69.0 232.07812 69.3125Q231.29688 69.625 230.26562 69.625Q229.23438 69.625 228.42188 69.140625Q227.60938 68.640625 227.17188 67.734375Q226.73438 66.828125 226.71875 65.640625L226.71875 64.90625Q226.71875 62.96875 227.60938 61.90625Q228.51562 60.84375 230.14062 60.84375Q231.48438 60.84375 232.29688 61.53125Q233.10938 62.21875 233.29688 63.46875L232.17188 63.46875Q231.84375 61.78125 230.15625 61.78125Q229.01562 61.78125 228.4375 62.578125Q227.85938 63.359375 227.84375 64.875L227.84375 65.5625Q227.84375 67.0 228.5 67.859375Q229.15625 68.703125 230.28125 68.703125Q230.90625 68.703125 231.375 68.5625Q231.85938 68.421875 232.17188 68.078125L232.17188 66.171875L230.20312 66.171875L230.20312 65.25L233.29688 65.25L233.29688 68.375ZM234.60938 62.609375Q234.60938 61.84375 235.09375 61.34375Q235.59375 60.84375 236.35938 60.84375Q237.14062 60.84375 237.625 61.34375Q238.10938 61.84375 238.10938 62.640625L238.10938 63.0625Q238.10938 63.828125 237.60938 64.328125Q237.125 64.8125 236.375 64.8125Q235.60938 64.8125 235.10938 64.328125Q234.60938 63.828125 234.60938 63.015625L234.60938 62.609375ZM235.42188 63.0625Q235.42188 63.515625 235.67188 63.8125Q235.9375 64.109375 236.375 64.109375Q236.79688 64.109375 237.04688 63.828125Q237.29688 63.53125 237.29688 63.03125L237.29688 62.609375Q237.29688 62.15625 237.04688 61.859375Q236.79688 61.546875 236.35938 61.546875Q235.92188 61.546875 235.67188 61.859375Q235.42188 62.15625 235.42188 62.625L235.42188 63.0625ZM238.76562 67.40625Q238.76562 66.640625 239.25 66.15625Q239.75 65.65625 240.51562 65.65625Q241.28125 65.65625 241.76562 66.15625Q242.26562 66.640625 242.26562 67.453125L242.26562 67.859375Q242.26562 68.625 241.78125 69.125Q241.29688 69.625 240.53125 69.625Q239.76562 69.625 239.26562 69.140625Q238.76562 68.640625 238.76562 67.828125L238.76562 67.40625ZM239.57812 67.859375Q239.57812 68.328125 239.82812 68.625Q240.09375 68.921875 240.53125 68.921875Q240.95312 68.921875 241.20312 68.640625Q241.45312 68.34375 241.45312 67.84375L241.45312 67.40625Q241.45312 66.9375 241.1875 66.65625Q240.9375 66.359375 240.51562 66.359375Q240.09375 66.359375 239.82812 66.65625Q239.57812 66.9375 239.57812 67.4375L239.57812 67.859375ZM236.625 68.859375L236.0 68.46875L240.17188 61.796875L240.78125 62.1875L236.625 68.859375Z" fill-rule="nonzero"/><path stroke="#cccccc" stroke-width="1.0" stroke-linecap="butt" d="M231.0 204.0L306.0 115.0" fill-rule="nonzero"/><path fill="#000000" d="M315.20312 97.734375L311.60938 97.734375L311.60938 101.5L310.48438 101.5L310.48438 92.96875L315.78125 92.96875L315.78125 93.890625L311.60938 93.890625L311.60938 96.8125L315.20312 96.8125L315.20312 97.734375ZM323.39062 93.890625L320.64062 93.890625L320.64062 101.5L319.53125 101.5L319.53125 93.890625L316.78125 93.890625L316.78125 92.96875L323.39062 92.96875L323.39062 93.890625ZM324.10938 94.609375Q324.10938 93.84375 324.59375 93.34375Q325.09375 92.84375 325.85938 92.84375Q326.64062 92.84375 327.125 93.34375Q327.60938 93.84375 327.60938 94.640625L327.60938 95.0625Q327.60938 95.828125 327.10938 96.328125Q326.625 96.8125 325.875 96.8125Q325.10938 96.8125 324.60938 96.328125Q324.10938 95.828125 324.10938 95.015625L324.10938 94.609375ZM324.92188 95.0625Q324.92188 95.515625 325.17188 95.8125Q325.4375 96.109375 325.875 96.109375Q326.29688 96.109375 326.54688 95.828125Q326.79688 95.53125 326.79688 95.03125L326.79688 94.609375Q326.79688 94.15625 326.54688 93.859375Q326.29688 93.546875 325.85938 93.546875Q325.42188 93.546875 325.17188 93.859375Q324.92188 94.15625 324.92188 94.625L324.92188 95.0625ZM328.26562 99.40625Q328.26562 98.640625 328.75 98.15625Q329.25 97.65625 330.01562 97.65625Q330.78125 97.65625 331.26562 98.15625Q331.76562 98.640625 331.76562 99.453125L331.76562 99.859375Q331.76562 100.625 331.28125 101.125Q330.79688 101.625 330.03125 101.625Q329.26562 101.625 328.76562 101.140625Q328.26562 100.640625 328.26562 99.828125L328.26562 99.40625ZM329.07812 99.859375Q329.07812 100.328125 329.32812 100.625Q329.59375 100.921875 330.03125 100.921875Q330.45312 100.921875 330.70312 100.640625Q330.95312 100.34375 330.95312 99.84375L330.95312 99.40625Q330.95312 98.9375 330.6875 98.65625Q330.4375 98.359375 330.01562 98.359375Q329.59375 98.359375 329.32812 98.65625Q329.07812 98.9375 329.07812 99.4375L329.07812 99.859375ZM326.125 100.859375L325.5 100.46875L329.67188 93.796875L330.28125 94.1875L326.125 100.859375Z" fill-rule="nonzero"/><path stroke="#cccccc" stroke-width="1.0" stroke-linecap="butt" d="M231.0 204.0L346.0 184.0" fill-rule="nonzero"/><path fill="#000000" d="M354.28125 179.70312L355.09375 179.70312Q355.875 179.6875 356.3125 179.29688Q356.75 178.90625 356.75 178.23438Q356.75 176.73438 355.25 176.73438Q354.54688 176.73438 354.125 177.14062Q353.71875 177.54688 353.71875 178.20312L352.625 178.20312Q352.625 177.1875 353.35938 176.51562Q354.10938 175.84375 355.25 175.84375Q356.45312 175.84375 357.14062 176.48438Q357.82812 177.125 357.82812 178.26562Q357.82812 178.82812 357.46875 179.34375Q357.10938 179.85938 356.48438 180.125Q357.1875 180.34375 357.5625 180.85938Q357.95312 181.375 357.95312 182.125Q357.95312 183.26562 357.20312 183.95312Q356.45312 184.625 355.25 184.625Q354.0625 184.625 353.29688 183.96875Q352.54688 183.3125 352.54688 182.25L353.64062 182.25Q353.64062 182.92188 354.07812 183.32812Q354.51562 183.73438 355.26562 183.73438Q356.04688 183.73438 356.45312 183.32812Q356.875 182.90625 356.875 182.14062Q356.875 181.40625 356.42188 181.01562Q355.96875 180.60938 355.09375 180.59375L354.28125 180.59375L354.28125 179.70312ZM361.10938 181.15625L361.10938 184.5L359.98438 184.5L359.98438 175.96875L363.14062 175.96875Q364.53125 175.96875 365.32812 176.6875Q366.125 177.39062 366.125 178.57812Q366.125 179.8125 365.34375 180.48438Q364.57812 181.15625 363.125 181.15625L361.10938 181.15625ZM361.10938 180.23438L363.14062 180.23438Q364.04688 180.23438 364.51562 179.8125Q365.0 179.39062 365.0 178.59375Q365.0 177.82812 364.51562 177.375Q364.04688 176.90625 363.20312 176.89062L361.10938 176.89062L361.10938 180.23438ZM373.89062 176.89062L371.14062 176.89062L371.14062 184.5L370.03125 184.5L370.03125 176.89062L367.28125 176.89062L367.28125 175.96875L373.89062 175.96875L373.89062 176.89062ZM376.4375 175.96875L379.23438 182.92188L382.01562 175.96875L383.48438 175.96875L383.48438 184.5L382.35938 184.5L382.35938 181.17188L382.46875 177.59375L379.65625 184.5L378.79688 184.5L376.0 177.60938L376.10938 181.17188L376.10938 184.5L374.98438 184.5L374.98438 175.96875L376.4375 175.96875Z" fill-rule="nonzero"/><path stroke="#cccccc" stroke-width="1.0" stroke-linecap="butt" d="M231.0 204.0L332.0 262.0" fill-rule="nonzero"/><path fill="#000000" d="M343.10938 275.15625L343.10938 278.5L341.98438 278.5L341.98438 269.96875L345.14062 269.96875Q346.53125 269.96875 347.32812 270.6875Q348.125 271.39062 348.125 272.57812Q348.125 273.8125 347.34375 274.48438Q346.57812 275.15625 345.125 275.15625L343.10938 275.15625ZM343.10938 274.23438L345.14062 274.23438Q346.04688 274.23438 346.51562 273.8125Q347.0 273.39062 347.0 272.59375Q347.0 271.82812 346.51562 271.375Q346.04688 270.90625 345.20312 270.89062L343.10938 270.89062L343.10938 274.23438ZM355.89062 270.89062L353.14062 270.89062L353.14062 278.5L352.03125 278.5L352.03125 270.89062L349.28125 270.89062L349.28125 269.96875L355.89062 269.96875L355.89062 270.89062ZM359.5 274.70312Q358.0625 274.28125 357.39062 273.67188Q356.73438 273.0625 356.73438 272.17188Q356.73438 271.17188 357.53125 270.51562Q358.34375 269.84375 359.64062 269.84375Q360.51562 269.84375 361.20312 270.1875Q361.89062 270.53125 362.26562 271.125Q362.65625 271.71875 362.65625 272.4375L361.51562 272.4375Q361.51562 271.65625 361.01562 271.21875Q360.53125 270.78125 359.64062 270.78125Q358.8125 270.78125 358.34375 271.15625Q357.875 271.51562 357.875 272.15625Q357.875 272.6875 358.3125 273.04688Q358.76562 273.40625 359.82812 273.70312Q360.89062 274.0 361.48438 274.35938Q362.09375 274.71875 362.375 275.20312Q362.67188 275.6875 362.67188 276.32812Q362.67188 277.375 361.85938 278.0Q361.04688 278.625 359.70312 278.625Q358.8125 278.625 358.04688 278.28125Q357.29688 277.9375 356.875 277.35938Q356.46875 276.76562 356.46875 276.03125L357.59375 276.03125Q357.59375 276.79688 358.17188 277.25Q358.75 277.70312 359.70312 277.70312Q360.59375 277.70312 361.0625 277.34375Q361.53125 276.96875 361.53125 276.34375Q361.53125 275.71875 361.09375 275.375Q360.65625 275.03125 359.5 274.70312Z" fill-rule="nonzero"/><path stroke="#cccccc" stroke-width="1.0" stroke-linecap="butt" d="M231.0 204.0L271.0 314.0" fill-rule="nonzero"/><path fill="#000000" d="M272.625 336.04688L270.60938 336.04688L270.60938 339.5L269.48438 339.5L269.48438 330.96875L272.3125 330.96875Q273.75 330.96875 274.51562 331.625Q275.29688 332.28125 275.29688 333.53125Q275.29688 334.32812 274.85938 334.92188Q274.4375 335.51562 273.67188 335.8125L275.67188 339.42188L275.67188 339.5L274.46875 339.5L272.625 336.04688ZM270.60938 335.125L272.34375 335.125Q273.1875 335.125 273.67188 334.70312Q274.17188 334.26562 274.17188 333.53125Q274.17188 332.75 273.70312 332.32812Q273.23438 331.90625 272.34375 331.89062L270.60938 331.89062L270.60938 335.125ZM281.3125 335.5625L277.60938 335.5625L277.60938 338.57812L281.90625 338.57812L281.90625 339.5L276.48438 339.5L276.48438 330.96875L281.85938 330.96875L281.85938 331.89062L277.60938 331.89062L277.60938 334.64062L281.3125 334.64062L281.3125 335.5625ZM283.48438 339.5L283.48438 330.96875L286.28125 330.96875Q287.67188 330.96875 288.35938 331.54688Q289.0625 332.10938 289.0625 333.23438Q289.0625 333.84375 288.71875 334.3125Q288.39062 334.76562 287.79688 335.01562Q288.5 335.20312 288.89062 335.75Q289.29688 336.28125 289.29688 337.03125Q289.29688 338.1875 288.54688 338.84375Q287.8125 339.5 286.45312 339.5L283.48438 339.5ZM284.60938 335.51562L284.60938 338.57812L286.46875 338.57812Q287.26562 338.57812 287.71875 338.17188Q288.17188 337.76562 288.17188 337.04688Q288.17188 335.51562 286.48438 335.51562L284.60938 335.51562ZM284.60938 334.60938L286.3125 334.60938Q287.04688 334.60938 287.48438 334.25Q287.9375 333.875 287.9375 333.23438Q287.9375 332.53125 287.53125 332.21875Q287.125 331.89062 286.28125 331.89062L284.60938 331.89062L284.60938 334.60938Z" fill-rule="nonzero"/><path stroke="#cccccc" stroke-width="1.0" stroke-linecap="butt" d="M231.0 204.0L191.0 314.0" fill-rule="nonzero"/><path fill="#000000" d="M177.70312 337.26562L174.125 337.26562L173.32812 339.5L172.17188 339.5L175.42188 330.96875L176.40625 330.96875L179.67188 339.5L178.51562 339.5L177.70312 337.26562ZM174.46875 336.34375L177.375 336.34375L175.92188 332.35938L174.46875 336.34375ZM183.5 335.70312Q182.0625 335.28125 181.39062 334.67188Q180.73438 334.0625 180.73438 333.17188Q180.73438 332.17188 181.53125 331.51562Q182.34375 330.84375 183.64062 330.84375Q184.51562 330.84375 185.20312 331.1875Q185.89062 331.53125 186.26562 332.125Q186.65625 332.71875 186.65625 333.4375L185.51562 333.4375Q185.51562 332.65625 185.01562 332.21875Q184.53125 331.78125 183.64062 331.78125Q182.8125 331.78125 182.34375 332.15625Q181.875 332.51562 181.875 333.15625Q181.875 333.6875 182.3125 334.04688Q182.76562 334.40625 183.82812 334.70312Q184.89062 335.0 185.48438 335.35938Q186.09375 335.71875 186.375 336.20312Q186.67188 336.6875 186.67188 337.32812Q186.67188 338.375 185.85938 339.0Q185.04688 339.625 183.70312 339.625Q182.8125 339.625 182.04688 339.28125Q181.29688 338.9375 180.875 338.35938Q180.46875 337.76562 180.46875 337.03125L181.59375 337.03125Q181.59375 337.79688 182.17188 338.25Q182.75 338.70312 183.70312 338.70312Q184.59375 338.70312 185.0625 338.34375Q185.53125 337.96875 185.53125 337.34375Q185.53125 336.71875 185.09375 336.375Q184.65625 336.03125 183.5 335.70312ZM193.89062 331.89062L191.14062 331.89062L191.14062 339.5L190.03125 339.5L190.03125 331.89062L187.28125 331.89062L187.28125 330.96875L193.89062 330.96875L193.89062 331.89062Z" fill-rule="nonzero"/><path stroke="#cccccc" stroke-width="1.0" stroke-linecap="butt" d="M231.0 204.0L130.0 262.0" fill-rule="nonzero"/><path fill="#000000" d="M106.5 274.70312Q105.0625 274.28125 104.390625 273.67188Q103.734375 273.0625 103.734375 272.17188Q103.734375 271.17188 104.53125 270.51562Q105.34375 269.84375 106.640625 269.84375Q107.515625 269.84375 108.203125 270.1875Q108.890625 270.53125 109.265625 271.125Q109.65625 271.71875 109.65625 272.4375L108.515625 272.4375Q108.515625 271.65625 108.015625 271.21875Q107.53125 270.78125 106.640625 270.78125Q105.8125 270.78125 105.34375 271.15625Q104.875 271.51562 104.875 272.15625Q104.875 272.6875 105.3125 273.04688Q105.765625 273.40625 106.828125 273.70312Q107.890625 274.0 108.484375 274.35938Q109.09375 274.71875 109.375 275.20312Q109.671875 275.6875 109.671875 276.32812Q109.671875 277.375 108.859375 278.0Q108.046875 278.625 106.703125 278.625Q105.8125 278.625 105.046875 278.28125Q104.296875 277.9375 103.875 277.35938Q103.46875 276.76562 103.46875 276.03125L104.59375 276.03125Q104.59375 276.79688 105.171875 277.25Q105.75 277.70312 106.703125 277.70312Q107.59375 277.70312 108.0625 277.34375Q108.53125 276.96875 108.53125 276.34375Q108.53125 275.71875 108.09375 275.375Q107.65625 275.03125 106.5 274.70312ZM116.890625 270.89062L114.140625 270.89062L114.140625 278.5L113.03125 278.5L113.03125 270.89062L110.28125 270.89062L110.28125 269.96875L116.890625 269.96875L116.890625 270.89062Z" fill-rule="nonzero"/><path stroke="#cccccc" stroke-width="1.0" stroke-linecap="butt" d="M231.0 204.0L116.0 184.0" fill-rule="nonzero"/><path fill="#000000" d="M84.484375 184.5L84.484375 175.96875L87.28125 175.96875Q88.671875 175.96875 89.359375 176.54688Q90.0625 177.10938 90.0625 178.23438Q90.0625 178.84375 89.71875 179.3125Q89.390625 179.76562 88.796875 180.01562Q89.5 180.20312 89.890625 180.75Q90.296875 181.28125 90.296875 182.03125Q90.296875 183.1875 89.546875 183.84375Q88.8125 184.5 87.453125 184.5L84.484375 184.5ZM85.609375 180.51562L85.609375 183.57812L87.46875 183.57812Q88.265625 183.57812 88.71875 183.17188Q89.171875 182.76562 89.171875 182.04688Q89.171875 180.51562 87.484375 180.51562L85.609375 180.51562ZM85.609375 179.60938L87.3125 179.60938Q88.046875 179.60938 88.484375 179.25Q88.9375 178.875 88.9375 178.23438Q88.9375 177.53125 88.53125 177.21875Q88.125 176.89062 87.28125 176.89062L85.609375 176.89062L85.609375 179.60938ZM92.625 183.57812L96.671875 183.57812L96.671875 184.5L91.484375 184.5L91.484375 175.96875L92.625 175.96875L92.625 183.57812ZM99.65625 180.53125L98.609375 181.60938L98.609375 184.5L97.484375 184.5L97.484375 175.96875L98.609375 175.96875L98.609375 180.1875L102.40625 175.96875L103.765625 175.96875L100.40625 179.73438L104.03125 184.5L102.6875 184.5L99.65625 180.53125Z" fill-rule="nonzero"/><path stroke="#cccccc" stroke-width="1.0" stroke-linecap="butt" d="M231.0 204.0L156.0 115.0" fill-rule="nonzero"/><path fill="#000000" d="M140.39062 93.890625L137.64062 93.890625L137.64062 101.5L136.53125 101.5L136.53125 93.890625L133.78125 93.890625L133.78125 92.96875L140.39062 92.96875L140.39062 93.890625ZM148.04688 97.515625Q148.04688 98.765625 147.625 99.703125Q147.20312 100.625 146.42188 101.125Q145.65625 101.625 144.625 101.625Q143.625 101.625 142.84375 101.125Q142.0625 100.625 141.625 99.71875Q141.20312 98.796875 141.1875 97.578125L141.1875 96.96875Q141.1875 95.734375 141.60938 94.796875Q142.04688 93.859375 142.82812 93.359375Q143.60938 92.84375 144.625 92.84375Q145.64062 92.84375 146.42188 93.34375Q147.20312 93.84375 147.625 94.78125Q148.04688 95.71875 148.04688 96.96875L148.04688 97.515625ZM146.9375 96.953125Q146.9375 95.4375 146.32812 94.625Q145.71875 93.8125 144.625 93.8125Q143.54688 93.8125 142.9375 94.625Q142.32812 95.4375 142.3125 96.875L142.3125 97.515625Q142.3125 98.984375 142.92188 99.828125Q143.54688 100.65625 144.625 100.65625Q145.71875 100.65625 146.3125 99.875Q146.92188 99.078125 146.9375 97.59375L146.9375 96.953125Z" fill-rule="nonzero"/><path stroke="#cccccc" stroke-width="1.0" stroke-linecap="butt" d="M231.0 204.0L231.0 87.0" fill-rule="nonzero"/><path stroke="#3366cc" stroke-width="1.0" stroke-linecap="butt" d="M231.0 118.0C253.0 113.0 276.0 114.0 301.0 121.0C318.0 139.0 331.0 161.0 338.0 185.0C340.0 210.0 335.0 235.0 325.0 258.0C306.0 275.0 285.0 286.0 263.0 292.0C242.0 299.0 220.0 302.0 196.0 299.0C175.0 289.0 157.0 273.0 143.0 255.0C134.0 233.0 130.0 210.0 131.0 186.0C167.0 176.0 200.0 181.0 226.0 198.0C216.0 174.0 217.0 146.0 231.0 118.0Z" fill-rule="nonzero"/><path stroke="#dc3912" stroke-width="1.0" stroke-linecap="butt" d="M231.0 126.0C250.0 123.0 271.0 125.0 291.0 132.0C306.0 148.0 317.0 167.0 323.0 188.0C324.0 209.0 320.0 231.0 312.0 251.0C301.0 270.0 285.0 286.0 266.0 299.0C243.0 307.0 219.0 310.0 194.0 306.0C171.0 295.0 152.0 279.0 137.0 258.0C132.0 234.0 133.0 210.0 139.0 188.0C167.0 176.0 194.0 176.0 216.0 186.0C212.0 167.0 217.0 146.0 231.0 126.0Z" fill-rule="nonzero"/><path stroke="#ff9900" stroke-width="1.0" stroke-linecap="butt" d="M231.0 95.0C250.0 126.0 254.0 158.0 246.0 186.0C271.0 175.0 300.0 174.0 331.0 186.0C332.0 210.0 328.0 233.0 319.0 255.0C306.0 275.0 289.0 293.0 268.0 306.0C243.0 307.0 220.0 302.0 199.0 292.0C180.0 282.0 163.0 268.0 150.0 251.0C149.0 229.0 153.0 209.0 162.0 192.0C183.0 183.0 204.0 184.0 221.0 192.0C210.0 162.0 213.0 128.0 231.0 95.0Z" fill-rule="nonzero"/><path stroke="#109618" stroke-width="1.0" stroke-linecap="butt" d="M231.0 165.0C243.0 154.0 260.0 146.0 281.0 144.0C296.0 156.0 307.0 171.0 315.0 189.0C314.0 209.0 308.0 227.0 298.0 243.0C288.0 257.0 274.0 269.0 258.0 277.0C240.0 279.0 223.0 276.0 207.0 270.0C191.0 265.0 176.0 256.0 164.0 243.0C166.0 223.0 174.0 207.0 185.0 196.0C183.0 183.0 185.0 170.0 191.0 156.0C207.0 155.0 220.0 159.0 231.0 165.0Z" fill-rule="nonzero"/><path stroke="#3366cc" stroke-width="4.0" stroke-linecap="butt" d="M462.45 62.416668L474.45 62.416668" fill-rule="nonzero"/><path fill="#757575" d="M483.4344 66.916664L483.4344 58.385414L485.85626 58.385414Q486.96564 58.385414 487.8094 58.885414Q488.66876 59.36979 489.1375 60.27604Q489.60626 61.18229 489.60626 62.36979L489.60626 62.90104Q489.60626 64.11979 489.1375 65.02604Q488.6844 65.93229 487.8094 66.416664Q486.95 66.90104 485.8094 66.916664L483.4344 66.916664ZM484.5594 59.30729L484.5594 65.99479L485.7469 65.99479Q487.04376 65.99479 487.7625 65.197914Q488.4969 64.385414 488.4969 62.885414L488.4969 62.385414Q488.4969 60.93229 487.8094 60.135414Q487.1375 59.322914 485.8719 59.30729L484.5594 59.30729ZM492.45 66.916664L491.3719 66.916664L491.3719 60.572914L492.45 60.572914L492.45 66.916664ZM491.27814 58.90104Q491.27814 58.635414 491.4344 58.447914Q491.60626 58.260414 491.91876 58.260414Q492.23126 58.260414 492.3875 58.447914Q492.5594 58.635414 492.5594 58.90104Q492.5594 59.15104 492.3875 59.33854Q492.23126 59.510414 491.91876 59.510414Q491.60626 59.510414 491.4344 59.33854Q491.27814 59.15104 491.27814 58.90104ZM497.34064 61.541664Q497.09064 61.510414 496.8094 61.510414Q495.73126 61.510414 495.35626 62.416664L495.35626 66.916664L494.27814 66.916664L494.27814 60.572914L495.325 60.572914L495.34064 61.30729Q495.8719 60.46354 496.85626 60.46354Q497.16876 60.46354 497.34064 60.541664L497.34064 61.541664ZM499.7469 59.041664L499.7469 60.572914L500.91876 60.572914L500.91876 61.416664L499.7469 61.416664L499.7469 65.33854Q499.7469 65.729164 499.90314 65.916664Q500.0594 66.104164 500.4344 66.104164Q500.6219 66.104164 500.95 66.041664L500.95 66.916664Q500.52814 67.041664 500.1219 67.041664Q499.40314 67.041664 499.02814 66.604164Q498.65314 66.15104 498.65314 65.33854L498.65314 61.416664L497.4969 61.416664L497.4969 60.572914L498.65314 60.572914L498.65314 59.041664L499.7469 59.041664ZM504.34064 65.322914L505.825 60.572914L506.98126 60.572914L504.4344 67.90104Q503.84064 69.479164 502.5594 69.479164L502.34064 69.46354L501.95 69.385414L501.95 68.510414L502.23126 68.52604Q502.79376 68.52604 503.09064 68.30729Q503.40314 68.08854 503.60626 67.49479L503.84064 66.83854L501.575 60.572914L502.7625 60.572914L504.34064 65.322914ZM511.4344 66.916664L511.4344 58.385414L513.85626 58.385414Q514.96564 58.385414 515.8094 58.885414Q516.66876 59.36979 517.1375 60.27604Q517.60626 61.18229 517.60626 62.36979L517.60626 62.90104Q517.60626 64.11979 517.1375 65.02604Q516.6844 65.93229 515.8094 66.416664Q514.95 66.90104 513.8094 66.916664L511.4344 66.916664ZM512.5594 59.30729L512.5594 65.99479L513.7469 65.99479Q515.04376 65.99479 515.7625 65.197914Q516.4969 64.385414 516.4969 62.885414L516.4969 62.385414Q516.4969 60.93229 515.8094 60.135414Q515.1375 59.322914 513.8719 59.30729L512.5594 59.30729ZM523.1844 66.916664Q523.09064 66.729164 523.02814 66.24479Q522.27814 67.041664 521.23126 67.041664Q520.29376 67.041664 519.6844 66.510414Q519.09064 65.979164 519.09064 65.15104Q519.09064 64.166664 519.84064 63.61979Q520.59064 63.072914 521.96564 63.072914L523.0125 63.072914L523.0125 62.572914Q523.0125 62.010414 522.66876 61.68229Q522.34064 61.33854 521.66876 61.33854Q521.09064 61.33854 520.7 61.635414Q520.3094 61.916664 520.3094 62.33854L519.21564 62.33854Q519.21564 61.854164 519.54376 61.416664Q519.8875 60.979164 520.46564 60.729164Q521.04376 60.46354 521.73126 60.46354Q522.84064 60.46354 523.45 61.010414Q524.075 61.55729 524.10626 62.510414L524.10626 65.43229Q524.10626 66.30729 524.325 66.822914L524.325 66.916664L523.1844 66.916664ZM521.3875 66.08854Q521.90314 66.08854 522.35626 65.822914Q522.8094 65.55729 523.0125 65.135414L523.0125 63.83854L522.16876 63.83854Q520.16876 63.83854 520.16876 65.010414Q520.16876 65.510414 520.5125 65.80729Q520.85626 66.08854 521.3875 66.08854ZM531.8875 65.416664L533.10626 60.572914L534.1844 60.572914L532.34064 66.916664L531.46564 66.916664L529.91876 62.104164L528.41876 66.916664L527.54376 66.916664L525.7 60.572914L526.77814 60.572914L528.02814 65.322914L529.5125 60.572914L530.3719 60.572914L531.8875 65.416664ZM535.0125 63.697914Q535.0125 62.21354 535.7 61.33854Q536.3875 60.46354 537.5125 60.46354Q538.66876 60.46354 539.325 61.27604L539.3719 60.572914L540.3719 60.572914L540.3719 66.760414Q540.3719 67.99479 539.6375 68.697914Q538.90314 69.416664 537.6844 69.416664Q536.9969 69.416664 536.34064 69.11979Q535.6844 68.822914 535.34064 68.322914L535.90314 67.666664Q536.59064 68.52604 537.60626 68.52604Q538.3875 68.52604 538.825 68.072914Q539.27814 67.635414 539.27814 66.822914L539.27814 66.27604Q538.6219 67.041664 537.4969 67.041664Q536.3875 67.041664 535.7 66.15104Q535.0125 65.24479 535.0125 63.697914ZM536.10626 63.822914Q536.10626 64.885414 536.54376 65.510414Q536.98126 66.11979 537.77814 66.11979Q538.79376 66.11979 539.27814 65.18229L539.27814 62.291664Q538.77814 61.385414 537.77814 61.385414Q536.9969 61.385414 536.54376 61.99479Q536.10626 62.604164 536.10626 63.822914ZM551.9969 66.916664L550.8719 66.916664L546.575 60.33854L546.575 66.916664L545.4344 66.916664L545.4344 58.385414L546.575 58.385414L550.8719 64.99479L550.8719 58.385414L551.9969 58.385414L551.9969 66.916664ZM558.1844 66.916664Q558.09064 66.729164 558.02814 66.24479Q557.27814 67.041664 556.23126 67.041664Q555.29376 67.041664 554.6844 66.510414Q554.09064 65.979164 554.09064 65.15104Q554.09064 64.166664 554.84064 63.61979Q555.59064 63.072914 556.96564 63.072914L558.0125 63.072914L558.0125 62.572914Q558.0125 62.010414 557.66876 61.68229Q557.34064 61.33854 556.66876 61.33854Q556.09064 61.33854 555.7 61.635414Q555.3094 61.916664 555.3094 62.33854L554.21564 62.33854Q554.21564 61.854164 554.54376 61.416664Q554.8875 60.979164 555.46564 60.729164Q556.04376 60.46354 556.73126 60.46354Q557.84064 60.46354 558.45 61.010414Q559.075 61.55729 559.10626 62.510414L559.10626 65.43229Q559.10626 66.30729 559.325 66.822914L559.325 66.916664L558.1844 66.916664ZM556.3875 66.08854Q556.90314 66.08854 557.35626 65.822914Q557.8094 65.55729 558.0125 65.135414L558.0125 63.83854L557.16876 63.83854Q555.16876 63.83854 555.16876 65.010414Q555.16876 65.510414 555.5125 65.80729Q555.85626 66.08854 556.3875 66.08854ZM562.7469 59.041664L562.7469 60.572914L563.91876 60.572914L563.91876 61.416664L562.7469 61.416664L562.7469 65.33854Q562.7469 65.729164 562.90314 65.916664Q563.0594 66.104164 563.4344 66.104164Q563.6219 66.104164 563.95 66.041664L563.95 66.916664Q563.52814 67.041664 563.1219 67.041664Q562.40314 67.041664 562.02814 66.604164Q561.65314 66.15104 561.65314 65.33854L561.65314 61.416664L560.4969 61.416664L560.4969 60.572914L561.65314 60.572914L561.65314 59.041664L562.7469 59.041664ZM566.45 66.916664L565.3719 66.916664L565.3719 60.572914L566.45 60.572914L566.45 66.916664ZM565.27814 58.90104Q565.27814 58.635414 565.4344 58.447914Q565.60626 58.260414 565.91876 58.260414Q566.23126 58.260414 566.3875 58.447914Q566.5594 58.635414 566.5594 58.90104Q566.5594 59.15104 566.3875 59.33854Q566.23126 59.510414 565.91876 59.510414Q565.60626 59.510414 565.4344 59.33854Q565.27814 59.15104 565.27814 58.90104ZM567.98126 63.68229Q567.98126 62.760414 568.34064 62.010414Q568.71564 61.260414 569.3719 60.86979Q570.02814 60.46354 570.85626 60.46354Q572.15314 60.46354 572.95 61.354164Q573.7625 62.24479 573.7625 63.74479L573.7625 63.822914Q573.7625 64.74479 573.40314 65.479164Q573.04376 66.21354 572.3875 66.635414Q571.73126 67.041664 570.8719 67.041664Q569.59064 67.041664 568.77814 66.15104Q567.98126 65.24479 567.98126 63.760414L567.98126 63.68229ZM569.075 63.822914Q569.075 64.86979 569.5594 65.510414Q570.0594 66.15104 570.8719 66.15104Q571.7 66.15104 572.1844 65.510414Q572.66876 64.854164 572.66876 63.68229Q572.66876 62.65104 572.16876 62.010414Q571.6844 61.354164 570.85626 61.354164Q570.0594 61.354164 569.5594 61.99479Q569.075 62.61979 569.075 63.822914ZM576.29376 60.572914L576.325 61.36979Q577.0594 60.46354 578.23126 60.46354Q580.2469 60.46354 580.2625 62.729164L580.2625 66.916664L579.16876 66.916664L579.16876 62.71354Q579.16876 62.041664 578.85626 61.71354Q578.5594 61.385414 577.90314 61.385414Q577.3719 61.385414 576.96564 61.666664Q576.575 61.947914 576.35626 62.40104L576.35626 66.916664L575.27814 66.916664L575.27814 60.572914L576.29376 60.572914Z" fill-rule="nonzero"/><path stroke="#dc3912" stroke-width="4.0" stroke-linecap="butt" d="M462.45 87.416664L474.45 87.416664" fill-rule="nonzero"/><path fill="#757575" d="M486.575 88.46354L484.5594 88.46354L484.5594 91.916664L483.4344 91.916664L483.4344 83.385414L486.2625 83.385414Q487.7 83.385414 488.46564 84.041664Q489.2469 84.697914 489.2469 85.947914Q489.2469 86.74479 488.8094 87.33854Q488.3875 87.93229 487.6219 88.229164L489.6219 91.83854L489.6219 91.916664L488.41876 91.916664L486.575 88.46354ZM484.5594 87.541664L486.29376 87.541664Q487.1375 87.541664 487.6219 87.11979Q488.1219 86.68229 488.1219 85.947914Q488.1219 85.166664 487.65314 84.74479Q487.1844 84.322914 486.29376 84.30729L484.5594 84.30729L484.5594 87.541664ZM494.1844 91.291664Q493.5594 92.041664 492.325 92.041664Q491.3094 92.041664 490.77814 91.447914Q490.2469 90.854164 490.2469 89.697914L490.2469 85.572914L491.325 85.572914L491.325 89.666664Q491.325 91.11979 492.4969 91.11979Q493.7469 91.11979 494.15314 90.18229L494.15314 85.572914L495.2469 85.572914L495.2469 91.916664L494.21564 91.916664L494.1844 91.291664ZM498.29376 85.572914L498.325 86.27604Q499.0125 85.46354 500.2 85.46354Q501.52814 85.46354 502.0125 86.479164Q502.325 86.02604 502.825 85.74479Q503.34064 85.46354 504.02814 85.46354Q506.1219 85.46354 506.15314 87.666664L506.15314 91.916664L505.075 91.916664L505.075 87.729164Q505.075 87.05729 504.7625 86.729164Q504.45 86.385414 503.71564 86.385414Q503.10626 86.385414 502.7 86.74479Q502.3094 87.104164 502.2469 87.71354L502.2469 91.916664L501.16876 91.916664L501.16876 87.760414Q501.16876 86.385414 499.8094 86.385414Q498.7469 86.385414 498.35626 87.291664L498.35626 91.916664L497.2625 91.916664L497.2625 85.572914L498.29376 85.572914ZM511.96564 90.229164Q511.96564 89.791664 511.6219 89.55729Q511.29376 89.30729 510.46564 89.135414Q509.65314 88.96354 509.16876 88.71354Q508.6844 88.46354 508.45 88.135414Q508.23126 87.791664 508.23126 87.322914Q508.23126 86.541664 508.8875 86.010414Q509.54376 85.46354 510.575 85.46354Q511.65314 85.46354 512.3094 86.02604Q512.98126 86.572914 512.98126 87.43229L511.90314 87.43229Q511.90314 86.99479 511.5125 86.68229Q511.1375 86.354164 510.575 86.354164Q509.98126 86.354164 509.6375 86.61979Q509.3094 86.86979 509.3094 87.27604Q509.3094 87.666664 509.6219 87.86979Q509.9344 88.072914 510.7469 88.260414Q511.5594 88.43229 512.0594 88.68229Q512.5594 88.93229 512.79376 89.291664Q513.04376 89.65104 513.04376 90.15104Q513.04376 91.010414 512.35626 91.52604Q511.6844 92.041664 510.60626 92.041664Q509.84064 92.041664 509.2469 91.77604Q508.66876 91.49479 508.34064 91.010414Q508.0125 90.52604 508.0125 89.96354L509.09064 89.96354Q509.1219 90.510414 509.52814 90.83854Q509.9344 91.15104 510.60626 91.15104Q511.21564 91.15104 511.59064 90.90104Q511.96564 90.65104 511.96564 90.229164ZM519.6219 88.822914Q519.6219 90.260414 518.96564 91.15104Q518.3094 92.041664 517.16876 92.041664Q516.0125 92.041664 515.35626 91.30729L515.35626 94.354164L514.27814 94.354164L514.27814 85.572914L515.2625 85.572914L515.3094 86.27604Q515.98126 85.46354 517.15314 85.46354Q518.29376 85.46354 518.95 86.322914Q519.6219 87.18229 519.6219 88.71354L519.6219 88.822914ZM518.54376 88.697914Q518.54376 87.61979 518.075 87.010414Q517.6219 86.385414 516.825 86.385414Q515.84064 86.385414 515.35626 87.24479L515.35626 90.27604Q515.84064 91.15104 516.84064 91.15104Q517.6219 91.15104 518.075 90.541664Q518.54376 89.916664 518.54376 88.697914ZM524.34064 86.541664Q524.09064 86.510414 523.8094 86.510414Q522.73126 86.510414 522.35626 87.416664L522.35626 91.916664L521.27814 91.916664L521.27814 85.572914L522.325 85.572914L522.34064 86.30729Q522.8719 85.46354 523.85626 85.46354Q524.16876 85.46354 524.34064 85.541664L524.34064 86.541664ZM526.45 91.916664L525.3719 91.916664L525.3719 85.572914L526.45 85.572914L526.45 91.916664ZM525.27814 83.90104Q525.27814 83.635414 525.4344 83.447914Q525.60626 83.260414 525.91876 83.260414Q526.23126 83.260414 526.3875 83.447914Q526.5594 83.635414 526.5594 83.90104Q526.5594 84.15104 526.3875 84.33854Q526.23126 84.510414 525.91876 84.510414Q525.60626 84.510414 525.4344 84.33854Q525.27814 84.15104 525.27814 83.90104ZM529.29376 85.572914L529.325 86.36979Q530.0594 85.46354 531.23126 85.46354Q533.2469 85.46354 533.2625 87.729164L533.2625 91.916664L532.16876 91.916664L532.16876 87.71354Q532.16876 87.041664 531.85626 86.71354Q531.5594 86.385414 530.90314 86.385414Q530.3719 86.385414 529.96564 86.666664Q529.575 86.947914 529.35626 87.40104L529.35626 91.916664L528.27814 91.916664L528.27814 85.572914L529.29376 85.572914ZM535.0125 88.697914Q535.0125 87.21354 535.7 86.33854Q536.3875 85.46354 537.5125 85.46354Q538.66876 85.46354 539.325 86.27604L539.3719 85.572914L540.3719 85.572914L540.3719 91.760414Q540.3719 92.99479 539.6375 93.697914Q538.90314 94.416664 537.6844 94.416664Q536.9969 94.416664 536.34064 94.11979Q535.6844 93.822914 535.34064 93.322914L535.90314 92.666664Q536.59064 93.52604 537.60626 93.52604Q538.3875 93.52604 538.825 93.072914Q539.27814 92.635414 539.27814 91.822914L539.27814 91.27604Q538.6219 92.041664 537.4969 92.041664Q536.3875 92.041664 535.7 91.15104Q535.0125 90.24479 535.0125 88.697914ZM536.10626 88.822914Q536.10626 89.885414 536.54376 90.510414Q536.98126 91.11979 537.77814 91.11979Q538.79376 91.11979 539.27814 90.18229L539.27814 87.291664Q538.77814 86.385414 537.77814 86.385414Q536.9969 86.385414 536.54376 86.99479Q536.10626 87.604164 536.10626 88.822914ZM546.1844 91.916664Q546.09064 91.729164 546.02814 91.24479Q545.27814 92.041664 544.23126 92.041664Q543.29376 92.041664 542.6844 91.510414Q542.09064 90.979164 542.09064 90.15104Q542.09064 89.166664 542.84064 88.61979Q543.59064 88.072914 544.96564 88.072914L546.0125 88.072914L546.0125 87.572914Q546.0125 87.010414 545.66876 86.68229Q545.34064 86.33854 544.66876 86.33854Q544.09064 86.33854 543.7 86.635414Q543.3094 86.916664 543.3094 87.33854L542.21564 87.33854Q542.21564 86.854164 542.54376 86.416664Q542.8875 85.979164 543.46564 85.729164Q544.04376 85.46354 544.73126 85.46354Q545.84064 85.46354 546.45 86.010414Q547.075 86.55729 547.10626 87.510414L547.10626 90.43229Q547.10626 91.30729 547.325 91.822914L547.325 91.916664L546.1844 91.916664ZM544.3875 91.08854Q544.90314 91.08854 545.35626 90.822914Q545.8094 90.55729 546.0125 90.135414L546.0125 88.83854L545.16876 88.83854Q543.16876 88.83854 543.16876 90.010414Q543.16876 90.510414 543.5125 90.80729Q543.85626 91.08854 544.3875 91.08854Z" fill-rule="nonzero"/><path stroke="#ff9900" stroke-width="4.0" stroke-linecap="butt" d="M462.45 112.416664L474.45 112.416664" fill-rule="nonzero"/><path fill="#757575" d="M489.34064 109.30729L486.59064 109.30729L486.59064 116.916664L485.48126 116.916664L485.48126 109.30729L482.73126 109.30729L482.73126 108.385414L489.34064 108.385414L489.34064 109.30729ZM491.35626 111.33854Q492.075 110.46354 493.23126 110.46354Q495.2469 110.46354 495.2625 112.729164L495.2625 116.916664L494.16876 116.916664L494.16876 112.71354Q494.16876 112.041664 493.85626 111.71354Q493.5594 111.385414 492.90314 111.385414Q492.3719 111.385414 491.96564 111.666664Q491.575 111.947914 491.35626 112.40104L491.35626 116.916664L490.27814 116.916664L490.27814 107.916664L491.35626 107.916664L491.35626 111.33854ZM499.90314 117.041664Q498.60626 117.041664 497.79376 116.197914Q496.9969 115.33854 496.9969 113.916664L496.9969 113.729164Q496.9969 112.77604 497.35626 112.041664Q497.71564 111.291664 498.35626 110.885414Q499.0125 110.46354 499.7625 110.46354Q500.9969 110.46354 501.6844 111.27604Q502.3719 112.08854 502.3719 113.604164L502.3719 114.05729L498.075 114.05729Q498.10626 114.99479 498.6219 115.572914Q499.15314 116.15104 499.96564 116.15104Q500.52814 116.15104 500.91876 115.916664Q501.325 115.68229 501.6375 115.291664L502.29376 115.80729Q501.4969 117.041664 499.90314 117.041664ZM499.7625 111.354164Q499.10626 111.354164 498.65314 111.83854Q498.21564 112.30729 498.1219 113.166664L501.29376 113.166664L501.29376 113.08854Q501.2469 112.260414 500.84064 111.80729Q500.45 111.354164 499.7625 111.354164ZM510.0125 108.385414L511.15314 108.385414L511.15314 114.43229Q511.15314 115.65104 510.40314 116.354164Q509.66876 117.041664 508.45 117.041664Q507.1844 117.041664 506.46564 116.385414Q505.7625 115.729164 505.7625 114.55729L506.8875 114.55729Q506.8875 115.291664 507.27814 115.71354Q507.6844 116.11979 508.45 116.11979Q509.15314 116.11979 509.575 115.68229Q510.0125 115.229164 510.0125 114.447914L510.0125 108.385414ZM517.1844 116.916664Q517.09064 116.729164 517.02814 116.24479Q516.27814 117.041664 515.23126 117.041664Q514.29376 117.041664 513.6844 116.510414Q513.09064 115.979164 513.09064 115.15104Q513.09064 114.166664 513.84064 113.61979Q514.59064 113.072914 515.96564 113.072914L517.0125 113.072914L517.0125 112.572914Q517.0125 112.010414 516.66876 111.68229Q516.34064 111.33854 515.66876 111.33854Q515.09064 111.33854 514.7 111.635414Q514.3094 111.916664 514.3094 112.33854L513.21564 112.33854Q513.21564 111.854164 513.54376 111.416664Q513.8875 110.979164 514.46564 110.729164Q515.04376 110.46354 515.73126 110.46354Q516.84064 110.46354 517.45 111.010414Q518.075 111.55729 518.10626 112.510414L518.10626 115.43229Q518.10626 116.30729 518.325 116.822914L518.325 116.916664L517.1844 116.916664ZM515.3875 116.08854Q515.90314 116.08854 516.35626 115.822914Q516.8094 115.55729 517.0125 115.135414L517.0125 113.83854L516.16876 113.83854Q514.16876 113.83854 514.16876 115.010414Q514.16876 115.510414 514.5125 115.80729Q514.85626 116.08854 515.3875 116.08854ZM525.6375 113.822914Q525.6375 115.27604 524.96564 116.166664Q524.3094 117.041664 523.1844 117.041664Q521.98126 117.041664 521.325 116.18229L521.2625 116.916664L520.27814 116.916664L520.27814 107.916664L521.35626 107.916664L521.35626 111.27604Q522.0125 110.46354 523.16876 110.46354Q524.325 110.46354 524.98126 111.33854Q525.6375 112.197914 525.6375 113.729164L525.6375 113.822914ZM524.5594 113.697914Q524.5594 112.58854 524.1219 111.99479Q523.7 111.385414 522.90314 111.385414Q521.825 111.385414 521.35626 112.36979L521.35626 115.11979Q521.85626 116.11979 522.90314 116.11979Q523.6844 116.11979 524.1219 115.510414Q524.5594 114.90104 524.5594 113.697914ZM532.6375 113.822914Q532.6375 115.27604 531.96564 116.166664Q531.3094 117.041664 530.1844 117.041664Q528.98126 117.041664 528.325 116.18229L528.2625 116.916664L527.27814 116.916664L527.27814 107.916664L528.35626 107.916664L528.35626 111.27604Q529.0125 110.46354 530.16876 110.46354Q531.325 110.46354 531.98126 111.33854Q532.6375 112.197914 532.6375 113.729164L532.6375 113.822914ZM531.5594 113.697914Q531.5594 112.58854 531.1219 111.99479Q530.7 111.385414 529.90314 111.385414Q528.825 111.385414 528.35626 112.36979L528.35626 115.11979Q528.85626 116.11979 529.90314 116.11979Q530.6844 116.11979 531.1219 115.510414Q531.5594 114.90104 531.5594 113.697914ZM536.90314 117.041664Q535.60626 117.041664 534.79376 116.197914Q533.9969 115.33854 533.9969 113.916664L533.9969 113.729164Q533.9969 112.77604 534.35626 112.041664Q534.71564 111.291664 535.35626 110.885414Q536.0125 110.46354 536.7625 110.46354Q537.9969 110.46354 538.6844 111.27604Q539.3719 112.08854 539.3719 113.604164L539.3719 114.05729L535.075 114.05729Q535.10626 114.99479 535.6219 115.572914Q536.15314 116.15104 536.96564 116.15104Q537.52814 116.15104 537.91876 115.916664Q538.325 115.68229 538.6375 115.291664L539.29376 115.80729Q538.4969 117.041664 536.90314 117.041664ZM536.7625 111.354164Q536.10626 111.354164 535.65314 111.83854Q535.21564 112.30729 535.1219 113.166664L538.29376 113.166664L538.29376 113.08854Q538.2469 112.260414 537.84064 111.80729Q537.45 111.354164 536.7625 111.354164ZM543.34064 111.541664Q543.09064 111.510414 542.8094 111.510414Q541.73126 111.510414 541.35626 112.416664L541.35626 116.916664L540.27814 116.916664L540.27814 110.572914L541.325 110.572914L541.34064 111.30729Q541.8719 110.46354 542.85626 110.46354Q543.16876 110.46354 543.34064 110.541664L543.34064 111.541664ZM549.8875 115.416664L551.10626 110.572914L552.1844 110.572914L550.34064 116.916664L549.46564 116.916664L547.91876 112.104164L546.41876 116.916664L545.54376 116.916664L543.7 110.572914L544.77814 110.572914L546.02814 115.322914L547.5125 110.572914L548.3719 110.572914L549.8875 115.416664ZM552.98126 113.68229Q552.98126 112.760414 553.34064 112.010414Q553.71564 111.260414 554.3719 110.86979Q555.02814 110.46354 555.85626 110.46354Q557.15314 110.46354 557.95 111.354164Q558.7625 112.24479 558.7625 113.74479L558.7625 113.822914Q558.7625 114.74479 558.40314 115.479164Q558.04376 116.21354 557.3875 116.635414Q556.73126 117.041664 555.8719 117.041664Q554.59064 117.041664 553.77814 116.15104Q552.98126 115.24479 552.98126 113.760414L552.98126 113.68229ZM554.075 113.822914Q554.075 114.86979 554.5594 115.510414Q555.0594 116.15104 555.8719 116.15104Q556.7 116.15104 557.1844 115.510414Q557.66876 114.854164 557.66876 113.68229Q557.66876 112.65104 557.16876 112.010414Q556.6844 111.354164 555.85626 111.354164Q555.0594 111.354164 554.5594 111.99479Q554.075 112.61979 554.075 113.822914ZM562.8094 116.15104Q563.3875 116.15104 563.825 115.80729Q564.2625 115.447914 564.3094 114.916664L565.34064 114.916664Q565.3094 115.46354 564.95 115.96354Q564.60626 116.447914 564.02814 116.74479Q563.46564 117.041664 562.8094 117.041664Q561.5125 117.041664 560.7469 116.18229Q559.9969 115.30729 559.9969 113.80729L559.9969 113.61979Q559.9969 112.697914 560.325 111.979164Q560.66876 111.260414 561.29376 110.86979Q561.9344 110.46354 562.8094 110.46354Q563.8719 110.46354 564.575 111.104164Q565.29376 111.729164 565.34064 112.760414L564.3094 112.760414Q564.2625 112.135414 563.84064 111.74479Q563.41876 111.354164 562.8094 111.354164Q561.98126 111.354164 561.52814 111.947914Q561.075 112.541664 561.075 113.666664L561.075 113.86979Q561.075 114.96354 561.52814 115.55729Q561.98126 116.15104 562.8094 116.15104ZM568.04376 113.979164L567.35626 114.68229L567.35626 116.916664L566.27814 116.916664L566.27814 107.916664L567.35626 107.916664L567.35626 113.354164L567.9344 112.666664L569.91876 110.572914L571.23126 110.572914L568.7625 113.229164L571.52814 116.916664L570.2469 116.916664L568.04376 113.979164ZM575.96564 115.229164Q575.96564 114.791664 575.6219 114.55729Q575.29376 114.30729 574.46564 114.135414Q573.65314 113.96354 573.16876 113.71354Q572.6844 113.46354 572.45 113.135414Q572.23126 112.791664 572.23126 112.322914Q572.23126 111.541664 572.8875 111.010414Q573.54376 110.46354 574.575 110.46354Q575.65314 110.46354 576.3094 111.02604Q576.98126 111.572914 576.98126 112.43229L575.90314 112.43229Q575.90314 111.99479 575.5125 111.68229Q575.1375 111.354164 574.575 111.354164Q573.98126 111.354164 573.6375 111.61979Q573.3094 111.86979 573.3094 112.27604Q573.3094 112.666664 573.6219 112.86979Q573.9344 113.072914 574.7469 113.260414Q575.5594 113.43229 576.0594 113.68229Q576.5594 113.93229 576.79376 114.291664Q577.04376 114.65104 577.04376 115.15104Q577.04376 116.010414 576.35626 116.52604Q575.6844 117.041664 574.60626 117.041664Q573.84064 117.041664 573.2469 116.77604Q572.66876 116.49479 572.34064 116.010414Q572.0125 115.52604 572.0125 114.96354L573.09064 114.96354Q573.1219 115.510414 573.52814 115.83854Q573.9344 116.15104 574.60626 116.15104Q575.21564 116.15104 575.59064 115.90104Q575.96564 115.65104 575.96564 115.229164Z" fill-rule="nonzero"/><path stroke="#109618" stroke-width="4.0" stroke-linecap="butt" d="M462.45 137.41667L474.45 137.41667" fill-rule="nonzero"/><path fill="#757575" d="M485.95 138.1198Q484.5125 137.69792 483.84064 137.08855Q483.1844 136.47917 483.1844 135.58855Q483.1844 134.58855 483.98126 133.9323Q484.79376 133.26042 486.09064 133.26042Q486.96564 133.26042 487.65314 133.60417Q488.34064 133.94792 488.71564 134.54167Q489.10626 135.13542 489.10626 135.85417L487.96564 135.85417Q487.96564 135.07292 487.46564 134.63542Q486.98126 134.19792 486.09064 134.19792Q485.2625 134.19792 484.79376 134.57292Q484.325 134.9323 484.325 135.57292Q484.325 136.10417 484.7625 136.46355Q485.21564 136.82292 486.27814 137.1198Q487.34064 137.41667 487.9344 137.77605Q488.54376 138.13542 488.825 138.6198Q489.1219 139.10417 489.1219 139.7448Q489.1219 140.79167 488.3094 141.41667Q487.4969 142.04167 486.15314 142.04167Q485.2625 142.04167 484.4969 141.69792Q483.7469 141.35417 483.325 140.77605Q482.91876 140.1823 482.91876 139.44792L484.04376 139.44792Q484.04376 140.21355 484.6219 140.66667Q485.2 141.1198 486.15314 141.1198Q487.04376 141.1198 487.5125 140.76042Q487.98126 140.38542 487.98126 139.76042Q487.98126 139.13542 487.54376 138.79167Q487.10626 138.44792 485.95 138.1198ZM492.8094 141.15105Q493.3875 141.15105 493.825 140.8073Q494.2625 140.44792 494.3094 139.91667L495.34064 139.91667Q495.3094 140.46355 494.95 140.96355Q494.60626 141.44792 494.02814 141.7448Q493.46564 142.04167 492.8094 142.04167Q491.5125 142.04167 490.7469 141.1823Q489.9969 140.3073 489.9969 138.8073L489.9969 138.6198Q489.9969 137.69792 490.325 136.97917Q490.66876 136.26042 491.29376 135.8698Q491.9344 135.46355 492.8094 135.46355Q493.8719 135.46355 494.575 136.10417Q495.29376 136.72917 495.34064 137.76042L494.3094 137.76042Q494.2625 137.13542 493.84064 136.7448Q493.41876 136.35417 492.8094 136.35417Q491.98126 136.35417 491.52814 136.94792Q491.075 137.54167 491.075 138.66667L491.075 138.8698Q491.075 139.96355 491.52814 140.5573Q491.98126 141.15105 492.8094 141.15105ZM495.98126 138.6823Q495.98126 137.76042 496.34064 137.01042Q496.71564 136.26042 497.3719 135.8698Q498.02814 135.46355 498.85626 135.46355Q500.15314 135.46355 500.95 136.35417Q501.7625 137.2448 501.7625 138.7448L501.7625 138.82292Q501.7625 139.7448 501.40314 140.47917Q501.04376 141.21355 500.3875 141.63542Q499.73126 142.04167 498.8719 142.04167Q497.59064 142.04167 496.77814 141.15105Q495.98126 140.2448 495.98126 138.76042L495.98126 138.6823ZM497.075 138.82292Q497.075 139.8698 497.5594 140.51042Q498.0594 141.15105 498.8719 141.15105Q499.7 141.15105 500.1844 140.51042Q500.66876 139.85417 500.66876 138.6823Q500.66876 137.65105 500.16876 137.01042Q499.6844 136.35417 498.85626 136.35417Q498.0594 136.35417 497.5594 136.9948Q497.075 137.6198 497.075 138.82292ZM504.7469 134.04167L504.7469 135.57292L505.91876 135.57292L505.91876 136.41667L504.7469 136.41667L504.7469 140.33855Q504.7469 140.72917 504.90314 140.91667Q505.0594 141.10417 505.4344 141.10417Q505.6219 141.10417 505.95 141.04167L505.95 141.91667Q505.52814 142.04167 505.1219 142.04167Q504.40314 142.04167 504.02814 141.60417Q503.65314 141.15105 503.65314 140.33855L503.65314 136.41667L502.4969 136.41667L502.4969 135.57292L503.65314 135.57292L503.65314 134.04167L504.7469 134.04167ZM508.7469 134.04167L508.7469 135.57292L509.91876 135.57292L509.91876 136.41667L508.7469 136.41667L508.7469 140.33855Q508.7469 140.72917 508.90314 140.91667Q509.0594 141.10417 509.4344 141.10417Q509.6219 141.10417 509.95 141.04167L509.95 141.91667Q509.52814 142.04167 509.1219 142.04167Q508.40314 142.04167 508.02814 141.60417Q507.65314 141.15105 507.65314 140.33855L507.65314 136.41667L506.4969 136.41667L506.4969 135.57292L507.65314 135.57292L507.65314 134.04167L508.7469 134.04167ZM513.34064 140.32292L514.825 135.57292L515.98126 135.57292L513.4344 142.90105Q512.84064 144.47917 511.5594 144.47917L511.34064 144.46355L510.95 144.38542L510.95 143.51042L511.23126 143.52605Q511.79376 143.52605 512.09064 143.3073Q512.40314 143.08855 512.60626 142.4948L512.84064 141.83855L510.575 135.57292L511.7625 135.57292L513.34064 140.32292ZM520.4344 141.91667L520.4344 133.38542L523.23126 133.38542Q524.6219 133.38542 525.3094 133.96355Q526.0125 134.52605 526.0125 135.65105Q526.0125 136.26042 525.66876 136.72917Q525.34064 137.1823 524.7469 137.4323Q525.45 137.6198 525.84064 138.16667Q526.2469 138.69792 526.2469 139.44792Q526.2469 140.60417 525.4969 141.26042Q524.7625 141.91667 523.40314 141.91667L520.4344 141.91667ZM521.5594 137.9323L521.5594 140.9948L523.41876 140.9948Q524.21564 140.9948 524.66876 140.58855Q525.1219 140.1823 525.1219 139.46355Q525.1219 137.9323 523.4344 137.9323L521.5594 137.9323ZM521.5594 137.02605L523.2625 137.02605Q523.9969 137.02605 524.4344 136.66667Q524.8875 136.29167 524.8875 135.65105Q524.8875 134.94792 524.48126 134.63542Q524.075 134.3073 523.23126 134.3073L521.5594 134.3073L521.5594 137.02605ZM530.8094 141.91667L530.8094 136.41667L529.8094 136.41667L529.8094 135.57292L530.8094 135.57292L530.8094 134.9323Q530.8094 133.90105 531.34064 133.35417Q531.8875 132.79167 532.8875 132.79167Q533.2625 132.79167 533.6375 132.88542L533.575 133.77605Q533.29376 133.71355 532.9969 133.71355Q532.46564 133.71355 532.16876 134.02605Q531.8875 134.33855 531.8875 134.90105L531.8875 135.57292L533.2469 135.57292L533.2469 136.41667L531.8875 136.41667L531.8875 141.91667L530.8094 141.91667ZM533.98126 138.6823Q533.98126 137.76042 534.34064 137.01042Q534.71564 136.26042 535.3719 135.8698Q536.02814 135.46355 536.85626 135.46355Q538.15314 135.46355 538.95 136.35417Q539.7625 137.2448 539.7625 138.7448L539.7625 138.82292Q539.7625 139.7448 539.40314 140.47917Q539.04376 141.21355 538.3875 141.63542Q537.73126 142.04167 536.8719 142.04167Q535.59064 142.04167 534.77814 141.15105Q533.98126 140.2448 533.98126 138.76042L533.98126 138.6823ZM535.075 138.82292Q535.075 139.8698 535.5594 140.51042Q536.0594 141.15105 536.8719 141.15105Q537.7 141.15105 538.1844 140.51042Q538.66876 139.85417 538.66876 138.6823Q538.66876 137.65105 538.16876 137.01042Q537.6844 136.35417 536.85626 136.35417Q536.0594 136.35417 535.5594 136.9948Q535.075 137.6198 535.075 138.82292ZM544.34064 136.54167Q544.09064 136.51042 543.8094 136.51042Q542.73126 136.51042 542.35626 137.41667L542.35626 141.91667L541.27814 141.91667L541.27814 135.57292L542.325 135.57292L542.34064 136.3073Q542.8719 135.46355 543.85626 135.46355Q544.16876 135.46355 544.34064 135.54167L544.34064 136.54167ZM549.73126 137.1198L550.54376 137.1198Q551.325 137.10417 551.7625 136.71355Q552.2 136.32292 552.2 135.65105Q552.2 134.15105 550.7 134.15105Q549.9969 134.15105 549.575 134.5573Q549.16876 134.96355 549.16876 135.6198L548.075 135.6198Q548.075 134.60417 548.8094 133.9323Q549.5594 133.26042 550.7 133.26042Q551.90314 133.26042 552.59064 133.90105Q553.27814 134.54167 553.27814 135.6823Q553.27814 136.2448 552.91876 136.76042Q552.5594 137.27605 551.9344 137.54167Q552.6375 137.76042 553.0125 138.27605Q553.40314 138.79167 553.40314 139.54167Q553.40314 140.6823 552.65314 141.3698Q551.90314 142.04167 550.7 142.04167Q549.5125 142.04167 548.7469 141.38542Q547.9969 140.72917 547.9969 139.66667L549.09064 139.66667Q549.09064 140.33855 549.52814 140.7448Q549.96564 141.15105 550.71564 141.15105Q551.4969 141.15105 551.90314 140.7448Q552.325 140.32292 552.325 139.5573Q552.325 138.82292 551.8719 138.4323Q551.41876 138.02605 550.54376 138.01042L549.73126 138.01042L549.73126 137.1198Z" fill-rule="nonzero"/><path fill="#757575" d="M29.05 37.55L19.7375 37.55L19.7375 36.253124L24.659374 30.784374Q25.753124 29.534374 26.159374 28.76875Q26.58125 27.9875 26.58125 27.159374Q26.58125 26.05 25.909374 25.33125Q25.2375 24.6125 24.1125 24.6125Q22.753124 24.6125 22.003124 25.39375Q21.26875 26.159374 21.26875 27.51875L19.45625 27.51875Q19.45625 25.55 20.721874 24.346874Q21.9875 23.128124 24.1125 23.128124Q26.096874 23.128124 27.2375 24.175Q28.39375 25.221874 28.39375 26.940624Q28.39375 29.05 25.721874 31.940624L21.909374 36.08125L29.05 36.08125L29.05 37.55ZM39.64375 31.4875Q39.64375 34.659374 38.565624 36.20625Q37.4875 37.753124 35.175 37.753124Q32.89375 37.753124 31.8 36.2375Q30.70625 34.721874 30.675 31.721874L30.675 29.315624Q30.675 26.175 31.753124 24.659374Q32.846874 23.128124 35.159374 23.128124Q37.45625 23.128124 38.534374 24.6125Q39.6125 26.08125 39.64375 29.14375L39.64375 31.4875ZM37.846874 29.01875Q37.846874 26.721874 37.190624 25.675Q36.55 24.6125 35.159374 24.6125Q33.76875 24.6125 33.128124 25.659374Q32.503124 26.70625 32.4875 28.878124L32.4875 31.76875Q32.4875 34.065624 33.14375 35.175Q33.815624 36.26875 35.175 36.26875Q36.51875 36.26875 37.159374 35.2375Q37.815624 34.20625 37.846874 31.971874L37.846874 29.01875ZM47.675 37.55L45.846874 37.55L45.846874 25.503124L42.20625 26.846874L42.20625 25.20625L47.39375 23.26875L47.675 23.26875L47.675 37.55ZM59.815624 23.315624L59.815624 24.846874L59.4875 24.846874Q57.378124 24.89375 56.128124 26.1125Q54.878124 27.315624 54.690624 29.51875Q55.815624 28.221874 57.753124 28.221874Q59.6125 28.221874 60.721874 29.534374Q61.83125 30.846874 61.83125 32.909374Q61.83125 35.1125 60.628124 36.440624Q59.425 37.753124 57.425 37.753124Q55.378124 37.753124 54.1125 36.190624Q52.846874 34.6125 52.846874 32.14375L52.846874 31.440624Q52.846874 27.51875 54.51875 25.440624Q56.190624 23.3625 59.503124 23.315624L59.815624 23.315624ZM57.45625 29.721874Q56.51875 29.721874 55.7375 30.284374Q54.95625 30.846874 54.659374 31.675L54.659374 32.346874Q54.659374 34.096874 55.440624 35.175Q56.2375 36.253124 57.425 36.253124Q58.64375 36.253124 59.33125 35.3625Q60.034374 34.45625 60.034374 33.003124Q60.034374 31.534374 59.33125 30.628124Q58.628124 29.721874 57.45625 29.721874ZM79.01875 24.878124L74.45625 24.878124L74.45625 37.55L72.59688 37.55L72.59688 24.878124L68.03438 24.878124L68.03438 23.33125L79.01875 23.33125L79.01875 24.878124ZM80.44063 32.175Q80.44063 30.6125 81.05 29.378124Q81.65938 28.128124 82.7375 27.45625Q83.83125 26.784374 85.2375 26.784374Q87.39375 26.784374 88.72188 28.284374Q90.06563 29.76875 90.06563 32.253124L90.06563 32.378124Q90.06563 33.925 89.47188 35.159374Q88.87813 36.378124 87.76875 37.065624Q86.675 37.753124 85.25313 37.753124Q83.1125 37.753124 81.76875 36.253124Q80.44063 34.753124 80.44063 32.3L80.44063 32.175ZM82.25313 32.378124Q82.25313 34.14375 83.06563 35.20625Q83.89375 36.26875 85.25313 36.26875Q86.62813 36.26875 87.44063 35.190624Q88.25313 34.1125 88.25313 32.175Q88.25313 30.425 87.425 29.346874Q86.59688 28.26875 85.2375 28.26875Q83.89375 28.26875 83.06563 29.33125Q82.25313 30.39375 82.25313 32.378124ZM100.84688 32.378124Q100.84688 34.8 99.7375 36.284374Q98.64375 37.753124 96.75313 37.753124Q94.83125 37.753124 93.72188 36.51875L93.72188 41.6125L91.925 41.6125L91.925 26.9875L93.56563 26.9875L93.65938 28.159374Q94.75313 26.784374 96.72188 26.784374Q98.62813 26.784374 99.7375 28.221874Q100.84688 29.659374 100.84688 32.221874L100.84688 32.378124ZM99.03438 32.175Q99.03438 30.39375 98.26875 29.3625Q97.51875 28.315624 96.19063 28.315624Q94.55 28.315624 93.72188 29.76875L93.72188 34.83125Q94.53438 36.26875 96.20625 36.26875Q97.50313 36.26875 98.26875 35.2375Q99.03438 34.20625 99.03438 32.175ZM115.3625 32.76875L117.33125 32.76875L117.33125 34.253124L115.3625 34.253124L115.3625 37.55L113.55 37.55L113.55 34.253124L107.06563 34.253124L107.06563 33.190624L113.44063 23.33125L115.3625 23.33125L115.3625 32.76875ZM109.1125 32.76875L113.55 32.76875L113.55 25.8L113.33125 26.190624L109.1125 32.76875ZM127.675 32.253124L122.90938 32.253124L122.90938 30.76875L127.675 30.76875L127.675 32.253124ZM137.20625 37.55L135.33125 37.55L135.33125 23.33125L137.20625 23.33125L137.20625 37.55ZM141.62813 26.9875L141.69063 28.315624Q142.89375 26.784374 144.84688 26.784374Q148.20625 26.784374 148.22188 30.565624L148.22188 37.55L146.425 37.55L146.425 30.55Q146.40938 29.409374 145.89375 28.8625Q145.39375 28.315624 144.3 28.315624Q143.425 28.315624 142.75313 28.784374Q142.09688 29.253124 141.72188 30.01875L141.72188 37.55L139.925 37.55L139.925 26.9875L141.62813 26.9875ZM158.3625 24.425L158.3625 26.9875L160.34688 26.9875L160.34688 28.378124L158.3625 28.378124L158.3625 34.925Q158.3625 35.565624 158.62813 35.89375Q158.89375 36.20625 159.53438 36.20625Q159.84688 36.20625 160.39375 36.08125L160.39375 37.55Q159.675 37.753124 159.00313 37.753124Q157.8 37.753124 157.175 37.01875Q156.56563 36.284374 156.56563 34.925L156.56563 28.378124L154.64375 28.378124L154.64375 26.9875L156.56563 26.9875L156.56563 24.425L158.3625 24.425ZM164.72188 28.26875Q165.925 26.784374 167.84688 26.784374Q171.20625 26.784374 171.22188 30.565624L171.22188 37.55L169.425 37.55L169.425 30.55Q169.40938 29.409374 168.89375 28.8625Q168.39375 28.315624 167.3 28.315624Q166.425 28.315624 165.75313 28.784374Q165.09688 29.253124 164.72188 30.01875L164.72188 37.55L162.925 37.55L162.925 22.55L164.72188 22.55L164.72188 28.26875ZM178.3 37.753124Q176.15938 37.753124 174.8 36.346874Q173.45625 34.925 173.45625 32.565624L173.45625 32.221874Q173.45625 30.659374 174.05 29.425Q174.65938 28.190624 175.7375 27.4875Q176.81563 26.784374 178.08125 26.784374Q180.14375 26.784374 181.28438 28.14375Q182.425 29.503124 182.425 32.034374L182.425 32.784374L175.26875 32.784374Q175.3 34.346874 176.175 35.315624Q177.05 36.26875 178.39375 36.26875Q179.3625 36.26875 180.01875 35.878124Q180.69063 35.4875 181.19063 34.846874L182.28438 35.70625Q180.95625 37.753124 178.3 37.753124ZM178.08125 28.26875Q176.9875 28.26875 176.2375 29.065624Q175.50313 29.8625 175.33125 31.3L180.6125 31.3L180.6125 31.159374Q180.53438 29.784374 179.8625 29.034374Q179.20625 28.26875 178.08125 28.26875ZM192.62813 23.33125L197.26875 34.925L201.925 23.33125L204.34688 23.33125L204.34688 37.55L202.47188 37.55L202.47188 32.01875L202.65938 26.034374L197.9875 37.55L196.55 37.55L191.89375 26.065624L192.08125 32.01875L192.08125 37.55L190.20625 37.55L190.20625 23.33125L192.62813 23.33125ZM206.44063 32.175Q206.44063 30.6125 207.05 29.378124Q207.65938 28.128124 208.7375 27.45625Q209.83125 26.784374 211.2375 26.784374Q213.39375 26.784374 214.72188 28.284374Q216.06563 29.76875 216.06563 32.253124L216.06563 32.378124Q216.06563 33.925 215.47188 35.159374Q214.87813 36.378124 213.76875 37.065624Q212.675 37.753124 211.25313 37.753124Q209.1125 37.753124 207.76875 36.253124Q206.44063 34.753124 206.44063 32.3L206.44063 32.175ZM208.25313 32.378124Q208.25313 34.14375 209.06563 35.20625Q209.89375 36.26875 211.25313 36.26875Q212.62813 36.26875 213.44063 35.190624Q214.25313 34.1125 214.25313 32.175Q214.25313 30.425 213.425 29.346874Q212.59688 28.26875 211.2375 28.26875Q209.89375 28.26875 209.06563 29.33125Q208.25313 30.39375 208.25313 32.378124ZM219.62813 26.9875L219.69063 28.315624Q220.89375 26.784374 222.84688 26.784374Q226.20625 26.784374 226.22188 30.565624L226.22188 37.55L224.425 37.55L224.425 30.55Q224.40938 29.409374 223.89375 28.8625Q223.39375 28.315624 222.3 28.315624Q221.425 28.315624 220.75313 28.784374Q220.09688 29.253124 219.72188 30.01875L219.72188 37.55L217.925 37.55L217.925 26.9875L219.62813 26.9875ZM233.3 37.753124Q231.15938 37.753124 229.8 36.346874Q228.45625 34.925 228.45625 32.565624L228.45625 32.221874Q228.45625 30.659374 229.05 29.425Q229.65938 28.190624 230.7375 27.4875Q231.81563 26.784374 233.08125 26.784374Q235.14375 26.784374 236.28438 28.14375Q237.425 29.503124 237.425 32.034374L237.425 32.784374L230.26875 32.784374Q230.3 34.346874 231.175 35.315624Q232.05 36.26875 233.39375 36.26875Q234.3625 36.26875 235.01875 35.878124Q235.69063 35.4875 236.19063 34.846874L237.28438 35.70625Q235.95625 37.753124 233.3 37.753124ZM233.08125 28.26875Q231.9875 28.26875 231.2375 29.065624Q230.50313 29.8625 230.33125 31.3L235.6125 31.3L235.6125 31.159374Q235.53438 29.784374 234.8625 29.034374Q234.20625 28.26875 233.08125 28.26875ZM243.37813 34.909374L245.83125 26.9875L247.76875 26.9875L243.51875 39.175Q242.53438 41.815624 240.39375 41.815624L240.05 41.784374L239.37813 41.659374L239.37813 40.190624L239.8625 40.2375Q240.78438 40.2375 241.28438 39.8625Q241.8 39.4875 242.12813 38.503124L242.53438 37.425L238.76875 26.9875L240.7375 26.9875L243.37813 34.909374Z" fill-rule="nonzero"/></svg>