<svg version="1.1" viewBox="0.0 0.0 600.0 371.0" fill="none" stroke="none" stroke-linecap="square" stroke-miterlimit="10" width="600" height="371" xmlns:xlink="http://www.w3.org/1999/xlink" xmlns="http://www.w3.org/2000/svg"><path fill="#ffffff" d="M0 0L600.0 0L600.0 371.0L0 371.0L0 0Z" fill-rule="nonzero"/><path fill="#ffffff" d="M0 0L600.0 0L600.0 371.0L0 371.0L0 0Z" fill-rule="nonzero"/><path fill="#ffffff" d="M18.55 54.916668L427.61444 54.916668L427.61444 352.44998L18.55 352.44998L18.55 54.916668Z" fill-rule="nonzero"/><path stroke="#cccccc" stroke-width="1.0" stroke-linecap="butt" d="M223.0 204.0C223.0 204.0 223.0 204.0 223.0 204.0C223.0 204.0 223.0 204.0 223.0 204.0C223.0 204.0 223.0 204.0 223.0 204.0C223.0 204.0 223.0 204.0 223.0 204.0" fill-rule="nonzero"/><path fill="#000000" d="M220.0625 197.35938Q220.0625 199.26562 219.40625 200.20312Q218.76562 201.125 217.375 201.125Q216.01562 201.125 215.35938 200.21875Q214.70312 199.3125 214.67188 197.5L214.67188 196.0625Q214.67188 194.17188 215.3125 193.26562Q215.96875 192.34375 217.35938 192.34375Q218.73438 192.34375 219.39062 193.23438Q220.04688 194.10938 220.0625 195.95312L220.0625 197.35938ZM218.96875 195.875Q218.96875 194.5 218.57812 193.875Q218.20312 193.23438 217.35938 193.23438Q216.53125 193.23438 216.14062 193.875Q215.76562 194.5 215.76562 195.79688L215.76562 197.53125Q215.76562 198.90625 216.15625 199.57812Q216.5625 200.23438 217.375 200.23438Q218.17188 200.23438 218.5625 199.60938Q218.95312 198.98438 218.96875 197.65625L218.96875 195.875Z" fill-rule="nonzero"/><path stroke="#cccccc" stroke-width="1.0" stroke-linecap="butt" d="M261.9222 204.0C261.9222 182.50385 244.49615 165.07777 223.0 165.07777C201.50385 165.07777 184.07777 182.50385 184.07777 204.0C184.07777 225.49615 201.50385 242.92223 223.0 242.92223C244.49615 242.92223 261.9222 225.49615 261.9222 204.0" fill-rule="nonzero"/><path fill="#000000" d="M215.20312 157.79652L215.64062 153.54652L220.01562 153.54652L220.01562 154.54652L216.5625 154.54652L216.29688 156.87465Q216.9375 156.49965 217.73438 156.49965Q218.89062 156.49965 219.57812 157.2809Q220.26562 158.04652 220.26562 159.35902Q220.26562 160.67152 219.54688 161.43715Q218.84375 162.20277 217.5625 162.20277Q216.4375 162.20277 215.71875 161.57777Q215.0 160.93715 214.90625 159.82777L215.92188 159.82777Q216.03125 160.56215 216.45312 160.93715Q216.875 161.31215 217.5625 161.31215Q218.3125 161.31215 218.75 160.79652Q219.1875 160.2809 219.1875 159.37465Q219.1875 158.51527 218.71875 157.99965Q218.25 157.48402 217.46875 157.48402Q216.76562 157.48402 216.35938 157.7809L216.07812 158.01527L215.20312 157.79652Z" fill-rule="nonzero"/><path stroke="#cccccc" stroke-width="1.0" stroke-linecap="butt" d="M300.84445 204.0C300.84445 161.0077 265.9923 126.155556 223.0 126.155556C180.0077 126.155556 145.15555 161.0077 145.15555 204.0C145.15555 246.9923 180.0077 281.84445 223.0 281.84445C265.9923 281.84445 300.84445 246.9923 300.84445 204.0" fill-rule="nonzero"/><path fill="#000000" d="M211.26562 123.155556L210.1875 123.155556L210.1875 115.936806L208.0 116.73368L208.0 115.749306L211.10938 114.57743L211.26562 114.57743L211.26562 123.155556ZM220.0625 119.51493Q220.0625 121.42118 219.40625 122.35868Q218.76562 123.280556 217.375 123.280556Q216.01562 123.280556 215.35938 122.374306Q214.70312 121.468056 214.67188 119.655556L214.67188 118.218056Q214.67188 116.32743 215.3125 115.42118Q215.96875 114.499306 217.35938 114.499306Q218.73438 114.499306 219.39062 115.38993Q220.04688 116.26493 220.0625 118.10868L220.0625 119.51493ZM218.96875 118.030556Q218.96875 116.655556 218.57812 116.030556Q218.20312 115.38993 217.35938 115.38993Q216.53125 115.38993 216.14062 116.030556Q215.76562 116.655556 215.76562 117.95243L215.76562 119.686806Q215.76562 121.061806 216.15625 121.73368Q216.5625 122.38993 217.375 122.38993Q218.17188 122.38993 218.5625 121.76493Q218.95312 121.13993 218.96875 119.811806L218.96875 118.030556Z" fill-rule="nonzero"/><path stroke="#cccccc" stroke-width="1.0" stroke-linecap="butt" d="M339.76666 204.0C339.76666 139.51155 287.48846 87.23333 223.0 87.23333C158.51155 87.23333 106.23333 139.51155 106.23333 204.0C106.23333 268.48846 158.51155 320.76666 223.0 320.76666C287.48846 320.76666 339.76666 268.48846 339.76666 204.0" fill-rule="nonzero"/><path fill="#000000" d="M211.26562 84.23333L210.1875 84.23333L210.1875 77.01458L208.0 77.811455L208.0 76.82708L211.10938 75.655205L211.26562 75.655205L211.26562 84.23333ZM215.20312 79.95208L215.64062 75.70208L220.01562 75.70208L220.01562 76.70208L216.5625 76.70208L216.29688 79.030205Q216.9375 78.655205 217.73438 78.655205Q218.89062 78.655205 219.57812 79.436455Q220.26562 80.20208 220.26562 81.51458Q220.26562 82.82708 219.54688 83.592705Q218.84375 84.35833 217.5625 84.35833Q216.4375 84.35833 215.71875 83.73333Q215.0 83.092705 214.90625 81.98333L215.92188 81.98333Q216.03125 82.717705 216.45312 83.092705Q216.875 83.467705 217.5625 83.467705Q218.3125 83.467705 218.75 82.95208Q219.1875 82.436455 219.1875 81.530205Q219.1875 80.67083 218.71875 80.155205Q218.25 79.63958 217.46875 79.63958Q216.76562 79.63958 216.35938 79.936455L216.07812 80.17083L215.20312 79.95208Z" fill-rule="nonzero"/><path stroke="#cccccc" stroke-width="1.0" stroke-linecap="butt" d="M223.0 204.0L223.0 87.0" fill-rule="nonzero"/><path fill="#000000" d="M216.70312 65.734375L213.10938 65.734375L213.10938 69.5L211.98438 69.5L211.98438 60.96875L217.28125 60.96875L217.28125 61.890625L213.10938 61.890625L213.10938 64.8125L216.70312 64.8125L216.70312 65.734375ZM225.29688 68.375Q224.85938 69.0 224.07812 69.3125Q223.29688 69.625 222.26562 69.625Q221.23438 69.625 220.42188 69.140625Q219.60938 68.640625 219.17188 67.734375Q218.73438 66.828125 218.71875 65.640625L218.71875 64.90625Q218.71875 62.96875 219.60938 61.90625Q220.51562 60.84375 222.14062 60.84375Q223.48438 60.84375 224.29688 61.53125Q225.10938 62.21875 225.29688 63.46875L224.17188 63.46875Q223.84375 61.78125 222.15625 61.78125Q221.01562 61.78125 220.4375 62.578125Q219.85938 63.359375 219.84375 64.875L219.84375 65.5625Q219.84375 67.0 220.5 67.859375Q221.15625 68.703125 222.28125 68.703125Q222.90625 68.703125 223.375 68.5625Q223.85938 68.421875 224.17188 68.078125L224.17188 66.171875L222.20312 66.171875L222.20312 65.25L225.29688 65.25L225.29688 68.375ZM226.60938 62.609375Q226.60938 61.84375 227.09375 61.34375Q227.59375 60.84375 228.35938 60.84375Q229.14062 60.84375 229.625 61.34375Q230.10938 61.84375 230.10938 62.640625L230.10938 63.0625Q230.10938 63.828125 229.60938 64.328125Q229.125 64.8125 228.375 64.8125Q227.60938 64.8125 227.10938 64.328125Q226.60938 63.828125 226.60938 63.015625L226.60938 62.609375ZM227.42188 63.0625Q227.42188 63.515625 227.67188 63.8125Q227.9375 64.109375 228.375 64.109375Q228.79688 64.109375 229.04688 63.828125Q229.29688 63.53125 229.29688 63.03125L229.29688 62.609375Q229.29688 62.15625 229.04688 61.859375Q228.79688 61.546875 228.35938 61.546875Q227.92188 61.546875 227.67188 61.859375Q227.42188 62.15625 227.42188 62.625L227.42188 63.0625ZM230.76562 67.40625Q230.76562 66.640625 231.25 66.15625Q231.75 65.65625 232.51562 65.65625Q233.28125 65.65625 233.76562 66.15625Q234.26562 66.640625 234.26562 67.453125L234.26562 67.859375Q234.26562 68.625 233.78125 69.125Q233.29688 69.625 232.53125 69.625Q231.76562 69.625 231.26562 69.140625Q230.76562 68.640625 230.76562 67.828125L230.76562 67.40625ZM231.57812 67.859375Q231.57812 68.328125 231.82812 68.625Q232.09375 68.921875 232.53125 68.921875Q232.95312 68.921875 233.20312 68.640625Q233.45312 68.34375 233.45312 67.84375L233.45312 67.40625Q233.45312 66.9375 233.1875 66.65625Q232.9375 66.359375 232.51562 66.359375Q232.09375 66.359375 231.82812 66.65625Q231.57812 66.9375 231.57812 67.4375L231.57812 67.859375ZM228.625 68.859375L228.0 68.46875L232.17188 61.796875L232.78125 62.1875L228.625 68.859375Z" fill-rule="nonzero"/><path stroke="#cccccc" stroke-width="1.0" stroke-linecap="butt" d="M223.0 204.0L298.0 115.0" fill-rule="nonzero"/><path fill="#000000" d="M307.20312 97.734375L303.60938 97.734375L303.60938 101.5L302.48438 101.5L302.48438 92.96875L307.78125 92.96875L307.78125 93.890625L303.60938 93.890625L303.60938 96.8125L307.20312 96.8125L307.20312 97.734375ZM315.39062 93.890625L312.64062 93.890625L312.64062 101.5L311.53125 101.5L311.53125 93.890625L308.78125 93.890625L308.78125 92.96875L315.39062 92.96875L315.39062 93.890625ZM316.10938 94.609375Q316.10938 93.84375 316.59375 93.34375Q317.09375 92.84375 317.85938 92.84375Q318.64062 92.84375 319.125 93.34375Q319.60938 93.84375 319.60938 94.640625L319.60938 95.0625Q319.60938 95.828125 319.10938 96.328125Q318.625 96.8125 317.875 96.8125Q317.10938 96.8125 316.60938 96.328125Q316.10938 95.828125 316.10938 95.015625L316.10938 94.609375ZM316.92188 95.0625Q316.92188 95.515625 317.17188 95.8125Q317.4375 96.109375 317.875 96.109375Q318.29688 96.109375 318.54688 95.828125Q318.79688 95.53125 318.79688 95.03125L318.79688 94.609375Q318.79688 94.15625 318.54688 93.859375Q318.29688 93.546875 317.85938 93.546875Q317.42188 93.546875 317.17188 93.859375Q316.92188 94.15625 316.92188 94.625L316.92188 95.0625ZM320.26562 99.40625Q320.26562 98.640625 320.75 98.15625Q321.25 97.65625 322.01562 97.65625Q322.78125 97.65625 323.26562 98.15625Q323.76562 98.640625 323.76562 99.453125L323.76562 99.859375Q323.76562 100.625 323.28125 101.125Q322.79688 101.625 322.03125 101.625Q321.26562 101.625 320.76562 101.140625Q320.26562 100.640625 320.26562 99.828125L320.26562 99.40625ZM321.07812 99.859375Q321.07812 100.328125 321.32812 100.625Q321.59375 100.921875 322.03125 100.921875Q322.45312 100.921875 322.70312 100.640625Q322.95312 100.34375 322.95312 99.84375L322.95312 99.40625Q322.95312 98.9375 322.6875 98.65625Q322.4375 98.359375 322.01562 98.359375Q321.59375 98.359375 321.32812 98.65625Q321.07812 98.9375 321.07812 99.4375L321.07812 99.859375ZM318.125 100.859375L317.5 100.46875L321.67188 93.796875L322.28125 94.1875L318.125 100.859375Z" fill-rule="nonzero"/><path stroke="#cccccc" stroke-width="1.0" stroke-linecap="butt" d="M223.0 204.0L338.0 184.0" fill-rule="nonzero"/><path fill="#000000" d="M346.28125 179.70312L347.09375 179.70312Q347.875 179.6875 348.3125 179.29688Q348.75 178.90625 348.75 178.23438Q348.75 176.73438 347.25 176.73438Q346.54688 176.73438 346.125 177.14062Q345.71875 177.54688 345.71875 178.20312L344.625 178.20312Q344.625 177.1875 345.35938 176.51562Q346.10938 175.84375 347.25 175.84375Q348.45312 175.84375 349.14062 176.48438Q349.82812 177.125 349.82812 178.26562Q349.82812 178.82812 349.46875 179.34375Q349.10938 179.85938 348.48438 180.125Q349.1875 180.34375 349.5625 180.85938Q349.95312 181.375 349.95312 182.125Q349.95312 183.26562 349.20312 183.95312Q348.45312 184.625 347.25 184.625Q346.0625 184.625 345.29688 183.96875Q344.54688 183.3125 344.54688 182.25L345.64062 182.25Q345.64062 182.92188 346.07812 183.32812Q346.51562 183.73438 347.26562 183.73438Q348.04688 183.73438 348.45312 183.32812Q348.875 182.90625 348.875 182.14062Q348.875 181.40625 348.42188 181.01562Q347.96875 180.60938 347.09375 180.59375L346.28125 180.59375L346.28125 179.70312ZM353.10938 181.15625L353.10938 184.5L351.98438 184.5L351.98438 175.96875L355.14062 175.96875Q356.53125 175.96875 357.32812 176.6875Q358.125 177.39062 358.125 178.57812Q358.125 179.8125 357.34375 180.48438Q356.57812 181.15625 355.125 181.15625L353.10938 181.15625ZM353.10938 180.23438L355.14062 180.23438Q356.04688 180.23438 356.51562 179.8125Q357.0 179.39062 357.0 178.59375Q357.0 177.82812 356.51562 177.375Q356.04688 176.90625 355.20312 176.89062L353.10938 176.89062L353.10938 180.23438ZM365.89062 176.89062L363.14062 176.89062L363.14062 184.5L362.03125 184.5L362.03125 176.89062L359.28125 176.89062L359.28125 175.96875L365.89062 175.96875L365.89062 176.89062ZM368.4375 175.96875L371.23438 182.92188L374.01562 175.96875L375.48438 175.96875L375.48438 184.5L374.35938 184.5L374.35938 181.17188L374.46875 177.59375L371.65625 184.5L370.79688 184.5L368.0 177.60938L368.10938 181.17188L368.10938 184.5L366.98438 184.5L366.98438 175.96875L368.4375 175.96875Z" fill-rule="nonzero"/><path stroke="#cccccc" stroke-width="1.0" stroke-linecap="butt" d="M223.0 204.0L324.0 262.0" fill-rule="nonzero"/><path fill="#000000" d="M335.10938 275.15625L335.10938 278.5L333.98438 278.5L333.98438 269.96875L337.14062 269.96875Q338.53125 269.96875 339.32812 270.6875Q340.125 271.39062 340.125 272.57812Q340.125 273.8125 339.34375 274.48438Q338.57812 275.15625 337.125 275.15625L335.10938 275.15625ZM335.10938 274.23438L337.14062 274.23438Q338.04688 274.23438 338.51562 273.8125Q339.0 273.39062 339.0 272.59375Q339.0 271.82812 338.51562 271.375Q338.04688 270.90625 337.20312 270.89062L335.10938 270.89062L335.10938 274.23438ZM347.89062 270.89062L345.14062 270.89062L345.14062 278.5L344.03125 278.5L344.03125 270.89062L341.28125 270.89062L341.28125 269.96875L347.89062 269.96875L347.89062 270.89062ZM351.5 274.70312Q350.0625 274.28125 349.39062 273.67188Q348.73438 273.0625 348.73438 272.17188Q348.73438 271.17188 349.53125 270.51562Q350.34375 269.84375 351.64062 269.84375Q352.51562 269.84375 353.20312 270.1875Q353.89062 270.53125 354.26562 271.125Q354.65625 271.71875 354.65625 272.4375L353.51562 272.4375Q353.51562 271.65625 353.01562 271.21875Q352.53125 270.78125 351.64062 270.78125Q350.8125 270.78125 350.34375 271.15625Q349.875 271.51562 349.875 272.15625Q349.875 272.6875 350.3125 273.04688Q350.76562 273.40625 351.82812 273.70312Q352.89062 274.0 353.48438 274.35938Q354.09375 274.71875 354.375 275.20312Q354.67188 275.6875 354.67188 276.32812Q354.67188 277.375 353.85938 278.0Q353.04688 278.625 351.70312 278.625Q350.8125 278.625 350.04688 278.28125Q349.29688 277.9375 348.875 277.35938Q348.46875 276.76562 348.46875 276.03125L349.59375 276.03125Q349.59375 276.79688 350.17188 277.25Q350.75 277.70312 351.70312 277.70312Q352.59375 277.70312 353.0625 277.34375Q353.53125 276.96875 353.53125 276.34375Q353.53125 275.71875 353.09375 275.375Q352.65625 275.03125 351.5 274.70312Z" fill-rule="nonzero"/><path stroke="#cccccc" stroke-width="1.0" stroke-linecap="butt" d="M223.0 204.0L263.0 314.0" fill-rule="nonzero"/><path fill="#000000" d="M264.625 336.04688L262.60938 336.04688L262.60938 339.5L261.48438 339.5L261.48438 330.96875L264.3125 330.96875Q265.75 330.96875 266.51562 331.625Q267.29688 332.28125 267.29688 333.53125Q267.29688 334.32812 266.85938 334.92188Q266.4375 335.51562 265.67188 335.8125L267.67188 339.42188L267.67188 339.5L266.46875 339.5L264.625 336.04688ZM262.60938 335.125L264.34375 335.125Q265.1875 335.125 265.67188 334.70312Q266.17188 334.26562 266.17188 333.53125Q266.17188 332.75 265.70312 332.32812Q265.23438 331.90625 264.34375 331.89062L262.60938 331.89062L262.60938 335.125ZM273.3125 335.5625L269.60938 335.5625L269.60938 338.57812L273.90625 338.57812L273.90625 339.5L268.48438 339.5L268.48438 330.96875L273.85938 330.96875L273.85938 331.89062L269.60938 331.89062L269.60938 334.64062L273.3125 334.64062L273.3125 335.5625ZM275.48438 339.5L275.48438 330.96875L278.28125 330.96875Q279.67188 330.96875 280.35938 331.54688Q281.0625 332.10938 281.0625 333.23438Q281.0625 333.84375 280.71875 334.3125Q280.39062 334.76562 279.79688 335.01562Q280.5 335.20312 280.89062 335.75Q281.29688 336.28125 281.29688 337.03125Q281.29688 338.1875 280.54688 338.84375Q279.8125 339.5 278.45312 339.5L275.48438 339.5ZM276.60938 335.51562L276.60938 338.57812L278.46875 338.57812Q279.26562 338.57812 279.71875 338.17188Q280.17188 337.76562 280.17188 337.04688Q280.17188 335.51562 278.48438 335.51562L276.60938 335.51562ZM276.60938 334.60938L278.3125 334.60938Q279.04688 334.60938 279.48438 334.25Q279.9375 333.875 279.9375 333.23438Q279.9375 332.53125 279.53125 332.21875Q279.125 331.89062 278.28125 331.89062L276.60938 331.89062L276.60938 334.60938Z" fill-rule="nonzero"/><path stroke="#cccccc" stroke-width="1.0" stroke-linecap="butt" d="M223.0 204.0L183.0 314.0" fill-rule="nonzero"/><path fill="#000000" d="M169.70312 337.26562L166.125 337.26562L165.32812 339.5L164.17188 339.5L167.42188 330.96875L168.40625 330.96875L171.67188 339.5L170.51562 339.5L169.70312 337.26562ZM166.46875 336.34375L169.375 336.34375L167.92188 332.35938L166.46875 336.34375ZM175.5 335.70312Q174.0625 335.28125 173.39062 334.67188Q172.73438 334.0625 172.73438 333.17188Q172.73438 332.17188 173.53125 331.51562Q174.34375 330.84375 175.64062 330.84375Q176.51562 330.84375 177.20312 331.1875Q177.89062 331.53125 178.26562 332.125Q178.65625 332.71875 178.65625 333.4375L177.51562 333.4375Q177.51562 332.65625 177.01562 332.21875Q176.53125 331.78125 175.64062 331.78125Q174.8125 331.78125 174.34375 332.15625Q173.875 332.51562 173.875 333.15625Q173.875 333.6875 174.3125 334.04688Q174.76562 334.40625 175.82812 334.70312Q176.89062 335.0 177.48438 335.35938Q178.09375 335.71875 178.375 336.20312Q178.67188 336.6875 178.67188 337.32812Q178.67188 338.375 177.85938 339.0Q177.04688 339.625 175.70312 339.625Q174.8125 339.625 174.04688 339.28125Q173.29688 338.9375 172.875 338.35938Q172.46875 337.76562 172.46875 337.03125L173.59375 337.03125Q173.59375 337.79688 174.17188 338.25Q174.75 338.70312 175.70312 338.70312Q176.59375 338.70312 177.0625 338.34375Q177.53125 337.96875 177.53125 337.34375Q177.53125 336.71875 177.09375 336.375Q176.65625 336.03125 175.5 335.70312ZM185.89062 331.89062L183.14062 331.89062L183.14062 339.5L182.03125 339.5L182.03125 331.89062L179.28125 331.89062L179.28125 330.96875L185.89062 330.96875L185.89062 331.89062Z" fill-rule="nonzero"/><path stroke="#cccccc" stroke-width="1.0" stroke-linecap="butt" d="M223.0 204.0L122.0 262.0" fill-rule="nonzero"/><path fill="#000000" d="M98.5 274.70312Q97.0625 274.28125 96.390625 273.67188Q95.734375 273.0625 95.734375 272.17188Q95.734375 271.17188 96.53125 270.51562Q97.34375 269.84375 98.640625 269.84375Q99.515625 269.84375 100.203125 270.1875Q100.890625 270.53125 101.265625 271.125Q101.65625 271.71875 101.65625 272.4375L100.515625 272.4375Q100.515625 271.65625 100.015625 271.21875Q99.53125 270.78125 98.640625 270.78125Q97.8125 270.78125 97.34375 271.15625Q96.875 271.51562 96.875 272.15625Q96.875 272.6875 97.3125 273.04688Q97.765625 273.40625 98.828125 273.70312Q99.890625 274.0 100.484375 274.35938Q101.09375 274.71875 101.375 275.20312Q101.671875 275.6875 101.671875 276.32812Q101.671875 277.375 100.859375 278.0Q100.046875 278.625 98.703125 278.625Q97.8125 278.625 97.046875 278.28125Q96.296875 277.9375 95.875 277.35938Q95.46875 276.76562 95.46875 276.03125L96.59375 276.03125Q96.59375 276.79688 97.171875 277.25Q97.75 277.70312 98.703125 277.70312Q99.59375 277.70312 100.0625 277.34375Q100.53125 276.96875 100.53125 276.34375Q100.53125 275.71875 100.09375 275.375Q99.65625 275.03125 98.5 274.70312ZM108.890625 270.89062L106.140625 270.89062L106.140625 278.5L105.03125 278.5L105.03125 270.89062L102.28125 270.89062L102.28125 269.96875L108.890625 269.96875L108.890625 270.89062Z" fill-rule="nonzero"/><path stroke="#cccccc" stroke-width="1.0" stroke-linecap="butt" d="M223.0 204.0L108.0 184.0" fill-rule="nonzero"/><path fill="#000000" d="M76.484375 184.5L76.484375 175.96875L79.28125 175.96875Q80.671875 175.96875 81.359375 176.54688Q82.0625 177.10938 82.0625 178.23438Q82.0625 178.84375 81.71875 179.3125Q81.390625 179.76562 80.796875 180.01562Q81.5 180.20312 81.890625 180.75Q82.296875 181.28125 82.296875 182.03125Q82.296875 183.1875 81.546875 183.84375Q80.8125 184.5 79.453125 184.5L76.484375 184.5ZM77.609375 180.51562L77.609375 183.57812L79.46875 183.57812Q80.265625 183.57812 80.71875 183.17188Q81.171875 182.76562 81.171875 182.04688Q81.171875 180.51562 79.484375 180.51562L77.609375 180.51562ZM77.609375 179.60938L79.3125 179.60938Q80.046875 179.60938 80.484375 179.25Q80.9375 178.875 80.9375 178.23438Q80.9375 177.53125 80.53125 177.21875Q80.125 176.89062 79.28125 176.89062L77.609375 176.89062L77.609375 179.60938ZM84.625 183.57812L88.671875 183.57812L88.671875 184.5L83.484375 184.5L83.484375 175.96875L84.625 175.96875L84.625 183.57812ZM91.65625 180.53125L90.609375 181.60938L90.609375 184.5L89.484375 184.5L89.484375 175.96875L90.609375 175.96875L90.609375 180.1875L94.40625 175.96875L95.765625 175.96875L92.40625 179.73438L96.03125 184.5L94.6875 184.5L91.65625 180.53125Z" fill-rule="nonzero"/><path stroke="#cccccc" stroke-width="1.0" stroke-linecap="butt" d="M223.0 204.0L148.0 115.0" fill-rule="nonzero"/><path fill="#000000" d="M132.39062 93.890625L129.64062 93.890625L129.64062 101.5L128.53125 101.5L128.53125 93.890625L125.78125 93.890625L125.78125 92.96875L132.39062 92.96875L132.39062 93.890625ZM140.04688 97.515625Q140.04688 98.765625 139.625 99.703125Q139.20312 100.625 138.42188 101.125Q137.65625 101.625 136.625 101.625Q135.625 101.625 134.84375 101.125Q134.0625 100.625 133.625 99.71875Q133.20312 98.796875 133.1875 97.578125L133.1875 96.96875Q133.1875 95.734375 133.60938 94.796875Q134.04688 93.859375 134.82812 93.359375Q135.60938 92.84375 136.625 92.84375Q137.64062 92.84375 138.42188 93.34375Q139.20312 93.84375 139.625 94.78125Q140.04688 95.71875 140.04688 96.96875L140.04688 97.515625ZM138.9375 96.953125Q138.9375 95.4375 138.32812 94.625Q137.71875 93.8125 136.625 93.8125Q135.54688 93.8125 134.9375 94.625Q134.32812 95.4375 134.3125 96.875L134.3125 97.515625Q134.3125 98.984375 134.92188 99.828125Q135.54688 100.65625 136.625 100.65625Q137.71875 100.65625 138.3125 99.875Q138.92188 99.078125 138.9375 97.59375L138.9375 96.953125Z" fill-rule="nonzero"/><path stroke="#cccccc" stroke-width="1.0" stroke-linecap="butt" d="M223.0 204.0L223.0 87.0" fill-rule="nonzero"/><path stroke="#3366cc" stroke-width="1.0" stroke-linecap="butt" d="M223.0 118.0C241.0 128.0 254.0 141.0 263.0 156.0C284.0 158.0 306.0 168.0 326.0 186.0C329.0 210.0 326.0 235.0 317.0 258.0C300.0 277.0 280.0 291.0 258.0 299.0C235.0 307.0 211.0 310.0 186.0 306.0C165.0 293.0 148.0 275.0 135.0 255.0C124.0 234.0 117.0 210.0 116.0 185.0C152.0 173.0 186.0 176.0 213.0 192.0C206.0 169.0 209.0 143.0 223.0 118.0Z" fill-rule="nonzero"/><path stroke="#dc3912" stroke-width="1.0" stroke-linecap="butt" d="M223.0 95.0C247.0 103.0 267.0 116.0 283.0 132.0C294.0 151.0 299.0 171.0 300.0 190.0C306.0 209.0 308.0 229.0 304.0 251.0C295.0 272.0 280.0 291.0 260.0 306.0C235.0 310.0 211.0 307.0 188.0 299.0C172.0 282.0 161.0 263.0 156.0 243.0C141.0 229.0 130.0 209.0 123.0 186.0C159.0 176.0 192.0 181.0 218.0 198.0C204.0 167.0 206.0 131.0 223.0 95.0Z" fill-rule="nonzero"/><path stroke="#ff9900" stroke-width="1.0" stroke-linecap="butt" d="M223.0 111.0C246.0 108.0 270.0 111.0 293.0 121.0C309.0 140.0 321.0 162.0 326.0 186.0C319.0 210.0 306.0 229.0 290.0 243.0C280.0 257.0 266.0 269.0 250.0 277.0C231.0 276.0 215.0 271.0 202.0 263.0C187.0 258.0 174.0 250.0 162.0 239.0C173.0 219.0 189.0 206.0 208.0 201.0C185.0 188.0 169.0 164.0 163.0 132.0C181.0 121.0 201.0 113.0 223.0 111.0Z" fill-rule="nonzero"/><path stroke="#109618" stroke-width="1.0" stroke-linecap="butt" d="M223.0 134.0C240.0 133.0 257.0 137.0 273.0 144.0C288.0 156.0 299.0 171.0 307.0 189.0C308.0 209.0 305.0 229.0 297.0 247.0C287.0 265.0 273.0 280.0 255.0 292.0C234.0 297.0 212.0 297.0 191.0 292.0C169.0 286.0 148.0 275.0 129.0 258.0C136.0 230.0 150.0 208.0 169.0 195.0C180.0 186.0 192.0 181.0 203.0 180.0C203.0 165.0 210.0 148.0 223.0 134.0Z" fill-rule="nonzero"/><path stroke="#3366cc" stroke-width="4.0" stroke-linecap="butt" d="M447.45 62.416668L459.45 62.416668" fill-rule="nonzero"/><path fill="#757575" d="M469.575 65.99479L473.6219 65.99479L473.6219 66.916664L468.4344 66.916664L468.4344 58.385414L469.575 58.385414L469.575 65.99479ZM476.90314 67.041664Q475.60626 67.041664 474.79376 66.197914Q473.9969 65.33854 473.9969 63.916664L473.9969 63.729164Q473.9969 62.77604 474.35626 62.041664Q474.71564 61.291664 475.35626 60.885414Q476.0125 60.46354 476.7625 60.46354Q477.9969 60.46354 478.6844 61.27604Q479.3719 62.08854 479.3719 63.604164L479.3719 64.05729L475.075 64.05729Q475.10626 64.99479 475.6219 65.572914Q476.15314 66.15104 476.96564 66.15104Q477.52814 66.15104 477.91876 65.916664Q478.325 65.68229 478.6375 65.291664L479.29376 65.80729Q478.4969 67.041664 476.90314 67.041664ZM476.7625 61.354164Q476.10626 61.354164 475.65314 61.83854Q475.21564 62.30729 475.1219 63.166664L478.29376 63.166664L478.29376 63.08854Q478.2469 62.260414 477.84064 61.80729Q477.45 61.354164 476.7625 61.354164ZM479.98126 63.68229Q479.98126 62.760414 480.34064 62.010414Q480.71564 61.260414 481.3719 60.86979Q482.02814 60.46354 482.85626 60.46354Q484.15314 60.46354 484.95 61.354164Q485.7625 62.24479 485.7625 63.74479L485.7625 63.822914Q485.7625 64.74479 485.40314 65.479164Q485.04376 66.21354 484.3875 66.635414Q483.73126 67.041664 482.8719 67.041664Q481.59064 67.041664 480.77814 66.15104Q479.98126 65.24479 479.98126 63.760414L479.98126 63.68229ZM481.075 63.822914Q481.075 64.86979 481.5594 65.510414Q482.0594 66.15104 482.8719 66.15104Q483.7 66.15104 484.1844 65.510414Q484.66876 64.854164 484.66876 63.68229Q484.66876 62.65104 484.16876 62.010414Q483.6844 61.354164 482.85626 61.354164Q482.0594 61.354164 481.5594 61.99479Q481.075 62.61979 481.075 63.822914ZM488.29376 60.572914L488.325 61.36979Q489.0594 60.46354 490.23126 60.46354Q492.2469 60.46354 492.2625 62.729164L492.2625 66.916664L491.16876 66.916664L491.16876 62.71354Q491.16876 62.041664 490.85626 61.71354Q490.5594 61.385414 489.90314 61.385414Q489.3719 61.385414 488.96564 61.666664Q488.575 61.947914 488.35626 62.40104L488.35626 66.916664L487.27814 66.916664L487.27814 60.572914L488.29376 60.572914ZM495.45 66.916664L494.3719 66.916664L494.3719 60.572914L495.45 60.572914L495.45 66.916664ZM494.27814 58.90104Q494.27814 58.635414 494.4344 58.447914Q494.60626 58.260414 494.91876 58.260414Q495.23126 58.260414 495.3875 58.447914Q495.5594 58.635414 495.5594 58.90104Q495.5594 59.15104 495.3875 59.33854Q495.23126 59.510414 494.91876 59.510414Q494.60626 59.510414 494.4344 59.33854Q494.27814 59.15104 494.27814 58.90104ZM498.29376 60.572914L498.325 61.36979Q499.0594 60.46354 500.23126 60.46354Q502.2469 60.46354 502.2625 62.729164L502.2625 66.916664L501.16876 66.916664L501.16876 62.71354Q501.16876 62.041664 500.85626 61.71354Q500.5594 61.385414 499.90314 61.385414Q499.3719 61.385414 498.96564 61.666664Q498.575 61.947914 498.35626 62.40104L498.35626 66.916664L497.27814 66.916664L497.27814 60.572914L498.29376 60.572914ZM506.90314 67.041664Q505.60626 67.041664 504.79376 66.197914Q503.9969 65.33854 503.9969 63.916664L503.9969 63.729164Q503.9969 62.77604 504.35626 62.041664Q504.71564 61.291664 505.35626 60.885414Q506.0125 60.46354 506.7625 60.46354Q507.9969 60.46354 508.6844 61.27604Q509.3719 62.08854 509.3719 63.604164L509.3719 64.05729L505.075 64.05729Q505.10626 64.99479 505.6219 65.572914Q506.15314 66.15104 506.96564 66.15104Q507.52814 66.15104 507.91876 65.916664Q508.325 65.68229 508.6375 65.291664L509.29376 65.80729Q508.4969 67.041664 506.90314 67.041664ZM506.7625 61.354164Q506.10626 61.354164 505.65314 61.83854Q505.21564 62.30729 505.1219 63.166664L508.29376 63.166664L508.29376 63.08854Q508.2469 62.260414 507.84064 61.80729Q507.45 61.354164 506.7625 61.354164ZM518.15314 63.15104L514.5594 63.15104L514.5594 66.916664L513.4344 66.916664L513.4344 58.385414L518.73126 58.385414L518.73126 59.30729L514.5594 59.30729L514.5594 62.229164L518.15314 62.229164L518.15314 63.15104ZM524.1844 66.916664Q524.09064 66.729164 524.02814 66.24479Q523.27814 67.041664 522.23126 67.041664Q521.29376 67.041664 520.6844 66.510414Q520.09064 65.979164 520.09064 65.15104Q520.09064 64.166664 520.84064 63.61979Q521.59064 63.072914 522.96564 63.072914L524.0125 63.072914L524.0125 62.572914Q524.0125 62.010414 523.66876 61.68229Q523.34064 61.33854 522.66876 61.33854Q522.09064 61.33854 521.7 61.635414Q521.3094 61.916664 521.3094 62.33854L520.21564 62.33854Q520.21564 61.854164 520.54376 61.416664Q520.8875 60.979164 521.46564 60.729164Q522.04376 60.46354 522.73126 60.46354Q523.84064 60.46354 524.45 61.010414Q525.075 61.55729 525.10626 62.510414L525.10626 65.43229Q525.10626 66.30729 525.325 66.822914L525.325 66.916664L524.1844 66.916664ZM522.3875 66.08854Q522.90314 66.08854 523.35626 65.822914Q523.8094 65.55729 524.0125 65.135414L524.0125 63.83854L523.16876 63.83854Q521.16876 63.83854 521.16876 65.010414Q521.16876 65.510414 521.5125 65.80729Q521.85626 66.08854 522.3875 66.08854ZM529.8094 66.15104Q530.3875 66.15104 530.825 65.80729Q531.2625 65.447914 531.3094 64.916664L532.34064 64.916664Q532.3094 65.46354 531.95 65.96354Q531.60626 66.447914 531.02814 66.74479Q530.46564 67.041664 529.8094 67.041664Q528.5125 67.041664 527.7469 66.18229Q526.9969 65.30729 526.9969 63.80729L526.9969 63.61979Q526.9969 62.697914 527.325 61.979164Q527.66876 61.260414 528.29376 60.86979Q528.9344 60.46354 529.8094 60.46354Q530.8719 60.46354 531.575 61.104164Q532.29376 61.729164 532.34064 62.760414L531.3094 62.760414Q531.2625 62.135414 530.84064 61.74479Q530.41876 61.354164 529.8094 61.354164Q528.98126 61.354164 528.52814 61.947914Q528.075 62.541664 528.075 63.666664L528.075 63.86979Q528.075 64.96354 528.52814 65.55729Q528.98126 66.15104 529.8094 66.15104ZM534.45 66.916664L533.3719 66.916664L533.3719 60.572914L534.45 60.572914L534.45 66.916664ZM533.27814 58.90104Q533.27814 58.635414 533.4344 58.447914Q533.60626 58.260414 533.91876 58.260414Q534.23126 58.260414 534.3875 58.447914Q534.5594 58.635414 534.5594 58.90104Q534.5594 59.15104 534.3875 59.33854Q534.23126 59.510414 533.91876 59.510414Q533.60626 59.510414 533.4344 59.33854Q533.27814 59.15104 533.27814 58.90104ZM538.90314 67.041664Q537.60626 67.041664 536.79376 66.197914Q535.9969 65.33854 535.9969 63.916664L535.9969 63.729164Q535.9969 62.77604 536.35626 62.041664Q536.71564 61.291664 537.35626 60.885414Q538.0125 60.46354 538.7625 60.46354Q539.9969 60.46354 540.6844 61.27604Q541.3719 62.08854 541.3719 63.604164L541.3719 64.05729L537.075 64.05729Q537.10626 64.99479 537.6219 65.572914Q538.15314 66.15104 538.96564 66.15104Q539.52814 66.15104 539.91876 65.916664Q540.325 65.68229 540.6375 65.291664L541.29376 65.80729Q540.4969 67.041664 538.90314 67.041664ZM538.7625 61.354164Q538.10626 61.354164 537.65314 61.83854Q537.21564 62.30729 537.1219 63.166664L540.29376 63.166664L540.29376 63.08854Q540.2469 62.260414 539.84064 61.80729Q539.45 61.354164 538.7625 61.354164ZM545.96564 65.229164Q545.96564 64.791664 545.6219 64.55729Q545.29376 64.30729 544.46564 64.135414Q543.65314 63.96354 543.16876 63.71354Q542.6844 63.46354 542.45 63.135414Q542.23126 62.791664 542.23126 62.322914Q542.23126 61.541664 542.8875 61.010414Q543.54376 60.46354 544.575 60.46354Q545.65314 60.46354 546.3094 61.02604Q546.98126 61.572914 546.98126 62.43229L545.90314 62.43229Q545.90314 61.99479 545.5125 61.68229Q545.1375 61.354164 544.575 61.354164Q543.98126 61.354164 543.6375 61.61979Q543.3094 61.86979 543.3094 62.27604Q543.3094 62.666664 543.6219 62.86979Q543.9344 63.072914 544.7469 63.260414Q545.5594 63.43229 546.0594 63.68229Q546.5594 63.93229 546.79376 64.291664Q547.04376 64.65104 547.04376 65.15104Q547.04376 66.010414 546.35626 66.52604Q545.6844 67.041664 544.60626 67.041664Q543.84064 67.041664 543.2469 66.77604Q542.66876 66.49479 542.34064 66.010414Q542.0125 65.52604 542.0125 64.96354L543.09064 64.96354Q543.1219 65.510414 543.52814 65.83854Q543.9344 66.15104 544.60626 66.15104Q545.21564 66.15104 545.59064 65.90104Q545.96564 65.65104 545.96564 65.229164Z" fill-rule="nonzero"/><path stroke="#dc3912" stroke-width="4.0" stroke-linecap="butt" d="M447.45 87.416664L459.45 87.416664" fill-rule="nonzero"/><path fill="#757575" d="M474.71564 89.21354Q474.5594 90.55729 473.71564 91.30729Q472.8719 92.041664 471.48126 92.041664Q469.96564 92.041664 469.0594 90.96354Q468.15314 89.86979 468.15314 88.041664L468.15314 87.229164Q468.15314 86.041664 468.575 85.135414Q468.9969 84.229164 469.77814 83.74479Q470.5594 83.260414 471.575 83.260414Q472.9344 83.260414 473.7469 84.02604Q474.575 84.791664 474.71564 86.11979L473.59064 86.11979Q473.4344 85.104164 472.95 84.65104Q472.46564 84.197914 471.575 84.197914Q470.4969 84.197914 469.8875 84.99479Q469.27814 85.791664 469.27814 87.260414L469.27814 88.08854Q469.27814 89.479164 469.85626 90.30729Q470.4344 91.11979 471.48126 91.11979Q472.41876 91.11979 472.91876 90.697914Q473.41876 90.260414 473.59064 89.21354L474.71564 89.21354ZM477.35626 86.33854Q478.075 85.46354 479.23126 85.46354Q481.2469 85.46354 481.2625 87.729164L481.2625 91.916664L480.16876 91.916664L480.16876 87.71354Q480.16876 87.041664 479.85626 86.71354Q479.5594 86.385414 478.90314 86.385414Q478.3719 86.385414 477.96564 86.666664Q477.575 86.947914 477.35626 87.40104L477.35626 91.916664L476.27814 91.916664L476.27814 82.916664L477.35626 82.916664L477.35626 86.33854ZM487.1844 91.291664Q486.5594 92.041664 485.325 92.041664Q484.3094 92.041664 483.77814 91.447914Q483.2469 90.854164 483.2469 89.697914L483.2469 85.572914L484.325 85.572914L484.325 89.666664Q484.325 91.11979 485.4969 91.11979Q486.7469 91.11979 487.15314 90.18229L487.15314 85.572914L488.2469 85.572914L488.2469 91.916664L487.21564 91.916664L487.1844 91.291664ZM495.6219 88.822914Q495.6219 90.260414 494.96564 91.15104Q494.3094 92.041664 493.16876 92.041664Q492.0125 92.041664 491.35626 91.30729L491.35626 94.354164L490.27814 94.354164L490.27814 85.572914L491.2625 85.572914L491.3094 86.27604Q491.98126 85.46354 493.15314 85.46354Q494.29376 85.46354 494.95 86.322914Q495.6219 87.18229 495.6219 88.71354L495.6219 88.822914ZM494.54376 88.697914Q494.54376 87.61979 494.075 87.010414Q493.6219 86.385414 492.825 86.385414Q491.84064 86.385414 491.35626 87.24479L491.35626 90.27604Q491.84064 91.15104 492.84064 91.15104Q493.6219 91.15104 494.075 90.541664Q494.54376 89.916664 494.54376 88.697914ZM501.1844 91.916664Q501.09064 91.729164 501.02814 91.24479Q500.27814 92.041664 499.23126 92.041664Q498.29376 92.041664 497.6844 91.510414Q497.09064 90.979164 497.09064 90.15104Q497.09064 89.166664 497.84064 88.61979Q498.59064 88.072914 499.96564 88.072914L501.0125 88.072914L501.0125 87.572914Q501.0125 87.010414 500.66876 86.68229Q500.34064 86.33854 499.66876 86.33854Q499.09064 86.33854 498.7 86.635414Q498.3094 86.916664 498.3094 87.33854L497.21564 87.33854Q497.21564 86.854164 497.54376 86.416664Q497.8875 85.979164 498.46564 85.729164Q499.04376 85.46354 499.73126 85.46354Q500.84064 85.46354 501.45 86.010414Q502.075 86.55729 502.10626 87.510414L502.10626 90.43229Q502.10626 91.30729 502.325 91.822914L502.325 91.916664L501.1844 91.916664ZM499.3875 91.08854Q499.90314 91.08854 500.35626 90.822914Q500.8094 90.55729 501.0125 90.135414L501.0125 88.83854L500.16876 88.83854Q498.16876 88.83854 498.16876 90.010414Q498.16876 90.510414 498.5125 90.80729Q498.85626 91.08854 499.3875 91.08854ZM506.8094 91.15104Q507.3875 91.15104 507.825 90.80729Q508.2625 90.447914 508.3094 89.916664L509.34064 89.916664Q509.3094 90.46354 508.95 90.96354Q508.60626 91.447914 508.02814 91.74479Q507.46564 92.041664 506.8094 92.041664Q505.5125 92.041664 504.7469 91.18229Q503.9969 90.30729 503.9969 88.80729L503.9969 88.61979Q503.9969 87.697914 504.325 86.979164Q504.66876 86.260414 505.29376 85.86979Q505.9344 85.46354 506.8094 85.46354Q507.8719 85.46354 508.575 86.104164Q509.29376 86.729164 509.34064 87.760414L508.3094 87.760414Q508.2625 87.135414 507.84064 86.74479Q507.41876 86.354164 506.8094 86.354164Q505.98126 86.354164 505.52814 86.947914Q505.075 87.541664 505.075 88.666664L505.075 88.86979Q505.075 89.96354 505.52814 90.55729Q505.98126 91.15104 506.8094 91.15104ZM514.1844 91.916664Q514.09064 91.729164 514.02814 91.24479Q513.27814 92.041664 512.23126 92.041664Q511.29376 92.041664 510.6844 91.510414Q510.09064 90.979164 510.09064 90.15104Q510.09064 89.166664 510.84064 88.61979Q511.59064 88.072914 512.96564 88.072914L514.0125 88.072914L514.0125 87.572914Q514.0125 87.010414 513.66876 86.68229Q513.34064 86.33854 512.66876 86.33854Q512.09064 86.33854 511.7 86.635414Q511.3094 86.916664 511.3094 87.33854L510.21564 87.33854Q510.21564 86.854164 510.54376 86.416664Q510.8875 85.979164 511.46564 85.729164Q512.04376 85.46354 512.73126 85.46354Q513.84064 85.46354 514.45 86.010414Q515.075 86.55729 515.10626 87.510414L515.10626 90.43229Q515.10626 91.30729 515.325 91.822914L515.325 91.916664L514.1844 91.916664ZM512.3875 91.08854Q512.90314 91.08854 513.35626 90.822914Q513.8094 90.55729 514.0125 90.135414L514.0125 88.83854L513.16876 88.83854Q511.16876 88.83854 511.16876 90.010414Q511.16876 90.510414 511.5125 90.80729Q511.85626 91.08854 512.3875 91.08854ZM522.6375 88.822914Q522.6375 90.27604 521.96564 91.166664Q521.3094 92.041664 520.1844 92.041664Q518.98126 92.041664 518.325 91.18229L518.2625 91.916664L517.27814 91.916664L517.27814 82.916664L518.35626 82.916664L518.35626 86.27604Q519.0125 85.46354 520.16876 85.46354Q521.325 85.46354 521.98126 86.33854Q522.6375 87.197914 522.6375 88.729164L522.6375 88.822914ZM521.5594 88.697914Q521.5594 87.58854 521.1219 86.99479Q520.7 86.385414 519.90314 86.385414Q518.825 86.385414 518.35626 87.36979L518.35626 90.11979Q518.85626 91.11979 519.90314 91.11979Q520.6844 91.11979 521.1219 90.510414Q521.5594 89.90104 521.5594 88.697914ZM527.34064 86.541664Q527.09064 86.510414 526.8094 86.510414Q525.73126 86.510414 525.35626 87.416664L525.35626 91.916664L524.27814 91.916664L524.27814 85.572914L525.325 85.572914L525.34064 86.30729Q525.8719 85.46354 526.85626 85.46354Q527.16876 85.46354 527.34064 85.541664L527.34064 86.541664ZM532.1844 91.916664Q532.09064 91.729164 532.02814 91.24479Q531.27814 92.041664 530.23126 92.041664Q529.29376 92.041664 528.6844 91.510414Q528.09064 90.979164 528.09064 90.15104Q528.09064 89.166664 528.84064 88.61979Q529.59064 88.072914 530.96564 88.072914L532.0125 88.072914L532.0125 87.572914Q532.0125 87.010414 531.66876 86.68229Q531.34064 86.33854 530.66876 86.33854Q530.09064 86.33854 529.7 86.635414Q529.3094 86.916664 529.3094 87.33854L528.21564 87.33854Q528.21564 86.854164 528.54376 86.416664Q528.8875 85.979164 529.46564 85.729164Q530.04376 85.46354 530.73126 85.46354Q531.84064 85.46354 532.45 86.010414Q533.075 86.55729 533.10626 87.510414L533.10626 90.43229Q533.10626 91.30729 533.325 91.822914L533.325 91.916664L532.1844 91.916664ZM530.3875 91.08854Q530.90314 91.08854 531.35626 90.822914Q531.8094 90.55729 532.0125 90.135414L532.0125 88.83854L531.16876 88.83854Q529.16876 88.83854 529.16876 90.010414Q529.16876 90.510414 529.5125 90.80729Q529.85626 91.08854 530.3875 91.08854ZM538.96564 90.229164Q538.96564 89.791664 538.6219 89.55729Q538.29376 89.30729 537.46564 89.135414Q536.65314 88.96354 536.16876 88.71354Q535.6844 88.46354 535.45 88.135414Q535.23126 87.791664 535.23126 87.322914Q535.23126 86.541664 535.8875 86.010414Q536.54376 85.46354 537.575 85.46354Q538.65314 85.46354 539.3094 86.02604Q539.98126 86.572914 539.98126 87.43229L538.90314 87.43229Q538.90314 86.99479 538.5125 86.68229Q538.1375 86.354164 537.575 86.354164Q536.98126 86.354164 536.6375 86.61979Q536.3094 86.86979 536.3094 87.27604Q536.3094 87.666664 536.6219 87.86979Q536.9344 88.072914 537.7469 88.260414Q538.5594 88.43229 539.0594 88.68229Q539.5594 88.93229 539.79376 89.291664Q540.04376 89.65104 540.04376 90.15104Q540.04376 91.010414 539.35626 91.52604Q538.6844 92.041664 537.60626 92.041664Q536.84064 92.041664 536.2469 91.77604Q535.66876 91.49479 535.34064 91.010414Q535.0125 90.52604 535.0125 89.96354L536.09064 89.96354Q536.1219 90.510414 536.52814 90.83854Q536.9344 91.15104 537.60626 91.15104Q538.21564 91.15104 538.59064 90.90104Q538.96564 90.65104 538.96564 90.229164Z" fill-rule="nonzero"/><path stroke="#ff9900" stroke-width="4.0" stroke-linecap="butt" d="M447.45 112.416664L459.45 112.416664" fill-rule="nonzero"/><path fill="#757575" d="M470.95 113.11979Q469.5125 112.697914 468.84064 112.08854Q468.1844 111.479164 468.1844 110.58854Q468.1844 109.58854 468.98126 108.93229Q469.79376 108.260414 471.09064 108.260414Q471.96564 108.260414 472.65314 108.604164Q473.34064 108.947914 473.71564 109.541664Q474.10626 110.135414 474.10626 110.854164L472.96564 110.854164Q472.96564 110.072914 472.46564 109.635414Q471.98126 109.197914 471.09064 109.197914Q470.2625 109.197914 469.79376 109.572914Q469.325 109.93229 469.325 110.572914Q469.325 111.104164 469.7625 111.46354Q470.21564 111.822914 471.27814 112.11979Q472.34064 112.416664 472.9344 112.77604Q473.54376 113.135414 473.825 113.61979Q474.1219 114.104164 474.1219 114.74479Q474.1219 115.791664 473.3094 116.416664Q472.4969 117.041664 471.15314 117.041664Q470.2625 117.041664 469.4969 116.697914Q468.7469 116.354164 468.325 115.77604Q467.91876 115.18229 467.91876 114.447914L469.04376 114.447914Q469.04376 115.21354 469.6219 115.666664Q470.2 116.11979 471.15314 116.11979Q472.04376 116.11979 472.5125 115.760414Q472.98126 115.385414 472.98126 114.760414Q472.98126 114.135414 472.54376 113.791664Q472.10626 113.447914 470.95 113.11979ZM474.98126 113.68229Q474.98126 112.760414 475.34064 112.010414Q475.71564 111.260414 476.3719 110.86979Q477.02814 110.46354 477.85626 110.46354Q479.15314 110.46354 479.95 111.354164Q480.7625 112.24479 480.7625 113.74479L480.7625 113.822914Q480.7625 114.74479 480.40314 115.479164Q480.04376 116.21354 479.3875 116.635414Q478.73126 117.041664 477.8719 117.041664Q476.59064 117.041664 475.77814 116.15104Q474.98126 115.24479 474.98126 113.760414L474.98126 113.68229ZM476.075 113.822914Q476.075 114.86979 476.5594 115.510414Q477.0594 116.15104 477.8719 116.15104Q478.7 116.15104 479.1844 115.510414Q479.66876 114.854164 479.66876 113.68229Q479.66876 112.65104 479.16876 112.010414Q478.6844 111.354164 477.85626 111.354164Q477.0594 111.354164 476.5594 111.99479Q476.075 112.61979 476.075 113.822914ZM485.34064 111.541664Q485.09064 111.510414 484.8094 111.510414Q483.73126 111.510414 483.35626 112.416664L483.35626 116.916664L482.27814 116.916664L482.27814 110.572914L483.325 110.572914L483.34064 111.30729Q483.8719 110.46354 484.85626 110.46354Q485.16876 110.46354 485.34064 110.541664L485.34064 111.541664ZM489.34064 111.541664Q489.09064 111.510414 488.8094 111.510414Q487.73126 111.510414 487.35626 112.416664L487.35626 116.916664L486.27814 116.916664L486.27814 110.572914L487.325 110.572914L487.34064 111.30729Q487.8719 110.46354 488.85626 110.46354Q489.16876 110.46354 489.34064 110.541664L489.34064 111.541664ZM492.34064 115.322914L493.825 110.572914L494.98126 110.572914L492.4344 117.90104Q491.84064 119.479164 490.5594 119.479164L490.34064 119.46354L489.95 119.385414L489.95 118.510414L490.23126 118.52604Q490.79376 118.52604 491.09064 118.30729Q491.40314 118.08854 491.60626 117.49479L491.84064 116.83854L489.575 110.572914L490.7625 110.572914L492.34064 115.322914ZM504.15314 113.15104L500.5594 113.15104L500.5594 116.916664L499.4344 116.916664L499.4344 108.385414L504.73126 108.385414L504.73126 109.30729L500.5594 109.30729L500.5594 112.229164L504.15314 112.229164L504.15314 113.15104ZM505.98126 113.68229Q505.98126 112.760414 506.34064 112.010414Q506.71564 111.260414 507.3719 110.86979Q508.02814 110.46354 508.85626 110.46354Q510.15314 110.46354 510.95 111.354164Q511.7625 112.24479 511.7625 113.74479L511.7625 113.822914Q511.7625 114.74479 511.40314 115.479164Q511.04376 116.21354 510.3875 116.635414Q509.73126 117.041664 508.8719 117.041664Q507.59064 117.041664 506.77814 116.15104Q505.98126 115.24479 505.98126 113.760414L505.98126 113.68229ZM507.075 113.822914Q507.075 114.86979 507.5594 115.510414Q508.0594 116.15104 508.8719 116.15104Q509.7 116.15104 510.1844 115.510414Q510.66876 114.854164 510.66876 113.68229Q510.66876 112.65104 510.16876 112.010414Q509.6844 111.354164 508.85626 111.354164Q508.0594 111.354164 507.5594 111.99479Q507.075 112.61979 507.075 113.822914ZM516.34064 111.541664Q516.09064 111.510414 515.8094 111.510414Q514.73126 111.510414 514.35626 112.416664L514.35626 116.916664L513.27814 116.916664L513.27814 110.572914L514.325 110.572914L514.34064 111.30729Q514.8719 110.46354 515.85626 110.46354Q516.16876 110.46354 516.34064 110.541664L516.34064 111.541664ZM521.5594 113.572914L521.5594 116.916664L520.4344 116.916664L520.4344 108.385414L523.59064 108.385414Q524.98126 108.385414 525.77814 109.104164Q526.575 109.80729 526.575 110.99479Q526.575 112.229164 525.79376 112.90104Q525.02814 113.572914 523.575 113.572914L521.5594 113.572914ZM521.5594 112.65104L523.59064 112.65104Q524.4969 112.65104 524.96564 112.229164Q525.45 111.80729 525.45 111.010414Q525.45 110.24479 524.96564 109.791664Q524.4969 109.322914 523.65314 109.30729L521.5594 109.30729L521.5594 112.65104ZM532.1844 116.916664Q532.09064 116.729164 532.02814 116.24479Q531.27814 117.041664 530.23126 117.041664Q529.29376 117.041664 528.6844 116.510414Q528.09064 115.979164 528.09064 115.15104Q528.09064 114.166664 528.84064 113.61979Q529.59064 113.072914 530.96564 113.072914L532.0125 113.072914L532.0125 112.572914Q532.0125 112.010414 531.66876 111.68229Q531.34064 111.33854 530.66876 111.33854Q530.09064 111.33854 529.7 111.635414Q529.3094 111.916664 529.3094 112.33854L528.21564 112.33854Q528.21564 111.854164 528.54376 111.416664Q528.8875 110.979164 529.46564 110.729164Q530.04376 110.46354 530.73126 110.46354Q531.84064 110.46354 532.45 111.010414Q533.075 111.55729 533.10626 112.510414L533.10626 115.43229Q533.10626 116.30729 533.325 116.822914L533.325 116.916664L532.1844 116.916664ZM530.3875 116.08854Q530.90314 116.08854 531.35626 115.822914Q531.8094 115.55729 532.0125 115.135414L532.0125 113.83854L531.16876 113.83854Q529.16876 113.83854 529.16876 115.010414Q529.16876 115.510414 529.5125 115.80729Q529.85626 116.08854 530.3875 116.08854ZM538.34064 111.541664Q538.09064 111.510414 537.8094 111.510414Q536.73126 111.510414 536.35626 112.416664L536.35626 116.916664L535.27814 116.916664L535.27814 110.572914L536.325 110.572914L536.34064 111.30729Q536.8719 110.46354 537.85626 110.46354Q538.16876 110.46354 538.34064 110.541664L538.34064 111.541664ZM540.7469 109.041664L540.7469 110.572914L541.91876 110.572914L541.91876 111.416664L540.7469 111.416664L540.7469 115.33854Q540.7469 115.729164 540.90314 115.916664Q541.0594 116.104164 541.4344 116.104164Q541.6219 116.104164 541.95 116.041664L541.95 116.916664Q541.52814 117.041664 541.1219 117.041664Q540.40314 117.041664 540.02814 116.604164Q539.65314 116.15104 539.65314 115.33854L539.65314 111.416664L538.4969 111.416664L538.4969 110.572914L539.65314 110.572914L539.65314 109.041664L540.7469 109.041664ZM545.34064 115.322914L546.825 110.572914L547.98126 110.572914L545.4344 117.90104Q544.84064 119.479164 543.5594 119.479164L543.34064 119.46354L542.95 119.385414L542.95 118.510414L543.23126 118.52604Q543.79376 118.52604 544.09064 118.30729Q544.40314 118.08854 544.60626 117.49479L544.84064 116.83854L542.575 110.572914L543.7625 110.572914L545.34064 115.322914ZM550.45 116.916664L549.3719 116.916664L549.3719 110.572914L550.45 110.572914L550.45 116.916664ZM549.27814 108.90104Q549.27814 108.635414 549.4344 108.447914Q549.60626 108.260414 549.91876 108.260414Q550.23126 108.260414 550.3875 108.447914Q550.5594 108.635414 550.5594 108.90104Q550.5594 109.15104 550.3875 109.33854Q550.23126 109.510414 549.91876 109.510414Q549.60626 109.510414 549.4344 109.33854Q549.27814 109.15104 549.27814 108.90104ZM553.29376 110.572914L553.325 111.36979Q554.0594 110.46354 555.23126 110.46354Q557.2469 110.46354 557.2625 112.729164L557.2625 116.916664L556.16876 116.916664L556.16876 112.71354Q556.16876 112.041664 555.85626 111.71354Q555.5594 111.385414 554.90314 111.385414Q554.3719 111.385414 553.96564 111.666664Q553.575 111.947914 553.35626 112.40104L553.35626 116.916664L552.27814 116.916664L552.27814 110.572914L553.29376 110.572914ZM559.0125 113.697914Q559.0125 112.21354 559.7 111.33854Q560.3875 110.46354 561.5125 110.46354Q562.66876 110.46354 563.325 111.27604L563.3719 110.572914L564.3719 110.572914L564.3719 116.760414Q564.3719 117.99479 563.6375 118.697914Q562.90314 119.416664 561.6844 119.416664Q560.9969 119.416664 560.34064 119.11979Q559.6844 118.822914 559.34064 118.322914L559.90314 117.666664Q560.59064 118.52604 561.60626 118.52604Q562.3875 118.52604 562.825 118.072914Q563.27814 117.635414 563.27814 116.822914L563.27814 116.27604Q562.6219 117.041664 561.4969 117.041664Q560.3875 117.041664 559.7 116.15104Q559.0125 115.24479 559.0125 113.697914ZM560.10626 113.822914Q560.10626 114.885414 560.54376 115.510414Q560.98126 116.11979 561.77814 116.11979Q562.79376 116.11979 563.27814 115.18229L563.27814 112.291664Q562.77814 111.385414 561.77814 111.385414Q560.9969 111.385414 560.54376 111.99479Q560.10626 112.604164 560.10626 113.822914Z" fill-rule="nonzero"/><path stroke="#109618" stroke-width="4.0" stroke-linecap="butt" d="M447.45 137.41667L459.45 137.41667" fill-rule="nonzero"/><path fill="#757575" d="M474.71564 139.21355Q474.5594 140.5573 473.71564 141.3073Q472.8719 142.04167 471.48126 142.04167Q469.96564 142.04167 469.0594 140.96355Q468.15314 139.8698 468.15314 138.04167L468.15314 137.22917Q468.15314 136.04167 468.575 135.13542Q468.9969 134.22917 469.77814 133.7448Q470.5594 133.26042 471.575 133.26042Q472.9344 133.26042 473.7469 134.02605Q474.575 134.79167 474.71564 136.1198L473.59064 136.1198Q473.4344 135.10417 472.95 134.65105Q472.46564 134.19792 471.575 134.19792Q470.4969 134.19792 469.8875 134.9948Q469.27814 135.79167 469.27814 137.26042L469.27814 138.08855Q469.27814 139.47917 469.85626 140.3073Q470.4344 141.1198 471.48126 141.1198Q472.41876 141.1198 472.91876 140.69792Q473.41876 140.26042 473.59064 139.21355L474.71564 139.21355ZM480.1844 141.91667Q480.09064 141.72917 480.02814 141.2448Q479.27814 142.04167 478.23126 142.04167Q477.29376 142.04167 476.6844 141.51042Q476.09064 140.97917 476.09064 140.15105Q476.09064 139.16667 476.84064 138.6198Q477.59064 138.07292 478.96564 138.07292L480.0125 138.07292L480.0125 137.57292Q480.0125 137.01042 479.66876 136.6823Q479.34064 136.33855 478.66876 136.33855Q478.09064 136.33855 477.7 136.63542Q477.3094 136.91667 477.3094 137.33855L476.21564 137.33855Q476.21564 136.85417 476.54376 136.41667Q476.8875 135.97917 477.46564 135.72917Q478.04376 135.46355 478.73126 135.46355Q479.84064 135.46355 480.45 136.01042Q481.075 136.5573 481.10626 137.51042L481.10626 140.4323Q481.10626 141.3073 481.325 141.82292L481.325 141.91667L480.1844 141.91667ZM478.3875 141.08855Q478.90314 141.08855 479.35626 140.82292Q479.8094 140.5573 480.0125 140.13542L480.0125 138.83855L479.16876 138.83855Q477.16876 138.83855 477.16876 140.01042Q477.16876 140.51042 477.5125 140.8073Q477.85626 141.08855 478.3875 141.08855ZM486.96564 140.22917Q486.96564 139.79167 486.6219 139.5573Q486.29376 139.3073 485.46564 139.13542Q484.65314 138.96355 484.16876 138.71355Q483.6844 138.46355 483.45 138.13542Q483.23126 137.79167 483.23126 137.32292Q483.23126 136.54167 483.8875 136.01042Q484.54376 135.46355 485.575 135.46355Q486.65314 135.46355 487.3094 136.02605Q487.98126 136.57292 487.98126 137.4323L486.90314 137.4323Q486.90314 136.9948 486.5125 136.6823Q486.1375 136.35417 485.575 136.35417Q484.98126 136.35417 484.6375 136.6198Q484.3094 136.8698 484.3094 137.27605Q484.3094 137.66667 484.6219 137.8698Q484.9344 138.07292 485.7469 138.26042Q486.5594 138.4323 487.0594 138.6823Q487.5594 138.9323 487.79376 139.29167Q488.04376 139.65105 488.04376 140.15105Q488.04376 141.01042 487.35626 141.52605Q486.6844 142.04167 485.60626 142.04167Q484.84064 142.04167 484.2469 141.77605Q483.66876 141.4948 483.34064 141.01042Q483.0125 140.52605 483.0125 139.96355L484.09064 139.96355Q484.1219 140.51042 484.52814 140.83855Q484.9344 141.15105 485.60626 141.15105Q486.21564 141.15105 486.59064 140.90105Q486.96564 140.65105 486.96564 140.22917ZM492.96564 140.22917Q492.96564 139.79167 492.6219 139.5573Q492.29376 139.3073 491.46564 139.13542Q490.65314 138.96355 490.16876 138.71355Q489.6844 138.46355 489.45 138.13542Q489.23126 137.79167 489.23126 137.32292Q489.23126 136.54167 489.8875 136.01042Q490.54376 135.46355 491.575 135.46355Q492.65314 135.46355 493.3094 136.02605Q493.98126 136.57292 493.98126 137.4323L492.90314 137.4323Q492.90314 136.9948 492.5125 136.6823Q492.1375 136.35417 491.575 136.35417Q490.98126 136.35417 490.6375 136.6198Q490.3094 136.8698 490.3094 137.27605Q490.3094 137.66667 490.6219 137.8698Q490.9344 138.07292 491.7469 138.26042Q492.5594 138.4323 493.0594 138.6823Q493.5594 138.9323 493.79376 139.29167Q494.04376 139.65105 494.04376 140.15105Q494.04376 141.01042 493.35626 141.52605Q492.6844 142.04167 491.60626 142.04167Q490.84064 142.04167 490.2469 141.77605Q489.66876 141.4948 489.34064 141.01042Q489.0125 140.52605 489.0125 139.96355L490.09064 139.96355Q490.1219 140.51042 490.52814 140.83855Q490.9344 141.15105 491.60626 141.15105Q492.21564 141.15105 492.59064 140.90105Q492.96564 140.65105 492.96564 140.22917ZM504.71564 139.21355Q504.5594 140.5573 503.71564 141.3073Q502.8719 142.04167 501.48126 142.04167Q499.96564 142.04167 499.0594 140.96355Q498.15314 139.8698 498.15314 138.04167L498.15314 137.22917Q498.15314 136.04167 498.575 135.13542Q498.9969 134.22917 499.77814 133.7448Q500.5594 133.26042 501.575 133.26042Q502.9344 133.26042 503.7469 134.02605Q504.575 134.79167 504.71564 136.1198L503.59064 136.1198Q503.4344 135.10417 502.95 134.65105Q502.46564 134.19792 501.575 134.19792Q500.4969 134.19792 499.8875 134.9948Q499.27814 135.79167 499.27814 137.26042L499.27814 138.08855Q499.27814 139.47917 499.85626 140.3073Q500.4344 141.1198 501.48126 141.1198Q502.41876 141.1198 502.91876 140.69792Q503.41876 140.26042 503.59064 139.21355L504.71564 139.21355ZM507.45 141.91667L506.3719 141.91667L506.3719 135.57292L507.45 135.57292L507.45 141.91667ZM506.27814 133.90105Q506.27814 133.63542 506.4344 133.44792Q506.60626 133.26042 506.91876 133.26042Q507.23126 133.26042 507.3875 133.44792Q507.5594 133.63542 507.5594 133.90105Q507.5594 134.15105 507.3875 134.33855Q507.23126 134.51042 506.91876 134.51042Q506.60626 134.51042 506.4344 134.33855Q506.27814 134.15105 506.27814 133.90105ZM510.7469 134.04167L510.7469 135.57292L511.91876 135.57292L511.91876 136.41667L510.7469 136.41667L510.7469 140.33855Q510.7469 140.72917 510.90314 140.91667Q511.0594 141.10417 511.4344 141.10417Q511.6219 141.10417 511.95 141.04167L511.95 141.91667Q511.52814 142.04167 511.1219 142.04167Q510.40314 142.04167 510.02814 141.60417Q509.65314 141.15105 509.65314 140.33855L509.65314 136.41667L508.4969 136.41667L508.4969 135.57292L509.65314 135.57292L509.65314 134.04167L510.7469 134.04167ZM515.34064 140.32292L516.825 135.57292L517.98126 135.57292L515.4344 142.90105Q514.84064 144.47917 513.5594 144.47917L513.34064 144.46355L512.95 144.38542L512.95 143.51042L513.23126 143.52605Q513.79376 143.52605 514.09064 143.3073Q514.40314 143.08855 514.60626 142.4948L514.84064 141.83855L512.575 135.57292L513.7625 135.57292L515.34064 140.32292ZM525.575 138.46355L523.5594 138.46355L523.5594 141.91667L522.4344 141.91667L522.4344 133.38542L525.2625 133.38542Q526.7 133.38542 527.46564 134.04167Q528.2469 134.69792 528.2469 135.94792Q528.2469 136.7448 527.8094 137.33855Q527.3875 137.9323 526.6219 138.22917L528.6219 141.83855L528.6219 141.91667L527.41876 141.91667L525.575 138.46355ZM523.5594 137.54167L525.29376 137.54167Q526.1375 137.54167 526.6219 137.1198Q527.1219 136.6823 527.1219 135.94792Q527.1219 135.16667 526.65314 134.7448Q526.1844 134.32292 525.29376 134.3073L523.5594 134.3073L523.5594 137.54167ZM531.90314 142.04167Q530.60626 142.04167 529.79376 141.19792Q528.9969 140.33855 528.9969 138.91667L528.9969 138.72917Q528.9969 137.77605 529.35626 137.04167Q529.71564 136.29167 530.35626 135.88542Q531.0125 135.46355 531.7625 135.46355Q532.9969 135.46355 533.6844 136.27605Q534.3719 137.08855 534.3719 138.60417L534.3719 139.0573L530.075 139.0573Q530.10626 139.9948 530.6219 140.57292Q531.15314 141.15105 531.96564 141.15105Q532.52814 141.15105 532.91876 140.91667Q533.325 140.6823 533.6375 140.29167L534.29376 140.8073Q533.4969 142.04167 531.90314 142.04167ZM531.7625 136.35417Q531.10626 136.35417 530.65314 136.83855Q530.21564 137.3073 530.1219 138.16667L533.29376 138.16667L533.29376 138.08855Q533.2469 137.26042 532.84064 136.8073Q532.45 136.35417 531.7625 136.35417ZM535.0125 138.69792Q535.0125 137.22917 535.7 136.35417Q536.3875 135.46355 537.5125 135.46355Q538.6219 135.46355 539.27814 136.21355L539.27814 132.91667L540.35626 132.91667L540.35626 141.91667L539.35626 141.91667L539.3094 141.22917Q538.65314 142.04167 537.4969 142.04167Q536.40314 142.04167 535.7 141.13542Q535.0125 140.22917 535.0125 138.77605L535.0125 138.69792ZM536.09064 138.82292Q536.09064 139.90105 536.52814 140.51042Q536.98126 141.1198 537.7625 141.1198Q538.79376 141.1198 539.27814 140.1823L539.27814 137.27605Q538.79376 136.38542 537.77814 136.38542Q536.98126 136.38542 536.52814 136.9948Q536.09064 137.60417 536.09064 138.82292ZM551.9969 141.91667L550.8719 141.91667L550.8719 137.97917L546.5594 137.97917L546.5594 141.91667L545.4344 141.91667L545.4344 133.38542L546.5594 133.38542L546.5594 137.0573L550.8719 137.0573L550.8719 133.38542L551.9969 133.38542L551.9969 141.91667ZM558.1844 141.91667Q558.09064 141.72917 558.02814 141.2448Q557.27814 142.04167 556.23126 142.04167Q555.29376 142.04167 554.6844 141.51042Q554.09064 140.97917 554.09064 140.15105Q554.09064 139.16667 554.84064 138.6198Q555.59064 138.07292 556.96564 138.07292L558.0125 138.07292L558.0125 137.57292Q558.0125 137.01042 557.66876 136.6823Q557.34064 136.33855 556.66876 136.33855Q556.09064 136.33855 555.7 136.63542Q555.3094 136.91667 555.3094 137.33855L554.21564 137.33855Q554.21564 136.85417 554.54376 136.41667Q554.8875 135.97917 555.46564 135.72917Q556.04376 135.46355 556.73126 135.46355Q557.84064 135.46355 558.45 136.01042Q559.075 136.5573 559.10626 137.51042L559.10626 140.4323Q559.10626 141.3073 559.325 141.82292L559.325 141.91667L558.1844 141.91667ZM556.3875 141.08855Q556.90314 141.08855 557.35626 140.82292Q557.8094 140.5573 558.0125 140.13542L558.0125 138.83855L557.16876 138.83855Q555.16876 138.83855 555.16876 140.01042Q555.16876 140.51042 555.5125 140.8073Q555.85626 141.08855 556.3875 141.08855ZM566.8875 140.41667L568.10626 135.57292L569.1844 135.57292L567.34064 141.91667L566.46564 141.91667L564.91876 137.10417L563.41876 141.91667L562.54376 141.91667L560.7 135.57292L561.77814 135.57292L563.02814 140.32292L564.5125 135.57292L565.3719 135.57292L566.8875 140.41667ZM572.04376 138.97917L571.35626 139.6823L571.35626 141.91667L570.27814 141.91667L570.27814 132.91667L571.35626 132.91667L571.35626 138.35417L571.9344 137.66667L573.91876 135.57292L575.23126 135.57292L572.7625 138.22917L575.52814 141.91667L574.2469 141.91667L572.04376 138.97917ZM579.96564 140.22917Q579.96564 139.79167 579.6219 139.5573Q579.29376 139.3073 578.46564 139.13542Q577.65314 138.96355 577.16876 138.71355Q576.6844 138.46355 576.45 138.13542Q576.23126 137.79167 576.23126 137.32292Q576.23126 136.54167 576.8875 136.01042Q577.54376 135.46355 578.575 135.46355Q579.65314 135.46355 580.3094 136.02605Q580.98126 136.57292 580.98126 137.4323L579.90314 137.4323Q579.90314 136.9948 579.5125 136.6823Q579.1375 136.35417 578.575 136.35417Q577.98126 136.35417 577.6375 136.6198Q577.3094 136.8698 577.3094 137.27605Q577.3094 137.66667 577.6219 137.8698Q577.9344 138.07292 578.7469 138.26042Q579.5594 138.4323 580.0594 138.6823Q580.5594 138.9323 580.79376 139.29167Q581.04376 139.65105 581.04376 140.15105Q581.04376 141.01042 580.35626 141.52605Q579.6844 142.04167 578.60626 142.04167Q577.84064 142.04167 577.2469 141.77605Q576.66876 141.4948 576.34064 141.01042Q576.0125 140.52605 576.0125 139.96355L577.09064 139.96355Q577.1219 140.51042 577.52814 140.83855Q577.9344 141.15105 578.60626 141.15105Q579.21564 141.15105 579.59064 140.90105Q579.96564 140.65105 579.96564 140.22917Z" fill-rule="nonzero"/><path fill="#757575" d="M29.05 37.55L19.7375 37.55L19.7375 36.253124L24.659374 30.784374Q25.753124 29.534374 26.159374 28.76875Q26.58125 27.9875 26.58125 27.159374Q26.58125 26.05 25.909374 25.33125Q25.2375 24.6125 24.1125 24.6125Q22.753124 24.6125 22.003124 25.39375Q21.26875 26.159374 21.26875 27.51875L19.45625 27.51875Q19.45625 25.55 20.721874 24.346874Q21.9875 23.128124 24.1125 23.128124Q26.096874 23.128124 27.2375 24.175Q28.39375 25.221874 28.39375 26.940624Q28.39375 29.05 25.721874 31.940624L21.909374 36.08125L29.05 36.08125L29.05 37.55ZM39.64375 31.4875Q39.64375 34.659374 38.565624 36.20625Q37.4875 37.753124 35.175 37.753124Q32.89375 37.753124 31.8 36.2375Q30.70625 34.721874 30.675 31.721874L30.675 29.315624Q30.675 26.175 31.753124 24.659374Q32.846874 23.128124 35.159374 23.128124Q37.45625 23.128124 38.534374 24.6125Q39.6125 26.08125 39.64375 29.14375L39.64375 31.4875ZM37.846874 29.01875Q37.846874 26.721874 37.190624 25.675Q36.55 24.6125 35.159374 24.6125Q33.76875 24.6125 33.128124 25.659374Q32.503124 26.70625 32.4875 28.878124L32.4875 31.76875Q32.4875 34.065624 33.14375 35.175Q33.815624 36.26875 35.175 36.26875Q36.51875 36.26875 37.159374 35.2375Q37.815624 34.20625 37.846874 31.971874L37.846874 29.01875ZM47.675 37.55L45.846874 37.55L45.846874 25.503124L42.20625 26.846874L42.20625 25.20625L47.39375 23.26875L47.675 23.26875L47.675 37.55ZM61.909374 24.346874L56.01875 37.55L54.128124 37.55L60.003124 24.815624L52.3 24.815624L52.3 23.33125L61.909374 23.33125L61.909374 24.346874ZM79.01875 24.878124L74.45625 24.878124L74.45625 37.55L72.59688 37.55L72.59688 24.878124L68.03438 24.878124L68.03438 23.33125L79.01875 23.33125L79.01875 24.878124ZM80.44063 32.175Q80.44063 30.6125 81.05 29.378124Q81.65938 28.128124 82.7375 27.45625Q83.83125 26.784374 85.2375 26.784374Q87.39375 26.784374 88.72188 28.284374Q90.06563 29.76875 90.06563 32.253124L90.06563 32.378124Q90.06563 33.925 89.47188 35.159374Q88.87813 36.378124 87.76875 37.065624Q86.675 37.753124 85.25313 37.753124Q83.1125 37.753124 81.76875 36.253124Q80.44063 34.753124 80.44063 32.3L80.44063 32.175ZM82.25313 32.378124Q82.25313 34.14375 83.06563 35.20625Q83.89375 36.26875 85.25313 36.26875Q86.62813 36.26875 87.44063 35.190624Q88.25313 34.1125 88.25313 32.175Q88.25313 30.425 87.425 29.346874Q86.59688 28.26875 85.2375 28.26875Q83.89375 28.26875 83.06563 29.33125Q82.25313 30.39375 82.25313 32.378124ZM100.84688 32.378124Q100.84688 34.8 99.7375 36.284374Q98.64375 37.753124 96.75313 37.753124Q94.83125 37.753124 93.72188 36.51875L93.72188 41.6125L91.925 41.6125L91.925 26.9875L93.56563 26.9875L93.65938 28.159374Q94.75313 26.784374 96.72188 26.784374Q98.62813 26.784374 99.7375 28.221874Q100.84688 29.659374 100.84688 32.221874L100.84688 32.378124ZM99.03438 32.175Q99.03438 30.39375 98.26875 29.3625Q97.51875 28.315624 96.19063 28.315624Q94.55 28.315624 93.72188 29.76875L93.72188 34.83125Q94.53438 36.26875 96.20625 36.26875Q97.50313 36.26875 98.26875 35.2375Q99.03438 34.20625 99.03438 32.175ZM115.3625 32.76875L117.33125 32.76875L117.33125 34.253124L115.3625 34.253124L115.3625 37.55L113.55 37.55L113.55 34.253124L107.06563 34.253124L107.06563 33.190624L113.44063 23.33125L115.3625 23.33125L115.3625 32.76875ZM109.1125 32.76875L113.55 32.76875L113.55 25.8L113.33125 26.190624L109.1125 32.76875ZM127.675 32.253124L122.90938 32.253124L122.90938 30.76875L127.675 30.76875L127.675 32.253124ZM137.20625 37.55L135.33125 37.55L135.33125 23.33125L137.20625 23.33125L137.20625 37.55ZM141.62813 26.9875L141.69063 28.315624Q142.89375 26.784374 144.84688 26.784374Q148.20625 26.784374 148.22188 30.565624L148.22188 37.55L146.425 37.55L146.425 30.55Q146.40938 29.409374 145.89375 28.8625Q145.39375 28.315624 144.3 28.315624Q143.425 28.315624 142.75313 28.784374Q142.09688 29.253124 141.72188 30.01875L141.72188 37.55L139.925 37.55L139.925 26.9875L141.62813 26.9875ZM158.3625 24.425L158.3625 26.9875L160.34688 26.9875L160.34688 28.378124L158.3625 28.378124L158.3625 34.925Q158.3625 35.565624 158.62813 35.89375Q158.89375 36.20625 159.53438 36.20625Q159.84688 36.20625 160.39375 36.08125L160.39375 37.55Q159.675 37.753124 159.00313 37.753124Q157.8 37.753124 157.175 37.01875Q156.56563 36.284374 156.56563 34.925L156.56563 28.378124L154.64375 28.378124L154.64375 26.9875L156.56563 26.9875L156.56563 24.425L158.3625 24.425ZM164.72188 28.26875Q165.925 26.784374 167.84688 26.784374Q171.20625 26.784374 171.22188 30.565624L171.22188 37.55L169.425 37.55L169.425 30.55Q169.40938 29.409374 168.89375 28.8625Q168.39375 28.315624 167.3 28.315624Q166.425 28.315624 165.75313 28.784374Q165.09688 29.253124 164.72188 30.01875L164.72188 37.55L162.925 37.55L162.925 22.55L164.72188 22.55L164.72188 28.26875ZM178.3 37.753124Q176.15938 37.753124 174.8 36.346874Q173.45625 34.925 173.45625 32.565624L173.45625 32.221874Q173.45625 30.659374 174.05 29.425Q174.65938 28.190624 175.7375 27.4875Q176.81563 26.784374 178.08125 26.784374Q180.14375 26.784374 181.28438 28.14375Q182.425 29.503124 182.425 32.034374L182.425 32.784374L175.26875 32.784374Q175.3 34.346874 176.175 35.315624Q177.05 36.26875 178.39375 36.26875Q179.3625 36.26875 180.01875 35.878124Q180.69063 35.4875 181.19063 34.846874L182.28438 35.70625Q180.95625 37.753124 178.3 37.753124ZM178.08125 28.26875Q176.9875 28.26875 176.2375 29.065624Q175.50313 29.8625 175.33125 31.3L180.6125 31.3L180.6125 31.159374Q180.53438 29.784374 179.8625 29.034374Q179.20625 28.26875 178.08125 28.26875ZM192.62813 23.33125L197.26875 34.925L201.925 23.33125L204.34688 23.33125L204.34688 37.55L202.47188 37.55L202.47188 32.01875L202.65938 26.034374L197.9875 37.55L196.55 37.55L191.89375 26.065624L192.08125 32.01875L192.08125 37.55L190.20625 37.55L190.20625 23.33125L192.62813 23.33125ZM206.44063 32.175Q206.44063 30.6125 207.05 29.378124Q207.65938 28.128124 208.7375 27.45625Q209.83125 26.784374 211.2375 26.784374Q213.39375 26.784374 214.72188 28.284374Q216.06563 29.76875 216.06563 32.253124L216.06563 32.378124Q216.06563 33.925 215.47188 35.159374Q214.87813 36.378124 213.76875 37.065624Q212.675 37.753124 211.25313 37.753124Q209.1125 37.753124 207.76875 36.253124Q206.44063 34.753124 206.44063 32.3L206.44063 32.175ZM208.25313 32.378124Q208.25313 34.14375 209.06563 35.20625Q209.89375 36.26875 211.25313 36.26875Q212.62813 36.26875 213.44063 35.190624Q214.25313 34.1125 214.25313 32.175Q214.25313 30.425 213.425 29.346874Q212.59688 28.26875 211.2375 28.26875Q209.89375 28.26875 209.06563 29.33125Q208.25313 30.39375 208.25313 32.378124ZM219.62813 26.9875L219.69063 28.315624Q220.89375 26.784374 222.84688 26.784374Q226.20625 26.784374 226.22188 30.565624L226.22188 37.55L224.425 37.55L224.425 30.55Q224.40938 29.409374 223.89375 28.8625Q223.39375 28.315624 222.3 28.315624Q221.425 28.315624 220.75313 28.784374Q220.09688 29.253124 219.72188 30.01875L219.72188 37.55L217.925 37.55L217.925 26.9875L219.62813 26.9875ZM233.3 37.753124Q231.15938 37.753124 229.8 36.346874Q228.45625 34.925 228.45625 32.565624L228.45625 32.221874Q228.45625 30.659374 229.05 29.425Q229.65938 28.190624 230.7375 27.4875Q231.81563 26.784374 233.08125 26.784374Q235.14375 26.784374 236.28438 28.14375Q237.425 29.503124 237.425 32.034374L237.425 32.784374L230.26875 32.784374Q230.3 34.346874 231.175 35.315624Q232.05 36.26875 233.39375 36.26875Q234.3625 36.26875 235.01875 35.878124Q235.69063 35.4875 236.19063 34.846874L237.28438 35.70625Q235.95625 37.753124 233.3 37.753124ZM233.08125 28.26875Q231.9875 28.26875 231.2375 29.065624Q230.50313 29.8625 230.33125 31.3L235.6125 31.3L235.6125 31.159374Q235.53438 29.784374 234.8625 29.034374Q234.20625 28.26875 233.08125 28.26875ZM243.37813 34.909374L245.83125 26.9875L247.76875 26.9875L243.51875 39.175Q242.53438 41.815624 240.39375 41.815624L240.05 41.784374L239.37813 41.659374L239.37813 40.190624L239.8625 40.2375Q240.78438 40.2375 241.28438 39.8625Q241.8 39.4875 242.12813 38.503124L242.53438 37.425L238.76875 26.9875L240.7375 26.9875L243.37813 34.909374Z" fill-rule="nonzero"/></svg>