<svg version="1.1" viewBox="0.0 0.0 600.0 371.0" fill="none" stroke="none" stroke-linecap="square" stroke-miterlimit="10" width="600" height="371" xmlns:xlink="http://www.w3.org/1999/xlink" xmlns="http://www.w3.org/2000/svg"><path fill="#ffffff" d="M0 0L600.0 0L600.0 371.0L0 371.0L0 0Z" fill-rule="nonzero"/><path fill="#ffffff" d="M0 0L600.0 0L600.0 371.0L0 371.0L0 0Z" fill-rule="nonzero"/><path stroke="#cccccc" stroke-width="1.0" stroke-linecap="butt" d="M108.5 62.5L108.5 298.5" fill-rule="nonzero"/><path stroke="#cccccc" stroke-width="1.0" stroke-linecap="butt" d="M186.5 62.5L186.5 298.5" fill-rule="nonzero"/><path stroke="#cccccc" stroke-width="1.0" stroke-linecap="butt" d="M264.5 62.5L264.5 298.5" fill-rule="nonzero"/><path stroke="#cccccc" stroke-width="1.0" stroke-linecap="butt" d="M342.5 62.5L342.5 298.5" fill-rule="nonzero"/><path stroke="#333333" stroke-width="1.0" stroke-linecap="butt" d="M78.5 298.5L412.5 298.5" fill-rule="nonzero"/><path stroke="#cccccc" stroke-width="1.0" stroke-linecap="butt" d="M78.5 219.5L412.5 219.5" fill-rule="nonzero"/><path stroke="#cccccc" stroke-width="1.0" stroke-linecap="butt" d="M78.5 141.5L412.5 141.5" fill-rule="nonzero"/><path stroke="#cccccc" stroke-width="1.0" stroke-linecap="butt" d="M78.5 62.5L412.5 62.5" fill-rule="nonzero"/><clipPath id="id_0"><path d="M78.55 62.416668L412.58 62.416668L412.58 298.45L78.55 298.45L78.55 62.416668Z" clip-rule="nonzero"/></clipPath><path stroke="#3366cc" stroke-width="2.0" stroke-linecap="butt" stroke-opacity="0.4" clip-path="url(#id_0)" d="M0 403.08218L412.58 64.58876" fill-rule="nonzero"/><path fill="#3366cc" clip-path="url(#id_0)" d="M410.36157 78.15222C410.36157 80.637505 408.34686 82.65222 405.86157 82.65222C403.3763 82.65222 401.36157 80.637505 401.36157 78.15222C401.36157 75.66694 403.3763 73.65222 405.86157 73.65222C408.34686 73.65222 410.36157 75.66694 410.36157 78.15222Z" fill-rule="nonzero"/><path fill="#3366cc" clip-path="url(#id_0)" d="M393.20087 93.88778C393.20087 96.37306 391.18616 98.38778 388.70087 98.38778C386.2156 98.38778 384.20087 96.37306 384.20087 93.88778C384.20087 91.4025 386.2156 89.38778 388.70087 89.38778C391.18616 89.38778 393.20087 91.4025 393.20087 93.88778Z" fill-rule="nonzero"/><path fill="#3366cc" clip-path="url(#id_0)" d="M178.69206 266.97888C178.69206 269.46417 176.67735 271.47888 174.19206 271.47888C171.70679 271.47888 169.69206 269.46417 169.69206 266.97888C169.69206 264.49362 171.70679 262.47888 174.19206 262.47888C176.67735 262.47888 178.69206 264.49362 178.69206 266.97888Z" fill-rule="nonzero"/><path fill="#3366cc" clip-path="url(#id_0)" d="M244.21475 188.30112C244.21475 190.78639 242.20004 192.80112 239.71475 192.80112C237.22948 192.80112 235.21475 190.78639 235.21475 188.30112C235.21475 185.81583 237.22948 183.80112 239.71475 183.80112C242.20004 183.80112 244.21475 185.81583 244.21475 188.30112Z" fill-rule="nonzero"/><path fill="#3366cc" clip-path="url(#id_0)" d="M359.65952 109.62334C359.65952 112.10861 357.64478 114.12334 355.15952 114.12334C352.67422 114.12334 350.65952 112.10861 350.65952 109.62334C350.65952 107.138054 352.67422 105.12334 355.15952 105.12334C357.64478 105.12334 359.65952 107.138054 359.65952 109.62334Z" fill-rule="nonzero"/><path fill="#3366cc" clip-path="url(#id_0)" d="M270.73584 156.83C270.73584 159.31528 268.72113 161.33 266.23584 161.33C263.75058 161.33 261.73584 159.31528 261.73584 156.83C261.73584 154.34471 263.75058 152.33 266.23584 152.33C268.72113 152.33 270.73584 154.34471 270.73584 156.83Z" fill-rule="nonzero"/><path fill="#3366cc" clip-path="url(#id_0)" d="M239.53456 219.77222C239.53456 222.2575 237.51985 224.27222 235.03456 224.27222C232.54929 224.27222 230.53456 222.2575 230.53456 219.77222C230.53456 217.28694 232.54929 215.27222 235.03456 215.27222C237.51985 215.27222 239.53456 217.28694 239.53456 219.77222Z" fill-rule="nonzero"/><path fill="#3366cc" clip-path="url(#id_0)" d="M298.03696 141.09445C298.03696 143.57973 296.02225 145.59445 293.53696 145.59445C291.0517 145.59445 289.03696 143.57973 289.03696 141.09445C289.03696 138.60916 291.0517 136.59445 293.53696 136.59445C296.02225 136.59445 298.03696 138.60916 298.03696 141.09445Z" fill-rule="nonzero"/><path fill="#3366cc" clip-path="url(#id_0)" d="M240.3146 204.03667C240.3146 206.52194 238.29988 208.53667 235.8146 208.53667C233.32932 208.53667 231.3146 206.52194 231.3146 204.03667C231.3146 201.55139 233.32932 199.53667 235.8146 199.53667C238.29988 199.53667 240.3146 201.55139 240.3146 204.03667Z" fill-rule="nonzero"/><path fill="#3366cc" clip-path="url(#id_0)" d="M269.9558 172.56555C269.9558 175.05084 267.9411 177.06555 265.4558 177.06555C262.97055 177.06555 260.9558 175.05084 260.9558 172.56555C260.9558 170.08028 262.97055 168.06555 265.4558 168.06555C267.9411 168.06555 269.9558 170.08028 269.9558 172.56555Z" fill-rule="nonzero"/><path fill="#3366cc" clip-path="url(#id_0)" d="M322.998 125.35889C322.998 127.84417 320.98328 129.85889 318.498 129.85889C316.01273 129.85889 313.998 127.84417 313.998 125.35889C313.998 122.873604 316.01273 120.85889 318.498 120.85889C320.98328 120.85889 322.998 122.873604 322.998 125.35889Z" fill-rule="nonzero"/><path fill="#3366cc" clip-path="url(#id_0)" d="M231.73425 235.50778C231.73425 237.99306 229.71953 240.00778 227.23425 240.00778C224.74896 240.00778 222.73425 237.99306 222.73425 235.50778C222.73425 233.02249 224.74896 231.00778 227.23425 231.00778C229.71953 231.00778 231.73425 233.02249 231.73425 235.50778Z" fill-rule="nonzero"/><path fill="#3366cc" clip-path="url(#id_0)" d="M209.89336 251.24333C209.89336 253.7286 207.87863 255.74333 205.39336 255.74333C202.90807 255.74333 200.89336 253.7286 200.89336 251.24333C200.89336 248.75806 202.90807 246.74333 205.39336 246.74333C207.87863 246.74333 209.89336 248.75806 209.89336 251.24333Z" fill-rule="nonzero"/><path fill="#3366cc" clip-path="url(#id_0)" d="M156.85117 282.71445C156.85117 285.19974 154.83646 287.21445 152.35117 287.21445C149.86589 287.21445 147.85117 285.19974 147.85117 282.71445C147.85117 280.22916 149.86589 278.21445 152.35117 278.21445C154.83646 278.21445 156.85117 280.22916 156.85117 282.71445Z" fill-rule="nonzero"/><path fill="#3366cc" clip-path="url(#id_0)" d="M354.19928 93.88778C354.19928 96.37306 352.18457 98.38778 349.69928 98.38778C347.214 98.38778 345.19928 96.37306 345.19928 93.88778C345.19928 91.4025 347.214 89.38778 349.69928 89.38778C352.18457 89.38778 354.19928 91.4025 354.19928 93.88778Z" fill-rule="nonzero"/><path fill="#3366cc" clip-path="url(#id_0)" d="M342.4988 109.62334C342.4988 112.10861 340.48407 114.12334 337.9988 114.12334C335.51352 114.12334 333.4988 112.10861 333.4988 109.62334C333.4988 107.138054 335.51352 105.12334 337.9988 105.12334C340.48407 105.12334 342.4988 107.138054 342.4988 109.62334Z" fill-rule="nonzero"/><path fill="#3366cc" clip-path="url(#id_0)" d="M282.43634 156.83C282.43634 159.31528 280.4216 161.33 277.93634 161.33C275.45105 161.33 273.43634 159.31528 273.43634 156.83C273.43634 154.34471 275.45105 152.33 277.93634 152.33C280.4216 152.33 282.43634 154.34471 282.43634 156.83Z" fill-rule="nonzero"/><path fill="#3366cc" clip-path="url(#id_0)" d="M264.4956 204.03667C264.4956 206.52194 262.48087 208.53667 259.9956 208.53667C257.5103 208.53667 255.49559 206.52194 255.49559 204.03667C255.49559 201.55139 257.5103 199.53667 259.9956 199.53667C262.48087 199.53667 264.4956 201.55139 264.4956 204.03667Z" fill-rule="nonzero"/><path fill="#3366cc" clip-path="url(#id_0)" d="M278.53616 172.56555C278.53616 175.05084 276.52145 177.06555 274.03616 177.06555C271.5509 177.06555 269.53616 175.05084 269.53616 172.56555C269.53616 170.08028 271.5509 168.06555 274.03616 168.06555C276.52145 168.06555 278.53616 170.08028 278.53616 172.56555Z" fill-rule="nonzero"/><path fill="#3366cc" clip-path="url(#id_0)" d="M220.8138 235.50778C220.8138 237.99306 218.79907 240.00778 216.3138 240.00778C213.82852 240.00778 211.8138 237.99306 211.8138 235.50778C211.8138 233.02249 213.82852 231.00778 216.3138 231.00778C218.79907 231.00778 220.8138 233.02249 220.8138 235.50778Z" fill-rule="nonzero"/><path fill="#3366cc" clip-path="url(#id_0)" d="M269.9558 188.30112C269.9558 190.78639 267.9411 192.80112 265.4558 192.80112C262.97055 192.80112 260.9558 190.78639 260.9558 188.30112C260.9558 185.81583 262.97055 183.80112 265.4558 183.80112C267.9411 183.80112 269.9558 185.81583 269.9558 188.30112Z" fill-rule="nonzero"/><path fill="#3366cc" clip-path="url(#id_0)" d="M244.21475 219.77222C244.21475 222.2575 242.20004 224.27222 239.71475 224.27222C237.22948 224.27222 235.21475 222.2575 235.21475 219.77222C235.21475 217.28694 237.22948 215.27222 239.71475 215.27222C242.20004 215.27222 244.21475 217.28694 244.21475 219.77222Z" fill-rule="nonzero"/><path fill="#3366cc" clip-path="url(#id_0)" d="M379.1603 78.15222C379.1603 80.637505 377.1456 82.65222 374.6603 82.65222C372.17502 82.65222 370.1603 80.637505 370.1603 78.15222C370.1603 75.66694 372.17502 73.65222 374.6603 73.65222C377.1456 73.65222 379.1603 75.66694 379.1603 78.15222Z" fill-rule="nonzero"/><path fill="#3366cc" clip-path="url(#id_0)" d="M125.64989 266.97888C125.64989 269.46417 123.63517 271.47888 121.14989 271.47888C118.664604 271.47888 116.64989 269.46417 116.64989 266.97888C116.64989 264.49362 118.664604 262.47888 121.14989 262.47888C123.63517 262.47888 125.64989 264.49362 125.64989 266.97888Z" fill-rule="nonzero"/><path fill="#3366cc" clip-path="url(#id_0)" d="M317.53778 141.09445C317.53778 143.57973 315.52304 145.59445 313.03778 145.59445C310.5525 145.59445 308.53778 143.57973 308.53778 141.09445C308.53778 138.60916 310.5525 136.59445 313.03778 136.59445C315.52304 136.59445 317.53778 138.60916 317.53778 141.09445Z" fill-rule="nonzero"/><path fill="#3366cc" clip-path="url(#id_0)" d="M326.11813 125.35889C326.11813 127.84417 324.1034 129.85889 321.61813 129.85889C319.13284 129.85889 317.11813 127.84417 317.11813 125.35889C317.11813 122.873604 319.13284 120.85889 321.61813 120.85889C324.1034 120.85889 326.11813 122.873604 326.11813 125.35889Z" fill-rule="nonzero"/><path fill="#3366cc" clip-path="url(#id_0)" d="M89.76842 282.71445C89.76842 285.19974 87.7537 287.21445 85.26842 287.21445C82.783134 287.21445 80.76842 285.19974 80.76842 282.71445C80.76842 280.22916 82.783134 278.21445 85.26842 278.21445C87.7537 278.21445 89.76842 280.22916 89.76842 282.71445Z" fill-rule="nonzero"/><path fill="#3366cc" clip-path="url(#id_0)" d="M176.35197 251.24333C176.35197 253.7286 174.33725 255.74333 171.85197 255.74333C169.36668 255.74333 167.35197 253.7286 167.35197 251.24333C167.35197 248.75806 169.36668 246.74333 171.85197 246.74333C174.33725 246.74333 176.35197 248.75806 176.35197 251.24333Z" fill-rule="nonzero"/><path fill="#3366cc" clip-path="url(#id_0)" d="M334.6985 141.09445C334.6985 143.57973 332.68375 145.59445 330.1985 145.59445C327.7132 145.59445 325.6985 143.57973 325.6985 141.09445C325.6985 138.60916 327.7132 136.59445 330.1985 136.59445C332.68375 136.59445 334.6985 138.60916 334.6985 141.09445Z" fill-rule="nonzero"/><path fill="#3366cc" clip-path="url(#id_0)" d="M368.23987 93.88778C368.23987 96.37306 366.22513 98.38778 363.73987 98.38778C361.25458 98.38778 359.23987 96.37306 359.23987 93.88778C359.23987 91.4025 361.25458 89.38778 363.73987 89.38778C366.22513 89.38778 368.23987 91.4025 368.23987 93.88778Z" fill-rule="nonzero"/><path fill="#3366cc" clip-path="url(#id_0)" d="M331.57834 156.83C331.57834 159.31528 329.56363 161.33 327.07834 161.33C324.59308 161.33 322.57834 159.31528 322.57834 156.83C322.57834 154.34471 324.59308 152.33 327.07834 152.33C329.56363 152.33 331.57834 154.34471 331.57834 156.83Z" fill-rule="nonzero"/><path fill="#3366cc" clip-path="url(#id_0)" d="M323.778 172.56555C323.778 175.05084 321.7633 177.06555 319.278 177.06555C316.79276 177.06555 314.778 175.05084 314.778 172.56555C314.778 170.08028 316.79276 168.06555 319.278 168.06555C321.7633 168.06555 323.778 170.08028 323.778 172.56555Z" fill-rule="nonzero"/><path fill="#3366cc" clip-path="url(#id_0)" d="M378.38028 78.15222C378.38028 80.637505 376.36554 82.65222 373.88028 82.65222C371.395 82.65222 369.38028 80.637505 369.38028 78.15222C369.38028 75.66694 371.395 73.65222 373.88028 73.65222C376.36554 73.65222 378.38028 75.66694 378.38028 78.15222Z" fill-rule="nonzero"/><path fill="#3366cc" clip-path="url(#id_0)" d="M180.25214 282.71445C180.25214 285.19974 178.23741 287.21445 175.75214 287.21445C173.26685 287.21445 171.25214 285.19974 171.25214 282.71445C171.25214 280.22916 173.26685 278.21445 175.75214 278.21445C178.23741 278.21445 180.25214 280.22916 180.25214 282.71445Z" fill-rule="nonzero"/><path fill="#3366cc" clip-path="url(#id_0)" d="M352.63922 109.62334C352.63922 112.10861 350.62448 114.12334 348.13922 114.12334C345.65393 114.12334 343.63922 112.10861 343.63922 109.62334C343.63922 107.138054 345.65393 105.12334 348.13922 105.12334C350.62448 105.12334 352.63922 107.138054 352.63922 109.62334Z" fill-rule="nonzero"/><path fill="#3366cc" clip-path="url(#id_0)" d="M294.1368 188.30112C294.1368 190.78639 292.1221 192.80112 289.6368 192.80112C287.15152 192.80112 285.1368 190.78639 285.1368 188.30112C285.1368 185.81583 287.15152 183.80112 289.6368 183.80112C292.1221 183.80112 294.1368 185.81583 294.1368 188.30112Z" fill-rule="nonzero"/><path fill="#3366cc" clip-path="url(#id_0)" d="M337.8186 125.35889C337.8186 127.84417 335.8039 129.85889 333.3186 129.85889C330.8333 129.85889 328.8186 127.84417 328.8186 125.35889C328.8186 122.873604 330.8333 120.85889 333.3186 120.85889C335.8039 120.85889 337.8186 122.873604 337.8186 125.35889Z" fill-rule="nonzero"/><path fill="#3366cc" clip-path="url(#id_0)" d="M249.67499 204.03667C249.67499 206.52194 247.66026 208.53667 245.17499 208.53667C242.6897 208.53667 240.67499 206.52194 240.67499 204.03667C240.67499 201.55139 242.6897 199.53667 245.17499 199.53667C247.66026 199.53667 249.67499 201.55139 249.67499 204.03667Z" fill-rule="nonzero"/><path fill="#3366cc" clip-path="url(#id_0)" d="M244.9948 219.77222C244.9948 222.2575 242.98007 224.27222 240.4948 224.27222C238.0095 224.27222 235.9948 222.2575 235.9948 219.77222C235.9948 217.28694 238.0095 215.27222 240.4948 215.27222C242.98007 215.27222 244.9948 217.28694 244.9948 219.77222Z" fill-rule="nonzero"/><path fill="#3366cc" clip-path="url(#id_0)" d="M235.63441 251.24333C235.63441 253.7286 233.61969 255.74333 231.13441 255.74333C228.64912 255.74333 226.63441 253.7286 226.63441 251.24333C226.63441 248.75806 228.64912 246.74333 231.13441 246.74333C233.61969 246.74333 235.63441 248.75806 235.63441 251.24333Z" fill-rule="nonzero"/><path fill="#3366cc" clip-path="url(#id_0)" d="M213.01347 266.97888C213.01347 269.46417 210.99876 271.47888 208.51347 271.47888C206.0282 271.47888 204.01347 269.46417 204.01347 266.97888C204.01347 264.49362 206.0282 262.47888 208.51347 262.47888C210.99876 262.47888 213.01347 264.49362 213.01347 266.97888Z" fill-rule="nonzero"/><path fill="#3366cc" clip-path="url(#id_0)" d="M244.21475 235.50778C244.21475 237.99306 242.20004 240.00778 239.71475 240.00778C237.22948 240.00778 235.21475 237.99306 235.21475 235.50778C235.21475 233.02249 237.22948 231.00778 239.71475 231.00778C242.20004 231.00778 244.21475 233.02249 244.21475 235.50778Z" fill-rule="nonzero"/><path fill="#424242" d="M217.54938 349.45L217.54938 340.91876L220.34625 340.91876Q221.73688 340.91876 222.42438 341.4969Q223.1275 342.0594 223.1275 343.1844Q223.1275 343.79376 222.78375 344.2625Q222.45563 344.71564 221.86188 344.96564Q222.565 345.15314 222.95563 345.7Q223.36188 346.23126 223.36188 346.98126Q223.36188 348.1375 222.61188 348.79376Q221.8775 349.45 220.51813 349.45L217.54938 349.45ZM218.67438 345.46564L218.67438 348.52814L220.53375 348.52814Q221.33063 348.52814 221.78375 348.1219Q222.23688 347.71564 222.23688 346.9969Q222.23688 345.46564 220.54938 345.46564L218.67438 345.46564ZM218.67438 344.5594L220.3775 344.5594Q221.11188 344.5594 221.54938 344.2Q222.0025 343.825 222.0025 343.1844Q222.0025 342.48126 221.59625 342.16876Q221.19 341.84064 220.34625 341.84064L218.67438 341.84064L218.67438 344.5594ZM225.69 348.52814L229.73688 348.52814L229.73688 349.45L224.54938 349.45L224.54938 340.91876L225.69 340.91876L225.69 348.52814ZM232.72125 345.48126L231.67438 346.5594L231.67438 349.45L230.54938 349.45L230.54938 340.91876L231.67438 340.91876L231.67438 345.1375L235.47125 340.91876L236.83063 340.91876L233.47125 344.6844L237.09625 349.45L235.7525 349.45L232.72125 345.48126ZM247.45563 341.84064L244.70563 341.84064L244.70563 349.45L243.59625 349.45L243.59625 341.84064L240.84625 341.84064L240.84625 340.91876L247.45563 340.91876L247.45563 341.84064ZM248.09625 346.21564Q248.09625 345.29376 248.45563 344.54376Q248.83063 343.79376 249.48688 343.40314Q250.14313 342.9969 250.97125 342.9969Q252.26813 342.9969 253.065 343.8875Q253.8775 344.77814 253.8775 346.27814L253.8775 346.35626Q253.8775 347.27814 253.51813 348.0125Q253.15875 348.7469 252.5025 349.16876Q251.84625 349.575 250.98688 349.575Q249.70563 349.575 248.89313 348.6844Q248.09625 347.77814 248.09625 346.29376L248.09625 346.21564ZM249.19 346.35626Q249.19 347.40314 249.67438 348.04376Q250.17438 348.6844 250.98688 348.6844Q251.815 348.6844 252.29938 348.04376Q252.78375 347.3875 252.78375 346.21564Q252.78375 345.1844 252.28375 344.54376Q251.79938 343.8875 250.97125 343.8875Q250.17438 343.8875 249.67438 344.52814Q249.19 345.15314 249.19 346.35626ZM256.86188 341.575L256.86188 343.10626L258.03375 343.10626L258.03375 343.95L256.86188 343.95L256.86188 347.8719Q256.86188 348.2625 257.01813 348.45Q257.17438 348.6375 257.54938 348.6375Q257.73688 348.6375 258.065 348.575L258.065 349.45Q257.64313 349.575 257.23688 349.575Q256.51813 349.575 256.14313 349.1375Q255.76813 348.6844 255.76813 347.8719L255.76813 343.95L254.61188 343.95L254.61188 343.10626L255.76813 343.10626L255.76813 341.575L256.86188 341.575ZM263.29938 349.45Q263.20563 349.2625 263.14313 348.77814Q262.39313 349.575 261.34625 349.575Q260.40875 349.575 259.79938 349.04376Q259.20563 348.5125 259.20563 347.6844Q259.20563 346.7 259.95563 346.15314Q260.70563 345.60626 262.08063 345.60626L263.1275 345.60626L263.1275 345.10626Q263.1275 344.54376 262.78375 344.21564Q262.45563 343.8719 261.78375 343.8719Q261.20563 343.8719 260.815 344.16876Q260.42438 344.45 260.42438 344.8719L259.33063 344.8719Q259.33063 344.3875 259.65875 343.95Q260.0025 343.5125 260.58063 343.2625Q261.15875 342.9969 261.84625 342.9969Q262.95563 342.9969 263.565 343.54376Q264.19 344.09064 264.22125 345.04376L264.22125 347.96564Q264.22125 348.84064 264.44 349.35626L264.44 349.45L263.29938 349.45ZM261.5025 348.6219Q262.01813 348.6219 262.47125 348.35626Q262.92438 348.09064 263.1275 347.66876L263.1275 346.3719L262.28375 346.3719Q260.28375 346.3719 260.28375 347.54376Q260.28375 348.04376 260.6275 348.34064Q260.97125 348.6219 261.5025 348.6219ZM267.565 349.45L266.48688 349.45L266.48688 340.45L267.565 340.45L267.565 349.45ZM273.08063 347.7625Q273.08063 347.325 272.73688 347.09064Q272.40875 346.84064 271.58063 346.66876Q270.76813 346.4969 270.28375 346.2469Q269.79938 345.9969 269.565 345.66876Q269.34625 345.325 269.34625 344.85626Q269.34625 344.075 270.0025 343.54376Q270.65875 342.9969 271.69 342.9969Q272.76813 342.9969 273.42438 343.5594Q274.09625 344.10626 274.09625 344.96564L273.01813 344.96564Q273.01813 344.52814 272.6275 344.21564Q272.2525 343.8875 271.69 343.8875Q271.09625 343.8875 270.7525 344.15314Q270.42438 344.40314 270.42438 344.8094Q270.42438 345.2 270.73688 345.40314Q271.04938 345.60626 271.86188 345.79376Q272.67438 345.96564 273.17438 346.21564Q273.67438 346.46564 273.90875 346.825Q274.15875 347.1844 274.15875 347.6844Q274.15875 348.54376 273.47125 349.0594Q272.79938 349.575 271.72125 349.575Q270.95563 349.575 270.36188 349.3094Q269.78375 349.02814 269.45563 348.54376Q269.1275 348.0594 269.1275 347.4969L270.20563 347.4969Q270.23688 348.04376 270.64313 348.3719Q271.04938 348.6844 271.72125 348.6844Q272.33063 348.6844 272.70563 348.4344Q273.08063 348.1844 273.08063 347.7625Z" fill-rule="nonzero"/><path fill="#424242" d="M30.550013 215.69896L22.018763 215.69896L22.018763 212.90208Q22.018763 211.51146 22.596888 210.82396Q23.159388 210.12083 24.284388 210.12083Q24.893763 210.12083 25.362513 210.46458Q25.815638 210.79271 26.065638 211.38646Q26.253138 210.68333 26.800013 210.29271Q27.331263 209.88646 28.081263 209.88646Q29.237513 209.88646 29.893763 210.63646Q30.550013 211.37083 30.550013 212.73021L30.550013 215.69896ZM26.565638 214.57396L29.628138 214.57396L29.628138 212.71458Q29.628138 211.91771 29.221888 211.46458Q28.815638 211.01146 28.096888 211.01146Q26.565638 211.01146 26.565638 212.69896L26.565638 214.57396ZM25.659388 214.57396L25.659388 212.87083Q25.659388 212.13646 25.300013 211.69896Q24.925013 211.24583 24.284388 211.24583Q23.581263 211.24583 23.268763 211.65208Q22.940638 212.05833 22.940638 212.90208L22.940638 214.57396L25.659388 214.57396ZM29.628138 207.55833L29.628138 203.51146L30.550013 203.51146L30.550013 208.69896L22.018763 208.69896L22.018763 207.55833L29.628138 207.55833ZM26.581263 200.52708L27.659388 201.57396L30.550013 201.57396L30.550013 202.69896L22.018763 202.69896L22.018763 201.57396L26.237513 201.57396L22.018763 197.77708L22.018763 196.41771L25.784388 199.77708L30.550013 196.15208L30.550013 197.49583L26.581263 200.52708ZM27.206263 190.57396L30.550013 190.57396L30.550013 191.69896L22.018763 191.69896L22.018763 188.54271Q22.018763 187.15208 22.737513 186.35521Q23.440638 185.55833 24.628138 185.55833Q25.862513 185.55833 26.534388 186.33958Q27.206263 187.10521 27.206263 188.55833L27.206263 190.57396ZM26.284388 190.57396L26.284388 188.54271Q26.284388 187.63646 25.862513 187.16771Q25.440638 186.68333 24.643763 186.68333Q23.878138 186.68333 23.425013 187.16771Q22.956263 187.63646 22.940638 188.48021L22.940638 190.57396L26.284388 190.57396ZM27.315638 184.15208Q26.393763 184.15208 25.643763 183.79271Q24.893763 183.41771 24.503138 182.76146Q24.096888 182.10521 24.096888 181.27708Q24.096888 179.98021 24.987513 179.18333Q25.878138 178.37083 27.378138 178.37083L27.456263 178.37083Q28.378138 178.37083 29.112513 178.73021Q29.846888 179.08958 30.268763 179.74583Q30.675013 180.40208 30.675013 181.26146Q30.675013 182.54271 29.784388 183.35521Q28.878138 184.15208 27.393763 184.15208L27.315638 184.15208ZM27.456263 183.05833Q28.503138 183.05833 29.143763 182.57396Q29.784388 182.07396 29.784388 181.26146Q29.784388 180.43333 29.143763 179.94896Q28.487513 179.46458 27.315638 179.46458Q26.284388 179.46458 25.643763 179.96458Q24.987513 180.44896 24.987513 181.27708Q24.987513 182.07396 25.628138 182.57396Q26.253138 183.05833 27.456263 183.05833ZM30.550013 175.68333L30.550013 176.76146L24.206263 176.76146L24.206263 175.68333L30.550013 175.68333ZM22.534388 176.85521Q22.268763 176.85521 22.081263 176.69896Q21.893763 176.52708 21.893763 176.21458Q21.893763 175.90208 22.081263 175.74583Q22.268763 175.57396 22.534388 175.57396Q22.784388 175.57396 22.971888 175.74583Q23.143763 175.90208 23.143763 176.21458Q23.143763 176.52708 22.971888 176.69896Q22.784388 176.85521 22.534388 176.85521ZM24.206263 172.83958L25.003138 172.80833Q24.096888 172.07396 24.096888 170.90208Q24.096888 168.88646 26.362513 168.87083L30.550013 168.87083L30.550013 169.96458L26.346888 169.96458Q25.675013 169.96458 25.346888 170.27708Q25.018763 170.57396 25.018763 171.23021Q25.018763 171.76146 25.300013 172.16771Q25.581263 172.55833 26.034388 172.77708L30.550013 172.77708L30.550013 173.85521L24.206263 173.85521L24.206263 172.83958ZM22.675013 165.38646L24.206263 165.38646L24.206263 164.21458L25.050013 164.21458L25.050013 165.38646L28.971888 165.38646Q29.362513 165.38646 29.550013 165.23021Q29.737513 165.07396 29.737513 164.69896Q29.737513 164.51146 29.675013 164.18333L30.550013 164.18333Q30.675013 164.60521 30.675013 165.01146Q30.675013 165.73021 30.237513 166.10521Q29.784388 166.48021 28.971888 166.48021L25.050013 166.48021L25.050013 167.63646L24.206263 167.63646L24.206263 166.48021L22.675013 166.48021L22.675013 165.38646ZM28.862513 159.16771Q28.425013 159.16771 28.190638 159.51146Q27.940638 159.83958 27.768763 160.66771Q27.596888 161.48021 27.346888 161.96458Q27.096888 162.44896 26.768763 162.68333Q26.425013 162.90208 25.956263 162.90208Q25.175013 162.90208 24.643763 162.24583Q24.096888 161.58958 24.096888 160.55833Q24.096888 159.48021 24.659388 158.82396Q25.206263 158.15208 26.065638 158.15208L26.065638 159.23021Q25.628138 159.23021 25.315638 159.62083Q24.987513 159.99583 24.987513 160.55833Q24.987513 161.15208 25.253138 161.49583Q25.503138 161.82396 25.909388 161.82396Q26.300013 161.82396 26.503138 161.51146Q26.706263 161.19896 26.893763 160.38646Q27.065638 159.57396 27.315638 159.07396Q27.565638 158.57396 27.925013 158.33958Q28.284388 158.08958 28.784388 158.08958Q29.643763 158.08958 30.159388 158.77708Q30.675013 159.44896 30.675013 160.52708Q30.675013 161.29271 30.409388 161.88646Q30.128138 162.46458 29.643763 162.79271Q29.159388 163.12083 28.596888 163.12083L28.596888 162.04271Q29.143763 162.01146 29.471888 161.60521Q29.784388 161.19896 29.784388 160.52708Q29.784388 159.91771 29.534388 159.54271Q29.284388 159.16771 28.862513 159.16771Z" fill-rule="nonzero"/><path fill="#757575" d="M71.6125 299.3094Q71.6125 301.21564 70.95625 302.15314Q70.31563 303.075 68.925 303.075Q67.56563 303.075 66.90938 302.16876Q66.25313 301.2625 66.22188 299.45L66.22188 298.0125Q66.22188 296.1219 66.8625 295.21564Q67.51875 294.29376 68.90938 294.29376Q70.28438 294.29376 70.94063 295.1844Q71.59688 296.0594 71.6125 297.90314L71.6125 299.3094ZM70.51875 297.825Q70.51875 296.45 70.12813 295.825Q69.75313 295.1844 68.90938 295.1844Q68.08125 295.1844 67.69063 295.825Q67.31563 296.45 67.31563 297.7469L67.31563 299.48126Q67.31563 300.85626 67.70625 301.52814Q68.1125 302.1844 68.925 302.1844Q69.72188 302.1844 70.1125 301.5594Q70.50313 300.9344 70.51875 299.60626L70.51875 297.825Z" fill-rule="nonzero"/><path fill="#757575" d="M61.6125 220.63159Q61.6125 222.53784 60.95625 223.47534Q60.315624 224.39722 58.925 224.39722Q57.565624 224.39722 56.909374 223.49097Q56.253124 222.58472 56.221874 220.77222L56.221874 219.33472Q56.221874 217.44409 56.8625 216.53784Q57.51875 215.61597 58.909374 215.61597Q60.284374 215.61597 60.940624 216.50659Q61.596874 217.38159 61.6125 219.22534L61.6125 220.63159ZM60.51875 219.14722Q60.51875 217.77222 60.128124 217.14722Q59.753124 216.50659 58.909374 216.50659Q58.08125 216.50659 57.690624 217.14722Q57.315624 217.77222 57.315624 219.06909L57.315624 220.80347Q57.315624 222.17847 57.70625 222.85034Q58.1125 223.50659 58.925 223.50659Q59.721874 223.50659 60.1125 222.88159Q60.503124 222.25659 60.51875 220.92847L60.51875 219.14722ZM63.39375 223.70972Q63.39375 223.42847 63.55 223.24097Q63.721874 223.05347 64.05 223.05347Q64.39375 223.05347 64.56563 223.24097Q64.7375 223.42847 64.7375 223.70972Q64.7375 223.97534 64.56563 224.16284Q64.39375 224.33472 64.05 224.33472Q63.721874 224.33472 63.55 224.16284Q63.39375 223.97534 63.39375 223.70972ZM66.75313 219.99097L67.19063 215.74097L71.56563 215.74097L71.56563 216.74097L68.1125 216.74097L67.84688 219.06909Q68.4875 218.69409 69.28438 218.69409Q70.44063 218.69409 71.12813 219.47534Q71.81563 220.24097 71.81563 221.55347Q71.81563 222.86597 71.09688 223.63159Q70.39375 224.39722 69.1125 224.39722Q67.9875 224.39722 67.26875 223.77222Q66.55 223.13159 66.45625 222.02222L67.47188 222.02222Q67.58125 222.75659 68.00313 223.13159Q68.425 223.50659 69.1125 223.50659Q69.8625 223.50659 70.3 222.99097Q70.7375 222.47534 70.7375 221.56909Q70.7375 220.70972 70.26875 220.19409Q69.8 219.67847 69.01875 219.67847Q68.31563 219.67847 67.90938 219.97534L67.62813 220.20972L66.75313 219.99097Z" fill-rule="nonzero"/><path fill="#757575" d="M69.81563 145.59445L68.7375 145.59445L68.7375 138.3757L66.55 139.17258L66.55 138.1882L69.65938 137.01633L69.81563 137.01633L69.81563 145.59445Z" fill-rule="nonzero"/><path fill="#757575" d="M59.815624 66.916664L58.7375 66.916664L58.7375 59.697914L56.55 60.49479L56.55 59.510414L59.659374 58.33854L59.815624 58.33854L59.815624 66.916664ZM63.39375 66.354164Q63.39375 66.072914 63.55 65.885414Q63.721874 65.697914 64.05 65.697914Q64.39375 65.697914 64.56563 65.885414Q64.7375 66.072914 64.7375 66.354164Q64.7375 66.61979 64.56563 66.80729Q64.39375 66.979164 64.05 66.979164Q63.721874 66.979164 63.55 66.80729Q63.39375 66.61979 63.39375 66.354164ZM66.75313 62.635414L67.19063 58.385414L71.56563 58.385414L71.56563 59.385414L68.1125 59.385414L67.84688 61.71354Q68.4875 61.33854 69.28438 61.33854Q70.44063 61.33854 71.12813 62.11979Q71.81563 62.885414 71.81563 64.197914Q71.81563 65.510414 71.09688 66.27604Q70.39375 67.041664 69.1125 67.041664Q67.9875 67.041664 67.26875 66.416664Q66.55 65.77604 66.45625 64.666664L67.47188 64.666664Q67.58125 65.40104 68.00313 65.77604Q68.425 66.15104 69.1125 66.15104Q69.8625 66.15104 70.3 65.635414Q70.7375 65.11979 70.7375 64.21354Q70.7375 63.354164 70.26875 62.83854Q69.8 62.322914 69.01875 62.322914Q68.31563 62.322914 67.90938 62.61979L67.62813 62.854164L66.75313 62.635414Z" fill-rule="nonzero"/><path fill="#757575" d="M103.95063 311.65314L104.76313 311.65314Q105.54438 311.6375 105.98188 311.2469Q106.41938 310.85626 106.41938 310.1844Q106.41938 308.6844 104.91938 308.6844Q104.216255 308.6844 103.79438 309.09064Q103.38813 309.4969 103.38813 310.15314L102.29438 310.15314Q102.29438 309.1375 103.028755 308.46564Q103.778755 307.79376 104.91938 307.79376Q106.122505 307.79376 106.810005 308.4344Q107.497505 309.075 107.497505 310.21564Q107.497505 310.77814 107.13813 311.29376Q106.778755 311.8094 106.153755 312.075Q106.85688 312.29376 107.23188 312.8094Q107.622505 313.325 107.622505 314.075Q107.622505 315.21564 106.872505 315.90314Q106.122505 316.575 104.91938 316.575Q103.73188 316.575 102.966255 315.91876Q102.216255 315.2625 102.216255 314.2L103.310005 314.2Q103.310005 314.8719 103.747505 315.27814Q104.185005 315.6844 104.935005 315.6844Q105.716255 315.6844 106.122505 315.27814Q106.54438 314.85626 106.54438 314.09064Q106.54438 313.35626 106.091255 312.96564Q105.63813 312.5594 104.76313 312.54376L103.95063 312.54376L103.95063 311.65314ZM114.73188 312.8094Q114.73188 314.71564 114.07563 315.65314Q113.435005 316.575 112.04438 316.575Q110.685005 316.575 110.028755 315.66876Q109.372505 314.7625 109.341255 312.95L109.341255 311.5125Q109.341255 309.6219 109.98188 308.71564Q110.63813 307.79376 112.028755 307.79376Q113.403755 307.79376 114.060005 308.6844Q114.716255 309.5594 114.73188 311.40314L114.73188 312.8094ZM113.63813 311.325Q113.63813 309.95 113.247505 309.325Q112.872505 308.6844 112.028755 308.6844Q111.20063 308.6844 110.810005 309.325Q110.435005 309.95 110.435005 311.2469L110.435005 312.98126Q110.435005 314.35626 110.82563 315.02814Q111.23188 315.6844 112.04438 315.6844Q112.841255 315.6844 113.23188 315.0594Q113.622505 314.4344 113.63813 313.10626L113.63813 311.325Z" fill-rule="nonzero"/><path fill="#757575" d="M184.95383 313.59064L186.14133 313.59064L186.14133 314.46564L184.95383 314.46564L184.95383 316.45L183.8757 316.45L183.8757 314.46564L179.98508 314.46564L179.98508 313.825L183.79758 307.91876L184.95383 307.91876L184.95383 313.59064ZM181.21945 313.59064L183.8757 313.59064L183.8757 309.40314L183.73508 309.6375L181.21945 313.59064ZM192.73508 312.8094Q192.73508 314.71564 192.07883 315.65314Q191.4382 316.575 190.04758 316.575Q188.6882 316.575 188.03195 315.66876Q187.3757 314.7625 187.34445 312.95L187.34445 311.5125Q187.34445 309.6219 187.98508 308.71564Q188.64133 307.79376 190.03195 307.79376Q191.40695 307.79376 192.0632 308.6844Q192.71945 309.5594 192.73508 311.40314L192.73508 312.8094ZM191.64133 311.325Q191.64133 309.95 191.2507 309.325Q190.8757 308.6844 190.03195 308.6844Q189.20383 308.6844 188.8132 309.325Q188.4382 309.95 188.4382 311.2469L188.4382 312.98126Q188.4382 314.35626 188.82883 315.02814Q189.23508 315.6844 190.04758 315.6844Q190.84445 315.6844 191.23508 315.0594Q191.6257 314.4344 191.64133 313.10626L191.64133 311.325Z" fill-rule="nonzero"/><path fill="#757575" d="M258.8789 312.16876L259.3164 307.91876L263.6914 307.91876L263.6914 308.91876L260.23828 308.91876L259.97266 311.2469Q260.61328 310.8719 261.41016 310.8719Q262.5664 310.8719 263.2539 311.65314Q263.9414 312.41876 263.9414 313.73126Q263.9414 315.04376 263.22266 315.8094Q262.51953 316.575 261.23828 316.575Q260.11328 316.575 259.39453 315.95Q258.67578 315.3094 258.58203 314.2L259.59766 314.2Q259.70703 314.9344 260.1289 315.3094Q260.55078 315.6844 261.23828 315.6844Q261.98828 315.6844 262.42578 315.16876Q262.86328 314.65314 262.86328 313.7469Q262.86328 312.8875 262.39453 312.3719Q261.92578 311.85626 261.14453 311.85626Q260.4414 311.85626 260.03516 312.15314L259.7539 312.3875L258.8789 312.16876ZM270.73828 312.8094Q270.73828 314.71564 270.08203 315.65314Q269.4414 316.575 268.05078 316.575Q266.6914 316.575 266.03516 315.66876Q265.3789 314.7625 265.34766 312.95L265.34766 311.5125Q265.34766 309.6219 265.98828 308.71564Q266.64453 307.79376 268.03516 307.79376Q269.41016 307.79376 270.0664 308.6844Q270.72266 309.5594 270.73828 311.40314L270.73828 312.8094ZM269.64453 311.325Q269.64453 309.95 269.2539 309.325Q268.8789 308.6844 268.03516 308.6844Q267.20703 308.6844 266.8164 309.325Q266.4414 309.95 266.4414 311.2469L266.4414 312.98126Q266.4414 314.35626 266.83203 315.02814Q267.23828 315.6844 268.05078 315.6844Q268.84766 315.6844 269.23828 315.0594Q269.6289 314.4344 269.64453 313.10626L269.64453 311.325Z" fill-rule="nonzero"/><path fill="#757575" d="M340.64774 307.91876L340.64774 308.825L340.4446 308.825Q339.179 308.85626 338.429 309.59064Q337.679 310.3094 337.554 311.6219Q338.2415 310.85626 339.39774 310.85626Q340.5071 310.85626 341.179 311.6375Q341.85086 312.41876 341.85086 313.66876Q341.85086 314.98126 341.1321 315.77814Q340.41336 316.575 339.1946 316.575Q337.97586 316.575 337.21024 315.6375Q336.46024 314.6844 336.46024 313.2L336.46024 312.79376Q336.46024 310.4344 337.46024 309.1844Q338.46024 307.9344 340.4446 307.91876L340.64774 307.91876ZM339.22586 311.7625Q338.66336 311.7625 338.1946 312.09064Q337.72586 312.41876 337.53836 312.9344L337.53836 313.325Q337.53836 314.3875 338.0071 315.02814Q338.4915 315.66876 339.1946 315.66876Q339.929 315.66876 340.35086 315.1375Q340.77274 314.59064 340.77274 313.71564Q340.77274 312.84064 340.35086 312.3094Q339.929 311.7625 339.22586 311.7625ZM348.7415 312.8094Q348.7415 314.71564 348.08524 315.65314Q347.4446 316.575 346.054 316.575Q344.6946 316.575 344.03836 315.66876Q343.3821 314.7625 343.35086 312.95L343.35086 311.5125Q343.35086 309.6219 343.9915 308.71564Q344.64774 307.79376 346.03836 307.79376Q347.41336 307.79376 348.0696 308.6844Q348.72586 309.5594 348.7415 311.40314L348.7415 312.8094ZM347.64774 311.325Q347.64774 309.95 347.2571 309.325Q346.8821 308.6844 346.03836 308.6844Q345.21024 308.6844 344.8196 309.325Q344.4446 309.95 344.4446 311.2469L344.4446 312.98126Q344.4446 314.35626 344.83524 315.02814Q345.2415 315.6844 346.054 315.6844Q346.85086 315.6844 347.2415 315.0594Q347.6321 314.4344 347.64774 313.10626L347.64774 311.325Z" fill-rule="nonzero"/><path fill="#3366cc" d="M444.41556 62.416668C444.41556 65.73038 441.72928 68.416664 438.41556 68.416664C435.10184 68.416664 432.41556 65.73038 432.41556 62.416668C432.41556 59.10296 435.10184 56.416668 438.41556 56.416668C441.72928 56.416668 444.41556 59.10296 444.41556 62.416668Z" fill-rule="nonzero"/><path fill="#757575" d="M458.11868 64.68229L454.54056 64.68229L453.74368 66.916664L452.58743 66.916664L455.83743 58.385414L456.8218 58.385414L460.08743 66.916664L458.93118 66.916664L458.11868 64.68229ZM454.8843 63.760414L457.79056 63.760414L456.33743 59.77604L454.8843 63.760414ZM460.97806 63.697914Q460.97806 62.229164 461.66556 61.354164Q462.35306 60.46354 463.47806 60.46354Q464.58743 60.46354 465.24368 61.21354L465.24368 57.916664L466.3218 57.916664L466.3218 66.916664L465.3218 66.916664L465.27493 66.229164Q464.61868 67.041664 463.46243 67.041664Q462.36868 67.041664 461.66556 66.135414Q460.97806 65.229164 460.97806 63.77604L460.97806 63.697914ZM462.05618 63.822914Q462.05618 64.90104 462.49368 65.510414Q462.9468 66.11979 463.72806 66.11979Q464.7593 66.11979 465.24368 65.18229L465.24368 62.27604Q464.7593 61.385414 463.74368 61.385414Q462.9468 61.385414 462.49368 61.99479Q462.05618 62.604164 462.05618 63.822914ZM469.35306 60.572914L469.35306 67.65104Q469.35306 69.479164 467.6968 69.479164Q467.33743 69.479164 467.04056 69.36979L467.04056 68.510414Q467.22806 68.55729 467.52493 68.55729Q467.8843 68.55729 468.0718 68.354164Q468.27493 68.166664 468.27493 67.666664L468.27493 60.572914L469.35306 60.572914ZM468.16556 58.90104Q468.16556 58.635414 468.3218 58.447914Q468.47806 58.260414 468.79056 58.260414Q469.10306 58.260414 469.2593 58.447914Q469.43118 58.635414 469.43118 58.90104Q469.43118 59.15104 469.2593 59.33854Q469.10306 59.510414 468.79056 59.510414Q468.47806 59.510414 468.3218 59.33854Q468.16556 59.15104 468.16556 58.90104ZM474.39993 66.916664L474.39993 58.385414L477.1968 58.385414Q478.58743 58.385414 479.27493 58.96354Q479.97806 59.52604 479.97806 60.65104Q479.97806 61.260414 479.6343 61.729164Q479.30618 62.18229 478.71243 62.43229Q479.41556 62.61979 479.80618 63.166664Q480.21243 63.697914 480.21243 64.447914Q480.21243 65.604164 479.46243 66.260414Q478.72806 66.916664 477.36868 66.916664L474.39993 66.916664ZM475.52493 62.93229L475.52493 65.99479L477.3843 65.99479Q478.18118 65.99479 478.6343 65.58854Q479.08743 65.18229 479.08743 64.46354Q479.08743 62.93229 477.39993 62.93229L475.52493 62.93229ZM475.52493 62.02604L477.22806 62.02604Q477.96243 62.02604 478.39993 61.666664Q478.85306 61.291664 478.85306 60.65104Q478.85306 59.947914 478.4468 59.635414Q478.04056 59.30729 477.1968 59.30729L475.52493 59.30729L475.52493 62.02604ZM482.54056 65.99479L486.58743 65.99479L486.58743 66.916664L481.39993 66.916664L481.39993 58.385414L482.54056 58.385414L482.54056 65.99479ZM489.5718 62.947914L488.52493 64.02604L488.52493 66.916664L487.39993 66.916664L487.39993 58.385414L488.52493 58.385414L488.52493 62.604164L492.3218 58.385414L493.68118 58.385414L490.3218 62.15104L493.9468 66.916664L492.60306 66.916664L489.5718 62.947914ZM499.52493 63.572914L499.52493 66.916664L498.39993 66.916664L498.39993 58.385414L501.55618 58.385414Q502.9468 58.385414 503.74368 59.104164Q504.54056 59.80729 504.54056 60.99479Q504.54056 62.229164 503.7593 62.90104Q502.99368 63.572914 501.54056 63.572914L499.52493 63.572914ZM499.52493 62.65104L501.55618 62.65104Q502.46243 62.65104 502.93118 62.229164Q503.41556 61.80729 503.41556 61.010414Q503.41556 60.24479 502.93118 59.791664Q502.46243 59.322914 501.61868 59.30729L499.52493 59.30729L499.52493 62.65104ZM505.9468 63.68229Q505.9468 62.760414 506.30618 62.010414Q506.68118 61.260414 507.33743 60.86979Q507.99368 60.46354 508.8218 60.46354Q510.11868 60.46354 510.91556 61.354164Q511.72806 62.24479 511.72806 63.74479L511.72806 63.822914Q511.72806 64.74479 511.36868 65.479164Q511.0093 66.21354 510.35306 66.635414Q509.6968 67.041664 508.83743 67.041664Q507.55618 67.041664 506.74368 66.15104Q505.9468 65.24479 505.9468 63.760414L505.9468 63.68229ZM507.04056 63.822914Q507.04056 64.86979 507.52493 65.510414Q508.02493 66.15104 508.83743 66.15104Q509.66556 66.15104 510.14993 65.510414Q510.6343 64.854164 510.6343 63.68229Q510.6343 62.65104 510.1343 62.010414Q509.64993 61.354164 508.8218 61.354164Q508.02493 61.354164 507.52493 61.99479Q507.04056 62.61979 507.04056 63.822914ZM514.4155 66.916664L513.3374 66.916664L513.3374 60.572914L514.4155 60.572914L514.4155 66.916664ZM513.24365 58.90104Q513.24365 58.635414 513.3999 58.447914Q513.5718 58.260414 513.8843 58.260414Q514.1968 58.260414 514.353 58.447914Q514.5249 58.635414 514.5249 58.90104Q514.5249 59.15104 514.353 59.33854Q514.1968 59.510414 513.8843 59.510414Q513.5718 59.510414 513.3999 59.33854Q513.24365 59.15104 513.24365 58.90104ZM517.2593 60.572914L517.2905 61.36979Q518.0249 60.46354 519.1968 60.46354Q521.2124 60.46354 521.228 62.729164L521.228 66.916664L520.1343 66.916664L520.1343 62.71354Q520.1343 62.041664 519.8218 61.71354Q519.5249 61.385414 518.86865 61.385414Q518.3374 61.385414 517.93115 61.666664Q517.5405 61.947914 517.3218 62.40104L517.3218 66.916664L516.24365 66.916664L516.24365 60.572914L517.2593 60.572914ZM524.7124 59.041664L524.7124 60.572914L525.8843 60.572914L525.8843 61.416664L524.7124 61.416664L524.7124 65.33854Q524.7124 65.729164 524.86865 65.916664Q525.0249 66.104164 525.3999 66.104164Q525.5874 66.104164 525.9155 66.041664L525.9155 66.916664Q525.49365 67.041664 525.0874 67.041664Q524.36865 67.041664 523.99365 66.604164Q523.61865 66.15104 523.61865 65.33854L523.61865 61.416664L522.4624 61.416664L522.4624 60.572914L523.61865 60.572914L523.61865 59.041664L524.7124 59.041664ZM530.93115 65.229164Q530.93115 64.791664 530.5874 64.55729Q530.2593 64.30729 529.43115 64.135414Q528.61865 63.96354 528.1343 63.71354Q527.6499 63.46354 527.4155 63.135414Q527.1968 62.791664 527.1968 62.322914Q527.1968 61.541664 527.853 61.010414Q528.5093 60.46354 529.5405 60.46354Q530.61865 60.46354 531.2749 61.02604Q531.9468 61.572914 531.9468 62.43229L530.86865 62.43229Q530.86865 61.99479 530.478 61.68229Q530.103 61.354164 529.5405 61.354164Q528.9468 61.354164 528.603 61.61979Q528.2749 61.86979 528.2749 62.27604Q528.2749 62.666664 528.5874 62.86979Q528.8999 63.072914 529.7124 63.260414Q530.5249 63.43229 531.0249 63.68229Q531.5249 63.93229 531.7593 64.291664Q532.0093 64.65104 532.0093 65.15104Q532.0093 66.010414 531.3218 66.52604Q530.6499 67.041664 529.5718 67.041664Q528.80615 67.041664 528.2124 66.77604Q527.6343 66.49479 527.30615 66.010414Q526.978 65.52604 526.978 64.96354L528.05615 64.96354Q528.0874 65.510414 528.49365 65.83854Q528.8999 66.15104 529.5718 66.15104Q530.18115 66.15104 530.55615 65.90104Q530.93115 65.65104 530.93115 65.229164Z" fill-rule="nonzero"/><path stroke="#3366cc" stroke-width="4.0" stroke-linecap="butt" stroke-opacity="0.4" d="M432.41556 87.416664L444.41556 87.416664" fill-rule="nonzero"/><path fill="#757575" d="M458.47806 88.27604Q458.47806 90.18229 457.8218 91.11979Q457.18118 92.041664 455.79056 92.041664Q454.43118 92.041664 453.77493 91.135414Q453.11868 90.229164 453.08743 88.416664L453.08743 86.979164Q453.08743 85.08854 453.72806 84.18229Q454.3843 83.260414 455.77493 83.260414Q457.14993 83.260414 457.80618 84.15104Q458.46243 85.02604 458.47806 86.86979L458.47806 88.27604ZM457.3843 86.791664Q457.3843 85.416664 456.99368 84.791664Q456.61868 84.15104 455.77493 84.15104Q454.9468 84.15104 454.55618 84.791664Q454.18118 85.416664 454.18118 86.71354L454.18118 88.447914Q454.18118 89.822914 454.5718 90.49479Q454.97806 91.15104 455.79056 91.15104Q456.58743 91.15104 456.97806 90.52604Q457.36868 89.90104 457.3843 88.572914L457.3843 86.791664ZM460.2593 91.354164Q460.2593 91.072914 460.41556 90.885414Q460.58743 90.697914 460.91556 90.697914Q461.2593 90.697914 461.43118 90.885414Q461.60306 91.072914 461.60306 91.354164Q461.60306 91.61979 461.43118 91.80729Q461.2593 91.979164 460.91556 91.979164Q460.58743 91.979164 460.41556 91.80729Q460.2593 91.61979 460.2593 91.354164ZM468.47806 88.27604Q468.47806 90.18229 467.8218 91.11979Q467.18118 92.041664 465.79056 92.041664Q464.43118 92.041664 463.77493 91.135414Q463.11868 90.229164 463.08743 88.416664L463.08743 86.979164Q463.08743 85.08854 463.72806 84.18229Q464.3843 83.260414 465.77493 83.260414Q467.14993 83.260414 467.80618 84.15104Q468.46243 85.02604 468.47806 86.86979L468.47806 88.27604ZM467.3843 86.791664Q467.3843 85.416664 466.99368 84.791664Q466.61868 84.15104 465.77493 84.15104Q464.9468 84.15104 464.55618 84.791664Q464.18118 85.416664 464.18118 86.71354L464.18118 88.447914Q464.18118 89.822914 464.5718 90.49479Q464.97806 91.15104 465.79056 91.15104Q466.58743 91.15104 466.97806 90.52604Q467.36868 89.90104 467.3843 88.572914L467.3843 86.791664ZM474.6968 89.05729L475.8843 89.05729L475.8843 89.93229L474.6968 89.93229L474.6968 91.916664L473.61868 91.916664L473.61868 89.93229L469.72806 89.93229L469.72806 89.291664L473.54056 83.385414L474.6968 83.385414L474.6968 89.05729ZM470.96243 89.05729L473.61868 89.05729L473.61868 84.86979L473.47806 85.104164L470.96243 89.05729ZM482.47806 88.27604Q482.47806 90.18229 481.8218 91.11979Q481.18118 92.041664 479.79056 92.041664Q478.43118 92.041664 477.77493 91.135414Q477.11868 90.229164 477.08743 88.416664L477.08743 86.979164Q477.08743 85.08854 477.72806 84.18229Q478.3843 83.260414 479.77493 83.260414Q481.14993 83.260414 481.80618 84.15104Q482.46243 85.02604 482.47806 86.86979L482.47806 88.27604ZM481.3843 86.791664Q481.3843 85.416664 480.99368 84.791664Q480.61868 84.15104 479.77493 84.15104Q478.9468 84.15104 478.55618 84.791664Q478.18118 85.416664 478.18118 86.71354L478.18118 88.447914Q478.18118 89.822914 478.5718 90.49479Q478.97806 91.15104 479.79056 91.15104Q480.58743 91.15104 480.97806 90.52604Q481.36868 89.90104 481.3843 88.572914L481.3843 86.791664ZM489.6343 83.99479L486.10306 91.916664L484.96243 91.916664L488.47806 84.27604L483.86868 84.27604L483.86868 83.385414L489.6343 83.385414L489.6343 83.99479ZM492.35306 86.15104L490.58743 85.635414L490.85306 84.74479L492.61868 85.40104L492.5718 83.385414L493.46243 83.385414L493.39993 85.43229L495.14993 84.791664L495.41556 85.68229L493.61868 86.21354L494.77493 87.791664L494.05618 88.354164L492.96243 86.666664L491.89993 88.30729L491.16556 87.77604L492.35306 86.15104ZM498.36868 87.885414L499.77493 85.572914L501.04056 85.572914L498.96243 88.71354L501.10306 91.916664L499.85306 91.916664L498.3843 89.541664L496.91556 91.916664L495.64993 91.916664L497.79056 88.71354L495.72806 85.572914L496.97806 85.572914L498.36868 87.885414ZM508.33743 87.33854L510.72806 87.33854L510.72806 88.36979L508.33743 88.36979L508.33743 91.05729L507.2593 91.05729L507.2593 88.36979L504.86868 88.36979L504.86868 87.33854L507.2593 87.33854L507.2593 84.854164L508.33743 84.854164L508.33743 87.33854ZM517.49365 88.729164L514.6343 88.729164L514.6343 87.854164L517.49365 87.854164L517.49365 88.729164ZM521.68115 91.916664L520.603 91.916664L520.603 84.697914L518.4155 85.49479L518.4155 84.510414L521.5249 83.33854L521.68115 83.33854L521.68115 91.916664ZM525.2593 91.354164Q525.2593 91.072914 525.4155 90.885414Q525.5874 90.697914 525.9155 90.697914Q526.2593 90.697914 526.43115 90.885414Q526.603 91.072914 526.603 91.354164Q526.603 91.61979 526.43115 91.80729Q526.2593 91.979164 525.9155 91.979164Q525.5874 91.979164 525.4155 91.80729Q525.2593 91.61979 525.2593 91.354164ZM529.6968 87.11979L530.5093 87.11979Q531.2905 87.104164 531.728 86.71354Q532.1655 86.322914 532.1655 85.65104Q532.1655 84.15104 530.6655 84.15104Q529.9624 84.15104 529.5405 84.55729Q529.1343 84.96354 529.1343 85.61979L528.0405 85.61979Q528.0405 84.604164 528.7749 83.93229Q529.5249 83.260414 530.6655 83.260414Q531.86865 83.260414 532.55615 83.90104Q533.24365 84.541664 533.24365 85.68229Q533.24365 86.24479 532.8843 86.760414Q532.5249 87.27604 531.8999 87.541664Q532.603 87.760414 532.978 88.27604Q533.36865 88.791664 533.36865 89.541664Q533.36865 90.68229 532.61865 91.36979Q531.86865 92.041664 530.6655 92.041664Q529.478 92.041664 528.7124 91.385414Q527.9624 90.729164 527.9624 89.666664L529.05615 89.666664Q529.05615 90.33854 529.49365 90.74479Q529.93115 91.15104 530.68115 91.15104Q531.4624 91.15104 531.86865 90.74479Q532.2905 90.322914 532.2905 89.55729Q532.2905 88.822914 531.8374 88.43229Q531.3843 88.02604 530.5093 88.010414L529.6968 88.010414L529.6968 87.11979ZM540.7124 91.916664L535.11865 91.916664L535.11865 91.135414L538.0718 87.854164Q538.728 87.104164 538.978 86.65104Q539.228 86.18229 539.228 85.68229Q539.228 85.010414 538.8218 84.58854Q538.43115 84.15104 537.74365 84.15104Q536.9468 84.15104 536.49365 84.61979Q536.0405 85.072914 536.0405 85.90104L534.9624 85.90104Q534.9624 84.71354 535.7124 83.99479Q536.478 83.260414 537.74365 83.260414Q538.9468 83.260414 539.6343 83.885414Q540.3218 84.510414 540.3218 85.55729Q540.3218 86.80729 538.7124 88.55729L536.43115 91.02604L540.7124 91.02604L540.7124 91.916664ZM548.5405 88.46354L546.5249 88.46354L546.5249 91.916664L545.3999 91.916664L545.3999 83.385414L548.228 83.385414Q549.6655 83.385414 550.43115 84.041664Q551.2124 84.697914 551.2124 85.947914Q551.2124 86.74479 550.7749 87.33854Q550.353 87.93229 549.5874 88.229164L551.5874 91.83854L551.5874 91.916664L550.3843 91.916664L548.5405 88.46354ZM546.5249 87.541664L548.2593 87.541664Q549.103 87.541664 549.5874 87.11979Q550.0874 86.68229 550.0874 85.947914Q550.0874 85.166664 549.61865 84.74479Q549.1499 84.322914 548.2593 84.30729L546.5249 84.30729L546.5249 87.541664ZM555.4155 88.010414L551.9155 88.010414L551.9155 87.36979L553.6655 85.729164Q554.30615 85.11979 554.30615 84.71354Q554.30615 84.43229 554.11865 84.260414Q553.93115 84.072914 553.5718 84.072914Q553.1343 84.072914 552.93115 84.30729Q552.728 84.52604 552.728 84.854164L551.80615 84.854164Q551.80615 84.18229 552.2905 83.760414Q552.7749 83.322914 553.5405 83.322914Q554.3218 83.322914 554.7749 83.697914Q555.228 84.05729 555.228 84.71354Q555.228 85.322914 554.603 85.947914L554.11865 86.40104L553.0874 87.260414L555.4155 87.260414L555.4155 88.010414ZM564.1968 87.15104L559.30615 87.15104L559.30615 86.197914L564.1968 86.197914L564.1968 87.15104ZM564.1968 89.572914L559.30615 89.572914L559.30615 88.635414L564.1968 88.635414L564.1968 89.572914Z" fill-rule="nonzero"/><path fill="#757575" d="M458.47806 103.27604Q458.47806 105.18229 457.8218 106.11979Q457.18118 107.041664 455.79056 107.041664Q454.43118 107.041664 453.77493 106.135414Q453.11868 105.229164 453.08743 103.416664L453.08743 101.979164Q453.08743 100.08854 453.72806 99.18229Q454.3843 98.260414 455.77493 98.260414Q457.14993 98.260414 457.80618 99.15104Q458.46243 100.02604 458.47806 101.86979L458.47806 103.27604ZM457.3843 101.791664Q457.3843 100.416664 456.99368 99.791664Q456.61868 99.15104 455.77493 99.15104Q454.9468 99.15104 454.55618 99.791664Q454.18118 100.416664 454.18118 101.71354L454.18118 103.447914Q454.18118 104.822914 454.5718 105.49479Q454.97806 106.15104 455.79056 106.15104Q456.58743 106.15104 456.97806 105.52604Q457.36868 104.90104 457.3843 103.572914L457.3843 101.791664ZM460.2593 106.354164Q460.2593 106.072914 460.41556 105.885414Q460.58743 105.697914 460.91556 105.697914Q461.2593 105.697914 461.43118 105.885414Q461.60306 106.072914 461.60306 106.354164Q461.60306 106.61979 461.43118 106.80729Q461.2593 106.979164 460.91556 106.979164Q460.58743 106.979164 460.41556 106.80729Q460.2593 106.61979 460.2593 106.354164ZM467.27493 103.166664Q466.9468 103.572914 466.46243 103.822914Q465.99368 104.05729 465.43118 104.05729Q464.6968 104.05729 464.14993 103.697914Q463.60306 103.33854 463.30618 102.68229Q463.0093 102.010414 463.0093 101.21354Q463.0093 100.36979 463.3218 99.68229Q463.64993 98.99479 464.24368 98.635414Q464.85306 98.260414 465.64993 98.260414Q466.91556 98.260414 467.6343 99.21354Q468.36868 100.166664 468.36868 101.791664L468.36868 102.104164Q468.36868 104.604164 467.3843 105.74479Q466.39993 106.885414 464.41556 106.916664L464.1968 106.916664L464.1968 106.010414L464.43118 106.010414Q465.77493 105.979164 466.49368 105.30729Q467.21243 104.635414 467.27493 103.166664ZM465.60306 103.166664Q466.14993 103.166664 466.60306 102.83854Q467.0718 102.49479 467.29056 102.010414L467.29056 101.572914Q467.29056 100.510414 466.8218 99.83854Q466.35306 99.166664 465.64993 99.166664Q464.93118 99.166664 464.49368 99.71354Q464.0718 100.260414 464.0718 101.166664Q464.0718 102.041664 464.47806 102.604164Q464.89993 103.166664 465.60306 103.166664ZM475.47806 103.27604Q475.47806 105.18229 474.8218 106.11979Q474.18118 107.041664 472.79056 107.041664Q471.43118 107.041664 470.77493 106.135414Q470.11868 105.229164 470.08743 103.416664L470.08743 101.979164Q470.08743 100.08854 470.72806 99.18229Q471.3843 98.260414 472.77493 98.260414Q474.14993 98.260414 474.80618 99.15104Q475.46243 100.02604 475.47806 101.86979L475.47806 103.27604ZM474.3843 101.791664Q474.3843 100.416664 473.99368 99.791664Q473.61868 99.15104 472.77493 99.15104Q471.9468 99.15104 471.55618 99.791664Q471.18118 100.416664 471.18118 101.71354L471.18118 103.447914Q471.18118 104.822914 471.5718 105.49479Q471.97806 106.15104 472.79056 106.15104Q473.58743 106.15104 473.97806 105.52604Q474.36868 104.90104 474.3843 103.572914L474.3843 101.791664ZM477.61868 102.635414L478.05618 98.385414L482.43118 98.385414L482.43118 99.385414L478.97806 99.385414L478.71243 101.71354Q479.35306 101.33854 480.14993 101.33854Q481.30618 101.33854 481.99368 102.11979Q482.68118 102.885414 482.68118 104.197914Q482.68118 105.510414 481.96243 106.27604Q481.2593 107.041664 479.97806 107.041664Q478.85306 107.041664 478.1343 106.416664Q477.41556 105.77604 477.3218 104.666664L478.33743 104.666664Q478.4468 105.40104 478.86868 105.77604Q479.29056 106.15104 479.97806 106.15104Q480.72806 106.15104 481.16556 105.635414Q481.60306 105.11979 481.60306 104.21354Q481.60306 103.354164 481.1343 102.83854Q480.66556 102.322914 479.8843 102.322914Q479.18118 102.322914 478.77493 102.61979L478.49368 102.854164L477.61868 102.635414Z" fill-rule="nonzero"/><path fill="#757575" d="M28.05 33.83125L22.096874 33.83125L20.753124 37.55L18.83125 37.55L24.253124 23.33125L25.89375 23.33125L31.33125 37.55L29.409374 37.55L28.05 33.83125ZM22.659374 32.3L27.503124 32.3L25.08125 25.64375L22.659374 32.3ZM32.471874 32.175Q32.471874 29.753124 33.628124 28.26875Q34.784374 26.784374 36.64375 26.784374Q38.503124 26.784374 39.58125 28.05L39.58125 22.55L41.39375 22.55L41.39375 37.55L39.7375 37.55L39.64375 36.409374Q38.565624 37.753124 36.628124 37.753124Q34.8 37.753124 33.628124 36.253124Q32.471874 34.7375 32.471874 32.315624L32.471874 32.175ZM34.284374 32.378124Q34.284374 34.175 35.01875 35.190624Q35.76875 36.20625 37.08125 36.20625Q38.8 36.20625 39.58125 34.675L39.58125 29.815624Q38.784374 28.315624 37.096874 28.315624Q35.76875 28.315624 35.01875 29.346874Q34.284374 30.378124 34.284374 32.378124ZM45.784374 26.9875L45.784374 38.76875Q45.784374 41.815624 43.01875 41.815624Q42.425 41.815624 41.909374 41.64375L41.909374 40.190624Q42.221874 40.26875 42.7375 40.26875Q43.346874 40.26875 43.659374 39.940624Q43.971874 39.628124 43.971874 38.815624L43.971874 26.9875L45.784374 26.9875ZM43.784374 24.175Q43.784374 23.753124 44.05 23.440624Q44.33125 23.128124 44.846874 23.128124Q45.378124 23.128124 45.64375 23.440624Q45.925 23.7375 45.925 24.175Q45.925 24.6125 45.64375 24.909374Q45.378124 25.20625 44.846874 25.20625Q44.315624 25.20625 44.05 24.909374Q43.784374 24.6125 43.784374 24.175ZM54.20625 37.55L54.20625 23.33125L58.846874 23.33125Q61.159374 23.33125 62.33125 24.284374Q63.503124 25.2375 63.503124 27.1125Q63.503124 28.1125 62.925 28.878124Q62.3625 29.64375 61.39375 30.065624Q62.534374 30.39375 63.20625 31.3Q63.878124 32.190624 63.878124 33.440624Q63.878124 35.3625 62.628124 36.45625Q61.39375 37.55 59.128124 37.55L54.20625 37.55ZM56.08125 30.89375L56.08125 36.01875L59.175 36.01875Q60.4875 36.01875 61.2375 35.346874Q61.9875 34.659374 61.9875 33.471874Q61.9875 30.89375 59.20625 30.89375L56.08125 30.89375ZM56.08125 29.39375L58.909374 29.39375Q60.14375 29.39375 60.878124 28.784374Q61.6125 28.159374 61.6125 27.1125Q61.6125 25.940624 60.925 25.409374Q60.253124 24.878124 58.846874 24.878124L56.08125 24.878124L56.08125 29.39375ZM68.08125 36.01875L74.83125 36.01875L74.83125 37.55L66.20625 37.55L66.20625 23.33125L68.08125 23.33125L68.08125 36.01875ZM80.81563 30.940624L79.08125 32.7375L79.08125 37.55L77.20625 37.55L77.20625 23.33125L79.08125 23.33125L79.08125 30.3625L85.39375 23.33125L87.65938 23.33125L82.06563 29.6125L88.09688 37.55L85.84688 37.55L80.81563 30.940624ZM97.08125 31.9875L97.08125 37.55L95.20625 37.55L95.20625 23.33125L100.44063 23.33125Q102.78438 23.33125 104.09688 24.51875Q105.425 25.70625 105.425 27.675Q105.425 29.753124 104.12813 30.878124Q102.83125 31.9875 100.425 31.9875L97.08125 31.9875ZM97.08125 30.45625L100.44063 30.45625Q101.95625 30.45625 102.75313 29.753124Q103.55 29.034374 103.55 27.690624Q103.55 26.425 102.75313 25.675Q101.95625 24.909374 100.55 24.878124L97.08125 24.878124L97.08125 30.45625ZM107.44063 32.175Q107.44063 30.6125 108.05 29.378124Q108.65938 28.128124 109.7375 27.45625Q110.83125 26.784374 112.2375 26.784374Q114.39375 26.784374 115.72188 28.284374Q117.06563 29.76875 117.06563 32.253124L117.06563 32.378124Q117.06563 33.925 116.47188 35.159374Q115.87813 36.378124 114.76875 37.065624Q113.675 37.753124 112.25313 37.753124Q110.1125 37.753124 108.76875 36.253124Q107.44063 34.753124 107.44063 32.3L107.44063 32.175ZM109.25313 32.378124Q109.25313 34.14375 110.06563 35.20625Q110.89375 36.26875 112.25313 36.26875Q113.62813 36.26875 114.44063 35.190624Q115.25313 34.1125 115.25313 32.175Q115.25313 30.425 114.425 29.346874Q113.59688 28.26875 112.2375 28.26875Q110.89375 28.26875 110.06563 29.33125Q109.25313 30.39375 109.25313 32.378124ZM120.87813 37.55L119.08125 37.55L119.08125 26.9875L120.87813 26.9875L120.87813 37.55ZM118.925 24.175Q118.925 23.7375 119.19063 23.440624Q119.47188 23.128124 119.9875 23.128124Q120.51875 23.128124 120.78438 23.440624Q121.06563 23.7375 121.06563 24.175Q121.06563 24.6125 120.78438 24.909374Q120.51875 25.20625 119.9875 25.20625Q119.47188 25.20625 119.19063 24.909374Q118.925 24.6125 118.925 24.175ZM125.62813 26.9875L125.69063 28.315624Q126.89375 26.784374 128.84688 26.784374Q132.20625 26.784374 132.22188 30.565624L132.22188 37.55L130.425 37.55L130.425 30.55Q130.40938 29.409374 129.89375 28.8625Q129.39375 28.315624 128.3 28.315624Q127.425 28.315624 126.75313 28.784374Q126.09688 29.253124 125.72188 30.01875L125.72188 37.55L123.925 37.55L123.925 26.9875L125.62813 26.9875ZM137.3625 24.425L137.3625 26.9875L139.34688 26.9875L139.34688 28.378124L137.3625 28.378124L137.3625 34.925Q137.3625 35.565624 137.62813 35.89375Q137.89375 36.20625 138.53438 36.20625Q138.84688 36.20625 139.39375 36.08125L139.39375 37.55Q138.675 37.753124 138.00313 37.753124Q136.8 37.753124 136.175 37.01875Q135.56563 36.284374 135.56563 34.925L135.56563 28.378124L133.64375 28.378124L133.64375 26.9875L135.56563 26.9875L135.56563 24.425L137.3625 24.425ZM148.06563 34.753124Q148.06563 34.01875 147.51875 33.6125Q146.97188 33.20625 145.59688 32.909374Q144.22188 32.6125 143.40938 32.20625Q142.6125 31.8 142.22188 31.2375Q141.84688 30.659374 141.84688 29.878124Q141.84688 28.58125 142.94063 27.690624Q144.03438 26.784374 145.75313 26.784374Q147.55 26.784374 148.65938 27.721874Q149.78438 28.64375 149.78438 30.08125L147.95625 30.08125Q147.95625 29.346874 147.33125 28.815624Q146.70625 28.26875 145.75313 28.26875Q144.75313 28.26875 144.19063 28.70625Q143.64375 29.128124 143.64375 29.83125Q143.64375 30.471874 144.15938 30.815624Q144.675 31.14375 146.03438 31.45625Q147.39375 31.753124 148.22188 32.175Q149.06563 32.58125 149.47188 33.175Q149.87813 33.76875 149.87813 34.6125Q149.87813 36.034374 148.7375 36.89375Q147.6125 37.753124 145.8 37.753124Q144.53438 37.753124 143.55 37.3Q142.58125 36.846874 142.01875 36.05Q141.47188 35.2375 141.47188 34.3L143.28438 34.3Q143.33125 35.20625 144.00313 35.7375Q144.69063 36.26875 145.8 36.26875Q146.83125 36.26875 147.44063 35.8625Q148.06563 35.440624 148.06563 34.753124ZM160.40938 35.096874L163.01875 26.9875L164.8625 26.9875L161.08125 37.55L159.70625 37.55L155.87813 26.9875L157.72188 26.9875L160.40938 35.096874ZM173.06563 34.753124Q173.06563 34.01875 172.51875 33.6125Q171.97188 33.20625 170.59688 32.909374Q169.22188 32.6125 168.40938 32.20625Q167.6125 31.8 167.22188 31.2375Q166.84688 30.659374 166.84688 29.878124Q166.84688 28.58125 167.94063 27.690624Q169.03438 26.784374 170.75313 26.784374Q172.55 26.784374 173.65938 27.721874Q174.78438 28.64375 174.78438 30.08125L172.95625 30.08125Q172.95625 29.346874 172.33125 28.815624Q171.70625 28.26875 170.75313 28.26875Q169.75313 28.26875 169.19063 28.70625Q168.64375 29.128124 168.64375 29.83125Q168.64375 30.471874 169.15938 30.815624Q169.675 31.14375 171.03438 31.45625Q172.39375 31.753124 173.22188 32.175Q174.06563 32.58125 174.47188 33.175Q174.87813 33.76875 174.87813 34.6125Q174.87813 36.034374 173.7375 36.89375Q172.6125 37.753124 170.8 37.753124Q169.53438 37.753124 168.55 37.3Q167.58125 36.846874 167.01875 36.05Q166.47188 35.2375 166.47188 34.3L168.28438 34.3Q168.33125 35.20625 169.00313 35.7375Q169.69063 36.26875 170.8 36.26875Q171.83125 36.26875 172.44063 35.8625Q173.06563 35.440624 173.06563 34.753124ZM176.95625 36.596874Q176.95625 36.128124 177.2375 35.815624Q177.51875 35.503124 178.06563 35.503124Q178.62813 35.503124 178.90938 35.815624Q179.20625 36.128124 179.20625 36.596874Q179.20625 37.05 178.90938 37.3625Q178.62813 37.659374 178.06563 37.659374Q177.51875 37.659374 177.2375 37.3625Q176.95625 37.05 176.95625 36.596874ZM195.05 33.83125L189.09688 33.83125L187.75313 37.55L185.83125 37.55L191.25313 23.33125L192.89375 23.33125L198.33125 37.55L196.40938 37.55L195.05 33.83125ZM189.65938 32.3L194.50313 32.3L192.08125 25.64375L189.65938 32.3ZM199.47188 32.175Q199.47188 29.753124 200.62813 28.26875Q201.78438 26.784374 203.64375 26.784374Q205.50313 26.784374 206.58125 28.05L206.58125 22.55L208.39375 22.55L208.39375 37.55L206.7375 37.55L206.64375 36.409374Q205.56563 37.753124 203.62813 37.753124Q201.8 37.753124 200.62813 36.253124Q199.47188 34.7375 199.47188 32.315624L199.47188 32.175ZM201.28438 32.378124Q201.28438 34.175 202.01875 35.190624Q202.76875 36.20625 204.08125 36.20625Q205.8 36.20625 206.58125 34.675L206.58125 29.815624Q205.78438 28.315624 204.09688 28.315624Q202.76875 28.315624 202.01875 29.346874Q201.28438 30.378124 201.28438 32.378124ZM212.78438 26.9875L212.78438 38.76875Q212.78438 41.815624 210.01875 41.815624Q209.425 41.815624 208.90938 41.64375L208.90938 40.190624Q209.22188 40.26875 209.7375 40.26875Q210.34688 40.26875 210.65938 39.940624Q210.97188 39.628124 210.97188 38.815624L210.97188 26.9875L212.78438 26.9875ZM210.78438 24.175Q210.78438 23.753124 211.05 23.440624Q211.33125 23.128124 211.84688 23.128124Q212.37813 23.128124 212.64375 23.440624Q212.925 23.7375 212.925 24.175Q212.925 24.6125 212.64375 24.909374Q212.37813 25.20625 211.84688 25.20625Q211.31563 25.20625 211.05 24.909374Q210.78438 24.6125 210.78438 24.175ZM221.20625 37.55L221.20625 23.33125L225.84688 23.33125Q228.15938 23.33125 229.33125 24.284374Q230.50313 25.2375 230.50313 27.1125Q230.50313 28.1125 229.925 28.878124Q229.3625 29.64375 228.39375 30.065624Q229.53438 30.39375 230.20625 31.3Q230.87813 32.190624 230.87813 33.440624Q230.87813 35.3625 229.62813 36.45625Q228.39375 37.55 226.12813 37.55L221.20625 37.55ZM223.08125 30.89375L223.08125 36.01875L226.175 36.01875Q227.4875 36.01875 228.2375 35.346874Q228.9875 34.659374 228.9875 33.471874Q228.9875 30.89375 226.20625 30.89375L223.08125 30.89375ZM223.08125 29.39375L225.90938 29.39375Q227.14375 29.39375 227.87813 28.784374Q228.6125 28.159374 228.6125 27.1125Q228.6125 25.940624 227.925 25.409374Q227.25313 24.878124 225.84688 24.878124L223.08125 24.878124L223.08125 29.39375ZM235.08125 36.01875L241.83125 36.01875L241.83125 37.55L233.20625 37.55L233.20625 23.33125L235.08125 23.33125L235.08125 36.01875ZM247.81563 30.940624L246.08125 32.7375L246.08125 37.55L244.20625 37.55L244.20625 23.33125L246.08125 23.33125L246.08125 30.3625L252.39375 23.33125L254.65938 23.33125L249.06563 29.6125L255.09688 37.55L252.84688 37.55L247.81563 30.940624ZM272.01874 24.878124L267.45624 24.878124L267.45624 37.55L265.59686 37.55L265.59686 24.878124L261.03436 24.878124L261.03436 23.33125L272.01874 23.33125L272.01874 24.878124ZM273.4406 32.175Q273.4406 30.6125 274.05 29.378124Q274.65936 28.128124 275.7375 27.45625Q276.83124 26.784374 278.2375 26.784374Q280.39374 26.784374 281.72186 28.284374Q283.0656 29.76875 283.0656 32.253124L283.0656 32.378124Q283.0656 33.925 282.47186 35.159374Q281.8781 36.378124 280.76874 37.065624Q279.675 37.753124 278.2531 37.753124Q276.1125 37.753124 274.76874 36.253124Q273.4406 34.753124 273.4406 32.3L273.4406 32.175ZM275.2531 32.378124Q275.2531 34.14375 276.0656 35.20625Q276.89374 36.26875 278.2531 36.26875Q279.6281 36.26875 280.4406 35.190624Q281.2531 34.1125 281.2531 32.175Q281.2531 30.425 280.425 29.346874Q279.59686 28.26875 278.2375 28.26875Q276.89374 28.26875 276.0656 29.33125Q275.2531 30.39375 275.2531 32.378124ZM287.3625 24.425L287.3625 26.9875L289.34686 26.9875L289.34686 28.378124L287.3625 28.378124L287.3625 34.925Q287.3625 35.565624 287.6281 35.89375Q287.89374 36.20625 288.53436 36.20625Q288.84686 36.20625 289.39374 36.08125L289.39374 37.55Q288.675 37.753124 288.0031 37.753124Q286.8 37.753124 286.175 37.01875Q285.5656 36.284374 285.5656 34.925L285.5656 28.378124L283.64374 28.378124L283.64374 26.9875L285.5656 26.9875L285.5656 24.425L287.3625 24.425ZM298.4406 37.55Q298.28436 37.2375 298.1906 36.440624Q296.925 37.753124 295.175 37.753124Q293.6125 37.753124 292.6125 36.8625Q291.6125 35.971874 291.6125 34.6125Q291.6125 32.971874 292.8625 32.065624Q294.1281 31.14375 296.39374 31.14375L298.15936 31.14375L298.15936 30.315624Q298.15936 29.3625 297.58124 28.8Q297.01874 28.2375 295.925 28.2375Q294.95624 28.2375 294.3 28.7375Q293.64374 29.221874 293.64374 29.909374L291.83124 29.909374Q291.83124 29.128124 292.39374 28.39375Q292.95624 27.64375 293.90936 27.221874Q294.8781 26.784374 296.03436 26.784374Q297.8625 26.784374 298.89374 27.70625Q299.925 28.6125 299.97186 30.221874L299.97186 35.08125Q299.97186 36.534374 300.33124 37.39375L300.33124 37.55L298.4406 37.55ZM295.4406 36.175Q296.3 36.175 297.05 35.7375Q297.8156 35.3 298.15936 34.596874L298.15936 32.425L296.7375 32.425Q293.425 32.425 293.425 34.3625Q293.425 35.221874 293.9875 35.70625Q294.55 36.175 295.4406 36.175ZM304.8781 37.55L303.08124 37.55L303.08124 22.55L304.8781 22.55L304.8781 37.55ZM314.0656 34.753124Q314.0656 34.01875 313.51874 33.6125Q312.97186 33.20625 311.59686 32.909374Q310.22186 32.6125 309.40936 32.20625Q308.6125 31.8 308.22186 31.2375Q307.84686 30.659374 307.84686 29.878124Q307.84686 28.58125 308.9406 27.690624Q310.03436 26.784374 311.7531 26.784374Q313.55 26.784374 314.65936 27.721874Q315.78436 28.64375 315.78436 30.08125L313.95624 30.08125Q313.95624 29.346874 313.33124 28.815624Q312.70624 28.26875 311.7531 28.26875Q310.7531 28.26875 310.1906 28.70625Q309.64374 29.128124 309.64374 29.83125Q309.64374 30.471874 310.15936 30.815624Q310.675 31.14375 312.03436 31.45625Q313.39374 31.753124 314.22186 32.175Q315.0656 32.58125 315.47186 33.175Q315.8781 33.76875 315.8781 34.6125Q315.8781 36.034374 314.7375 36.89375Q313.6125 37.753124 311.8 37.753124Q310.53436 37.753124 309.55 37.3Q308.58124 36.846874 308.01874 36.05Q307.47186 35.2375 307.47186 34.3L309.28436 34.3Q309.33124 35.20625 310.0031 35.7375Q310.6906 36.26875 311.8 36.26875Q312.83124 36.26875 313.4406 35.8625Q314.0656 35.440624 314.0656 34.753124Z" fill-rule="nonzero"/></svg>