<svg version="1.1" viewBox="0.0 0.0 600.0 371.0" fill="none" stroke="none" stroke-linecap="square" stroke-miterlimit="10" width="600" height="371" xmlns:xlink="http://www.w3.org/1999/xlink" xmlns="http://www.w3.org/2000/svg"><path fill="#ffffff" d="M0 0L600.0 0L600.0 371.0L0 371.0L0 0Z" fill-rule="nonzero"/><path fill="#ffffff" d="M0 0L600.0 0L600.0 371.0L0 371.0L0 0Z" fill-rule="nonzero"/><path stroke="#cccccc" stroke-width="1.0" stroke-linecap="butt" d="M87.5 62.5L87.5 298.5" fill-rule="nonzero"/><path stroke="#cccccc" stroke-width="1.0" stroke-linecap="butt" d="M176.5 62.5L176.5 298.5" fill-rule="nonzero"/><path stroke="#cccccc" stroke-width="1.0" stroke-linecap="butt" d="M265.5 62.5L265.5 298.5" fill-rule="nonzero"/><path stroke="#cccccc" stroke-width="1.0" stroke-linecap="butt" d="M354.5 62.5L354.5 298.5" fill-rule="nonzero"/><path stroke="#333333" stroke-width="1.0" stroke-linecap="butt" d="M78.5 298.5L412.5 298.5" fill-rule="nonzero"/><path stroke="#cccccc" stroke-width="1.0" stroke-linecap="butt" d="M78.5 219.5L412.5 219.5" fill-rule="nonzero"/><path stroke="#cccccc" stroke-width="1.0" stroke-linecap="butt" d="M78.5 141.5L412.5 141.5" fill-rule="nonzero"/><path stroke="#cccccc" stroke-width="1.0" stroke-linecap="butt" d="M78.5 62.5L412.5 62.5" fill-rule="nonzero"/><clipPath id="id_0"><path d="M78.55 62.416668L412.58 62.416668L412.58 298.45L78.55 298.45L78.55 62.416668Z" clip-rule="nonzero"/></clipPath><path stroke="#3366cc" stroke-width="2.0" stroke-linecap="butt" stroke-opacity="0.4" clip-path="url(#id_0)" d="M0 219.63737C0 219.63737 2.6666667 222.2533 4.0 223.5337C5.3333335 224.81412 6.6666665 226.07617 8.0 227.31984C9.333333 228.5635 10.666667 229.78882 12.0 230.99576C13.333333 232.2027 14.666667 233.39127 16.0 234.56146C17.333334 235.73167 18.666666 236.8835 20.0 238.01697C21.333334 239.15042 22.666666 240.26552 24.0 241.36224C25.333334 242.45898 26.666666 243.53734 28.0 244.59732C29.333334 245.65732 30.666666 246.69894 32.0 247.7222C33.333332 248.74545 34.666668 249.75034 36.0 250.73685C37.333332 251.72336 38.666668 252.69151 40.0 253.6413C41.333332 254.59108 42.666668 255.52249 44.0 256.43552C45.333332 257.34857 46.666668 258.24326 48.0 259.11954C49.333332 259.99585 50.666668 260.8538 52.0 261.69336C53.333332 262.53293 54.666668 263.35413 56.0 264.15698C57.333332 264.9598 58.666668 265.74426 60.0 266.51035C61.333332 267.27646 62.666668 268.02417 64.0 268.75354C65.333336 269.4829 66.666664 270.19388 68.0 270.8865C69.333336 271.57913 70.666664 272.2534 72.0 272.90927C73.333336 273.56516 74.666664 274.20267 76.0 274.8218C77.333336 275.44098 78.666664 276.04175 80.0 276.62418C81.333336 277.20657 82.666664 277.77063 84.0 278.31628C85.333336 278.86197 86.666664 279.38928 88.0 279.89822C89.333336 280.40714 90.666664 280.8977 92.0 281.3699C93.333336 281.84213 94.666664 282.29596 96.0 282.7314C97.333336 283.16687 98.666664 283.58398 100.0 283.9827C101.333336 284.38144 102.666664 284.76178 104.0 285.12378C105.333336 285.48578 106.666664 285.82938 108.0 286.15463C109.333336 286.4799 110.666664 286.78677 112.0 287.0753C113.333336 287.36383 114.666664 287.63397 116.0 287.88574C117.333336 288.1375 118.666664 288.37094 120.0 288.58597C121.333336 288.80103 122.666664 288.99768 124.0 289.176C125.333336 289.3543 126.666664 289.51425 128.0 289.65582C129.33333 289.7974 130.66667 289.9206 132.0 290.02542C133.33333 290.13025 134.66667 290.2167 136.0 290.28482C137.33333 290.3529 138.66667 290.40262 140.0 290.434C141.33333 290.46536 142.66667 290.47833 144.0 290.47296C145.33333 290.4676 146.66667 290.44385 148.0 290.40173C149.33333 290.35962 150.66667 290.29913 152.0 290.22028C153.33333 290.14142 154.66667 290.0442 156.0 289.92862C157.33333 289.81302 158.66667 289.67908 160.0 289.52673C161.33333 289.37442 162.66667 289.2037 164.0 289.01465C165.33333 288.8256 166.66667 288.61816 168.0 288.39236C169.33333 288.16656 170.66667 287.9224 172.0 287.65985C173.33333 287.39734 174.66667 287.11642 176.0 286.81714C177.33333 286.51788 178.66667 286.20023 180.0 285.86423C181.33333 285.52823 182.66667 285.17383 184.0 284.8011C185.33333 284.42834 186.66667 284.03723 188.0 283.62775C189.33333 283.21826 190.66667 282.7904 192.0 282.34418C193.33333 281.89798 194.66667 281.43338 196.0 280.9504C197.33333 280.46747 198.66667 279.96613 200.0 279.44644C201.33333 278.92676 202.66667 278.3887 204.0 277.83224C205.33333 277.27582 206.66667 276.70102 208.0 276.10785C209.33333 275.51468 210.66667 274.90317 212.0 274.27325C213.33333 273.64334 214.66667 272.9951 216.0 272.32843C217.33333 271.6618 218.66667 270.97678 220.0 270.2734C221.33333 269.57004 222.66667 268.84827 224.0 268.10815C225.33333 267.36804 226.66667 266.60956 228.0 265.8327C229.33333 265.05585 230.66667 264.26065 232.0 263.44705C233.33333 262.63345 234.66667 261.8015 236.0 260.95117C237.33333 260.10086 238.66667 259.23215 240.0 258.3451C241.33333 257.45804 242.66667 256.5526 244.0 255.6288C245.33333 254.705 246.66667 253.76283 248.0 252.8023C249.33333 251.84177 250.66667 250.86287 252.0 249.86559C253.33333 248.86832 254.66667 247.85268 256.0 246.81866C257.33334 245.78465 258.66666 244.73228 260.0 243.66153C261.33334 242.59079 262.66666 241.50166 264.0 240.39418C265.33334 239.2867 266.66666 238.16084 268.0 237.01663C269.33334 235.8724 270.66666 234.70982 272.0 233.52887C273.33334 232.3479 274.66666 231.14857 276.0 229.9309C277.33334 228.7132 278.66666 227.47713 280.0 226.2227C281.33334 224.96826 282.66666 223.69547 284.0 222.4043C285.33334 221.11313 286.66666 219.8036 288.0 218.4757C289.33334 217.14778 290.66666 215.80151 292.0 214.43687C293.33334 213.07224 294.66666 211.68922 296.0 210.28784C297.33334 208.88646 298.66666 207.46672 300.0 206.02861C301.33334 204.59048 302.66666 203.134 304.0 201.65915C305.33334 200.1843 306.66666 198.69109 308.0 197.17949C309.33334 195.66791 310.66666 194.13794 312.0 192.58961C313.33334 191.04129 314.66666 189.4746 316.0 187.88954C317.33334 186.30447 318.66666 184.70105 320.0 183.07924C321.33334 181.45744 322.66666 179.81728 324.0 178.15874C325.33334 176.5002 326.66666 174.8233 328.0 173.12802C329.33334 171.43275 330.66666 169.71912 332.0 167.9871C333.33334 166.2551 334.66666 164.50471 336.0 162.73596C337.33334 160.96722 338.66666 159.1801 340.0 157.37462C341.33334 155.56914 342.66666 153.74529 344.0 151.90306C345.33334 150.06085 346.66666 148.20026 348.0 146.3213C349.33334 144.44234 350.66666 142.54501 352.0 140.62932C353.33334 138.71362 354.66666 136.77957 356.0 134.82713C357.33334 132.87471 358.66666 130.9039 360.0 128.91473C361.33334 126.92557 362.66666 124.91803 364.0 122.89213C365.33334 120.86622 366.66666 118.821945 368.0 116.75931C369.33334 114.69666 370.66666 112.615654 372.0 110.51627C373.33334 108.4169 374.66666 106.29915 376.0 104.16304C377.33334 102.026924 378.66666 99.87244 380.0 97.699585C381.33334 95.52673 382.66666 93.33551 384.0 91.12592C385.33334 88.916336 386.66666 86.68838 388.0 84.442055C389.33334 82.195724 390.66666 79.93103 392.0 77.64797C393.33334 75.36491 394.66666 73.06348 396.0 70.743675C397.33334 68.423874 398.66666 66.08571 400.0 63.72917C401.33334 61.372635 402.66666 58.99773 404.0 56.604458C405.33334 54.211185 406.66666 51.799545 408.0 49.369534C409.33334 46.93952 412.0 42.0244 412.0 42.0244" fill-rule="nonzero"/><path fill="#3366cc" clip-path="url(#id_0)" d="M339.11865 172.56555C339.11865 175.05084 337.10394 177.06555 334.61865 177.06555C332.13336 177.06555 330.11865 175.05084 330.11865 172.56555C330.11865 170.08028 332.13336 168.06555 334.61865 168.06555C337.10394 168.06555 339.11865 170.08028 339.11865 172.56555Z" fill-rule="nonzero"/><path fill="#3366cc" clip-path="url(#id_0)" d="M364.05368 109.62334C364.05368 112.10861 362.03897 114.12334 359.55368 114.12334C357.0684 114.12334 355.05368 112.10861 355.05368 109.62334C355.05368 107.138054 357.0684 105.12334 359.55368 105.12334C362.03897 105.12334 364.05368 107.138054 364.05368 109.62334Z" fill-rule="nonzero"/><path fill="#3366cc" clip-path="url(#id_0)" d="M410.36157 78.15222C410.36157 80.637505 408.34686 82.65222 405.86157 82.65222C403.3763 82.65222 401.36157 80.637505 401.36157 78.15222C401.36157 75.66694 403.3763 73.65222 405.86157 73.65222C408.34686 73.65222 410.36157 75.66694 410.36157 78.15222Z" fill-rule="nonzero"/><path fill="#3366cc" clip-path="url(#id_0)" d="M348.02402 141.09445C348.02402 143.57973 346.0093 145.59445 343.52402 145.59445C341.03876 145.59445 339.02402 143.57973 339.02402 141.09445C339.02402 138.60916 341.03876 136.59445 343.52402 136.59445C346.0093 136.59445 348.02402 138.60916 348.02402 141.09445Z" fill-rule="nonzero"/><path fill="#3366cc" clip-path="url(#id_0)" d="M299.93506 204.03667C299.93506 206.52194 297.92032 208.53667 295.43506 208.53667C292.94977 208.53667 290.93506 206.52194 290.93506 204.03667C290.93506 201.55139 292.94977 199.53667 295.43506 199.53667C297.92032 199.53667 299.93506 201.55139 299.93506 204.03667Z" fill-rule="nonzero"/><path fill="#3366cc" clip-path="url(#id_0)" d="M362.2726 125.35889C362.2726 127.84417 360.2579 129.85889 357.7726 129.85889C355.28732 129.85889 353.2726 127.84417 353.2726 125.35889C353.2726 122.873604 355.28732 120.85889 357.7726 120.85889C360.2579 120.85889 362.2726 122.873604 362.2726 125.35889Z" fill-rule="nonzero"/><path fill="#3366cc" clip-path="url(#id_0)" d="M376.5212 93.88778C376.5212 96.37306 374.50647 98.38778 372.0212 98.38778C369.53592 98.38778 367.5212 96.37306 367.5212 93.88778C367.5212 91.4025 369.53592 89.38778 372.0212 89.38778C374.50647 89.38778 376.5212 91.4025 376.5212 93.88778Z" fill-rule="nonzero"/><path fill="#3366cc" clip-path="url(#id_0)" d="M314.18362 188.30112C314.18362 190.78639 312.1689 192.80112 309.68362 192.80112C307.19836 192.80112 305.18362 190.78639 305.18362 188.30112C305.18362 185.81583 307.19836 183.80112 309.68362 183.80112C312.1689 183.80112 314.18362 185.81583 314.18362 188.30112Z" fill-rule="nonzero"/><path fill="#3366cc" clip-path="url(#id_0)" d="M346.24295 156.83C346.24295 159.31528 344.22824 161.33 341.74295 161.33C339.25766 161.33 337.24295 159.31528 337.24295 156.83C337.24295 154.34471 339.25766 152.33 341.74295 152.33C344.22824 152.33 346.24295 154.34471 346.24295 156.83Z" fill-rule="nonzero"/><path fill="#3366cc" clip-path="url(#id_0)" d="M278.56216 235.50778C278.56216 237.99306 276.54745 240.00778 274.06216 240.00778C271.5769 240.00778 269.56216 237.99306 269.56216 235.50778C269.56216 233.02249 271.5769 231.00778 274.06216 231.00778C276.54745 231.00778 278.56216 233.02249 278.56216 235.50778Z" fill-rule="nonzero"/><path fill="#3366cc" clip-path="url(#id_0)" d="M267.87573 251.24333C267.87573 253.7286 265.86102 255.74333 263.37573 255.74333C260.89044 255.74333 258.87573 253.7286 258.87573 251.24333C258.87573 248.75806 260.89044 246.74333 263.37573 246.74333C265.86102 246.74333 267.87573 248.75806 267.87573 251.24333Z" fill-rule="nonzero"/><path fill="#3366cc" clip-path="url(#id_0)" d="M194.85173 282.71445C194.85173 285.19974 192.837 287.21445 190.35173 287.21445C187.86646 287.21445 185.85173 285.19974 185.85173 282.71445C185.85173 280.22916 187.86646 278.21445 190.35173 278.21445C192.837 278.21445 194.85173 280.22916 194.85173 282.71445Z" fill-rule="nonzero"/><path fill="#3366cc" clip-path="url(#id_0)" d="M266.09467 266.97888C266.09467 269.46417 264.07993 271.47888 261.59467 271.47888C259.10938 271.47888 257.09467 269.46417 257.09467 266.97888C257.09467 264.49362 259.10938 262.47888 261.59467 262.47888C264.07993 262.47888 266.09467 264.49362 266.09467 266.97888Z" fill-rule="nonzero"/><path fill="#3366cc" clip-path="url(#id_0)" d="M282.12433 219.77222C282.12433 222.2575 280.1096 224.27222 277.62433 224.27222C275.13904 224.27222 273.12433 222.2575 273.12433 219.77222C273.12433 217.28694 275.13904 215.27222 277.62433 215.27222C280.1096 215.27222 282.12433 217.28694 282.12433 219.77222Z" fill-rule="nonzero"/><path fill="#3366cc" clip-path="url(#id_0)" d="M388.9887 78.15222C388.9887 80.637505 386.974 82.65222 384.4887 82.65222C382.00342 82.65222 379.9887 80.637505 379.9887 78.15222C379.9887 75.66694 382.00342 73.65222 384.4887 73.65222C386.974 73.65222 388.9887 75.66694 388.9887 78.15222Z" fill-rule="nonzero"/><path fill="#3366cc" clip-path="url(#id_0)" d="M385.42657 109.62334C385.42657 112.10861 383.41183 114.12334 380.92657 114.12334C378.44128 114.12334 376.42657 112.10861 376.42657 109.62334C376.42657 107.138054 378.44128 105.12334 380.92657 105.12334C383.41183 105.12334 385.42657 107.138054 385.42657 109.62334Z" fill-rule="nonzero"/><path fill="#3366cc" clip-path="url(#id_0)" d="M273.21896 251.24333C273.21896 253.7286 271.20422 255.74333 268.71896 255.74333C266.23367 255.74333 264.21896 253.7286 264.21896 251.24333C264.21896 248.75806 266.23367 246.74333 268.71896 246.74333C271.20422 246.74333 273.21896 248.75806 273.21896 251.24333Z" fill-rule="nonzero"/><path fill="#3366cc" clip-path="url(#id_0)" d="M367.6158 141.09445C367.6158 143.57973 365.6011 145.59445 363.1158 145.59445C360.63055 145.59445 358.6158 143.57973 358.6158 141.09445C358.6158 138.60916 360.63055 136.59445 363.1158 136.59445C365.6011 136.59445 367.6158 138.60916 367.6158 141.09445Z" fill-rule="nonzero"/><path fill="#3366cc" clip-path="url(#id_0)" d="M365.83475 156.83C365.83475 159.31528 363.82004 161.33 361.33475 161.33C358.8495 161.33 356.83475 159.31528 356.83475 156.83C356.83475 154.34471 358.8495 152.33 361.33475 152.33C363.82004 152.33 365.83475 154.34471 365.83475 156.83Z" fill-rule="nonzero"/><path fill="#3366cc" clip-path="url(#id_0)" d="M333.77545 204.03667C333.77545 206.52194 331.7607 208.53667 329.27545 208.53667C326.79016 208.53667 324.77545 206.52194 324.77545 204.03667C324.77545 201.55139 326.79016 199.53667 329.27545 199.53667C331.7607 199.53667 333.77545 201.55139 333.77545 204.03667Z" fill-rule="nonzero"/><path fill="#3366cc" clip-path="url(#id_0)" d="M337.3376 188.30112C337.3376 190.78639 335.32288 192.80112 332.8376 192.80112C330.3523 192.80112 328.3376 190.78639 328.3376 188.30112C328.3376 185.81583 330.3523 183.80112 332.8376 183.80112C335.32288 183.80112 337.3376 185.81583 337.3376 188.30112Z" fill-rule="nonzero"/><path fill="#3366cc" clip-path="url(#id_0)" d="M326.65115 219.77222C326.65115 222.2575 324.6364 224.27222 322.15115 224.27222C319.66586 224.27222 317.65115 222.2575 317.65115 219.77222C317.65115 217.28694 319.66586 215.27222 322.15115 215.27222C324.6364 215.27222 326.65115 217.28694 326.65115 219.77222Z" fill-rule="nonzero"/><path fill="#3366cc" clip-path="url(#id_0)" d="M301.71613 235.50778C301.71613 237.99306 299.70142 240.00778 297.21613 240.00778C294.73083 240.00778 292.71613 237.99306 292.71613 235.50778C292.71613 233.02249 294.73083 231.00778 297.21613 231.00778C299.70142 231.00778 301.71613 233.02249 301.71613 235.50778Z" fill-rule="nonzero"/><path fill="#3366cc" clip-path="url(#id_0)" d="M372.95905 125.35889C372.95905 127.84417 370.94434 129.85889 368.45905 129.85889C365.97375 129.85889 363.95905 127.84417 363.95905 125.35889C363.95905 122.873604 365.97375 120.85889 368.45905 120.85889C370.94434 120.85889 372.95905 122.873604 372.95905 125.35889Z" fill-rule="nonzero"/><path fill="#3366cc" clip-path="url(#id_0)" d="M225.12997 266.97888C225.12997 269.46417 223.11525 271.47888 220.62997 271.47888C218.1447 271.47888 216.12997 269.46417 216.12997 266.97888C216.12997 264.49362 218.1447 262.47888 220.62997 262.47888C223.11525 262.47888 225.12997 264.49362 225.12997 266.97888Z" fill-rule="nonzero"/><path fill="#3366cc" clip-path="url(#id_0)" d="M177.041 282.71445C177.041 285.19974 175.02628 287.21445 172.541 287.21445C170.05573 287.21445 168.041 285.19974 168.041 282.71445C168.041 280.22916 170.05573 278.21445 172.541 278.21445C175.02628 278.21445 177.041 280.22916 177.041 282.71445Z" fill-rule="nonzero"/><path fill="#3366cc" clip-path="url(#id_0)" d="M388.9887 93.88778C388.9887 96.37306 386.974 98.38778 384.4887 98.38778C382.00342 98.38778 379.9887 96.37306 379.9887 93.88778C379.9887 91.4025 382.00342 89.38778 384.4887 89.38778C386.974 89.38778 388.9887 91.4025 388.9887 93.88778Z" fill-rule="nonzero"/><path fill="#3366cc" clip-path="url(#id_0)" d="M337.3376 172.56555C337.3376 175.05084 335.32288 177.06555 332.8376 177.06555C330.3523 177.06555 328.3376 175.05084 328.3376 172.56555C328.3376 170.08028 330.3523 168.06555 332.8376 168.06555C335.32288 168.06555 337.3376 170.08028 337.3376 172.56555Z" fill-rule="nonzero"/><path fill="#3366cc" clip-path="url(#id_0)" d="M362.2726 109.62334C362.2726 112.10861 360.2579 114.12334 357.7726 114.12334C355.28732 114.12334 353.2726 112.10861 353.2726 109.62334C353.2726 107.138054 355.28732 105.12334 357.7726 105.12334C360.2579 105.12334 362.2726 107.138054 362.2726 109.62334Z" fill-rule="nonzero"/><path fill="#3366cc" clip-path="url(#id_0)" d="M323.089 156.83C323.089 159.31528 321.07428 161.33 318.589 161.33C316.10373 161.33 314.089 159.31528 314.089 156.83C314.089 154.34471 316.10373 152.33 318.589 152.33C321.07428 152.33 323.089 154.34471 323.089 156.83Z" fill-rule="nonzero"/><path fill="#3366cc" clip-path="url(#id_0)" d="M388.9887 78.15222C388.9887 80.637505 386.974 82.65222 384.4887 82.65222C382.00342 82.65222 379.9887 80.637505 379.9887 78.15222C379.9887 75.66694 382.00342 73.65222 384.4887 73.65222C386.974 73.65222 388.9887 75.66694 388.9887 78.15222Z" fill-rule="nonzero"/><path fill="#3366cc" clip-path="url(#id_0)" d="M89.76842 282.71445C89.76842 285.19974 87.7537 287.21445 85.26842 287.21445C82.783134 287.21445 80.76842 285.19974 80.76842 282.71445C80.76842 280.22916 82.783134 278.21445 85.26842 278.21445C87.7537 278.21445 89.76842 280.22916 89.76842 282.71445Z" fill-rule="nonzero"/><path fill="#3366cc" clip-path="url(#id_0)" d="M193.07066 266.97888C193.07066 269.46417 191.05594 271.47888 188.57066 271.47888C186.08537 271.47888 184.07066 269.46417 184.07066 266.97888C184.07066 264.49362 186.08537 262.47888 188.57066 262.47888C191.05594 262.47888 193.07066 264.49362 193.07066 266.97888Z" fill-rule="nonzero"/><path fill="#3366cc" clip-path="url(#id_0)" d="M372.95905 93.88778C372.95905 96.37306 370.94434 98.38778 368.45905 98.38778C365.97375 98.38778 363.95905 96.37306 363.95905 93.88778C363.95905 91.4025 365.97375 89.38778 368.45905 89.38778C370.94434 89.38778 372.95905 91.4025 372.95905 93.88778Z" fill-rule="nonzero"/><path fill="#3366cc" clip-path="url(#id_0)" d="M308.84042 204.03667C308.84042 206.52194 306.82568 208.53667 304.34042 208.53667C301.85513 208.53667 299.84042 206.52194 299.84042 204.03667C299.84042 201.55139 301.85513 199.53667 304.34042 199.53667C306.82568 199.53667 308.84042 201.55139 308.84042 204.03667Z" fill-rule="nonzero"/><path fill="#3366cc" clip-path="url(#id_0)" d="M321.30792 172.56555C321.30792 175.05084 319.2932 177.06555 316.80792 177.06555C314.32263 177.06555 312.30792 175.05084 312.30792 172.56555C312.30792 170.08028 314.32263 168.06555 316.80792 168.06555C319.2932 168.06555 321.30792 170.08028 321.30792 172.56555Z" fill-rule="nonzero"/><path fill="#3366cc" clip-path="url(#id_0)" d="M303.4972 219.77222C303.4972 222.2575 301.48248 224.27222 298.9972 224.27222C296.5119 224.27222 294.4972 222.2575 294.4972 219.77222C294.4972 217.28694 296.5119 215.27222 298.9972 215.27222C301.48248 215.27222 303.4972 217.28694 303.4972 219.77222Z" fill-rule="nonzero"/><path fill="#3366cc" clip-path="url(#id_0)" d="M324.8701 141.09445C324.8701 143.57973 322.85535 145.59445 320.3701 145.59445C317.8848 145.59445 315.8701 143.57973 315.8701 141.09445C315.8701 138.60916 317.8848 136.59445 320.3701 136.59445C322.85535 136.59445 324.8701 138.60916 324.8701 141.09445Z" fill-rule="nonzero"/><path fill="#3366cc" clip-path="url(#id_0)" d="M298.15396 235.50778C298.15396 237.99306 296.13925 240.00778 293.65396 240.00778C291.1687 240.00778 289.15396 237.99306 289.15396 235.50778C289.15396 233.02249 291.1687 231.00778 293.65396 231.00778C296.13925 231.00778 298.15396 233.02249 298.15396 235.50778Z" fill-rule="nonzero"/><path fill="#3366cc" clip-path="url(#id_0)" d="M310.6215 188.30112C310.6215 190.78639 308.60678 192.80112 306.1215 192.80112C303.6362 192.80112 301.6215 190.78639 301.6215 188.30112C301.6215 185.81583 303.6362 183.80112 306.1215 183.80112C308.60678 183.80112 310.6215 185.81583 310.6215 188.30112Z" fill-rule="nonzero"/><path fill="#3366cc" clip-path="url(#id_0)" d="M326.65115 125.35889C326.65115 127.84417 324.6364 129.85889 322.15115 129.85889C319.66586 129.85889 317.65115 127.84417 317.65115 125.35889C317.65115 122.873604 319.66586 120.85889 322.15115 120.85889C324.6364 120.85889 326.65115 122.873604 326.65115 125.35889Z" fill-rule="nonzero"/><path fill="#3366cc" clip-path="url(#id_0)" d="M242.9407 251.24333C242.9407 253.7286 240.926 255.74333 238.4407 255.74333C235.95543 255.74333 233.9407 253.7286 233.9407 251.24333C233.9407 248.75806 235.95543 246.74333 238.4407 246.74333C240.926 246.74333 242.9407 248.75806 242.9407 251.24333Z" fill-rule="nonzero"/><path fill="#424242" d="M213.76813 347.21564L210.19 347.21564L209.39313 349.45L208.23688 349.45L211.48688 340.91876L212.47125 340.91876L215.73688 349.45L214.58063 349.45L213.76813 347.21564ZM210.53375 346.29376L213.44 346.29376L211.98688 342.3094L210.53375 346.29376ZM216.6275 346.23126Q216.6275 344.7625 217.315 343.8875Q218.0025 342.9969 219.1275 342.9969Q220.23688 342.9969 220.89313 343.7469L220.89313 340.45L221.97125 340.45L221.97125 349.45L220.97125 349.45L220.92438 348.7625Q220.26813 349.575 219.11188 349.575Q218.01813 349.575 217.315 348.66876Q216.6275 347.7625 216.6275 346.3094L216.6275 346.23126ZM217.70563 346.35626Q217.70563 347.4344 218.14313 348.04376Q218.59625 348.65314 219.3775 348.65314Q220.40875 348.65314 220.89313 347.71564L220.89313 344.8094Q220.40875 343.91876 219.39313 343.91876Q218.59625 343.91876 218.14313 344.52814Q217.70563 345.1375 217.70563 346.35626ZM225.0025 343.10626L225.0025 350.1844Q225.0025 352.0125 223.34625 352.0125Q222.98688 352.0125 222.69 351.90314L222.69 351.04376Q222.8775 351.09064 223.17438 351.09064Q223.53375 351.09064 223.72125 350.8875Q223.92438 350.7 223.92438 350.2L223.92438 343.10626L225.0025 343.10626ZM223.815 341.4344Q223.815 341.16876 223.97125 340.98126Q224.1275 340.79376 224.44 340.79376Q224.7525 340.79376 224.90875 340.98126Q225.08063 341.16876 225.08063 341.4344Q225.08063 341.6844 224.90875 341.8719Q224.7525 342.04376 224.44 342.04376Q224.1275 342.04376 223.97125 341.8719Q223.815 341.6844 223.815 341.4344ZM234.76813 345.6844L231.17438 345.6844L231.17438 349.45L230.04938 349.45L230.04938 340.91876L235.34625 340.91876L235.34625 341.84064L231.17438 341.84064L231.17438 344.7625L234.76813 344.7625L234.76813 345.6844ZM242.95563 341.84064L240.20563 341.84064L240.20563 349.45L239.09625 349.45L239.09625 341.84064L236.34625 341.84064L236.34625 340.91876L242.95563 340.91876L242.95563 341.84064ZM243.67438 342.5594Q243.67438 341.79376 244.15875 341.29376Q244.65875 340.79376 245.42438 340.79376Q246.20563 340.79376 246.69 341.29376Q247.17438 341.79376 247.17438 342.59064L247.17438 343.0125Q247.17438 343.77814 246.67438 344.27814Q246.19 344.7625 245.44 344.7625Q244.67438 344.7625 244.17438 344.27814Q243.67438 343.77814 243.67438 342.96564L243.67438 342.5594ZM244.48688 343.0125Q244.48688 343.46564 244.73688 343.7625Q245.0025 344.0594 245.44 344.0594Q245.86188 344.0594 246.11188 343.77814Q246.36188 343.48126 246.36188 342.98126L246.36188 342.5594Q246.36188 342.10626 246.11188 341.8094Q245.86188 341.4969 245.42438 341.4969Q244.98688 341.4969 244.73688 341.8094Q244.48688 342.10626 244.48688 342.575L244.48688 343.0125ZM247.83063 347.35626Q247.83063 346.59064 248.315 346.10626Q248.815 345.60626 249.58063 345.60626Q250.34625 345.60626 250.83063 346.10626Q251.33063 346.59064 251.33063 347.40314L251.33063 347.8094Q251.33063 348.575 250.84625 349.075Q250.36188 349.575 249.59625 349.575Q248.83063 349.575 248.33063 349.09064Q247.83063 348.59064 247.83063 347.77814L247.83063 347.35626ZM248.64313 347.8094Q248.64313 348.27814 248.89313 348.575Q249.15875 348.8719 249.59625 348.8719Q250.01813 348.8719 250.26813 348.59064Q250.51813 348.29376 250.51813 347.79376L250.51813 347.35626Q250.51813 346.8875 250.2525 346.60626Q250.0025 346.3094 249.58063 346.3094Q249.15875 346.3094 248.89313 346.60626Q248.64313 346.8875 248.64313 347.3875L248.64313 347.8094ZM245.69 348.8094L245.065 348.41876L249.23688 341.7469L249.84625 342.1375L245.69 348.8094ZM261.95563 341.84064L259.20563 341.84064L259.20563 349.45L258.09625 349.45L258.09625 341.84064L255.34625 341.84064L255.34625 340.91876L261.95563 340.91876L261.95563 341.84064ZM262.59625 346.21564Q262.59625 345.29376 262.95563 344.54376Q263.33063 343.79376 263.98688 343.40314Q264.64313 342.9969 265.47125 342.9969Q266.76813 342.9969 267.565 343.8875Q268.3775 344.77814 268.3775 346.27814L268.3775 346.35626Q268.3775 347.27814 268.01813 348.0125Q267.65875 348.7469 267.0025 349.16876Q266.34625 349.575 265.48688 349.575Q264.20563 349.575 263.39313 348.6844Q262.59625 347.77814 262.59625 346.29376L262.59625 346.21564ZM263.69 346.35626Q263.69 347.40314 264.17438 348.04376Q264.67438 348.6844 265.48688 348.6844Q266.315 348.6844 266.79938 348.04376Q267.28375 347.3875 267.28375 346.21564Q267.28375 345.1844 266.78375 344.54376Q266.29938 343.8875 265.47125 343.8875Q264.67438 343.8875 264.17438 344.52814Q263.69 345.15314 263.69 346.35626ZM271.36188 341.575L271.36188 343.10626L272.53375 343.10626L272.53375 343.95L271.36188 343.95L271.36188 347.8719Q271.36188 348.2625 271.51813 348.45Q271.67438 348.6375 272.04938 348.6375Q272.23688 348.6375 272.565 348.575L272.565 349.45Q272.14313 349.575 271.73688 349.575Q271.01813 349.575 270.64313 349.1375Q270.26813 348.6844 270.26813 347.8719L270.26813 343.95L269.11188 343.95L269.11188 343.10626L270.26813 343.10626L270.26813 341.575L271.36188 341.575ZM277.79938 349.45Q277.70563 349.2625 277.64313 348.77814Q276.89313 349.575 275.84625 349.575Q274.90875 349.575 274.29938 349.04376Q273.70563 348.5125 273.70563 347.6844Q273.70563 346.7 274.45563 346.15314Q275.20563 345.60626 276.58063 345.60626L277.6275 345.60626L277.6275 345.10626Q277.6275 344.54376 277.28375 344.21564Q276.95563 343.8719 276.28375 343.8719Q275.70563 343.8719 275.315 344.16876Q274.92438 344.45 274.92438 344.8719L273.83063 344.8719Q273.83063 344.3875 274.15875 343.95Q274.5025 343.5125 275.08063 343.2625Q275.65875 342.9969 276.34625 342.9969Q277.45563 342.9969 278.065 343.54376Q278.69 344.09064 278.72125 345.04376L278.72125 347.96564Q278.72125 348.84064 278.94 349.35626L278.94 349.45L277.79938 349.45ZM276.0025 348.6219Q276.51813 348.6219 276.97125 348.35626Q277.42438 348.09064 277.6275 347.66876L277.6275 346.3719L276.78375 346.3719Q274.78375 346.3719 274.78375 347.54376Q274.78375 348.04376 275.1275 348.34064Q275.47125 348.6219 276.0025 348.6219ZM282.065 349.45L280.98688 349.45L280.98688 340.45L282.065 340.45L282.065 349.45Z" fill-rule="nonzero"/><path fill="#424242" d="M28.315638 222.48021L28.315638 226.05833L30.550013 226.85521L30.550013 228.01146L22.018763 224.76146L22.018763 223.77708L30.550013 220.51146L30.550013 221.66771L28.315638 222.48021ZM27.393763 225.71458L27.393763 222.80833L23.409388 224.26146L27.393763 225.71458ZM27.331263 219.62083Q25.862513 219.62083 24.987513 218.93333Q24.096888 218.24583 24.096888 217.12083Q24.096888 216.01146 24.846888 215.35521L21.550013 215.35521L21.550013 214.27708L30.550013 214.27708L30.550013 215.27708L29.862513 215.32396Q30.675013 215.98021 30.675013 217.13646Q30.675013 218.23021 29.768763 218.93333Q28.862513 219.62083 27.409388 219.62083L27.331263 219.62083ZM27.456263 218.54271Q28.534388 218.54271 29.143763 218.10521Q29.753138 217.65208 29.753138 216.87083Q29.753138 215.83958 28.815638 215.35521L25.909388 215.35521Q25.018763 215.83958 25.018763 216.85521Q25.018763 217.65208 25.628138 218.10521Q26.237513 218.54271 27.456263 218.54271ZM24.206263 211.24583L31.284388 211.24583Q33.11251 211.24583 33.11251 212.90208Q33.11251 213.26146 33.003136 213.55833L32.14376 213.55833Q32.190636 213.37083 32.190636 213.07396Q32.190636 212.71458 31.987513 212.52708Q31.800013 212.32396 31.300013 212.32396L24.206263 212.32396L24.206263 211.24583ZM22.534388 212.43333Q22.268763 212.43333 22.081263 212.27708Q21.893763 212.12083 21.893763 211.80833Q21.893763 211.49583 22.081263 211.33958Q22.268763 211.16771 22.534388 211.16771Q22.784388 211.16771 22.971888 211.33958Q23.143763 211.49583 23.143763 211.80833Q23.143763 212.12083 22.971888 212.27708Q22.784388 212.43333 22.534388 212.43333ZM26.784388 201.48021L26.784388 205.07396L30.550013 205.07396L30.550013 206.19896L22.018763 206.19896L22.018763 200.90208L22.940638 200.90208L22.940638 205.07396L25.862513 205.07396L25.862513 201.48021L26.784388 201.48021ZM22.940638 193.29271L22.940638 196.04271L30.550013 196.04271L30.550013 197.15208L22.940638 197.15208L22.940638 199.90208L22.018763 199.90208L22.018763 193.29271L22.940638 193.29271ZM23.659388 192.57396Q22.893763 192.57396 22.393763 192.08958Q21.893763 191.58958 21.893763 190.82396Q21.893763 190.04271 22.393763 189.55833Q22.893763 189.07396 23.690638 189.07396L24.112513 189.07396Q24.878138 189.07396 25.378138 189.57396Q25.862513 190.05833 25.862513 190.80833Q25.862513 191.57396 25.378138 192.07396Q24.878138 192.57396 24.065638 192.57396L23.659388 192.57396ZM24.112513 191.76146Q24.565638 191.76146 24.862513 191.51146Q25.159388 191.24583 25.159388 190.80833Q25.159388 190.38646 24.878138 190.13646Q24.581263 189.88646 24.081263 189.88646L23.659388 189.88646Q23.206263 189.88646 22.909388 190.13646Q22.596888 190.38646 22.596888 190.82396Q22.596888 191.26146 22.909388 191.51146Q23.206263 191.76146 23.675013 191.76146L24.112513 191.76146ZM28.456263 188.41771Q27.690638 188.41771 27.206263 187.93333Q26.706263 187.43333 26.706263 186.66771Q26.706263 185.90208 27.206263 185.41771Q27.690638 184.91771 28.503138 184.91771L28.909388 184.91771Q29.675013 184.91771 30.175013 185.40208Q30.675013 185.88646 30.675013 186.65208Q30.675013 187.41771 30.190638 187.91771Q29.690638 188.41771 28.878138 188.41771L28.456263 188.41771ZM28.909388 187.60521Q29.378138 187.60521 29.675013 187.35521Q29.971888 187.08958 29.971888 186.65208Q29.971888 186.23021 29.690638 185.98021Q29.393763 185.73021 28.893763 185.73021L28.456263 185.73021Q27.987513 185.73021 27.706263 185.99583Q27.409388 186.24583 27.409388 186.66771Q27.409388 187.08958 27.706263 187.35521Q27.987513 187.60521 28.487513 187.60521L28.909388 187.60521ZM29.909388 190.55833L29.518763 191.18333L22.846888 187.01146L23.237513 186.40208L29.909388 190.55833ZM27.206263 179.07396L30.550013 179.07396L30.550013 180.19896L22.018763 180.19896L22.018763 177.04271Q22.018763 175.65208 22.737513 174.85521Q23.440638 174.05833 24.628138 174.05833Q25.862513 174.05833 26.534388 174.83958Q27.206263 175.60521 27.206263 177.05833L27.206263 179.07396ZM26.284388 179.07396L26.284388 177.04271Q26.284388 176.13646 25.862513 175.66771Q25.440638 175.18333 24.643763 175.18333Q23.878138 175.18333 23.425013 175.66771Q22.956263 176.13646 22.940638 176.98021L22.940638 179.07396L26.284388 179.07396ZM27.315638 172.65208Q26.393763 172.65208 25.643763 172.29271Q24.893763 171.91771 24.503138 171.26146Q24.096888 170.60521 24.096888 169.77708Q24.096888 168.48021 24.987513 167.68333Q25.878138 166.87083 27.378138 166.87083L27.456263 166.87083Q28.378138 166.87083 29.112513 167.23021Q29.846888 167.58958 30.268763 168.24583Q30.675013 168.90208 30.675013 169.76146Q30.675013 171.04271 29.784388 171.85521Q28.878138 172.65208 27.393763 172.65208L27.315638 172.65208ZM27.456263 171.55833Q28.503138 171.55833 29.143763 171.07396Q29.784388 170.57396 29.784388 169.76146Q29.784388 168.93333 29.143763 168.44896Q28.487513 167.96458 27.315638 167.96458Q26.284388 167.96458 25.643763 168.46458Q24.987513 168.94896 24.987513 169.77708Q24.987513 170.57396 25.628138 171.07396Q26.253138 171.55833 27.456263 171.55833ZM30.550013 164.18333L30.550013 165.26146L24.206263 165.26146L24.206263 164.18333L30.550013 164.18333ZM22.534388 165.35521Q22.268763 165.35521 22.081263 165.19896Q21.893763 165.02708 21.893763 164.71458Q21.893763 164.40208 22.081263 164.24583Q22.268763 164.07396 22.534388 164.07396Q22.784388 164.07396 22.971888 164.24583Q23.143763 164.40208 23.143763 164.71458Q23.143763 165.02708 22.971888 165.19896Q22.784388 165.35521 22.534388 165.35521ZM24.206263 161.33958L25.003138 161.30833Q24.096888 160.57396 24.096888 159.40208Q24.096888 157.38646 26.362513 157.37083L30.550013 157.37083L30.550013 158.46458L26.346888 158.46458Q25.675013 158.46458 25.346888 158.77708Q25.018763 159.07396 25.018763 159.73021Q25.018763 160.26146 25.300013 160.66771Q25.581263 161.05833 26.034388 161.27708L30.550013 161.27708L30.550013 162.35521L24.206263 162.35521L24.206263 161.33958ZM22.675013 153.88646L24.206263 153.88646L24.206263 152.71458L25.050013 152.71458L25.050013 153.88646L28.971888 153.88646Q29.362513 153.88646 29.550013 153.73021Q29.737513 153.57396 29.737513 153.19896Q29.737513 153.01146 29.675013 152.68333L30.550013 152.68333Q30.675013 153.10521 30.675013 153.51146Q30.675013 154.23021 30.237513 154.60521Q29.784388 154.98021 28.971888 154.98021L25.050013 154.98021L25.050013 156.13646L24.206263 156.13646L24.206263 154.98021L22.675013 154.98021L22.675013 153.88646ZM28.862513 147.66771Q28.425013 147.66771 28.190638 148.01146Q27.940638 148.33958 27.768763 149.16771Q27.596888 149.98021 27.346888 150.46458Q27.096888 150.94896 26.768763 151.18333Q26.425013 151.40208 25.956263 151.40208Q25.175013 151.40208 24.643763 150.74583Q24.096888 150.08958 24.096888 149.05833Q24.096888 147.98021 24.659388 147.32396Q25.206263 146.65208 26.065638 146.65208L26.065638 147.73021Q25.628138 147.73021 25.315638 148.12083Q24.987513 148.49583 24.987513 149.05833Q24.987513 149.65208 25.253138 149.99583Q25.503138 150.32396 25.909388 150.32396Q26.300013 150.32396 26.503138 150.01146Q26.706263 149.69896 26.893763 148.88646Q27.065638 148.07396 27.315638 147.57396Q27.565638 147.07396 27.925013 146.83958Q28.284388 146.58958 28.784388 146.58958Q29.643763 146.58958 30.159388 147.27708Q30.675013 147.94896 30.675013 149.02708Q30.675013 149.79271 30.409388 150.38646Q30.128138 150.96458 29.643763 151.29271Q29.159388 151.62083 28.596888 151.62083L28.596888 150.54271Q29.143763 150.51146 29.471888 150.10521Q29.784388 149.69896 29.784388 149.02708Q29.784388 148.41771 29.534388 148.04271Q29.284388 147.66771 28.862513 147.66771Z" fill-rule="nonzero"/><path fill="#757575" d="M71.6125 299.3094Q71.6125 301.21564 70.95625 302.15314Q70.31563 303.075 68.925 303.075Q67.56563 303.075 66.90938 302.16876Q66.25313 301.2625 66.22188 299.45L66.22188 298.0125Q66.22188 296.1219 66.8625 295.21564Q67.51875 294.29376 68.90938 294.29376Q70.28438 294.29376 70.94063 295.1844Q71.59688 296.0594 71.6125 297.90314L71.6125 299.3094ZM70.51875 297.825Q70.51875 296.45 70.12813 295.825Q69.75313 295.1844 68.90938 295.1844Q68.08125 295.1844 67.69063 295.825Q67.31563 296.45 67.31563 297.7469L67.31563 299.48126Q67.31563 300.85626 67.70625 301.52814Q68.1125 302.1844 68.925 302.1844Q69.72188 302.1844 70.1125 301.5594Q70.50313 300.9344 70.51875 299.60626L70.51875 297.825Z" fill-rule="nonzero"/><path fill="#757575" d="M61.6125 220.63159Q61.6125 222.53784 60.95625 223.47534Q60.315624 224.39722 58.925 224.39722Q57.565624 224.39722 56.909374 223.49097Q56.253124 222.58472 56.221874 220.77222L56.221874 219.33472Q56.221874 217.44409 56.8625 216.53784Q57.51875 215.61597 58.909374 215.61597Q60.284374 215.61597 60.940624 216.50659Q61.596874 217.38159 61.6125 219.22534L61.6125 220.63159ZM60.51875 219.14722Q60.51875 217.77222 60.128124 217.14722Q59.753124 216.50659 58.909374 216.50659Q58.08125 216.50659 57.690624 217.14722Q57.315624 217.77222 57.315624 219.06909L57.315624 220.80347Q57.315624 222.17847 57.70625 222.85034Q58.1125 223.50659 58.925 223.50659Q59.721874 223.50659 60.1125 222.88159Q60.503124 222.25659 60.51875 220.92847L60.51875 219.14722ZM63.39375 223.70972Q63.39375 223.42847 63.55 223.24097Q63.721874 223.05347 64.05 223.05347Q64.39375 223.05347 64.56563 223.24097Q64.7375 223.42847 64.7375 223.70972Q64.7375 223.97534 64.56563 224.16284Q64.39375 224.33472 64.05 224.33472Q63.721874 224.33472 63.55 224.16284Q63.39375 223.97534 63.39375 223.70972ZM66.75313 219.99097L67.19063 215.74097L71.56563 215.74097L71.56563 216.74097L68.1125 216.74097L67.84688 219.06909Q68.4875 218.69409 69.28438 218.69409Q70.44063 218.69409 71.12813 219.47534Q71.81563 220.24097 71.81563 221.55347Q71.81563 222.86597 71.09688 223.63159Q70.39375 224.39722 69.1125 224.39722Q67.9875 224.39722 67.26875 223.77222Q66.55 223.13159 66.45625 222.02222L67.47188 222.02222Q67.58125 222.75659 68.00313 223.13159Q68.425 223.50659 69.1125 223.50659Q69.8625 223.50659 70.3 222.99097Q70.7375 222.47534 70.7375 221.56909Q70.7375 220.70972 70.26875 220.19409Q69.8 219.67847 69.01875 219.67847Q68.31563 219.67847 67.90938 219.97534L67.62813 220.20972L66.75313 219.99097Z" fill-rule="nonzero"/><path fill="#757575" d="M69.81563 145.59445L68.7375 145.59445L68.7375 138.3757L66.55 139.17258L66.55 138.1882L69.65938 137.01633L69.81563 137.01633L69.81563 145.59445Z" fill-rule="nonzero"/><path fill="#757575" d="M59.815624 66.916664L58.7375 66.916664L58.7375 59.697914L56.55 60.49479L56.55 59.510414L59.659374 58.33854L59.815624 58.33854L59.815624 66.916664ZM63.39375 66.354164Q63.39375 66.072914 63.55 65.885414Q63.721874 65.697914 64.05 65.697914Q64.39375 65.697914 64.56563 65.885414Q64.7375 66.072914 64.7375 66.354164Q64.7375 66.61979 64.56563 66.80729Q64.39375 66.979164 64.05 66.979164Q63.721874 66.979164 63.55 66.80729Q63.39375 66.61979 63.39375 66.354164ZM66.75313 62.635414L67.19063 58.385414L71.56563 58.385414L71.56563 59.385414L68.1125 59.385414L67.84688 61.71354Q68.4875 61.33854 69.28438 61.33854Q70.44063 61.33854 71.12813 62.11979Q71.81563 62.885414 71.81563 64.197914Q71.81563 65.510414 71.09688 66.27604Q70.39375 67.041664 69.1125 67.041664Q67.9875 67.041664 67.26875 66.416664Q66.55 65.77604 66.45625 64.666664L67.47188 64.666664Q67.58125 65.40104 68.00313 65.77604Q68.425 66.15104 69.1125 66.15104Q69.8625 66.15104 70.3 65.635414Q70.7375 65.11979 70.7375 64.21354Q70.7375 63.354164 70.26875 62.83854Q69.8 62.322914 69.01875 62.322914Q68.31563 62.322914 67.90938 62.61979L67.62813 62.854164L66.75313 62.635414Z" fill-rule="nonzero"/><path fill="#757575" d="M81.11199 312.8094Q81.11199 314.71564 80.45574 315.65314Q79.81512 316.575 78.42449 316.575Q77.06512 316.575 76.40887 315.66876Q75.75262 314.7625 75.72137 312.95L75.72137 311.5125Q75.72137 309.6219 76.36199 308.71564Q77.01824 307.79376 78.40887 307.79376Q79.78387 307.79376 80.44012 308.6844Q81.09637 309.5594 81.11199 311.40314L81.11199 312.8094ZM80.01824 311.325Q80.01824 309.95 79.62762 309.325Q79.25262 308.6844 78.40887 308.6844Q77.58074 308.6844 77.19012 309.325Q76.81512 309.95 76.81512 311.2469L76.81512 312.98126Q76.81512 314.35626 77.20574 315.02814Q77.61199 315.6844 78.42449 315.6844Q79.22137 315.6844 79.61199 315.0594Q80.00262 314.4344 80.01824 313.10626L80.01824 311.325ZM82.89324 315.8875Q82.89324 315.60626 83.04949 315.41876Q83.22137 315.23126 83.54949 315.23126Q83.89324 315.23126 84.06512 315.41876Q84.23699 315.60626 84.23699 315.8875Q84.23699 316.15314 84.06512 316.34064Q83.89324 316.5125 83.54949 316.5125Q83.22137 316.5125 83.04949 316.34064Q82.89324 316.15314 82.89324 315.8875ZM90.01824 307.91876L90.01824 308.825L89.81512 308.825Q88.54949 308.85626 87.79949 309.59064Q87.04949 310.3094 86.92449 311.6219Q87.61199 310.85626 88.76824 310.85626Q89.87762 310.85626 90.54949 311.6375Q91.22137 312.41876 91.22137 313.66876Q91.22137 314.98126 90.50262 315.77814Q89.78387 316.575 88.56512 316.575Q87.34637 316.575 86.58074 315.6375Q85.83074 314.6844 85.83074 313.2L85.83074 312.79376Q85.83074 310.4344 86.83074 309.1844Q87.83074 307.9344 89.81512 307.91876L90.01824 307.91876ZM88.59637 311.7625Q88.03387 311.7625 87.56512 312.09064Q87.09637 312.41876 86.90887 312.9344L86.90887 313.325Q86.90887 314.3875 87.37762 315.02814Q87.86199 315.66876 88.56512 315.66876Q89.29949 315.66876 89.72137 315.1375Q90.14324 314.59064 90.14324 313.71564Q90.14324 312.84064 89.72137 312.3094Q89.29949 311.7625 88.59637 311.7625ZM93.25262 312.16876L93.69012 307.91876L98.06512 307.91876L98.06512 308.91876L94.61199 308.91876L94.34637 311.2469Q94.98699 310.8719 95.78387 310.8719Q96.94012 310.8719 97.62762 311.65314Q98.31512 312.41876 98.31512 313.73126Q98.31512 315.04376 97.59637 315.8094Q96.89324 316.575 95.61199 316.575Q94.48699 316.575 93.76824 315.95Q93.04949 315.3094 92.95574 314.2L93.97137 314.2Q94.08074 314.9344 94.50262 315.3094Q94.92449 315.6844 95.61199 315.6844Q96.36199 315.6844 96.79949 315.16876Q97.23699 314.65314 97.23699 313.7469Q97.23699 312.8875 96.76824 312.3719Q96.29949 311.85626 95.51824 311.85626Q94.81512 311.85626 94.40887 312.15314L94.12762 312.3875L93.25262 312.16876Z" fill-rule="nonzero"/><path fill="#757575" d="M173.66565 312.8094Q173.66565 314.71564 173.0094 315.65314Q172.36877 316.575 170.97815 316.575Q169.61877 316.575 168.96252 315.66876Q168.30627 314.7625 168.27502 312.95L168.27502 311.5125Q168.27502 309.6219 168.91565 308.71564Q169.5719 307.79376 170.96252 307.79376Q172.33752 307.79376 172.99377 308.6844Q173.65002 309.5594 173.66565 311.40314L173.66565 312.8094ZM172.5719 311.325Q172.5719 309.95 172.18127 309.325Q171.80627 308.6844 170.96252 308.6844Q170.1344 308.6844 169.74377 309.325Q169.36877 309.95 169.36877 311.2469L169.36877 312.98126Q169.36877 314.35626 169.7594 315.02814Q170.16565 315.6844 170.97815 315.6844Q171.77502 315.6844 172.16565 315.0594Q172.55627 314.4344 172.5719 313.10626L172.5719 311.325ZM175.4469 315.8875Q175.4469 315.60626 175.60315 315.41876Q175.77502 315.23126 176.10315 315.23126Q176.4469 315.23126 176.61877 315.41876Q176.79065 315.60626 176.79065 315.8875Q176.79065 316.15314 176.61877 316.34064Q176.4469 316.5125 176.10315 316.5125Q175.77502 316.5125 175.60315 316.34064Q175.4469 316.15314 175.4469 315.8875ZM183.8219 308.52814L180.29065 316.45L179.15002 316.45L182.66565 308.8094L178.05627 308.8094L178.05627 307.91876L183.8219 307.91876L183.8219 308.52814Z" fill-rule="nonzero"/><path fill="#757575" d="M259.2193 312.8094Q259.2193 314.71564 258.56305 315.65314Q257.92242 316.575 256.5318 316.575Q255.17242 316.575 254.51617 315.66876Q253.85992 314.7625 253.82867 312.95L253.82867 311.5125Q253.82867 309.6219 254.4693 308.71564Q255.12555 307.79376 256.51617 307.79376Q257.89117 307.79376 258.54742 308.6844Q259.20367 309.5594 259.2193 311.40314L259.2193 312.8094ZM258.12555 311.325Q258.12555 309.95 257.73492 309.325Q257.35992 308.6844 256.51617 308.6844Q255.68805 308.6844 255.29742 309.325Q254.92242 309.95 254.92242 311.2469L254.92242 312.98126Q254.92242 314.35626 255.31305 315.02814Q255.7193 315.6844 256.5318 315.6844Q257.32867 315.6844 257.7193 315.0594Q258.10992 314.4344 258.12555 313.10626L258.12555 311.325ZM261.00055 315.8875Q261.00055 315.60626 261.1568 315.41876Q261.32867 315.23126 261.6568 315.23126Q262.00055 315.23126 262.17242 315.41876Q262.3443 315.60626 262.3443 315.8875Q262.3443 316.15314 262.17242 316.34064Q262.00055 316.5125 261.6568 316.5125Q261.32867 316.5125 261.1568 316.34064Q261.00055 316.15314 261.00055 315.8875ZM269.37555 308.52814L265.8443 316.45L264.70367 316.45L268.2193 308.8094L263.60992 308.8094L263.60992 307.91876L269.37555 307.91876L269.37555 308.52814ZM271.35992 312.16876L271.79742 307.91876L276.17242 307.91876L276.17242 308.91876L272.7193 308.91876L272.45367 311.2469Q273.0943 310.8719 273.89117 310.8719Q275.04742 310.8719 275.73492 311.65314Q276.42242 312.41876 276.42242 313.73126Q276.42242 315.04376 275.70367 315.8094Q275.00055 316.575 273.7193 316.575Q272.5943 316.575 271.87555 315.95Q271.1568 315.3094 271.06305 314.2L272.07867 314.2Q272.18805 314.9344 272.60992 315.3094Q273.0318 315.6844 273.7193 315.6844Q274.4693 315.6844 274.9068 315.16876Q275.3443 314.65314 275.3443 313.7469Q275.3443 312.8875 274.87555 312.3719Q274.4068 311.85626 273.62555 311.85626Q272.92242 311.85626 272.51617 312.15314L272.23492 312.3875L271.35992 312.16876Z" fill-rule="nonzero"/><path fill="#757575" d="M351.77295 312.8094Q351.77295 314.71564 351.1167 315.65314Q350.47607 316.575 349.08545 316.575Q347.72607 316.575 347.06982 315.66876Q346.41357 314.7625 346.38232 312.95L346.38232 311.5125Q346.38232 309.6219 347.02295 308.71564Q347.6792 307.79376 349.06982 307.79376Q350.44482 307.79376 351.10107 308.6844Q351.75732 309.5594 351.77295 311.40314L351.77295 312.8094ZM350.6792 311.325Q350.6792 309.95 350.28857 309.325Q349.91357 308.6844 349.06982 308.6844Q348.2417 308.6844 347.85107 309.325Q347.47607 309.95 347.47607 311.2469L347.47607 312.98126Q347.47607 314.35626 347.8667 315.02814Q348.27295 315.6844 349.08545 315.6844Q349.88232 315.6844 350.27295 315.0594Q350.66357 314.4344 350.6792 313.10626L350.6792 311.325ZM353.5542 315.8875Q353.5542 315.60626 353.71045 315.41876Q353.88232 315.23126 354.21045 315.23126Q354.5542 315.23126 354.72607 315.41876Q354.89795 315.60626 354.89795 315.8875Q354.89795 316.15314 354.72607 316.34064Q354.5542 316.5125 354.21045 316.5125Q353.88232 316.5125 353.71045 316.34064Q353.5542 316.15314 353.5542 315.8875ZM361.60107 310.1375Q361.60107 310.77814 361.25732 311.27814Q360.91357 311.77814 360.35107 312.0594Q361.00732 312.34064 361.39795 312.90314Q361.78857 313.45 361.78857 314.15314Q361.78857 315.2469 361.03857 315.91876Q360.3042 316.575 359.08545 316.575Q357.85107 316.575 357.10107 315.91876Q356.3667 315.2469 356.3667 314.15314Q356.3667 313.45 356.7417 312.90314Q357.1167 312.34064 357.78857 312.0594Q357.22607 311.77814 356.89795 311.27814Q356.56982 310.77814 356.56982 310.1375Q356.56982 309.0594 357.25732 308.4344Q357.94482 307.79376 359.08545 307.79376Q360.21045 307.79376 360.89795 308.4344Q361.60107 309.0594 361.60107 310.1375ZM360.71045 314.1219Q360.71045 313.40314 360.25732 312.96564Q359.8042 312.5125 359.06982 312.5125Q358.33545 312.5125 357.88232 312.96564Q357.44482 313.40314 357.44482 314.1375Q357.44482 314.85626 357.88232 315.27814Q358.31982 315.6844 359.08545 315.6844Q359.83545 315.6844 360.27295 315.2625Q360.71045 314.84064 360.71045 314.1219ZM359.08545 308.6844Q358.44482 308.6844 358.03857 309.09064Q357.64795 309.48126 357.64795 310.16876Q357.64795 310.8094 358.03857 311.21564Q358.4292 311.6219 359.06982 311.6219Q359.72607 311.6219 360.1167 311.21564Q360.50732 310.8094 360.50732 310.16876Q360.50732 309.5125 360.10107 309.10626Q359.69482 308.6844 359.08545 308.6844Z" fill-rule="nonzero"/><path fill="#3366cc" d="M444.41556 62.416668C444.41556 65.73038 441.72928 68.416664 438.41556 68.416664C435.10184 68.416664 432.41556 65.73038 432.41556 62.416668C432.41556 59.10296 435.10184 56.416668 438.41556 56.416668C441.72928 56.416668 444.41556 59.10296 444.41556 62.416668Z" fill-rule="nonzero"/><path fill="#757575" d="M458.11868 64.68229L454.54056 64.68229L453.74368 66.916664L452.58743 66.916664L455.83743 58.385414L456.8218 58.385414L460.08743 66.916664L458.93118 66.916664L458.11868 64.68229ZM454.8843 63.760414L457.79056 63.760414L456.33743 59.77604L454.8843 63.760414ZM460.97806 63.697914Q460.97806 62.229164 461.66556 61.354164Q462.35306 60.46354 463.47806 60.46354Q464.58743 60.46354 465.24368 61.21354L465.24368 57.916664L466.3218 57.916664L466.3218 66.916664L465.3218 66.916664L465.27493 66.229164Q464.61868 67.041664 463.46243 67.041664Q462.36868 67.041664 461.66556 66.135414Q460.97806 65.229164 460.97806 63.77604L460.97806 63.697914ZM462.05618 63.822914Q462.05618 64.90104 462.49368 65.510414Q462.9468 66.11979 463.72806 66.11979Q464.7593 66.11979 465.24368 65.18229L465.24368 62.27604Q464.7593 61.385414 463.74368 61.385414Q462.9468 61.385414 462.49368 61.99479Q462.05618 62.604164 462.05618 63.822914ZM469.35306 60.572914L469.35306 67.65104Q469.35306 69.479164 467.6968 69.479164Q467.33743 69.479164 467.04056 69.36979L467.04056 68.510414Q467.22806 68.55729 467.52493 68.55729Q467.8843 68.55729 468.0718 68.354164Q468.27493 68.166664 468.27493 67.666664L468.27493 60.572914L469.35306 60.572914ZM468.16556 58.90104Q468.16556 58.635414 468.3218 58.447914Q468.47806 58.260414 468.79056 58.260414Q469.10306 58.260414 469.2593 58.447914Q469.43118 58.635414 469.43118 58.90104Q469.43118 59.15104 469.2593 59.33854Q469.10306 59.510414 468.79056 59.510414Q468.47806 59.510414 468.3218 59.33854Q468.16556 59.15104 468.16556 58.90104ZM479.11868 63.15104L475.52493 63.15104L475.52493 66.916664L474.39993 66.916664L474.39993 58.385414L479.6968 58.385414L479.6968 59.30729L475.52493 59.30729L475.52493 62.229164L479.11868 62.229164L479.11868 63.15104ZM487.30618 59.30729L484.55618 59.30729L484.55618 66.916664L483.4468 66.916664L483.4468 59.30729L480.6968 59.30729L480.6968 58.385414L487.30618 58.385414L487.30618 59.30729ZM488.02493 60.02604Q488.02493 59.260414 488.5093 58.760414Q489.0093 58.260414 489.77493 58.260414Q490.55618 58.260414 491.04056 58.760414Q491.52493 59.260414 491.52493 60.05729L491.52493 60.479164Q491.52493 61.24479 491.02493 61.74479Q490.54056 62.229164 489.79056 62.229164Q489.02493 62.229164 488.52493 61.74479Q488.02493 61.24479 488.02493 60.43229L488.02493 60.02604ZM488.83743 60.479164Q488.83743 60.93229 489.08743 61.229164Q489.35306 61.52604 489.79056 61.52604Q490.21243 61.52604 490.46243 61.24479Q490.71243 60.947914 490.71243 60.447914L490.71243 60.02604Q490.71243 59.572914 490.46243 59.27604Q490.21243 58.96354 489.77493 58.96354Q489.33743 58.96354 489.08743 59.27604Q488.83743 59.572914 488.83743 60.041664L488.83743 60.479164ZM492.18118 64.822914Q492.18118 64.05729 492.66556 63.572914Q493.16556 63.072914 493.93118 63.072914Q494.6968 63.072914 495.18118 63.572914Q495.68118 64.05729 495.68118 64.86979L495.68118 65.27604Q495.68118 66.041664 495.1968 66.541664Q494.71243 67.041664 493.9468 67.041664Q493.18118 67.041664 492.68118 66.55729Q492.18118 66.05729 492.18118 65.24479L492.18118 64.822914ZM492.99368 65.27604Q492.99368 65.74479 493.24368 66.041664Q493.5093 66.33854 493.9468 66.33854Q494.36868 66.33854 494.61868 66.05729Q494.86868 65.760414 494.86868 65.260414L494.86868 64.822914Q494.86868 64.354164 494.60306 64.072914Q494.35306 63.77604 493.93118 63.77604Q493.5093 63.77604 493.24368 64.072914Q492.99368 64.354164 492.99368 64.854164L492.99368 65.27604ZM490.04056 66.27604L489.41556 65.885414L493.58743 59.21354L494.1968 59.604164L490.04056 66.27604ZM501.52493 63.572914L501.52493 66.916664L500.39993 66.916664L500.39993 58.385414L503.55618 58.385414Q504.9468 58.385414 505.74368 59.104164Q506.54056 59.80729 506.54056 60.99479Q506.54056 62.229164 505.7593 62.90104Q504.99368 63.572914 503.54056 63.572914L501.52493 63.572914ZM501.52493 62.65104L503.55618 62.65104Q504.46243 62.65104 504.93118 62.229164Q505.41556 61.80729 505.41556 61.010414Q505.41556 60.24479 504.93118 59.791664Q504.46243 59.322914 503.61868 59.30729L501.52493 59.30729L501.52493 62.65104ZM507.9468 63.68229Q507.9468 62.760414 508.30618 62.010414Q508.68118 61.260414 509.33743 60.86979Q509.99368 60.46354 510.8218 60.46354Q512.11865 60.46354 512.9155 61.354164Q513.728 62.24479 513.728 63.74479L513.728 63.822914Q513.728 64.74479 513.36865 65.479164Q513.0093 66.21354 512.353 66.635414Q511.6968 67.041664 510.83743 67.041664Q509.55618 67.041664 508.74368 66.15104Q507.9468 65.24479 507.9468 63.760414L507.9468 63.68229ZM509.04056 63.822914Q509.04056 64.86979 509.52493 65.510414Q510.02493 66.15104 510.83743 66.15104Q511.66556 66.15104 512.1499 65.510414Q512.6343 64.854164 512.6343 63.68229Q512.6343 62.65104 512.1343 62.010414Q511.64993 61.354164 510.8218 61.354164Q510.02493 61.354164 509.52493 61.99479Q509.04056 62.61979 509.04056 63.822914ZM516.4155 66.916664L515.3374 66.916664L515.3374 60.572914L516.4155 60.572914L516.4155 66.916664ZM515.24365 58.90104Q515.24365 58.635414 515.3999 58.447914Q515.5718 58.260414 515.8843 58.260414Q516.1968 58.260414 516.353 58.447914Q516.5249 58.635414 516.5249 58.90104Q516.5249 59.15104 516.353 59.33854Q516.1968 59.510414 515.8843 59.510414Q515.5718 59.510414 515.3999 59.33854Q515.24365 59.15104 515.24365 58.90104ZM519.2593 60.572914L519.2905 61.36979Q520.0249 60.46354 521.1968 60.46354Q523.2124 60.46354 523.228 62.729164L523.228 66.916664L522.1343 66.916664L522.1343 62.71354Q522.1343 62.041664 521.8218 61.71354Q521.5249 61.385414 520.86865 61.385414Q520.3374 61.385414 519.93115 61.666664Q519.5405 61.947914 519.3218 62.40104L519.3218 66.916664L518.24365 66.916664L518.24365 60.572914L519.2593 60.572914ZM526.7124 59.041664L526.7124 60.572914L527.8843 60.572914L527.8843 61.416664L526.7124 61.416664L526.7124 65.33854Q526.7124 65.729164 526.86865 65.916664Q527.0249 66.104164 527.3999 66.104164Q527.5874 66.104164 527.9155 66.041664L527.9155 66.916664Q527.49365 67.041664 527.0874 67.041664Q526.36865 67.041664 525.99365 66.604164Q525.61865 66.15104 525.61865 65.33854L525.61865 61.416664L524.4624 61.416664L524.4624 60.572914L525.61865 60.572914L525.61865 59.041664L526.7124 59.041664ZM532.93115 65.229164Q532.93115 64.791664 532.5874 64.55729Q532.2593 64.30729 531.43115 64.135414Q530.61865 63.96354 530.1343 63.71354Q529.6499 63.46354 529.4155 63.135414Q529.1968 62.791664 529.1968 62.322914Q529.1968 61.541664 529.853 61.010414Q530.5093 60.46354 531.5405 60.46354Q532.61865 60.46354 533.2749 61.02604Q533.9468 61.572914 533.9468 62.43229L532.86865 62.43229Q532.86865 61.99479 532.478 61.68229Q532.103 61.354164 531.5405 61.354164Q530.9468 61.354164 530.603 61.61979Q530.2749 61.86979 530.2749 62.27604Q530.2749 62.666664 530.5874 62.86979Q530.8999 63.072914 531.7124 63.260414Q532.5249 63.43229 533.0249 63.68229Q533.5249 63.93229 533.7593 64.291664Q534.0093 64.65104 534.0093 65.15104Q534.0093 66.010414 533.3218 66.52604Q532.6499 67.041664 531.5718 67.041664Q530.80615 67.041664 530.2124 66.77604Q529.6343 66.49479 529.30615 66.010414Q528.978 65.52604 528.978 64.96354L530.05615 64.96354Q530.0874 65.510414 530.49365 65.83854Q530.8999 66.15104 531.5718 66.15104Q532.18115 66.15104 532.55615 65.90104Q532.93115 65.65104 532.93115 65.229164Z" fill-rule="nonzero"/><path stroke="#3366cc" stroke-width="4.0" stroke-linecap="butt" stroke-opacity="0.4" d="M432.41556 87.416664L444.41556 87.416664" fill-rule="nonzero"/><path fill="#757575" d="M454.6968 87.11979L455.5093 87.11979Q456.29056 87.104164 456.72806 86.71354Q457.16556 86.322914 457.16556 85.65104Q457.16556 84.15104 455.66556 84.15104Q454.96243 84.15104 454.54056 84.55729Q454.1343 84.96354 454.1343 85.61979L453.04056 85.61979Q453.04056 84.604164 453.77493 83.93229Q454.52493 83.260414 455.66556 83.260414Q456.86868 83.260414 457.55618 83.90104Q458.24368 84.541664 458.24368 85.68229Q458.24368 86.24479 457.8843 86.760414Q457.52493 87.27604 456.89993 87.541664Q457.60306 87.760414 457.97806 88.27604Q458.36868 88.791664 458.36868 89.541664Q458.36868 90.68229 457.61868 91.36979Q456.86868 92.041664 455.66556 92.041664Q454.47806 92.041664 453.71243 91.385414Q452.96243 90.729164 452.96243 89.666664L454.05618 89.666664Q454.05618 90.33854 454.49368 90.74479Q454.93118 91.15104 455.68118 91.15104Q456.46243 91.15104 456.86868 90.74479Q457.29056 90.322914 457.29056 89.55729Q457.29056 88.822914 456.83743 88.43229Q456.3843 88.02604 455.5093 88.010414L454.6968 88.010414L454.6968 87.11979ZM465.71243 91.916664L460.11868 91.916664L460.11868 91.135414L463.0718 87.854164Q463.72806 87.104164 463.97806 86.65104Q464.22806 86.18229 464.22806 85.68229Q464.22806 85.010414 463.8218 84.58854Q463.43118 84.15104 462.74368 84.15104Q461.9468 84.15104 461.49368 84.61979Q461.04056 85.072914 461.04056 85.90104L459.96243 85.90104Q459.96243 84.71354 460.71243 83.99479Q461.47806 83.260414 462.74368 83.260414Q463.9468 83.260414 464.6343 83.885414Q465.3218 84.510414 465.3218 85.55729Q465.3218 86.80729 463.71243 88.55729L461.43118 91.02604L465.71243 91.02604L465.71243 91.916664ZM467.2593 91.354164Q467.2593 91.072914 467.41556 90.885414Q467.58743 90.697914 467.91556 90.697914Q468.2593 90.697914 468.43118 90.885414Q468.60306 91.072914 468.60306 91.354164Q468.60306 91.61979 468.43118 91.80729Q468.2593 91.979164 467.91556 91.979164Q467.58743 91.979164 467.41556 91.80729Q467.2593 91.61979 467.2593 91.354164ZM471.6968 87.11979L472.5093 87.11979Q473.29056 87.104164 473.72806 86.71354Q474.16556 86.322914 474.16556 85.65104Q474.16556 84.15104 472.66556 84.15104Q471.96243 84.15104 471.54056 84.55729Q471.1343 84.96354 471.1343 85.61979L470.04056 85.61979Q470.04056 84.604164 470.77493 83.93229Q471.52493 83.260414 472.66556 83.260414Q473.86868 83.260414 474.55618 83.90104Q475.24368 84.541664 475.24368 85.68229Q475.24368 86.24479 474.8843 86.760414Q474.52493 87.27604 473.89993 87.541664Q474.60306 87.760414 474.97806 88.27604Q475.36868 88.791664 475.36868 89.541664Q475.36868 90.68229 474.61868 91.36979Q473.86868 92.041664 472.66556 92.041664Q471.47806 92.041664 470.71243 91.385414Q469.96243 90.729164 469.96243 89.666664L471.05618 89.666664Q471.05618 90.33854 471.49368 90.74479Q471.93118 91.15104 472.68118 91.15104Q473.46243 91.15104 473.86868 90.74479Q474.29056 90.322914 474.29056 89.55729Q474.29056 88.822914 473.83743 88.43229Q473.3843 88.02604 472.5093 88.010414L471.6968 88.010414L471.6968 87.11979ZM483.33743 87.33854L485.72806 87.33854L485.72806 88.36979L483.33743 88.36979L483.33743 91.05729L482.2593 91.05729L482.2593 88.36979L479.86868 88.36979L479.86868 87.33854L482.2593 87.33854L482.2593 84.854164L483.33743 84.854164L483.33743 87.33854ZM492.49368 88.729164L489.6343 88.729164L489.6343 87.854164L492.49368 87.854164L492.49368 88.729164ZM497.27493 88.166664Q496.9468 88.572914 496.46243 88.822914Q495.99368 89.05729 495.43118 89.05729Q494.6968 89.05729 494.14993 88.697914Q493.60306 88.33854 493.30618 87.68229Q493.0093 87.010414 493.0093 86.21354Q493.0093 85.36979 493.3218 84.68229Q493.64993 83.99479 494.24368 83.635414Q494.85306 83.260414 495.64993 83.260414Q496.91556 83.260414 497.6343 84.21354Q498.36868 85.166664 498.36868 86.791664L498.36868 87.104164Q498.36868 89.604164 497.3843 90.74479Q496.39993 91.885414 494.41556 91.916664L494.1968 91.916664L494.1968 91.010414L494.43118 91.010414Q495.77493 90.979164 496.49368 90.30729Q497.21243 89.635414 497.27493 88.166664ZM495.60306 88.166664Q496.14993 88.166664 496.60306 87.83854Q497.0718 87.49479 497.29056 87.010414L497.29056 86.572914Q497.29056 85.510414 496.8218 84.83854Q496.35306 84.166664 495.64993 84.166664Q494.93118 84.166664 494.49368 84.71354Q494.0718 85.260414 494.0718 86.166664Q494.0718 87.041664 494.47806 87.604164Q494.89993 88.166664 495.60306 88.166664ZM504.6968 89.05729L505.8843 89.05729L505.8843 89.93229L504.6968 89.93229L504.6968 91.916664L503.61868 91.916664L503.61868 89.93229L499.72806 89.93229L499.72806 89.291664L503.54056 83.385414L504.6968 83.385414L504.6968 89.05729ZM500.96243 89.05729L503.61868 89.05729L503.61868 84.86979L503.47806 85.104164L500.96243 89.05729ZM507.2593 91.354164Q507.2593 91.072914 507.41556 90.885414Q507.58743 90.697914 507.91556 90.697914Q508.2593 90.697914 508.43118 90.885414Q508.60306 91.072914 508.60306 91.354164Q508.60306 91.61979 508.43118 91.80729Q508.2593 91.979164 507.91556 91.979164Q507.58743 91.979164 507.41556 91.80729Q507.2593 91.61979 507.2593 91.354164ZM515.6343 83.99479L512.103 91.916664L510.96243 91.916664L514.478 84.27604L509.86868 84.27604L509.86868 83.385414L515.6343 83.385414L515.6343 83.99479ZM519.36865 87.885414L520.7749 85.572914L522.0405 85.572914L519.9624 88.71354L522.103 91.916664L520.853 91.916664L519.3843 89.541664L517.9155 91.916664L516.6499 91.916664L518.7905 88.71354L516.728 85.572914L517.978 85.572914L519.36865 87.885414ZM529.3374 87.33854L531.728 87.33854L531.728 88.36979L529.3374 88.36979L529.3374 91.05729L528.2593 91.05729L528.2593 88.36979L525.86865 88.36979L525.86865 87.33854L528.2593 87.33854L528.2593 84.854164L529.3374 84.854164L529.3374 87.33854ZM540.3843 83.385414L540.3843 84.291664L540.18115 84.291664Q538.9155 84.322914 538.1655 85.05729Q537.4155 85.77604 537.2905 87.08854Q537.978 86.322914 539.1343 86.322914Q540.24365 86.322914 540.9155 87.104164Q541.5874 87.885414 541.5874 89.135414Q541.5874 90.447914 540.86865 91.24479Q540.1499 92.041664 538.93115 92.041664Q537.7124 92.041664 536.9468 91.104164Q536.1968 90.15104 536.1968 88.666664L536.1968 88.260414Q536.1968 85.90104 537.1968 84.65104Q538.1968 83.40104 540.18115 83.385414L540.3843 83.385414ZM538.9624 87.229164Q538.3999 87.229164 537.93115 87.55729Q537.4624 87.885414 537.2749 88.40104L537.2749 88.791664Q537.2749 89.854164 537.74365 90.49479Q538.228 91.135414 538.93115 91.135414Q539.6655 91.135414 540.0874 90.604164Q540.5093 90.05729 540.5093 89.18229Q540.5093 88.30729 540.0874 87.77604Q539.6655 87.229164 538.9624 87.229164ZM547.2749 88.166664Q546.9468 88.572914 546.4624 88.822914Q545.99365 89.05729 545.43115 89.05729Q544.6968 89.05729 544.1499 88.697914Q543.603 88.33854 543.30615 87.68229Q543.0093 87.010414 543.0093 86.21354Q543.0093 85.36979 543.3218 84.68229Q543.6499 83.99479 544.24365 83.635414Q544.853 83.260414 545.6499 83.260414Q546.9155 83.260414 547.6343 84.21354Q548.36865 85.166664 548.36865 86.791664L548.36865 87.104164Q548.36865 89.604164 547.3843 90.74479Q546.3999 91.885414 544.4155 91.916664L544.1968 91.916664L544.1968 91.010414L544.43115 91.010414Q545.7749 90.979164 546.49365 90.30729Q547.2124 89.635414 547.2749 88.166664ZM545.603 88.166664Q546.1499 88.166664 546.603 87.83854Q547.0718 87.49479 547.2905 87.010414L547.2905 86.572914Q547.2905 85.510414 546.8218 84.83854Q546.353 84.166664 545.6499 84.166664Q544.93115 84.166664 544.49365 84.71354Q544.0718 85.260414 544.0718 86.166664Q544.0718 87.041664 544.478 87.604164Q544.8999 88.166664 545.603 88.166664ZM550.2593 91.354164Q550.2593 91.072914 550.4155 90.885414Q550.5874 90.697914 550.9155 90.697914Q551.2593 90.697914 551.43115 90.885414Q551.603 91.072914 551.603 91.354164Q551.603 91.61979 551.43115 91.80729Q551.2593 91.979164 550.9155 91.979164Q550.5874 91.979164 550.4155 91.80729Q550.2593 91.61979 550.2593 91.354164ZM557.6968 89.05729L558.8843 89.05729L558.8843 89.93229L557.6968 89.93229L557.6968 91.916664L556.61865 91.916664L556.61865 89.93229L552.728 89.93229L552.728 89.291664L556.5405 83.385414L557.6968 83.385414L557.6968 89.05729ZM553.9624 89.05729L556.61865 89.05729L556.61865 84.86979L556.478 85.104164L553.9624 89.05729ZM562.36865 87.885414L563.7749 85.572914L565.0405 85.572914L562.9624 88.71354L565.103 91.916664L563.853 91.916664L562.3843 89.541664L560.9155 91.916664L559.6499 91.916664L561.7905 88.71354L559.728 85.572914L560.978 85.572914L562.36865 87.885414ZM567.9155 84.822914L566.80615 87.65104L565.7905 87.65104L567.5405 83.385414L568.2905 83.385414L570.0405 87.65104L569.0249 87.65104L567.9155 84.822914ZM576.7124 91.916664L571.11865 91.916664L571.11865 91.135414L574.0718 87.854164Q574.728 87.104164 574.978 86.65104Q575.228 86.18229 575.228 85.68229Q575.228 85.010414 574.8218 84.58854Q574.43115 84.15104 573.74365 84.15104Q572.9468 84.15104 572.49365 84.61979Q572.0405 85.072914 572.0405 85.90104L570.9624 85.90104Q570.9624 84.71354 571.7124 83.99479Q572.478 83.260414 573.74365 83.260414Q574.9468 83.260414 575.6343 83.885414Q576.3218 84.510414 576.3218 85.55729Q576.3218 86.80729 574.7124 88.55729L572.43115 91.02604L576.7124 91.02604L576.7124 91.916664Z" fill-rule="nonzero"/><path fill="#757575" d="M456.54056 103.46354L454.52493 103.46354L454.52493 106.916664L453.39993 106.916664L453.39993 98.385414L456.22806 98.385414Q457.66556 98.385414 458.43118 99.041664Q459.21243 99.697914 459.21243 100.947914Q459.21243 101.74479 458.77493 102.33854Q458.35306 102.93229 457.58743 103.229164L459.58743 106.83854L459.58743 106.916664L458.3843 106.916664L456.54056 103.46354ZM454.52493 102.541664L456.2593 102.541664Q457.10306 102.541664 457.58743 102.11979Q458.08743 101.68229 458.08743 100.947914Q458.08743 100.166664 457.61868 99.74479Q457.14993 99.322914 456.2593 99.30729L454.52493 99.30729L454.52493 102.541664ZM463.41556 103.010414L459.91556 103.010414L459.91556 102.36979L461.66556 100.729164Q462.30618 100.11979 462.30618 99.71354Q462.30618 99.43229 462.11868 99.260414Q461.93118 99.072914 461.5718 99.072914Q461.1343 99.072914 460.93118 99.30729Q460.72806 99.52604 460.72806 99.854164L459.80618 99.854164Q459.80618 99.18229 460.29056 98.760414Q460.77493 98.322914 461.54056 98.322914Q462.3218 98.322914 462.77493 98.697914Q463.22806 99.05729 463.22806 99.71354Q463.22806 100.322914 462.60306 100.947914L462.11868 101.40104L461.08743 102.260414L463.41556 102.260414L463.41556 103.010414ZM472.1968 102.15104L467.30618 102.15104L467.30618 101.197914L472.1968 101.197914L472.1968 102.15104ZM472.1968 104.572914L467.30618 104.572914L467.30618 103.635414L472.1968 103.635414L472.1968 104.572914ZM482.47806 103.27604Q482.47806 105.18229 481.8218 106.11979Q481.18118 107.041664 479.79056 107.041664Q478.43118 107.041664 477.77493 106.135414Q477.11868 105.229164 477.08743 103.416664L477.08743 101.979164Q477.08743 100.08854 477.72806 99.18229Q478.3843 98.260414 479.77493 98.260414Q481.14993 98.260414 481.80618 99.15104Q482.46243 100.02604 482.47806 101.86979L482.47806 103.27604ZM481.3843 101.791664Q481.3843 100.416664 480.99368 99.791664Q480.61868 99.15104 479.77493 99.15104Q478.9468 99.15104 478.55618 99.791664Q478.18118 100.416664 478.18118 101.71354L478.18118 103.447914Q478.18118 104.822914 478.5718 105.49479Q478.97806 106.15104 479.79056 106.15104Q480.58743 106.15104 480.97806 105.52604Q481.36868 104.90104 481.3843 103.572914L481.3843 101.791664ZM484.2593 106.354164Q484.2593 106.072914 484.41556 105.885414Q484.58743 105.697914 484.91556 105.697914Q485.2593 105.697914 485.43118 105.885414Q485.60306 106.072914 485.60306 106.354164Q485.60306 106.61979 485.43118 106.80729Q485.2593 106.979164 484.91556 106.979164Q484.58743 106.979164 484.41556 106.80729Q484.2593 106.61979 484.2593 106.354164ZM491.27493 103.166664Q490.9468 103.572914 490.46243 103.822914Q489.99368 104.05729 489.43118 104.05729Q488.6968 104.05729 488.14993 103.697914Q487.60306 103.33854 487.30618 102.68229Q487.0093 102.010414 487.0093 101.21354Q487.0093 100.36979 487.3218 99.68229Q487.64993 98.99479 488.24368 98.635414Q488.85306 98.260414 489.64993 98.260414Q490.91556 98.260414 491.6343 99.21354Q492.36868 100.166664 492.36868 101.791664L492.36868 102.104164Q492.36868 104.604164 491.3843 105.74479Q490.39993 106.885414 488.41556 106.916664L488.1968 106.916664L488.1968 106.010414L488.43118 106.010414Q489.77493 105.979164 490.49368 105.30729Q491.21243 104.635414 491.27493 103.166664ZM489.60306 103.166664Q490.14993 103.166664 490.60306 102.83854Q491.0718 102.49479 491.29056 102.010414L491.29056 101.572914Q491.29056 100.510414 490.8218 99.83854Q490.35306 99.166664 489.64993 99.166664Q488.93118 99.166664 488.49368 99.71354Q488.0718 100.260414 488.0718 101.166664Q488.0718 102.041664 488.47806 102.604164Q488.89993 103.166664 489.60306 103.166664ZM499.47806 103.27604Q499.47806 105.18229 498.8218 106.11979Q498.18118 107.041664 496.79056 107.041664Q495.43118 107.041664 494.77493 106.135414Q494.11868 105.229164 494.08743 103.416664L494.08743 101.979164Q494.08743 100.08854 494.72806 99.18229Q495.3843 98.260414 496.77493 98.260414Q498.14993 98.260414 498.80618 99.15104Q499.46243 100.02604 499.47806 101.86979L499.47806 103.27604ZM498.3843 101.791664Q498.3843 100.416664 497.99368 99.791664Q497.61868 99.15104 496.77493 99.15104Q495.9468 99.15104 495.55618 99.791664Q495.18118 100.416664 495.18118 101.71354L495.18118 103.447914Q495.18118 104.822914 495.5718 105.49479Q495.97806 106.15104 496.79056 106.15104Q497.58743 106.15104 497.97806 105.52604Q498.36868 104.90104 498.3843 103.572914L498.3843 101.791664ZM505.6968 104.05729L506.8843 104.05729L506.8843 104.93229L505.6968 104.93229L505.6968 106.916664L504.61868 106.916664L504.61868 104.93229L500.72806 104.93229L500.72806 104.291664L504.54056 98.385414L505.6968 98.385414L505.6968 104.05729ZM501.96243 104.05729L504.61868 104.05729L504.61868 99.86979L504.47806 100.104164L501.96243 104.05729Z" fill-rule="nonzero"/><path fill="#757575" d="M28.05 33.83125L22.096874 33.83125L20.753124 37.55L18.83125 37.55L24.253124 23.33125L25.89375 23.33125L31.33125 37.55L29.409374 37.55L28.05 33.83125ZM22.659374 32.3L27.503124 32.3L25.08125 25.64375L22.659374 32.3ZM32.471874 32.175Q32.471874 29.753124 33.628124 28.26875Q34.784374 26.784374 36.64375 26.784374Q38.503124 26.784374 39.58125 28.05L39.58125 22.55L41.39375 22.55L41.39375 37.55L39.7375 37.55L39.64375 36.409374Q38.565624 37.753124 36.628124 37.753124Q34.8 37.753124 33.628124 36.253124Q32.471874 34.7375 32.471874 32.315624L32.471874 32.175ZM34.284374 32.378124Q34.284374 34.175 35.01875 35.190624Q35.76875 36.20625 37.08125 36.20625Q38.8 36.20625 39.58125 34.675L39.58125 29.815624Q38.784374 28.315624 37.096874 28.315624Q35.76875 28.315624 35.01875 29.346874Q34.284374 30.378124 34.284374 32.378124ZM45.784374 26.9875L45.784374 38.76875Q45.784374 41.815624 43.01875 41.815624Q42.425 41.815624 41.909374 41.64375L41.909374 40.190624Q42.221874 40.26875 42.7375 40.26875Q43.346874 40.26875 43.659374 39.940624Q43.971874 39.628124 43.971874 38.815624L43.971874 26.9875L45.784374 26.9875ZM43.784374 24.175Q43.784374 23.753124 44.05 23.440624Q44.33125 23.128124 44.846874 23.128124Q45.378124 23.128124 45.64375 23.440624Q45.925 23.7375 45.925 24.175Q45.925 24.6125 45.64375 24.909374Q45.378124 25.20625 44.846874 25.20625Q44.315624 25.20625 44.05 24.909374Q43.784374 24.6125 43.784374 24.175ZM62.05 31.26875L56.08125 31.26875L56.08125 37.55L54.20625 37.55L54.20625 23.33125L63.003124 23.33125L63.003124 24.878124L56.08125 24.878124L56.08125 29.7375L62.05 29.7375L62.05 31.26875ZM75.01875 24.878124L70.45625 24.878124L70.45625 37.55L68.59688 37.55L68.59688 24.878124L64.03438 24.878124L64.03438 23.33125L75.01875 23.33125L75.01875 24.878124ZM76.58125 26.065624Q76.58125 24.784374 77.39375 23.95625Q78.20625 23.128124 79.4875 23.128124Q80.78438 23.128124 81.58125 23.971874Q82.39375 24.8 82.39375 26.128124L82.39375 26.815624Q82.39375 28.1125 81.58125 28.925Q80.76875 29.7375 79.50313 29.7375Q78.2375 29.7375 77.40938 28.925Q76.58125 28.1125 76.58125 26.753124L76.58125 26.065624ZM77.925 26.815624Q77.925 27.58125 78.34688 28.08125Q78.78438 28.565624 79.50313 28.565624Q80.20625 28.565624 80.62813 28.096874Q81.05 27.6125 81.05 26.784374L81.05 26.065624Q81.05 25.3 80.62813 24.8Q80.20625 24.3 79.4875 24.3Q78.76875 24.3 78.34688 24.8Q77.925 25.3 77.925 26.096874L77.925 26.815624ZM83.50313 34.065624Q83.50313 32.784374 84.31563 31.95625Q85.12813 31.128124 86.40938 31.128124Q87.69063 31.128124 88.50313 31.95625Q89.33125 32.76875 89.33125 34.128124L89.33125 34.83125Q89.33125 36.096874 88.51875 36.925Q87.70625 37.753124 86.425 37.753124Q85.15938 37.753124 84.33125 36.940624Q83.50313 36.128124 83.50313 34.76875L83.50313 34.065624ZM84.84688 34.83125Q84.84688 35.596874 85.26875 36.096874Q85.70625 36.58125 86.425 36.58125Q87.12813 36.58125 87.55 36.096874Q87.97188 35.6125 87.97188 34.784374L87.97188 34.065624Q87.97188 33.284374 87.55 32.8Q87.12813 32.315624 86.40938 32.315624Q85.72188 32.315624 85.28438 32.8Q84.84688 33.284374 84.84688 34.096874L84.84688 34.83125ZM79.90938 36.471874L78.89375 35.83125L85.83125 24.721874L86.8625 25.3625L79.90938 36.471874ZM99.08125 31.9875L99.08125 37.55L97.20625 37.55L97.20625 23.33125L102.44063 23.33125Q104.78438 23.33125 106.09688 24.51875Q107.425 25.70625 107.425 27.675Q107.425 29.753124 106.12813 30.878124Q104.83125 31.9875 102.425 31.9875L99.08125 31.9875ZM99.08125 30.45625L102.44063 30.45625Q103.95625 30.45625 104.75313 29.753124Q105.55 29.034374 105.55 27.690624Q105.55 26.425 104.75313 25.675Q103.95625 24.909374 102.55 24.878124L99.08125 24.878124L99.08125 30.45625ZM109.44063 32.175Q109.44063 30.6125 110.05 29.378124Q110.65938 28.128124 111.7375 27.45625Q112.83125 26.784374 114.2375 26.784374Q116.39375 26.784374 117.72188 28.284374Q119.06563 29.76875 119.06563 32.253124L119.06563 32.378124Q119.06563 33.925 118.47188 35.159374Q117.87813 36.378124 116.76875 37.065624Q115.675 37.753124 114.25313 37.753124Q112.1125 37.753124 110.76875 36.253124Q109.44063 34.753124 109.44063 32.3L109.44063 32.175ZM111.25313 32.378124Q111.25313 34.14375 112.06563 35.20625Q112.89375 36.26875 114.25313 36.26875Q115.62813 36.26875 116.44063 35.190624Q117.25313 34.1125 117.25313 32.175Q117.25313 30.425 116.425 29.346874Q115.59688 28.26875 114.2375 28.26875Q112.89375 28.26875 112.06563 29.33125Q111.25313 30.39375 111.25313 32.378124ZM122.87813 37.55L121.08125 37.55L121.08125 26.9875L122.87813 26.9875L122.87813 37.55ZM120.925 24.175Q120.925 23.7375 121.19063 23.440624Q121.47188 23.128124 121.9875 23.128124Q122.51875 23.128124 122.78438 23.440624Q123.06563 23.7375 123.06563 24.175Q123.06563 24.6125 122.78438 24.909374Q122.51875 25.20625 121.9875 25.20625Q121.47188 25.20625 121.19063 24.909374Q120.925 24.6125 120.925 24.175ZM127.62813 26.9875L127.69063 28.315624Q128.89375 26.784374 130.84688 26.784374Q134.20625 26.784374 134.22188 30.565624L134.22188 37.55L132.425 37.55L132.425 30.55Q132.40938 29.409374 131.89375 28.8625Q131.39375 28.315624 130.3 28.315624Q129.425 28.315624 128.75313 28.784374Q128.09688 29.253124 127.72188 30.01875L127.72188 37.55L125.925 37.55L125.925 26.9875L127.62813 26.9875ZM139.3625 24.425L139.3625 26.9875L141.34688 26.9875L141.34688 28.378124L139.3625 28.378124L139.3625 34.925Q139.3625 35.565624 139.62813 35.89375Q139.89375 36.20625 140.53438 36.20625Q140.84688 36.20625 141.39375 36.08125L141.39375 37.55Q140.675 37.753124 140.00313 37.753124Q138.8 37.753124 138.175 37.01875Q137.56563 36.284374 137.56563 34.925L137.56563 28.378124L135.64375 28.378124L135.64375 26.9875L137.56563 26.9875L137.56563 24.425L139.3625 24.425ZM150.06563 34.753124Q150.06563 34.01875 149.51875 33.6125Q148.97188 33.20625 147.59688 32.909374Q146.22188 32.6125 145.40938 32.20625Q144.6125 31.8 144.22188 31.2375Q143.84688 30.659374 143.84688 29.878124Q143.84688 28.58125 144.94063 27.690624Q146.03438 26.784374 147.75313 26.784374Q149.55 26.784374 150.65938 27.721874Q151.78438 28.64375 151.78438 30.08125L149.95625 30.08125Q149.95625 29.346874 149.33125 28.815624Q148.70625 28.26875 147.75313 28.26875Q146.75313 28.26875 146.19063 28.70625Q145.64375 29.128124 145.64375 29.83125Q145.64375 30.471874 146.15938 30.815624Q146.675 31.14375 148.03438 31.45625Q149.39375 31.753124 150.22188 32.175Q151.06563 32.58125 151.47188 33.175Q151.87813 33.76875 151.87813 34.6125Q151.87813 36.034374 150.7375 36.89375Q149.6125 37.753124 147.8 37.753124Q146.53438 37.753124 145.55 37.3Q144.58125 36.846874 144.01875 36.05Q143.47188 35.2375 143.47188 34.3L145.28438 34.3Q145.33125 35.20625 146.00313 35.7375Q146.69063 36.26875 147.8 36.26875Q148.83125 36.26875 149.44063 35.8625Q150.06563 35.440624 150.06563 34.753124ZM162.40938 35.096874L165.01875 26.9875L166.8625 26.9875L163.08125 37.55L161.70625 37.55L157.87813 26.9875L159.72188 26.9875L162.40938 35.096874ZM175.06563 34.753124Q175.06563 34.01875 174.51875 33.6125Q173.97188 33.20625 172.59688 32.909374Q171.22188 32.6125 170.40938 32.20625Q169.6125 31.8 169.22188 31.2375Q168.84688 30.659374 168.84688 29.878124Q168.84688 28.58125 169.94063 27.690624Q171.03438 26.784374 172.75313 26.784374Q174.55 26.784374 175.65938 27.721874Q176.78438 28.64375 176.78438 30.08125L174.95625 30.08125Q174.95625 29.346874 174.33125 28.815624Q173.70625 28.26875 172.75313 28.26875Q171.75313 28.26875 171.19063 28.70625Q170.64375 29.128124 170.64375 29.83125Q170.64375 30.471874 171.15938 30.815624Q171.675 31.14375 173.03438 31.45625Q174.39375 31.753124 175.22188 32.175Q176.06563 32.58125 176.47188 33.175Q176.87813 33.76875 176.87813 34.6125Q176.87813 36.034374 175.7375 36.89375Q174.6125 37.753124 172.8 37.753124Q171.53438 37.753124 170.55 37.3Q169.58125 36.846874 169.01875 36.05Q168.47188 35.2375 168.47188 34.3L170.28438 34.3Q170.33125 35.20625 171.00313 35.7375Q171.69063 36.26875 172.8 36.26875Q173.83125 36.26875 174.44063 35.8625Q175.06563 35.440624 175.06563 34.753124ZM178.95625 36.596874Q178.95625 36.128124 179.2375 35.815624Q179.51875 35.503124 180.06563 35.503124Q180.62813 35.503124 180.90938 35.815624Q181.20625 36.128124 181.20625 36.596874Q181.20625 37.05 180.90938 37.3625Q180.62813 37.659374 180.06563 37.659374Q179.51875 37.659374 179.2375 37.3625Q178.95625 37.05 178.95625 36.596874ZM197.05 33.83125L191.09688 33.83125L189.75313 37.55L187.83125 37.55L193.25313 23.33125L194.89375 23.33125L200.33125 37.55L198.40938 37.55L197.05 33.83125ZM191.65938 32.3L196.50313 32.3L194.08125 25.64375L191.65938 32.3ZM201.47188 32.175Q201.47188 29.753124 202.62813 28.26875Q203.78438 26.784374 205.64375 26.784374Q207.50313 26.784374 208.58125 28.05L208.58125 22.55L210.39375 22.55L210.39375 37.55L208.7375 37.55L208.64375 36.409374Q207.56563 37.753124 205.62813 37.753124Q203.8 37.753124 202.62813 36.253124Q201.47188 34.7375 201.47188 32.315624L201.47188 32.175ZM203.28438 32.378124Q203.28438 34.175 204.01875 35.190624Q204.76875 36.20625 206.08125 36.20625Q207.8 36.20625 208.58125 34.675L208.58125 29.815624Q207.78438 28.315624 206.09688 28.315624Q204.76875 28.315624 204.01875 29.346874Q203.28438 30.378124 203.28438 32.378124ZM214.78438 26.9875L214.78438 38.76875Q214.78438 41.815624 212.01875 41.815624Q211.425 41.815624 210.90938 41.64375L210.90938 40.190624Q211.22188 40.26875 211.7375 40.26875Q212.34688 40.26875 212.65938 39.940624Q212.97188 39.628124 212.97188 38.815624L212.97188 26.9875L214.78438 26.9875ZM212.78438 24.175Q212.78438 23.753124 213.05 23.440624Q213.33125 23.128124 213.84688 23.128124Q214.37813 23.128124 214.64375 23.440624Q214.925 23.7375 214.925 24.175Q214.925 24.6125 214.64375 24.909374Q214.37813 25.20625 213.84688 25.20625Q213.31563 25.20625 213.05 24.909374Q212.78438 24.6125 212.78438 24.175ZM231.05 31.26875L225.08125 31.26875L225.08125 37.55L223.20625 37.55L223.20625 23.33125L232.00313 23.33125L232.00313 24.878124L225.08125 24.878124L225.08125 29.7375L231.05 29.7375L231.05 31.26875ZM244.01875 24.878124L239.45625 24.878124L239.45625 37.55L237.59688 37.55L237.59688 24.878124L233.03438 24.878124L233.03438 23.33125L244.01875 23.33125L244.01875 24.878124ZM245.58125 26.065624Q245.58125 24.784374 246.39375 23.95625Q247.20625 23.128124 248.4875 23.128124Q249.78438 23.128124 250.58125 23.971874Q251.39375 24.8 251.39375 26.128124L251.39375 26.815624Q251.39375 28.1125 250.58125 28.925Q249.76875 29.7375 248.50313 29.7375Q247.2375 29.7375 246.40938 28.925Q245.58125 28.1125 245.58125 26.753124L245.58125 26.065624ZM246.925 26.815624Q246.925 27.58125 247.34688 28.08125Q247.78438 28.565624 248.50313 28.565624Q249.20625 28.565624 249.62813 28.096874Q250.05 27.6125 250.05 26.784374L250.05 26.065624Q250.05 25.3 249.62813 24.8Q249.20625 24.3 248.4875 24.3Q247.76875 24.3 247.34688 24.8Q246.925 25.3 246.925 26.096874L246.925 26.815624ZM252.50313 34.065624Q252.50313 32.784374 253.31563 31.95625Q254.12813 31.128124 255.40938 31.128124Q256.6906 31.128124 257.5031 31.95625Q258.33124 32.76875 258.33124 34.128124L258.33124 34.83125Q258.33124 36.096874 257.51874 36.925Q256.70624 37.753124 255.425 37.753124Q254.15938 37.753124 253.33125 36.940624Q252.50313 36.128124 252.50313 34.76875L252.50313 34.065624ZM253.84688 34.83125Q253.84688 35.596874 254.26875 36.096874Q254.70625 36.58125 255.425 36.58125Q256.1281 36.58125 256.55 36.096874Q256.97186 35.6125 256.97186 34.784374L256.97186 34.065624Q256.97186 33.284374 256.55 32.8Q256.1281 32.315624 255.40938 32.315624Q254.72188 32.315624 254.28438 32.8Q253.84688 33.284374 253.84688 34.096874L253.84688 34.83125ZM248.90938 36.471874L247.89375 35.83125L254.83125 24.721874L255.8625 25.3625L248.90938 36.471874ZM276.01874 24.878124L271.45624 24.878124L271.45624 37.55L269.59686 37.55L269.59686 24.878124L265.03436 24.878124L265.03436 23.33125L276.01874 23.33125L276.01874 24.878124ZM277.4406 32.175Q277.4406 30.6125 278.05 29.378124Q278.65936 28.128124 279.7375 27.45625Q280.83124 26.784374 282.2375 26.784374Q284.39374 26.784374 285.72186 28.284374Q287.0656 29.76875 287.0656 32.253124L287.0656 32.378124Q287.0656 33.925 286.47186 35.159374Q285.8781 36.378124 284.76874 37.065624Q283.675 37.753124 282.2531 37.753124Q280.1125 37.753124 278.76874 36.253124Q277.4406 34.753124 277.4406 32.3L277.4406 32.175ZM279.2531 32.378124Q279.2531 34.14375 280.0656 35.20625Q280.89374 36.26875 282.2531 36.26875Q283.6281 36.26875 284.4406 35.190624Q285.2531 34.1125 285.2531 32.175Q285.2531 30.425 284.425 29.346874Q283.59686 28.26875 282.2375 28.26875Q280.89374 28.26875 280.0656 29.33125Q279.2531 30.39375 279.2531 32.378124ZM291.3625 24.425L291.3625 26.9875L293.34686 26.9875L293.34686 28.378124L291.3625 28.378124L291.3625 34.925Q291.3625 35.565624 291.6281 35.89375Q291.89374 36.20625 292.53436 36.20625Q292.84686 36.20625 293.39374 36.08125L293.39374 37.55Q292.675 37.753124 292.0031 37.753124Q290.8 37.753124 290.175 37.01875Q289.5656 36.284374 289.5656 34.925L289.5656 28.378124L287.64374 28.378124L287.64374 26.9875L289.5656 26.9875L289.5656 24.425L291.3625 24.425ZM302.4406 37.55Q302.28436 37.2375 302.1906 36.440624Q300.925 37.753124 299.175 37.753124Q297.6125 37.753124 296.6125 36.8625Q295.6125 35.971874 295.6125 34.6125Q295.6125 32.971874 296.8625 32.065624Q298.1281 31.14375 300.39374 31.14375L302.15936 31.14375L302.15936 30.315624Q302.15936 29.3625 301.58124 28.8Q301.01874 28.2375 299.925 28.2375Q298.95624 28.2375 298.3 28.7375Q297.64374 29.221874 297.64374 29.909374L295.83124 29.909374Q295.83124 29.128124 296.39374 28.39375Q296.95624 27.64375 297.90936 27.221874Q298.8781 26.784374 300.03436 26.784374Q301.8625 26.784374 302.89374 27.70625Q303.925 28.6125 303.97186 30.221874L303.97186 35.08125Q303.97186 36.534374 304.33124 37.39375L304.33124 37.55L302.4406 37.55ZM299.4406 36.175Q300.3 36.175 301.05 35.7375Q301.8156 35.3 302.15936 34.596874L302.15936 32.425L300.7375 32.425Q297.425 32.425 297.425 34.3625Q297.425 35.221874 297.9875 35.70625Q298.55 36.175 299.4406 36.175ZM308.8781 37.55L307.08124 37.55L307.08124 22.55L308.8781 22.55L308.8781 37.55Z" fill-rule="nonzero"/></svg>