<svg version="1.1" viewBox="0.0 0.0 600.0 371.0" fill="none" stroke="none" stroke-linecap="square" stroke-miterlimit="10" width="600" height="371" xmlns:xlink="http://www.w3.org/1999/xlink" xmlns="http://www.w3.org/2000/svg"><path fill="#ffffff" d="M0 0L600.0 0L600.0 371.0L0 371.0L0 0Z" fill-rule="nonzero"/><path fill="#ffffff" d="M0 0L600.0 0L600.0 371.0L0 371.0L0 0Z" fill-rule="nonzero"/><path stroke="#333333" stroke-width="1.0" stroke-linecap="butt" d="M78.5 62.5L78.5 298.5" fill-rule="nonzero"/><path stroke="#cccccc" stroke-width="1.0" stroke-linecap="butt" d="M204.5 62.5L204.5 298.5" fill-rule="nonzero"/><path stroke="#cccccc" stroke-width="1.0" stroke-linecap="butt" d="M330.5 62.5L330.5 298.5" fill-rule="nonzero"/><path stroke="#cccccc" stroke-width="1.0" stroke-linecap="butt" d="M455.5 62.5L455.5 298.5" fill-rule="nonzero"/><path stroke="#cccccc" stroke-width="1.0" stroke-linecap="butt" d="M581.5 62.5L581.5 298.5" fill-rule="nonzero"/><path stroke="#cccccc" stroke-width="1.0" stroke-linecap="butt" d="M78.5 298.5L581.5 298.5" fill-rule="nonzero"/><path stroke="#cccccc" stroke-width="1.0" stroke-linecap="butt" d="M78.5 259.5L581.5 259.5" fill-rule="nonzero"/><path stroke="#cccccc" stroke-width="1.0" stroke-linecap="butt" d="M78.5 219.5L581.5 219.5" fill-rule="nonzero"/><path stroke="#cccccc" stroke-width="1.0" stroke-linecap="butt" d="M78.5 180.5L581.5 180.5" fill-rule="nonzero"/><path stroke="#333333" stroke-width="1.0" stroke-linecap="butt" d="M78.5 141.5L581.5 141.5" fill-rule="nonzero"/><path stroke="#cccccc" stroke-width="1.0" stroke-linecap="butt" d="M78.5 101.5L581.5 101.5" fill-rule="nonzero"/><path stroke="#cccccc" stroke-width="1.0" stroke-linecap="butt" d="M78.5 62.5L581.5 62.5" fill-rule="nonzero"/><clipPath id="id_0"><path d="M78.55 62.416668L581.45 62.416668L581.45 298.45L78.55 298.45L78.55 62.416668Z" clip-rule="nonzero"/></clipPath><path stroke="#4285f4" stroke-width="2.0" stroke-linecap="butt" clip-path="url(#id_0)" d="M78.55 274.64996L204.275 226.80405L229.42 217.23486L233.28847 215.76268L237.36052 214.21301L246.18333 210.85541L246.18333 210.85541L246.18333 210.85541L269.30518 202.05615L271.97308 201.04086L279.71 198.0965L279.71 198.0965L302.0611 189.59055L302.81622 189.30319L304.855 188.52731L305.20917 188.39253L307.6489 187.46407L310.04364 186.55272L310.65768 186.31903L318.02618 183.51488L330.0 178.95813L330.0 178.95813L330.0 178.95813L330.0 178.95813L330.0 178.95813L330.0 178.95813L330.0 178.95813L330.0 178.95813L330.0 178.95813L330.0 178.95813L330.0 178.95813L330.0 178.95813L330.0 178.95813L330.0 178.95813L330.0 178.95813L330.0 178.95813L330.0 178.95813L330.0 178.95813L330.0 178.95813L330.0 178.95813L330.0 178.95813L335.8477 176.73273L341.97382 174.40137L342.5725 174.17354L347.96072 172.12299L349.34232 171.59721L351.8652 170.6371L352.28036 170.4791L352.8591 170.25887L355.145 169.38895L357.9389 168.3257L358.91238 167.95523L360.233 167.45265L360.33054 167.41553L362.79782 166.47658L365.01202 165.63394L365.92142 165.28786L367.15585 164.8181L368.09848 164.45937L368.09848 164.45937L370.29648 163.6229L371.14636 163.29945L371.90833 163.00949L375.13205 161.78267L377.3025 160.9567L378.35577 160.55585L379.19675 160.23581L380.29 159.81976L380.29 159.81976L380.29 159.81976L380.29 159.81976L380.29 159.81976L380.29 159.81976L382.83633 158.85072L384.1095 158.36621L385.19635 157.95259L386.20648 157.56818L388.85 156.56216L389.86905 156.17435L390.06296 156.10056L390.69482 155.86009L390.69482 155.86009L392.8625 155.03516L392.8625 155.03516L393.42883 154.81964L394.65857 154.35165L394.89032 154.26346L395.19073 154.14912L395.39542 154.07123L396.17105 153.77606L396.47528 153.66028L397.5941 153.23451L397.6981 153.19493L398.15 153.02295L398.57727 152.86035L398.57727 152.86035L399.55 152.49017L401.1651 151.87553L401.84286 151.6176L401.84286 151.6176L402.07166 151.53053L402.30536 151.44159L404.8363 150.47841L404.99387 150.41846L405.27484 150.31152L406.01978 150.02803L408.0362 149.26065L408.22888 149.18733L409.40527 148.73965L410.8232 148.20003L410.8232 148.20003L411.17676 148.06548L412.59308 147.52649L413.81668 147.06084L413.81668 147.06084L413.81668 147.06084L413.81668 147.06084L413.81668 147.06084L413.81668 147.06084L413.81668 147.06084L413.81668 147.06084L413.81668 147.06084L413.81668 147.06084L413.81668 147.06084L413.81668 147.06084L413.81668 147.06084L413.81668 147.06084L413.81668 147.06084L413.81668 147.06084L413.81668 147.06084L413.81668 147.06084L413.81668 147.06084L413.81668 147.06084L415.7216 146.3359L417.93036 145.49533L418.0075 145.46597L419.80356 144.78247L420.95 144.34618L421.43637 144.16109L421.43637 144.16109L421.6657 144.0738L422.5249 143.74684L422.63947 143.70323L422.63947 143.70323L422.63947 143.70323L422.63947 143.70323L424.80902 142.8776L426.71155 142.15356L427.71375 141.77217L428.0229 141.65453L428.39346 141.51349L428.39346 141.51349L428.78394 141.3649L428.84586 141.34132L429.33826 141.15395L429.46243 141.10669L429.71292 141.01135L430.03925 140.88718L430.58 140.68138L430.58 140.68138L431.65 140.27419L431.65 140.27419L431.85315 140.19687L432.15155 140.08331L432.2379 140.05045L433.15897 139.69994L433.53824 139.5556L433.53824 139.5556L433.9649 139.39323L435.33716 138.871L435.44678 138.82928L436.22754 138.53215L436.283 138.51106L436.5466 138.41074L436.78015 138.32185L437.76428 137.94733L437.76428 137.94733L438.15054 137.80034L438.96167 137.49165L439.4547 137.30403L439.4547 137.30403L440.09433 137.06061L440.93384 136.74113L440.97513 136.7254L441.00046 136.71577L441.4019 136.563L441.75555 136.42842L441.75555 136.42842L442.1854 136.26485L442.35 136.2022L442.71896 136.06178L442.71896 136.06178L442.71896 136.06178L442.97028 135.96614L443.72635 135.6784L444.29544 135.46184L444.29544 135.46184L444.29544 135.46184L445.3267 135.06938L445.88565 134.85666L446.01743 134.80652L446.05383 134.79266L446.05383 134.79266L447.34332 134.30193L447.34332 134.30193L449.06113 133.64821L449.10788 133.6304L449.10788 133.6304L449.10788 133.6304L449.43875 133.5045L450.2587 133.19246L450.44244 133.12253L450.92633 132.93839L451.0685 132.88428L451.38965 132.76205L452.13284 132.47923L453.05 132.1302L453.05 132.1302L453.2598 132.05035L453.59406 131.92316L453.59406 131.92316L453.8104 131.84082L454.21024 131.68866L455.725 131.1122L455.725 131.1122L455.725 131.1122L455.725 131.1122L455.725 131.1122L455.725 131.1122L455.725 131.1122L457.27716 130.52151L458.5189 130.04897L458.7328 129.96756L458.94873 129.88538L459.123 129.81906L459.17627 129.79878L459.53485 129.66232L460.06033 129.46234L460.06033 129.46234L460.06033 129.46234L460.49936 129.29527L460.59805 129.2577L460.62848 129.24614L460.754 129.19836L461.7119 128.83382L462.1178 128.67935L462.8801 128.38927L463.12057 128.29773L463.12057 128.29773L463.12057 128.29773L463.12057 128.29773L464.10666 127.92247L464.10666 127.92247L464.1935 127.88942L464.3957 127.812485L464.55972 127.75005L464.59357 127.737175L464.92438 127.61128L465.14764 127.52632L465.39615 127.43175L465.39615 127.43175L465.39615 127.43175L465.39615 127.43175L465.39615 127.43175L465.8408 127.26253L466.50143 127.01112L466.61456 126.96806L466.6943 126.93772L466.7535 126.91519L466.7535 126.91519L466.9969 126.82256L466.9969 126.82256L467.15454 126.76257L467.15454 126.76257L467.89194 126.48195L468.051 126.421425L468.07947 126.410576L468.55408 126.229965L468.55408 126.229965L469.15195 126.00244L469.69446 125.79599L469.69446 125.79599L470.34418 125.54872L470.74875 125.39477L470.74875 125.39477L470.812 125.37069L471.4406 125.13146L471.8436 124.97811L472.48834 124.73274L472.98138 124.54511L473.1701 124.4733L473.2503 124.44277L473.35 124.40483L473.6857 124.27707L473.6857 124.27707L474.82248 123.84447L475.16702 123.71335L475.90308 123.43323L476.67917 123.13788L477.07452 122.98742L477.21255 122.9349L477.40173 122.86291L477.5902 122.79117L477.75928 122.72683L478.29102 122.524475L478.44638 122.46535L478.58408 122.41294L478.81735 122.32417L478.8684 122.30474L478.917 122.286255L479.16525 122.19177L479.3575 122.11861L480.32336 121.751045L480.35153 121.74032L480.87 121.543015L480.87 121.543015L480.87 121.543015L480.87 121.543015L480.87 121.543015L480.87 121.543015L480.87 121.543015L481.24115 121.40177L482.19342 121.039375L482.39395 120.963066L483.05652 120.710915L483.24057 120.64087L483.32318 120.609436L483.42712 120.56988L483.48245 120.54881L483.54025 120.52682L483.66388 120.479774L483.7301 120.45458L484.1145 120.30828L484.1145 120.30828L484.1145 120.30828L484.3991 120.199974L485.4608 119.795944L485.65952 119.720314L487.15625 119.15072L487.45 119.03893L487.62537 118.97219L488.32037 118.7077L488.7366 118.54931L488.81052 118.52117L489.08063 118.41839L489.25168 118.35329L489.6161 118.21461L489.67993 118.19031L489.70474 118.18087L490.01364 118.06332L490.01364 118.06332L490.01364 118.06332L490.01364 118.06332L490.44904 117.89761L490.5 117.87822L490.76312 117.77809L490.7985 117.764626L491.04102 117.67233L491.08514 117.65553L491.1233 117.64102L491.18588 117.617195L491.78564 117.388954L491.82425 117.37426L492.52255 117.10851L492.70294 117.03987L492.70294 117.03987L493.28506 116.81834L493.7349 116.647156L494.4096 116.39038L494.52902 116.34494L494.6877 116.28455L494.8301 116.23036L495.01407 116.16035L495.01407 116.16035L495.30508 116.0496L495.4842 115.98144L495.58902 115.94154L496.05188 115.765396L496.34384 115.65429L496.80347 115.47938L496.80347 115.47938L497.63333 115.16356L497.63333 115.16356L497.63333 115.16356L497.63333 115.16356L497.63333 115.16356L497.63333 115.16356L497.88205 115.06891L498.49744 114.834724L498.61942 114.7883L498.88434 114.687485L498.9744 114.653206L499.07846 114.61361L499.34387 114.512596L499.52393 114.44407L500.83243 113.946106L500.986 113.88767L500.986 113.88767L501.15503 113.82334L501.27753 113.77672L501.44318 113.713684L502.04474 113.48476L502.68253 113.242035L503.2211 113.03707L503.53592 112.917274L503.59518 112.894714L504.08078 112.70992L504.92175 112.389885L504.92175 112.389885L504.92175 112.389885L505.54056 112.15438L505.93466 112.0044L506.015 111.97383L506.25 111.8844L506.9463 111.619415L507.4941 111.41094L507.9927 111.2212L508.08575 111.18578L508.23083 111.13057L508.56595 111.003044L508.66183 110.96655L509.60715 110.606804L510.14328 110.40277L510.20007 110.381165L510.5282 110.25629L510.99542 110.07848L511.2779 109.97098L511.33414 109.949585L511.8177 109.76556L512.0845 109.66403L512.504 109.504364L512.67737 109.43841L513.1993 109.23978L513.49054 109.12894L513.89624 108.97453L514.1327 108.88457L514.39667 108.7841L514.39667 108.7841L514.59045 108.71035L514.8265 108.62053L514.92883 108.58158L515.2144 108.47291L515.8544 108.22937L515.8544 108.22937L515.8544 108.22937L518.5875 107.18924L518.5875 107.18924L519.3636 106.8939L519.3636 106.8939L520.1207 106.60575L520.3071 106.53481L520.95074 106.28988L521.0201 106.263504L521.102 106.23232L522.07983 105.86018L522.2853 105.782005L523.1025 105.471016L525.4339 104.58377L525.5722 104.531136L525.5722 104.531136L525.5722 104.531136L525.5722 104.531136L525.5722 104.531136L526.0458 104.35092L527.70496 103.7195L528.5132 103.41193L530.2287 102.75906L531.16 102.40465L532.14606 102.02939L532.4951 101.896545L533.0055 101.702324L533.55475 101.49329L533.7441 101.42125L535.17084 100.87827L539.38586 99.27421L539.5417 99.21492L540.4898 98.85409L540.89355 98.70045L540.89355 98.70045L541.48444 98.47558L544.1981 97.44285L546.7672 96.46516L581.45 83.26628L581.45 83.26628L581.45 83.26628L581.45 83.26628L581.45 83.26628L581.45 83.26628L581.45 83.26628L581.45 83.26628L581.45 83.26628L581.45 83.26628L581.45 83.26628L581.45 83.26628L581.45 83.26628L581.45 83.26628L581.45 83.26628L581.45 83.26628L581.45 83.26628L581.45 83.26628" fill-rule="nonzero"/><path fill="#424242" d="M298.10938 346.10626L298.10938 349.45L296.98438 349.45L296.98438 340.91876L300.14062 340.91876Q301.53125 340.91876 302.32812 341.6375Q303.125 342.34064 303.125 343.52814Q303.125 344.7625 302.34375 345.4344Q301.57812 346.10626 300.125 346.10626L298.10938 346.10626ZM298.10938 345.1844L300.14062 345.1844Q301.04688 345.1844 301.51562 344.7625Q302.0 344.34064 302.0 343.54376Q302.0 342.77814 301.51562 342.325Q301.04688 341.85626 300.20312 341.84064L298.10938 341.84064L298.10938 345.1844ZM306.0 349.45L304.92188 349.45L304.92188 340.45L306.0 340.45L306.0 349.45ZM311.73438 349.45Q311.64062 349.2625 311.57812 348.77814Q310.82812 349.575 309.78125 349.575Q308.84375 349.575 308.23438 349.04376Q307.64062 348.5125 307.64062 347.6844Q307.64062 346.7 308.39062 346.15314Q309.14062 345.60626 310.51562 345.60626L311.5625 345.60626L311.5625 345.10626Q311.5625 344.54376 311.21875 344.21564Q310.89062 343.8719 310.21875 343.8719Q309.64062 343.8719 309.25 344.16876Q308.85938 344.45 308.85938 344.8719L307.76562 344.8719Q307.76562 344.3875 308.09375 343.95Q308.4375 343.5125 309.01562 343.2625Q309.59375 342.9969 310.28125 342.9969Q311.39062 342.9969 312.0 343.54376Q312.625 344.09064 312.65625 345.04376L312.65625 347.96564Q312.65625 348.84064 312.875 349.35626L312.875 349.45L311.73438 349.45ZM309.9375 348.6219Q310.45312 348.6219 310.90625 348.35626Q311.35938 348.09064 311.5625 347.66876L311.5625 346.3719L310.71875 346.3719Q308.71875 346.3719 308.71875 347.54376Q308.71875 348.04376 309.0625 348.34064Q309.40625 348.6219 309.9375 348.6219ZM316.89062 347.85626L318.375 343.10626L319.53125 343.10626L316.98438 350.4344Q316.39062 352.0125 315.10938 352.0125L314.89062 351.9969L314.5 351.91876L314.5 351.04376L314.78125 351.0594Q315.34375 351.0594 315.64062 350.84064Q315.95312 350.6219 316.15625 350.02814L316.39062 349.3719L314.125 343.10626L315.3125 343.10626L316.89062 347.85626ZM323.45312 349.575Q322.15625 349.575 321.34375 348.73126Q320.54688 347.8719 320.54688 346.45L320.54688 346.2625Q320.54688 345.3094 320.90625 344.575Q321.26562 343.825 321.90625 343.41876Q322.5625 342.9969 323.3125 342.9969Q324.54688 342.9969 325.23438 343.8094Q325.92188 344.6219 325.92188 346.1375L325.92188 346.59064L321.625 346.59064Q321.65625 347.52814 322.17188 348.10626Q322.70312 348.6844 323.51562 348.6844Q324.07812 348.6844 324.46875 348.45Q324.875 348.21564 325.1875 347.825L325.84375 348.34064Q325.04688 349.575 323.45312 349.575ZM323.3125 343.8875Q322.65625 343.8875 322.20312 344.3719Q321.76562 344.84064 321.67188 345.7L324.84375 345.7L324.84375 345.6219Q324.79688 344.79376 324.39062 344.34064Q324.0 343.8875 323.3125 343.8875ZM329.89062 344.075Q329.64062 344.04376 329.35938 344.04376Q328.28125 344.04376 327.90625 344.95L327.90625 349.45L326.82812 349.45L326.82812 343.10626L327.875 343.10626L327.89062 343.84064Q328.42188 342.9969 329.40625 342.9969Q329.71875 342.9969 329.89062 343.075L329.89062 344.075ZM331.48438 341.10626L331.35938 343.2625L330.60938 343.2625L330.60938 340.45L331.48438 340.45L331.48438 341.10626ZM336.51562 347.7625Q336.51562 347.325 336.17188 347.09064Q335.84375 346.84064 335.01562 346.66876Q334.20312 346.4969 333.71875 346.2469Q333.23438 345.9969 333.0 345.66876Q332.78125 345.325 332.78125 344.85626Q332.78125 344.075 333.4375 343.54376Q334.09375 342.9969 335.125 342.9969Q336.20312 342.9969 336.85938 343.5594Q337.53125 344.10626 337.53125 344.96564L336.45312 344.96564Q336.45312 344.52814 336.0625 344.21564Q335.6875 343.8875 335.125 343.8875Q334.53125 343.8875 334.1875 344.15314Q333.85938 344.40314 333.85938 344.8094Q333.85938 345.2 334.17188 345.40314Q334.48438 345.60626 335.29688 345.79376Q336.10938 345.96564 336.60938 346.21564Q337.10938 346.46564 337.34375 346.825Q337.59375 347.1844 337.59375 347.6844Q337.59375 348.54376 336.90625 349.0594Q336.23438 349.575 335.15625 349.575Q334.39062 349.575 333.79688 349.3094Q333.21875 349.02814 332.89062 348.54376Q332.5625 348.0594 332.5625 347.4969L333.64062 347.4969Q333.67188 348.04376 334.07812 348.3719Q334.48438 348.6844 335.15625 348.6844Q335.76562 348.6844 336.14062 348.4344Q336.51562 348.1844 336.51562 347.7625ZM346.70312 345.6844L343.10938 345.6844L343.10938 349.45L341.98438 349.45L341.98438 340.91876L347.28125 340.91876L347.28125 341.84064L343.10938 341.84064L343.10938 344.7625L346.70312 344.7625L346.70312 345.6844ZM354.89062 341.84064L352.14062 341.84064L352.14062 349.45L351.03125 349.45L351.03125 341.84064L348.28125 341.84064L348.28125 340.91876L354.89062 340.91876L354.89062 341.84064ZM355.60938 342.5594Q355.60938 341.79376 356.09375 341.29376Q356.59375 340.79376 357.35938 340.79376Q358.14062 340.79376 358.625 341.29376Q359.10938 341.79376 359.10938 342.59064L359.10938 343.0125Q359.10938 343.77814 358.60938 344.27814Q358.125 344.7625 357.375 344.7625Q356.60938 344.7625 356.10938 344.27814Q355.60938 343.77814 355.60938 342.96564L355.60938 342.5594ZM356.42188 343.0125Q356.42188 343.46564 356.67188 343.7625Q356.9375 344.0594 357.375 344.0594Q357.79688 344.0594 358.04688 343.77814Q358.29688 343.48126 358.29688 342.98126L358.29688 342.5594Q358.29688 342.10626 358.04688 341.8094Q357.79688 341.4969 357.35938 341.4969Q356.92188 341.4969 356.67188 341.8094Q356.42188 342.10626 356.42188 342.575L356.42188 343.0125ZM359.76562 347.35626Q359.76562 346.59064 360.25 346.10626Q360.75 345.60626 361.51562 345.60626Q362.28125 345.60626 362.76562 346.10626Q363.26562 346.59064 363.26562 347.40314L363.26562 347.8094Q363.26562 348.575 362.78125 349.075Q362.29688 349.575 361.53125 349.575Q360.76562 349.575 360.26562 349.09064Q359.76562 348.59064 359.76562 347.77814L359.76562 347.35626ZM360.57812 347.8094Q360.57812 348.27814 360.82812 348.575Q361.09375 348.8719 361.53125 348.8719Q361.95312 348.8719 362.20312 348.59064Q362.45312 348.29376 362.45312 347.79376L362.45312 347.35626Q362.45312 346.8875 362.1875 346.60626Q361.9375 346.3094 361.51562 346.3094Q361.09375 346.3094 360.82812 346.60626Q360.57812 346.8875 360.57812 347.3875L360.57812 347.8094ZM357.625 348.8094L357.0 348.41876L361.17188 341.7469L361.78125 342.1375L357.625 348.8094Z" fill-rule="nonzero"/><path fill="#424242" d="M27.206263 243.57396L30.550013 243.57396L30.550013 244.69896L22.018763 244.69896L22.018763 241.54271Q22.018763 240.15208 22.737513 239.35521Q23.440638 238.55833 24.628138 238.55833Q25.862513 238.55833 26.534388 239.33958Q27.206263 240.10521 27.206263 241.55833L27.206263 243.57396ZM26.284388 243.57396L26.284388 241.54271Q26.284388 240.63646 25.862513 240.16771Q25.440638 239.68333 24.643763 239.68333Q23.878138 239.68333 23.425013 240.16771Q22.956263 240.63646 22.940638 241.48021L22.940638 243.57396L26.284388 243.57396ZM25.175013 233.79271Q25.143763 234.04271 25.143763 234.32396Q25.143763 235.40208 26.050013 235.77708L30.550013 235.77708L30.550013 236.85521L24.206263 236.85521L24.206263 235.80833L24.940638 235.79271Q24.096888 235.26146 24.096888 234.27708Q24.096888 233.96458 24.175013 233.79271L25.175013 233.79271ZM27.315638 233.15208Q26.393763 233.15208 25.643763 232.79271Q24.893763 232.41771 24.503138 231.76146Q24.096888 231.10521 24.096888 230.27708Q24.096888 228.98021 24.987513 228.18333Q25.878138 227.37083 27.378138 227.37083L27.456263 227.37083Q28.378138 227.37083 29.112513 227.73021Q29.846888 228.08958 30.268763 228.74583Q30.675013 229.40208 30.675013 230.26146Q30.675013 231.54271 29.784388 232.35521Q28.878138 233.15208 27.393763 233.15208L27.315638 233.15208ZM27.456263 232.05833Q28.503138 232.05833 29.143763 231.57396Q29.784388 231.07396 29.784388 230.26146Q29.784388 229.43333 29.143763 228.94896Q28.487513 228.46458 27.315638 228.46458Q26.284388 228.46458 25.643763 228.96458Q24.987513 229.44896 24.987513 230.27708Q24.987513 231.07396 25.628138 231.57396Q26.253138 232.05833 27.456263 232.05833ZM24.206263 224.74583L31.284388 224.74583Q33.11251 224.74583 33.11251 226.40208Q33.11251 226.76146 33.003136 227.05833L32.14376 227.05833Q32.190636 226.87083 32.190636 226.57396Q32.190636 226.21458 31.987513 226.02708Q31.800013 225.82396 31.300013 225.82396L24.206263 225.82396L24.206263 224.74583ZM22.534388 225.93333Q22.268763 225.93333 22.081263 225.77708Q21.893763 225.62083 21.893763 225.30833Q21.893763 224.99583 22.081263 224.83958Q22.268763 224.66771 22.534388 224.66771Q22.784388 224.66771 22.971888 224.83958Q23.143763 224.99583 23.143763 225.30833Q23.143763 225.62083 22.971888 225.77708Q22.784388 225.93333 22.534388 225.93333ZM30.675013 220.23021Q30.675013 221.52708 29.831263 222.33958Q28.971888 223.13646 27.550013 223.13646L27.362513 223.13646Q26.409388 223.13646 25.675013 222.77708Q24.925013 222.41771 24.518763 221.77708Q24.096888 221.12083 24.096888 220.37083Q24.096888 219.13646 24.909388 218.44896Q25.721888 217.76146 27.237513 217.76146L27.690638 217.76146L27.690638 222.05833Q28.628138 222.02708 29.206263 221.51146Q29.784388 220.98021 29.784388 220.16771Q29.784388 219.60521 29.550013 219.21458Q29.315638 218.80833 28.925013 218.49583L29.440638 217.83958Q30.675013 218.63646 30.675013 220.23021ZM24.987513 220.37083Q24.987513 221.02708 25.471888 221.48021Q25.940638 221.91771 26.800013 222.01146L26.800013 218.83958L26.721888 218.83958Q25.893763 218.88646 25.440638 219.29271Q24.987513 219.68333 24.987513 220.37083ZM29.784388 214.32396Q29.784388 213.74583 29.440638 213.30833Q29.081263 212.87083 28.550013 212.82396L28.550013 211.79271Q29.096888 211.82396 29.596888 212.18333Q30.081263 212.52708 30.378138 213.10521Q30.675013 213.66771 30.675013 214.32396Q30.675013 215.62083 29.815638 216.38646Q28.940638 217.13646 27.440638 217.13646L27.253138 217.13646Q26.331263 217.13646 25.612513 216.80833Q24.893763 216.46458 24.503138 215.83958Q24.096888 215.19896 24.096888 214.32396Q24.096888 213.26146 24.737513 212.55833Q25.362513 211.83958 26.393763 211.79271L26.393763 212.82396Q25.768763 212.87083 25.378138 213.29271Q24.987513 213.71458 24.987513 214.32396Q24.987513 215.15208 25.581263 215.60521Q26.175013 216.05833 27.300013 216.05833L27.503138 216.05833Q28.596888 216.05833 29.190638 215.60521Q29.784388 215.15208 29.784388 214.32396ZM22.675013 209.38646L24.206263 209.38646L24.206263 208.21458L25.050013 208.21458L25.050013 209.38646L28.971888 209.38646Q29.362513 209.38646 29.550013 209.23021Q29.737513 209.07396 29.737513 208.69896Q29.737513 208.51146 29.675013 208.18333L30.550013 208.18333Q30.675013 208.60521 30.675013 209.01146Q30.675013 209.73021 30.237513 210.10521Q29.784388 210.48021 28.971888 210.48021L25.050013 210.48021L25.050013 211.63646L24.206263 211.63646L24.206263 210.48021L22.675013 210.48021L22.675013 209.38646ZM30.675013 204.23021Q30.675013 205.52708 29.831263 206.33958Q28.971888 207.13646 27.550013 207.13646L27.362513 207.13646Q26.409388 207.13646 25.675013 206.77708Q24.925013 206.41771 24.518763 205.77708Q24.096888 205.12083 24.096888 204.37083Q24.096888 203.13646 24.909388 202.44896Q25.721888 201.76146 27.237513 201.76146L27.690638 201.76146L27.690638 206.05833Q28.628138 206.02708 29.206263 205.51146Q29.784388 204.98021 29.784388 204.16771Q29.784388 203.60521 29.550013 203.21458Q29.315638 202.80833 28.925013 202.49583L29.440638 201.83958Q30.675013 202.63646 30.675013 204.23021ZM24.987513 204.37083Q24.987513 205.02708 25.471888 205.48021Q25.940638 205.91771 26.800013 206.01146L26.800013 202.83958L26.721888 202.83958Q25.893763 202.88646 25.440638 203.29271Q24.987513 203.68333 24.987513 204.37083ZM27.331263 201.12083Q25.862513 201.12083 24.987513 200.43333Q24.096888 199.74583 24.096888 198.62083Q24.096888 197.51146 24.846888 196.85521L21.550013 196.85521L21.550013 195.77708L30.550013 195.77708L30.550013 196.77708L29.862513 196.82396Q30.675013 197.48021 30.675013 198.63646Q30.675013 199.73021 29.768763 200.43333Q28.862513 201.12083 27.409388 201.12083L27.331263 201.12083ZM27.456263 200.04271Q28.534388 200.04271 29.143763 199.60521Q29.753138 199.15208 29.753138 198.37083Q29.753138 197.33958 28.815638 196.85521L25.909388 196.85521Q25.018763 197.33958 25.018763 198.35521Q25.018763 199.15208 25.628138 199.60521Q26.237513 200.04271 27.456263 200.04271ZM27.096888 187.55833L27.096888 189.57396L30.550013 189.57396L30.550013 190.69896L22.018763 190.69896L22.018763 187.87083Q22.018763 186.43333 22.675013 185.66771Q23.331263 184.88646 24.581263 184.88646Q25.378138 184.88646 25.971888 185.32396Q26.565638 185.74583 26.862513 186.51146L30.471888 184.51146L30.550013 184.51146L30.550013 185.71458L27.096888 187.55833ZM26.175013 189.57396L26.175013 187.83958Q26.175013 186.99583 25.753138 186.51146Q25.315638 186.01146 24.581263 186.01146Q23.800013 186.01146 23.378138 186.48021Q22.956263 186.94896 22.940638 187.83958L22.940638 189.57396L26.175013 189.57396ZM27.315638 184.15208Q26.393763 184.15208 25.643763 183.79271Q24.893763 183.41771 24.503138 182.76146Q24.096888 182.10521 24.096888 181.27708Q24.096888 179.98021 24.987513 179.18333Q25.878138 178.37083 27.378138 178.37083L27.456263 178.37083Q28.378138 178.37083 29.112513 178.73021Q29.846888 179.08958 30.268763 179.74583Q30.675013 180.40208 30.675013 181.26146Q30.675013 182.54271 29.784388 183.35521Q28.878138 184.15208 27.393763 184.15208L27.315638 184.15208ZM27.456263 183.05833Q28.503138 183.05833 29.143763 182.57396Q29.784388 182.07396 29.784388 181.26146Q29.784388 180.43333 29.143763 179.94896Q28.487513 179.46458 27.315638 179.46458Q26.284388 179.46458 25.643763 179.96458Q24.987513 180.44896 24.987513 181.27708Q24.987513 182.07396 25.628138 182.57396Q26.253138 183.05833 27.456263 183.05833ZM22.675013 175.38646L24.206263 175.38646L24.206263 174.21458L25.050013 174.21458L25.050013 175.38646L28.971888 175.38646Q29.362513 175.38646 29.550013 175.23021Q29.737513 175.07396 29.737513 174.69896Q29.737513 174.51146 29.675013 174.18333L30.550013 174.18333Q30.675013 174.60521 30.675013 175.01146Q30.675013 175.73021 30.237513 176.10521Q29.784388 176.48021 28.971888 176.48021L25.050013 176.48021L25.050013 177.63646L24.206263 177.63646L24.206263 176.48021L22.675013 176.48021L22.675013 175.38646ZM27.315638 173.15208Q26.393763 173.15208 25.643763 172.79271Q24.893763 172.41771 24.503138 171.76146Q24.096888 171.10521 24.096888 170.27708Q24.096888 168.98021 24.987513 168.18333Q25.878138 167.37083 27.378138 167.37083L27.456263 167.37083Q28.378138 167.37083 29.112513 167.73021Q29.846888 168.08958 30.268763 168.74583Q30.675013 169.40208 30.675013 170.26146Q30.675013 171.54271 29.784388 172.35521Q28.878138 173.15208 27.393763 173.15208L27.315638 173.15208ZM27.456263 172.05833Q28.503138 172.05833 29.143763 171.57396Q29.784388 171.07396 29.784388 170.26146Q29.784388 169.43333 29.143763 168.94896Q28.487513 168.46458 27.315638 168.46458Q26.284388 168.46458 25.643763 168.96458Q24.987513 169.44896 24.987513 170.27708Q24.987513 171.07396 25.628138 171.57396Q26.253138 172.05833 27.456263 172.05833ZM27.206263 161.57396L30.550013 161.57396L30.550013 162.69896L22.018763 162.69896L22.018763 159.54271Q22.018763 158.15208 22.737513 157.35521Q23.440638 156.55833 24.628138 156.55833Q25.862513 156.55833 26.534388 157.33958Q27.206263 158.10521 27.206263 159.55833L27.206263 161.57396ZM26.284388 161.57396L26.284388 159.54271Q26.284388 158.63646 25.862513 158.16771Q25.440638 157.68333 24.643763 157.68333Q23.878138 157.68333 23.425013 158.16771Q22.956263 158.63646 22.940638 159.48021L22.940638 161.57396L26.284388 161.57396ZM27.315638 155.15208Q26.393763 155.15208 25.643763 154.79271Q24.893763 154.41771 24.503138 153.76146Q24.096888 153.10521 24.096888 152.27708Q24.096888 150.98021 24.987513 150.18333Q25.878138 149.37083 27.378138 149.37083L27.456263 149.37083Q28.378138 149.37083 29.112513 149.73021Q29.846888 150.08958 30.268763 150.74583Q30.675013 151.40208 30.675013 152.26146Q30.675013 153.54271 29.784388 154.35521Q28.878138 155.15208 27.393763 155.15208L27.315638 155.15208ZM27.456263 154.05833Q28.503138 154.05833 29.143763 153.57396Q29.784388 153.07396 29.784388 152.26146Q29.784388 151.43333 29.143763 150.94896Q28.487513 150.46458 27.315638 150.46458Q26.284388 150.46458 25.643763 150.96458Q24.987513 151.44896 24.987513 152.27708Q24.987513 153.07396 25.628138 153.57396Q26.253138 154.05833 27.456263 154.05833ZM30.550013 146.68333L30.550013 147.76146L24.206263 147.76146L24.206263 146.68333L30.550013 146.68333ZM22.534388 147.85521Q22.268763 147.85521 22.081263 147.69896Q21.893763 147.52708 21.893763 147.21458Q21.893763 146.90208 22.081263 146.74583Q22.268763 146.57396 22.534388 146.57396Q22.784388 146.57396 22.971888 146.74583Q23.143763 146.90208 23.143763 147.21458Q23.143763 147.52708 22.971888 147.69896Q22.784388 147.85521 22.534388 147.85521ZM24.206263 143.83958L25.003138 143.80833Q24.096888 143.07396 24.096888 141.90208Q24.096888 139.88646 26.362513 139.87083L30.550013 139.87083L30.550013 140.96458L26.346888 140.96458Q25.675013 140.96458 25.346888 141.27708Q25.018763 141.57396 25.018763 142.23021Q25.018763 142.76146 25.300013 143.16771Q25.581263 143.55833 26.034388 143.77708L30.550013 143.77708L30.550013 144.85521L24.206263 144.85521L24.206263 143.83958ZM22.675013 136.38646L24.206263 136.38646L24.206263 135.21458L25.050013 135.21458L25.050013 136.38646L28.971888 136.38646Q29.362513 136.38646 29.550013 136.23021Q29.737513 136.07396 29.737513 135.69896Q29.737513 135.51146 29.675013 135.18333L30.550013 135.18333Q30.675013 135.60521 30.675013 136.01146Q30.675013 136.73021 30.237513 137.10521Q29.784388 137.48021 28.971888 137.48021L25.050013 137.48021L25.050013 138.63646L24.206263 138.63646L24.206263 137.48021L22.675013 137.48021L22.675013 136.38646ZM28.862513 130.16771Q28.425013 130.16771 28.190638 130.51146Q27.940638 130.83958 27.768763 131.66771Q27.596888 132.48021 27.346888 132.96458Q27.096888 133.44896 26.768763 133.68333Q26.425013 133.90208 25.956263 133.90208Q25.175013 133.90208 24.643763 133.24583Q24.096888 132.58958 24.096888 131.55833Q24.096888 130.48021 24.659388 129.82396Q25.206263 129.15208 26.065638 129.15208L26.065638 130.23021Q25.628138 130.23021 25.315638 130.62083Q24.987513 130.99583 24.987513 131.55833Q24.987513 132.15208 25.253138 132.49583Q25.503138 132.82396 25.909388 132.82396Q26.300013 132.82396 26.503138 132.51146Q26.706263 132.19896 26.893763 131.38646Q27.065638 130.57396 27.315638 130.07396Q27.565638 129.57396 27.925013 129.33958Q28.284388 129.08958 28.784388 129.08958Q29.643763 129.08958 30.159388 129.77708Q30.675013 130.44896 30.675013 131.52708Q30.675013 132.29271 30.409388 132.88646Q30.128138 133.46458 29.643763 133.79271Q29.159388 134.12083 28.596888 134.12083L28.596888 133.04271Q29.143763 133.01146 29.471888 132.60521Q29.784388 132.19896 29.784388 131.52708Q29.784388 130.91771 29.534388 130.54271Q29.284388 130.16771 28.862513 130.16771Z" fill-rule="nonzero"/><path fill="#757575" d="M65.62813 299.7625L62.76875 299.7625L62.76875 298.8875L65.62813 298.8875L65.62813 299.7625ZM71.44063 296.6375Q71.44063 297.27814 71.09688 297.77814Q70.75313 298.27814 70.19063 298.5594Q70.84688 298.84064 71.2375 299.40314Q71.62813 299.95 71.62813 300.65314Q71.62813 301.7469 70.87813 302.41876Q70.14375 303.075 68.925 303.075Q67.69063 303.075 66.94063 302.41876Q66.20625 301.7469 66.20625 300.65314Q66.20625 299.95 66.58125 299.40314Q66.95625 298.84064 67.62813 298.5594Q67.06563 298.27814 66.7375 297.77814Q66.40938 297.27814 66.40938 296.6375Q66.40938 295.5594 67.09688 294.9344Q67.78438 294.29376 68.925 294.29376Q70.05 294.29376 70.7375 294.9344Q71.44063 295.5594 71.44063 296.6375ZM70.55 300.6219Q70.55 299.90314 70.09688 299.46564Q69.64375 299.0125 68.90938 299.0125Q68.175 299.0125 67.72188 299.46564Q67.28438 299.90314 67.28438 300.6375Q67.28438 301.35626 67.72188 301.77814Q68.15938 302.1844 68.925 302.1844Q69.675 302.1844 70.1125 301.7625Q70.55 301.34064 70.55 300.6219ZM68.925 295.1844Q68.28438 295.1844 67.87813 295.59064Q67.4875 295.98126 67.4875 296.66876Q67.4875 297.3094 67.87813 297.71564Q68.26875 298.1219 68.90938 298.1219Q69.56563 298.1219 69.95625 297.71564Q70.34688 297.3094 70.34688 296.66876Q70.34688 296.0125 69.94063 295.60626Q69.53438 295.1844 68.925 295.1844Z" fill-rule="nonzero"/><path fill="#757575" d="M65.62813 260.4236L62.76875 260.4236L62.76875 259.5486L65.62813 259.5486L65.62813 260.4236ZM70.51875 255.07986L70.51875 255.98611L70.31563 255.98611Q69.05 256.01736 68.3 256.75174Q67.55 257.4705 67.425 258.783Q68.1125 258.01736 69.26875 258.01736Q70.37813 258.01736 71.05 258.7986Q71.72188 259.57986 71.72188 260.82986Q71.72188 262.14236 71.00313 262.93924Q70.28438 263.7361 69.06563 263.7361Q67.84688 263.7361 67.08125 262.7986Q66.33125 261.8455 66.33125 260.3611L66.33125 259.95486Q66.33125 257.5955 67.33125 256.3455Q68.33125 255.09549 70.31563 255.07986L70.51875 255.07986ZM69.09688 258.9236Q68.53438 258.9236 68.06563 259.25174Q67.59688 259.57986 67.40938 260.0955L67.40938 260.4861Q67.40938 261.5486 67.87813 262.18924Q68.3625 262.82986 69.06563 262.82986Q69.8 262.82986 70.22188 262.2986Q70.64375 261.75174 70.64375 260.87674Q70.64375 260.00174 70.22188 259.4705Q69.8 258.9236 69.09688 258.9236Z" fill-rule="nonzero"/><path fill="#757575" d="M65.62813 221.08472L62.76875 221.08472L62.76875 220.20972L65.62813 220.20972L65.62813 221.08472ZM70.83125 221.41284L72.01875 221.41284L72.01875 222.28784L70.83125 222.28784L70.83125 224.27222L69.75313 224.27222L69.75313 222.28784L65.8625 222.28784L65.8625 221.64722L69.675 215.74097L70.83125 215.74097L70.83125 221.41284ZM67.09688 221.41284L69.75313 221.41284L69.75313 217.22534L69.6125 217.45972L67.09688 221.41284Z" fill-rule="nonzero"/><path fill="#757575" d="M65.62813 181.74583L62.76875 181.74583L62.76875 180.87083L65.62813 180.87083L65.62813 181.74583ZM71.84688 184.93333L66.25313 184.93333L66.25313 184.15208L69.20625 180.87083Q69.8625 180.12083 70.1125 179.66771Q70.3625 179.19896 70.3625 178.69896Q70.3625 178.02708 69.95625 177.60521Q69.56563 177.16771 68.87813 177.16771Q68.08125 177.16771 67.62813 177.63646Q67.175 178.08958 67.175 178.91771L66.09688 178.91771Q66.09688 177.73021 66.84688 177.01146Q67.6125 176.27708 68.87813 176.27708Q70.08125 176.27708 70.76875 176.90208Q71.45625 177.52708 71.45625 178.57396Q71.45625 179.82396 69.84688 181.57396L67.56563 184.04271L71.84688 184.04271L71.84688 184.93333Z" fill-rule="nonzero"/><path fill="#757575" d="M71.6125 141.95383Q71.6125 143.86008 70.95625 144.79758Q70.31563 145.71945 68.925 145.71945Q67.56563 145.71945 66.90938 144.8132Q66.25313 143.90695 66.22188 142.09445L66.22188 140.65695Q66.22188 138.76633 66.8625 137.86008Q67.51875 136.9382 68.90938 136.9382Q70.28438 136.9382 70.94063 137.82883Q71.59688 138.70383 71.6125 140.54758L71.6125 141.95383ZM70.51875 140.46945Q70.51875 139.09445 70.12813 138.46945Q69.75313 137.82883 68.90938 137.82883Q68.08125 137.82883 67.69063 138.46945Q67.31563 139.09445 67.31563 140.39133L67.31563 142.1257Q67.31563 143.5007 67.70625 144.17258Q68.1125 144.82883 68.925 144.82883Q69.72188 144.82883 70.1125 144.20383Q70.50313 143.57883 70.51875 142.2507L70.51875 140.46945Z" fill-rule="nonzero"/><path fill="#757575" d="M71.84688 106.255554L66.25313 106.255554L66.25313 105.474304L69.20625 102.193054Q69.8625 101.443054 70.1125 100.98993Q70.3625 100.52118 70.3625 100.02118Q70.3625 99.349304 69.95625 98.92743Q69.56563 98.48993 68.87813 98.48993Q68.08125 98.48993 67.62813 98.95868Q67.175 99.411804 67.175 100.23993L66.09688 100.23993Q66.09688 99.05243 66.84688 98.33368Q67.6125 97.599304 68.87813 97.599304Q70.08125 97.599304 70.76875 98.224304Q71.45625 98.849304 71.45625 99.89618Q71.45625 101.14618 69.84688 102.89618L67.56563 105.36493L71.84688 105.36493L71.84688 106.255554Z" fill-rule="nonzero"/><path fill="#757575" d="M70.83125 64.05729L72.01875 64.05729L72.01875 64.93229L70.83125 64.93229L70.83125 66.916664L69.75313 66.916664L69.75313 64.93229L65.8625 64.93229L65.8625 64.291664L69.675 58.385414L70.83125 58.385414L70.83125 64.05729ZM67.09688 64.05729L69.75313 64.05729L69.75313 59.86979L69.6125 60.104164L67.09688 64.05729Z" fill-rule="nonzero"/><path fill="#757575" d="M81.1125 312.8094Q81.1125 314.71564 80.45625 315.65314Q79.81563 316.575 78.425 316.575Q77.06563 316.575 76.40938 315.66876Q75.75313 314.7625 75.72188 312.95L75.72188 311.5125Q75.72188 309.6219 76.3625 308.71564Q77.01875 307.79376 78.40938 307.79376Q79.78438 307.79376 80.44063 308.6844Q81.09688 309.5594 81.1125 311.40314L81.1125 312.8094ZM80.01875 311.325Q80.01875 309.95 79.62813 309.325Q79.25313 308.6844 78.40938 308.6844Q77.58125 308.6844 77.19063 309.325Q76.81563 309.95 76.81563 311.2469L76.81563 312.98126Q76.81563 314.35626 77.20625 315.02814Q77.6125 315.6844 78.425 315.6844Q79.22188 315.6844 79.6125 315.0594Q80.00313 314.4344 80.01875 313.10626L80.01875 311.325Z" fill-rule="nonzero"/><path fill="#757575" d="M198.3375 312.8094Q198.3375 314.71564 197.68124 315.65314Q197.04062 316.575 195.65 316.575Q194.29062 316.575 193.63437 315.66876Q192.97812 314.7625 192.94687 312.95L192.94687 311.5125Q192.94687 309.6219 193.5875 308.71564Q194.24374 307.79376 195.63437 307.79376Q197.00937 307.79376 197.66562 308.6844Q198.32187 309.5594 198.3375 311.40314L198.3375 312.8094ZM197.24374 311.325Q197.24374 309.95 196.85312 309.325Q196.47812 308.6844 195.63437 308.6844Q194.80624 308.6844 194.41562 309.325Q194.04062 309.95 194.04062 311.2469L194.04062 312.98126Q194.04062 314.35626 194.43124 315.02814Q194.8375 315.6844 195.65 315.6844Q196.44687 315.6844 196.8375 315.0594Q197.22812 314.4344 197.24374 313.10626L197.24374 311.325ZM200.11874 315.8875Q200.11874 315.60626 200.275 315.41876Q200.44687 315.23126 200.775 315.23126Q201.11874 315.23126 201.29062 315.41876Q201.4625 315.60626 201.4625 315.8875Q201.4625 316.15314 201.29062 316.34064Q201.11874 316.5125 200.775 316.5125Q200.44687 316.5125 200.275 316.34064Q200.11874 316.15314 200.11874 315.8875ZM208.57187 316.45L202.97812 316.45L202.97812 315.66876L205.93124 312.3875Q206.5875 311.6375 206.8375 311.1844Q207.0875 310.71564 207.0875 310.21564Q207.0875 309.54376 206.68124 309.1219Q206.29062 308.6844 205.60312 308.6844Q204.80624 308.6844 204.35312 309.15314Q203.9 309.60626 203.9 310.4344L202.82187 310.4344Q202.82187 309.2469 203.57187 308.52814Q204.3375 307.79376 205.60312 307.79376Q206.80624 307.79376 207.49374 308.41876Q208.18124 309.04376 208.18124 310.09064Q208.18124 311.34064 206.57187 313.09064L204.29062 315.5594L208.57187 315.5594L208.57187 316.45ZM210.47812 312.16876L210.91562 307.91876L215.29062 307.91876L215.29062 308.91876L211.8375 308.91876L211.57187 311.2469Q212.2125 310.8719 213.00937 310.8719Q214.16562 310.8719 214.85312 311.65314Q215.54062 312.41876 215.54062 313.73126Q215.54062 315.04376 214.82187 315.8094Q214.11874 316.575 212.8375 316.575Q211.7125 316.575 210.99374 315.95Q210.275 315.3094 210.18124 314.2L211.19687 314.2Q211.30624 314.9344 211.72812 315.3094Q212.15 315.6844 212.8375 315.6844Q213.5875 315.6844 214.025 315.16876Q214.4625 314.65314 214.4625 313.7469Q214.4625 312.8875 213.99374 312.3719Q213.525 311.85626 212.74374 311.85626Q212.04062 311.85626 211.63437 312.15314L211.35312 312.3875L210.47812 312.16876Z" fill-rule="nonzero"/><path fill="#757575" d="M327.5625 312.8094Q327.5625 314.71564 326.90625 315.65314Q326.26562 316.575 324.875 316.575Q323.51562 316.575 322.85938 315.66876Q322.20312 314.7625 322.17188 312.95L322.17188 311.5125Q322.17188 309.6219 322.8125 308.71564Q323.46875 307.79376 324.85938 307.79376Q326.23438 307.79376 326.89062 308.6844Q327.54688 309.5594 327.5625 311.40314L327.5625 312.8094ZM326.46875 311.325Q326.46875 309.95 326.07812 309.325Q325.70312 308.6844 324.85938 308.6844Q324.03125 308.6844 323.64062 309.325Q323.26562 309.95 323.26562 311.2469L323.26562 312.98126Q323.26562 314.35626 323.65625 315.02814Q324.0625 315.6844 324.875 315.6844Q325.67188 315.6844 326.0625 315.0594Q326.45312 314.4344 326.46875 313.10626L326.46875 311.325ZM329.34375 315.8875Q329.34375 315.60626 329.5 315.41876Q329.67188 315.23126 330.0 315.23126Q330.34375 315.23126 330.51562 315.41876Q330.6875 315.60626 330.6875 315.8875Q330.6875 316.15314 330.51562 316.34064Q330.34375 316.5125 330.0 316.5125Q329.67188 316.5125 329.5 316.34064Q329.34375 316.15314 329.34375 315.8875ZM332.70312 312.16876L333.14062 307.91876L337.51562 307.91876L337.51562 308.91876L334.0625 308.91876L333.79688 311.2469Q334.4375 310.8719 335.23438 310.8719Q336.39062 310.8719 337.07812 311.65314Q337.76562 312.41876 337.76562 313.73126Q337.76562 315.04376 337.04688 315.8094Q336.34375 316.575 335.0625 316.575Q333.9375 316.575 333.21875 315.95Q332.5 315.3094 332.40625 314.2L333.42188 314.2Q333.53125 314.9344 333.95312 315.3094Q334.375 315.6844 335.0625 315.6844Q335.8125 315.6844 336.25 315.16876Q336.6875 314.65314 336.6875 313.7469Q336.6875 312.8875 336.21875 312.3719Q335.75 311.85626 334.96875 311.85626Q334.26562 311.85626 333.85938 312.15314L333.57812 312.3875L332.70312 312.16876Z" fill-rule="nonzero"/><path fill="#757575" d="M449.7875 312.8094Q449.7875 314.71564 449.13126 315.65314Q448.49063 316.575 447.1 316.575Q445.74063 316.575 445.08438 315.66876Q444.42813 314.7625 444.39688 312.95L444.39688 311.5125Q444.39688 309.6219 445.0375 308.71564Q445.69376 307.79376 447.08438 307.79376Q448.45938 307.79376 449.11563 308.6844Q449.77188 309.5594 449.7875 311.40314L449.7875 312.8094ZM448.69376 311.325Q448.69376 309.95 448.30313 309.325Q447.92813 308.6844 447.08438 308.6844Q446.25626 308.6844 445.86563 309.325Q445.49063 309.95 445.49063 311.2469L445.49063 312.98126Q445.49063 314.35626 445.88126 315.02814Q446.2875 315.6844 447.1 315.6844Q447.89688 315.6844 448.2875 315.0594Q448.67813 314.4344 448.69376 313.10626L448.69376 311.325ZM451.56876 315.8875Q451.56876 315.60626 451.725 315.41876Q451.89688 315.23126 452.225 315.23126Q452.56876 315.23126 452.74063 315.41876Q452.9125 315.60626 452.9125 315.8875Q452.9125 316.15314 452.74063 316.34064Q452.56876 316.5125 452.225 316.5125Q451.89688 316.5125 451.725 316.34064Q451.56876 316.15314 451.56876 315.8875ZM459.94376 308.52814L456.4125 316.45L455.27188 316.45L458.7875 308.8094L454.17813 308.8094L454.17813 307.91876L459.94376 307.91876L459.94376 308.52814ZM461.92813 312.16876L462.36563 307.91876L466.74063 307.91876L466.74063 308.91876L463.2875 308.91876L463.02188 311.2469Q463.6625 310.8719 464.45938 310.8719Q465.61563 310.8719 466.30313 311.65314Q466.99063 312.41876 466.99063 313.73126Q466.99063 315.04376 466.27188 315.8094Q465.56876 316.575 464.2875 316.575Q463.1625 316.575 462.44376 315.95Q461.725 315.3094 461.63126 314.2L462.64688 314.2Q462.75626 314.9344 463.17813 315.3094Q463.6 315.6844 464.2875 315.6844Q465.0375 315.6844 465.475 315.16876Q465.9125 314.65314 465.9125 313.7469Q465.9125 312.8875 465.44376 312.3719Q464.975 311.85626 464.19376 311.85626Q463.49063 311.85626 463.08438 312.15314L462.80313 312.3875L461.92813 312.16876Z" fill-rule="nonzero"/><path fill="#757575" d="M582.21564 316.45L581.1375 316.45L581.1375 309.23126L578.95 310.02814L578.95 309.04376L582.0594 307.8719L582.21564 307.8719L582.21564 316.45Z" fill-rule="nonzero"/><path fill="#757575" d="M20.8 37.55L20.8 28.378124L19.14375 28.378124L19.14375 26.9875L20.8 26.9875L20.8 25.89375Q20.8 24.20625 21.70625 23.284374Q22.628124 22.346874 24.284374 22.346874Q24.909374 22.346874 25.51875 22.503124L25.425 23.971874Q24.971874 23.89375 24.45625 23.89375Q23.565624 23.89375 23.08125 24.409374Q22.6125 24.909374 22.6125 25.8625L22.6125 26.9875L24.8625 26.9875L24.8625 28.378124L22.6125 28.378124L22.6125 37.55L20.8 37.55ZM29.3625 24.425L29.3625 26.9875L31.346874 26.9875L31.346874 28.378124L29.3625 28.378124L29.3625 34.925Q29.3625 35.565624 29.628124 35.89375Q29.89375 36.20625 30.534374 36.20625Q30.846874 36.20625 31.39375 36.08125L31.39375 37.55Q30.675 37.753124 30.003124 37.753124Q28.8 37.753124 28.175 37.01875Q27.565624 36.284374 27.565624 34.925L27.565624 28.378124L25.64375 28.378124L25.64375 26.9875L27.565624 26.9875L27.565624 24.425L29.3625 24.425ZM33.58125 26.065624Q33.58125 24.784374 34.39375 23.95625Q35.20625 23.128124 36.4875 23.128124Q37.784374 23.128124 38.58125 23.971874Q39.39375 24.8 39.39375 26.128124L39.39375 26.815624Q39.39375 28.1125 38.58125 28.925Q37.76875 29.7375 36.503124 29.7375Q35.2375 29.7375 34.409374 28.925Q33.58125 28.1125 33.58125 26.753124L33.58125 26.065624ZM34.925 26.815624Q34.925 27.58125 35.346874 28.08125Q35.784374 28.565624 36.503124 28.565624Q37.20625 28.565624 37.628124 28.096874Q38.05 27.6125 38.05 26.784374L38.05 26.065624Q38.05 25.3 37.628124 24.8Q37.20625 24.3 36.4875 24.3Q35.76875 24.3 35.346874 24.8Q34.925 25.3 34.925 26.096874L34.925 26.815624ZM40.503124 34.065624Q40.503124 32.784374 41.315624 31.95625Q42.128124 31.128124 43.409374 31.128124Q44.690624 31.128124 45.503124 31.95625Q46.33125 32.76875 46.33125 34.128124L46.33125 34.83125Q46.33125 36.096874 45.51875 36.925Q44.70625 37.753124 43.425 37.753124Q42.159374 37.753124 41.33125 36.940624Q40.503124 36.128124 40.503124 34.76875L40.503124 34.065624ZM41.846874 34.83125Q41.846874 35.596874 42.26875 36.096874Q42.70625 36.58125 43.425 36.58125Q44.128124 36.58125 44.55 36.096874Q44.971874 35.6125 44.971874 34.784374L44.971874 34.065624Q44.971874 33.284374 44.55 32.8Q44.128124 32.315624 43.409374 32.315624Q42.721874 32.315624 42.284374 32.8Q41.846874 33.284374 41.846874 34.096874L41.846874 34.83125ZM36.909374 36.471874L35.89375 35.83125L42.83125 24.721874L43.8625 25.3625L36.909374 36.471874ZM60.440624 37.55Q60.284374 37.2375 60.190624 36.440624Q58.925 37.753124 57.175 37.753124Q55.6125 37.753124 54.6125 36.8625Q53.6125 35.971874 53.6125 34.6125Q53.6125 32.971874 54.8625 32.065624Q56.128124 31.14375 58.39375 31.14375L60.159374 31.14375L60.159374 30.315624Q60.159374 29.3625 59.58125 28.8Q59.01875 28.2375 57.925 28.2375Q56.95625 28.2375 56.3 28.7375Q55.64375 29.221874 55.64375 29.909374L53.83125 29.909374Q53.83125 29.128124 54.39375 28.39375Q54.95625 27.64375 55.909374 27.221874Q56.878124 26.784374 58.034374 26.784374Q59.8625 26.784374 60.89375 27.70625Q61.925 28.6125 61.971874 30.221874L61.971874 35.08125Q61.971874 36.534374 62.33125 37.39375L62.33125 37.55L60.440624 37.55ZM57.440624 36.175Q58.3 36.175 59.05 35.7375Q59.815624 35.3 60.159374 34.596874L60.159374 32.425L58.7375 32.425Q55.425 32.425 55.425 34.3625Q55.425 35.221874 55.9875 35.70625Q56.55 36.175 57.440624 36.175ZM66.62813 26.9875L66.69063 28.315624Q67.89375 26.784374 69.84688 26.784374Q73.20625 26.784374 73.22188 30.565624L73.22188 37.55L71.425 37.55L71.425 30.55Q71.40938 29.409374 70.89375 28.8625Q70.39375 28.315624 69.3 28.315624Q68.425 28.315624 67.75313 28.784374Q67.09688 29.253124 66.72188 30.01875L66.72188 37.55L64.925 37.55L64.925 26.9875L66.62813 26.9875ZM75.47188 32.175Q75.47188 29.753124 76.62813 28.26875Q77.78438 26.784374 79.64375 26.784374Q81.50313 26.784374 82.58125 28.05L82.58125 22.55L84.39375 22.55L84.39375 37.55L82.7375 37.55L82.64375 36.409374Q81.56563 37.753124 79.62813 37.753124Q77.8 37.753124 76.62813 36.253124Q75.47188 34.7375 75.47188 32.315624L75.47188 32.175ZM77.28438 32.378124Q77.28438 34.175 78.01875 35.190624Q78.76875 36.20625 80.08125 36.20625Q81.8 36.20625 82.58125 34.675L82.58125 29.815624Q81.78438 28.315624 80.09688 28.315624Q78.76875 28.315624 78.01875 29.346874Q77.28438 30.378124 77.28438 32.378124ZM97.01875 28.596874Q96.6125 28.534374 96.14375 28.534374Q94.3625 28.534374 93.72188 30.05L93.72188 37.55L91.925 37.55L91.925 26.9875L93.675 26.9875L93.70625 28.20625Q94.59688 26.784374 96.22188 26.784374Q96.75313 26.784374 97.01875 26.925L97.01875 28.596874ZM98.44063 32.175Q98.44063 30.6125 99.05 29.378124Q99.65938 28.128124 100.7375 27.45625Q101.83125 26.784374 103.2375 26.784374Q105.39375 26.784374 106.72188 28.284374Q108.06563 29.76875 108.06563 32.253124L108.06563 32.378124Q108.06563 33.925 107.47188 35.159374Q106.87813 36.378124 105.76875 37.065624Q104.675 37.753124 103.25313 37.753124Q101.1125 37.753124 99.76875 36.253124Q98.44063 34.753124 98.44063 32.3L98.44063 32.175ZM100.25313 32.378124Q100.25313 34.14375 101.06563 35.20625Q101.89375 36.26875 103.25313 36.26875Q104.62813 36.26875 105.44063 35.190624Q106.25313 34.1125 106.25313 32.175Q106.25313 30.425 105.425 29.346874Q104.59688 28.26875 103.2375 28.26875Q101.89375 28.26875 101.06563 29.33125Q100.25313 30.39375 100.25313 32.378124ZM112.3625 24.425L112.3625 26.9875L114.34688 26.9875L114.34688 28.378124L112.3625 28.378124L112.3625 34.925Q112.3625 35.565624 112.62813 35.89375Q112.89375 36.20625 113.53438 36.20625Q113.84688 36.20625 114.39375 36.08125L114.39375 37.55Q113.675 37.753124 113.00313 37.753124Q111.8 37.753124 111.175 37.01875Q110.56563 36.284374 110.56563 34.925L110.56563 28.378124L108.64375 28.378124L108.64375 26.9875L110.56563 26.9875L110.56563 24.425L112.3625 24.425ZM116.44063 32.175Q116.44063 30.6125 117.05 29.378124Q117.65938 28.128124 118.7375 27.45625Q119.83125 26.784374 121.2375 26.784374Q123.39375 26.784374 124.72188 28.284374Q126.06563 29.76875 126.06563 32.253124L126.06563 32.378124Q126.06563 33.925 125.47188 35.159374Q124.87813 36.378124 123.76875 37.065624Q122.675 37.753124 121.25313 37.753124Q119.1125 37.753124 117.76875 36.253124Q116.44063 34.753124 116.44063 32.3L116.44063 32.175ZM118.25313 32.378124Q118.25313 34.14375 119.06563 35.20625Q119.89375 36.26875 121.25313 36.26875Q122.62813 36.26875 123.44063 35.190624Q124.25313 34.1125 124.25313 32.175Q124.25313 30.425 123.425 29.346874Q122.59688 28.26875 121.2375 28.26875Q119.89375 28.26875 119.06563 29.33125Q118.25313 30.39375 118.25313 32.378124ZM141.84688 32.378124Q141.84688 34.8 140.7375 36.284374Q139.64375 37.753124 137.75313 37.753124Q135.83125 37.753124 134.72188 36.51875L134.72188 41.6125L132.925 41.6125L132.925 26.9875L134.56563 26.9875L134.65938 28.159374Q135.75313 26.784374 137.72188 26.784374Q139.62813 26.784374 140.7375 28.221874Q141.84688 29.659374 141.84688 32.221874L141.84688 32.378124ZM140.03438 32.175Q140.03438 30.39375 139.26875 29.3625Q138.51875 28.315624 137.19063 28.315624Q135.55 28.315624 134.72188 29.76875L134.72188 34.83125Q135.53438 36.26875 137.20625 36.26875Q138.50313 36.26875 139.26875 35.2375Q140.03438 34.20625 140.03438 32.175ZM143.44063 32.175Q143.44063 30.6125 144.05 29.378124Q144.65938 28.128124 145.7375 27.45625Q146.83125 26.784374 148.2375 26.784374Q150.39375 26.784374 151.72188 28.284374Q153.06563 29.76875 153.06563 32.253124L153.06563 32.378124Q153.06563 33.925 152.47188 35.159374Q151.87813 36.378124 150.76875 37.065624Q149.675 37.753124 148.25313 37.753124Q146.1125 37.753124 144.76875 36.253124Q143.44063 34.753124 143.44063 32.3L143.44063 32.175ZM145.25313 32.378124Q145.25313 34.14375 146.06563 35.20625Q146.89375 36.26875 148.25313 36.26875Q149.62813 36.26875 150.44063 35.190624Q151.25313 34.1125 151.25313 32.175Q151.25313 30.425 150.425 29.346874Q149.59688 28.26875 148.2375 28.26875Q146.89375 28.26875 146.06563 29.33125Q145.25313 30.39375 145.25313 32.378124ZM156.87813 37.55L155.08125 37.55L155.08125 26.9875L156.87813 26.9875L156.87813 37.55ZM154.925 24.175Q154.925 23.7375 155.19063 23.440624Q155.47188 23.128124 155.9875 23.128124Q156.51875 23.128124 156.78438 23.440624Q157.06563 23.7375 157.06563 24.175Q157.06563 24.6125 156.78438 24.909374Q156.51875 25.20625 155.9875 25.20625Q155.47188 25.20625 155.19063 24.909374Q154.925 24.6125 154.925 24.175ZM161.62813 26.9875L161.69063 28.315624Q162.89375 26.784374 164.84688 26.784374Q168.20625 26.784374 168.22188 30.565624L168.22188 37.55L166.425 37.55L166.425 30.55Q166.40938 29.409374 165.89375 28.8625Q165.39375 28.315624 164.3 28.315624Q163.425 28.315624 162.75313 28.784374Q162.09688 29.253124 161.72188 30.01875L161.72188 37.55L159.925 37.55L159.925 26.9875L161.62813 26.9875ZM173.3625 24.425L173.3625 26.9875L175.34688 26.9875L175.34688 28.378124L173.3625 28.378124L173.3625 34.925Q173.3625 35.565624 173.62813 35.89375Q173.89375 36.20625 174.53438 36.20625Q174.84688 36.20625 175.39375 36.08125L175.39375 37.55Q174.675 37.753124 174.00313 37.753124Q172.8 37.753124 172.175 37.01875Q171.56563 36.284374 171.56563 34.925L171.56563 28.378124L169.64375 28.378124L169.64375 26.9875L171.56563 26.9875L171.56563 24.425L173.3625 24.425ZM184.06563 34.753124Q184.06563 34.01875 183.51875 33.6125Q182.97188 33.20625 181.59688 32.909374Q180.22188 32.6125 179.40938 32.20625Q178.6125 31.8 178.22188 31.2375Q177.84688 30.659374 177.84688 29.878124Q177.84688 28.58125 178.94063 27.690624Q180.03438 26.784374 181.75313 26.784374Q183.55 26.784374 184.65938 27.721874Q185.78438 28.64375 185.78438 30.08125L183.95625 30.08125Q183.95625 29.346874 183.33125 28.815624Q182.70625 28.26875 181.75313 28.26875Q180.75313 28.26875 180.19063 28.70625Q179.64375 29.128124 179.64375 29.83125Q179.64375 30.471874 180.15938 30.815624Q180.675 31.14375 182.03438 31.45625Q183.39375 31.753124 184.22188 32.175Q185.06563 32.58125 185.47188 33.175Q185.87813 33.76875 185.87813 34.6125Q185.87813 36.034374 184.7375 36.89375Q183.6125 37.753124 181.8 37.753124Q180.53438 37.753124 179.55 37.3Q178.58125 36.846874 178.01875 36.05Q177.47188 35.2375 177.47188 34.3L179.28438 34.3Q179.33125 35.20625 180.00313 35.7375Q180.69063 36.26875 181.8 36.26875Q182.83125 36.26875 183.44063 35.8625Q184.06563 35.440624 184.06563 34.753124Z" fill-rule="nonzero"/></svg>